<svg width="33" height="32" viewBox="0 0 33 32" fill="none" xmlns="http://www.w3.org/2000/svg">
<path d="M10.0481 19.8036C6.02108 21.1892 2.25084 19.1483 0.754241 16.0668C-0.0174952 14.4799 -0.204131 12.6714 0.227249 10.9603C0.658628 9.24927 1.68032 7.74545 3.11215 6.71407C5.95822 4.65308 10.5256 4.70791 13.3716 8.16386C14.4744 7.19779 15.7488 6.44741 17.1285 5.95173C23.5482 3.67006 30.6246 7.75059 31.8337 14.4391C32.9571 20.6435 28.9007 26.5082 22.7284 27.546C21.8162 27.6998 20.8693 27.6651 19.9385 27.6798C19.6309 27.6798 19.5145 27.7707 19.4169 28.0503C18.9958 29.2645 18.1882 30.3071 17.1177 31.0183C16.0473 31.7295 14.7732 32.07 13.4907 31.9877C10.8987 31.8192 8.62507 29.8772 8.13691 27.2919C7.70491 24.9755 8.43515 23.0121 10.2768 21.5155C10.555 21.2882 10.67 21.1237 10.4774 20.7839C10.3403 20.4999 10.2227 20.2067 10.1257 19.9066C10.1029 19.87 10.077 19.8356 10.0481 19.8036ZM19.7673 26.5416C23.6459 27.1528 28.4981 24.8671 30.3063 20.1219C31.1448 17.9128 31.1849 15.4801 30.4198 13.2446C29.6546 11.009 28.1323 9.11108 26.1161 7.87898C21.8978 5.29906 16.5614 6.1042 13.2112 9.83566C10.0896 13.313 10.234 18.1973 11.657 20.6689C15.9596 19.0934 19.9933 22.3233 19.7673 26.5416ZM12.5531 8.97033C12.5425 8.92777 12.5273 8.88651 12.5077 8.84729C11.0097 6.85316 8.21849 5.9183 5.80174 6.60039C3.24188 7.32127 1.31864 9.57753 1.0993 12.1147C0.698063 16.7476 4.9431 20.2276 9.35532 18.9022C9.74184 18.7858 9.83679 18.6347 9.76725 18.2334C9.41951 16.2674 9.66962 14.3549 10.3744 12.4985C10.8824 11.2009 11.6204 10.0056 12.5531 8.97033ZM13.8906 30.9044C14.8392 30.9036 15.7663 30.6213 16.5545 30.0933C17.3426 29.5652 17.9564 28.8152 18.318 27.9382C18.6796 27.0611 18.7729 26.0965 18.5859 25.1665C18.399 24.2364 17.9403 23.3827 17.2679 22.7135C16.5955 22.0443 15.7396 21.5896 14.8087 21.4071C13.8778 21.2246 12.9136 21.3225 12.0383 21.6882C11.163 22.054 10.4159 22.6713 9.89162 23.462C9.36735 24.2526 9.08947 25.181 9.09318 26.1297C9.08922 26.76 9.21092 27.3848 9.45116 27.9676C9.69141 28.5503 10.0454 29.0793 10.4924 29.5237C10.9394 29.9681 11.4705 30.319 12.0547 30.5558C12.6388 30.7926 13.2643 30.9107 13.8946 30.903L13.8906 30.9044Z" fill="#8D8F95"/>
<path d="M29.3384 2.84642C29.2234 2.92132 29.0415 3.12461 28.8275 3.16607C27.7696 3.37204 27.4192 3.72914 27.2145 4.771C27.1781 4.88812 27.1152 4.99532 27.0308 5.08435C26.9464 5.17338 26.8427 5.24188 26.7277 5.28458C26.4094 5.37285 26.1821 5.11205 26.158 4.80176C26.0764 3.75856 25.4893 3.27708 24.4902 3.1527C24.3203 3.1313 24.089 2.84241 24.0635 2.65383C24.0448 2.50671 24.2829 2.29941 24.4447 2.16433C24.533 2.08943 24.6988 2.10281 24.8299 2.07873C25.5628 1.94499 26.063 1.43676 26.1299 0.709196C26.1633 0.342738 26.2636 0.0123874 26.6756 0.000350385C27.0875 -0.0116866 27.2105 0.2879 27.2453 0.669071C27.3202 1.45549 27.8191 1.94633 28.6215 2.0881C28.9693 2.14828 29.3478 2.17637 29.3384 2.84642ZM26.6635 3.14334L27.2266 2.65383L26.7505 2.20178L26.2155 2.6779L26.6635 3.14334Z" fill="#8D8F95"/>
<path d="M4.44336 23.4658C4.52628 23.5742 4.73894 23.7333 4.78441 23.9299C5.0519 25.1336 5.29531 25.3623 6.43615 25.6057C6.6274 25.6458 6.85744 25.92 6.90425 26.1247C6.98182 26.467 6.6809 26.5807 6.388 26.6717C6.03224 26.784 5.60292 26.8549 5.3662 27.0997C5.08801 27.3859 4.93554 27.8259 4.81918 28.2258C4.72823 28.5374 4.62391 28.7608 4.2842 28.7715C3.94449 28.7822 3.80273 28.5521 3.74923 28.2365C3.56734 27.1786 3.25036 26.8683 2.1871 26.673C1.85943 26.6128 1.55583 26.4443 1.63607 26.1019C1.68288 25.8986 1.9798 25.6445 2.1978 25.6071C3.13401 25.4466 3.59275 25.0333 3.74388 24.0596C3.79337 23.7199 3.9124 23.4805 4.44336 23.4658ZM4.7269 26.1407L4.39121 25.7047L3.74522 26.1059L4.30695 26.6315L4.7269 26.1407Z" fill="#8D8F95"/>
<path d="M16.0137 3.71021C16.0203 3.99423 15.9701 4.27671 15.8659 4.541C15.7617 4.8053 15.6057 5.04608 15.407 5.24915C15.2083 5.45222 14.971 5.61347 14.7091 5.72342C14.4471 5.83337 14.1658 5.88978 13.8817 5.88933C13.5976 5.88888 13.3165 5.83159 13.0549 5.72082C12.7933 5.61005 12.5565 5.44805 12.3584 5.24436C12.1604 5.04067 12.0051 4.7994 11.9018 4.53478C11.7984 4.27016 11.7491 3.98752 11.7566 3.70353C11.75 3.41951 11.8002 3.13704 11.9044 2.87274C12.0086 2.60844 12.1646 2.36767 12.3633 2.1646C12.562 1.96153 12.7993 1.80027 13.0612 1.69033C13.3232 1.58038 13.6045 1.52397 13.8886 1.52442C14.1727 1.52486 14.4538 1.58216 14.7154 1.69292C14.977 1.80369 15.2138 1.96569 15.4119 2.16939C15.6099 2.37308 15.7652 2.61434 15.8685 2.87897C15.9719 3.14359 16.0212 3.42622 16.0137 3.71021ZM14.933 3.73696C14.9408 3.59567 14.9189 3.45432 14.8688 3.32197C14.8188 3.18963 14.7416 3.06921 14.6422 2.96846C14.5428 2.86771 14.4235 2.78885 14.2919 2.73694C14.1602 2.68502 14.0192 2.66121 13.8778 2.66701C13.7365 2.66306 13.5959 2.6876 13.4643 2.73916C13.3328 2.79072 13.2129 2.86825 13.1119 2.96713C13.011 3.066 12.9309 3.1842 12.8766 3.31467C12.8223 3.44514 12.7948 3.58521 12.7958 3.72653C12.7968 3.86785 12.8262 4.00752 12.8824 4.13721C12.9385 4.26691 13.0202 4.38398 13.1225 4.48143C13.2249 4.57888 13.3458 4.65473 13.4781 4.70445C13.6104 4.75417 13.7513 4.77673 13.8925 4.77081C14.0302 4.77565 14.1675 4.75213 14.2957 4.70172C14.424 4.65131 14.5405 4.57508 14.6381 4.47776C14.7356 4.38044 14.8122 4.26412 14.8629 4.13599C14.9137 4.00787 14.9375 3.87068 14.933 3.73295V3.73696Z" fill="#8D8F95"/>
<path d="M29.8976 29.3026C29.6891 29.3072 29.4818 29.2699 29.2881 29.1928C29.0943 29.1157 28.9181 29.0004 28.7698 28.8538C28.6216 28.7072 28.5044 28.5322 28.4251 28.3393C28.3459 28.1464 28.3063 27.9396 28.3087 27.7311C28.3076 27.5185 28.3486 27.3077 28.4291 27.111C28.5097 26.9142 28.6283 26.7353 28.7781 26.5844C28.928 26.4336 29.1061 26.3138 29.3023 26.2319C29.4986 26.1501 29.709 26.1078 29.9216 26.1074C30.3426 26.1233 30.7413 26.3009 31.0345 26.6034C31.3278 26.9059 31.493 27.3098 31.4958 27.7311C31.4958 27.9397 31.4543 28.1463 31.3737 28.3387C31.293 28.5311 31.1749 28.7056 31.0261 28.8519C30.8774 28.9981 30.7009 29.1133 30.5072 29.1907C30.3134 29.2681 30.1062 29.3061 29.8976 29.3026ZM29.9925 27.1118L29.7652 27.1199C29.6314 27.3298 29.384 27.5505 29.4001 27.7485C29.4161 27.9464 29.6983 28.1898 29.8976 28.2273C29.9675 28.2422 30.0401 28.2394 30.1088 28.2194C30.1774 28.1993 30.24 28.1624 30.2909 28.1122C30.3418 28.0619 30.3795 27.9998 30.4005 27.9314C30.4215 27.8631 30.4251 27.7905 30.4112 27.7204C30.3724 27.4997 30.1383 27.3138 29.9925 27.1118Z" fill="#8D8F95"/>
<path d="M25.61 29.3654V30.3484H24.631C24.3742 29.3587 24.5186 29.2022 25.61 29.3654Z" fill="#8D8F95"/>
<path d="M19.2422 3.6865V2.70215H20.2613V3.6865H19.2422Z" fill="#8D8F95"/>
<path d="M6.43359 22.8587V21.9131H7.45138V22.8587H6.43359Z" fill="#8D8F95"/>
<path d="M1.12109 29.3306H2.0894V30.3631H1.12109V29.3306Z" fill="#8D8F95"/>
<path d="M29.8781 15.9036L28.9325 16.0467C28.665 15.1346 28.4711 14.2198 28.13 13.3651C26.9732 10.4977 24.8118 8.91013 21.7438 8.56106C21.4482 8.52628 21.3225 8.42731 21.3492 8.13308C21.3666 7.93647 21.3492 7.73184 21.3492 7.46436C23.3754 7.59007 25.1395 8.25344 26.6615 9.52802C28.6342 11.1784 29.5357 13.3732 29.8781 15.9036Z" fill="#8D8F95"/>
<path d="M25.6106 19.9308C25.3698 19.5951 25.1665 19.4306 25.1237 19.2313C24.8817 18.0918 24.558 17.7735 23.4586 17.5582C23.2687 17.5207 22.9798 17.2466 22.9905 17.1008C23.0052 16.9055 23.2487 16.5899 23.4265 16.5658C24.4804 16.4227 25.0315 15.8583 25.1398 14.8044C25.1572 14.6492 25.4661 14.4032 25.6146 14.4192C25.8005 14.4393 26.0854 14.6747 26.1081 14.8458C26.2418 15.8703 26.7768 16.424 27.8133 16.5645C27.9899 16.5872 28.232 16.9002 28.248 17.0994C28.26 17.2452 27.9805 17.5247 27.7933 17.5609C26.6939 17.7789 26.3582 18.1079 26.1175 19.2313C26.0773 19.4333 25.858 19.6031 25.6106 19.9308ZM26.0118 17.1222L25.6881 16.5872L25.1826 16.9737L25.5838 17.4793L26.0118 17.1222Z" fill="#8D8F95"/>
<path d="M19.0672 14.8953C18.9883 14.8017 18.7555 14.6546 18.7355 14.482C18.6111 13.4361 18.0761 12.8584 17.0088 12.7433C16.851 12.726 16.5996 12.4398 16.6076 12.2886C16.617 12.1 16.8176 11.8754 16.9955 11.7536C17.1453 11.6507 17.39 11.7015 17.5746 11.6359C18.2794 11.3899 18.6338 10.8616 18.7047 10.1367C18.7368 9.80499 18.9187 9.54018 19.2223 9.6017C19.3435 9.6478 19.4523 9.72165 19.5398 9.81734C19.6274 9.91303 19.6913 10.0279 19.7265 10.1527C19.9499 11.1799 20.2856 11.5169 21.3101 11.7416C21.5321 11.7898 21.833 12.0465 21.8678 12.2472C21.9226 12.5708 21.6551 12.7434 21.2967 12.7821C20.3605 12.8998 19.8937 13.3719 19.7546 14.3282C19.7091 14.6746 19.5821 14.894 19.0672 14.8953ZM18.7689 12.199L19.2076 12.7072L19.6944 12.3167L19.2277 11.7215L18.7689 12.199Z" fill="#8D8F95"/>
<path d="M22.4012 22.417V23.4294H21.3848V22.417H22.4012Z" fill="#8D8F95"/>
<path d="M3.18136 13.8054L2.20637 13.8977C1.81316 10.2652 4.07878 7.26533 7.46117 7.51008V8.47839C4.10419 8.64691 3.23486 10.8724 3.18136 13.8054Z" fill="#8D8F95"/>
<path d="M7.45385 14.8753H6.44141V13.9043H7.45385V14.8753Z" fill="#8D8F95"/>
</svg>
