<svg width="458" height="1000" viewBox="0 0 458 1000" fill="none" xmlns="http://www.w3.org/2000/svg">
<g clip-path="url(#clip0_139_3300)">
<g opacity="0.74">
<g style="mix-blend-mode:multiply">
<path d="M480.814 593.492C482.016 596.421 482.788 599.508 483.106 602.658C483.197 604.001 483.197 605.348 483.106 606.691C483.2 607.942 483.2 609.198 483.106 610.449C483.106 610.449 483.106 611.091 483.106 611.366C482.918 612.606 482.643 613.831 482.281 615.032C482.011 616.043 481.642 617.026 481.181 617.965C481.181 617.965 481.181 617.965 481.181 618.515C480.973 618.992 480.728 619.452 480.448 619.89L479.806 620.99L479.256 621.815L478.523 622.731C477.867 623.508 477.163 624.243 476.415 624.931L475.865 625.39C475.545 625.722 475.174 626 474.765 626.214C474.045 626.823 473.279 627.374 472.474 627.864H471.741L469.816 628.873L468.716 629.331C466.444 630.3 464.079 631.037 461.659 631.531C455.458 632.655 449.061 631.855 443.328 629.239L440.395 627.773L438.654 626.673C436.973 625.547 435.407 624.257 433.979 622.823L431.871 620.623L430.68 618.973C430.012 618.05 429.43 617.068 428.938 616.04C428.236 614.834 427.624 613.578 427.105 612.282C426.351 610.239 425.828 608.118 425.547 605.958C425.453 604.799 425.453 603.634 425.547 602.475C425.456 600.949 425.456 599.418 425.547 597.892C425.816 596.161 426.184 594.448 426.647 592.759C426.647 592.759 426.647 591.842 426.647 591.476L427.197 590.284L428.297 588.268C428.297 588.268 428.297 588.268 428.297 587.718C429.988 585.132 432.058 582.815 434.438 580.843C435.493 579.989 436.595 579.194 437.737 578.46C438.359 578.059 439.001 577.692 439.662 577.36C444.733 574.593 450.486 573.321 456.251 573.694C459.871 573.972 463.426 574.806 466.791 576.169C467.205 576.314 467.604 576.498 467.983 576.719L469.541 577.452C473.023 579.348 476.129 581.864 478.706 584.876C479.256 585.61 479.898 586.251 480.356 586.984C480.739 589.131 480.892 591.313 480.814 593.492Z" fill="#2BA9E0" fill-opacity="0.03"/>
</g>
</g>
<g opacity="0.74">
<g style="mix-blend-mode:multiply">
<path d="M212.911 636.664C214.834 641.062 216.07 645.73 216.577 650.504C216.711 652.641 216.711 654.784 216.577 656.92C216.714 658.873 216.714 660.833 216.577 662.786C216.534 663.244 216.534 663.704 216.577 664.161C216.293 666.154 215.833 668.117 215.202 670.027C214.734 671.583 214.183 673.113 213.552 674.61C213.568 674.916 213.568 675.222 213.552 675.527V676.077V676.902C213.241 677.632 212.873 678.337 212.453 679.01C212.487 679.284 212.487 679.561 212.453 679.835C212.453 679.835 212.453 679.835 212.453 680.385L211.536 682.035C211.178 682.489 210.87 682.98 210.62 683.501C210.65 683.714 210.65 683.93 210.62 684.143L209.52 685.701L208.97 686.343C207.87 687.534 206.862 688.726 205.67 689.826L205.12 690.376H204.662L203.837 691.201L203.287 691.659L202.737 692.117C202.179 692.574 201.598 693.003 200.996 693.401C199.817 694.288 198.594 695.114 197.33 695.875L196.23 696.517L193.205 698.075L191.372 698.9C185.145 701.629 178.42 703.037 171.621 703.037C164.822 703.037 158.097 701.629 151.87 698.9L147.287 696.609L144.629 694.867C141.953 693.111 139.465 691.084 137.205 688.818C136.105 687.718 134.914 686.526 133.905 685.335C133.213 684.518 132.57 683.661 131.981 682.768C131.862 682.504 131.708 682.257 131.522 682.035C130.425 680.606 129.473 679.071 128.681 677.452C127.586 675.54 126.636 673.548 125.84 671.494C124.643 668.267 123.812 664.916 123.365 661.503C123.041 659.718 122.858 657.91 122.815 656.095C122.676 653.684 122.676 651.266 122.815 648.854C123.166 646.091 123.749 643.362 124.557 640.697C124.514 640.516 124.514 640.327 124.557 640.147V639.597C124.516 639.511 124.495 639.417 124.495 639.322C124.495 639.227 124.516 639.133 124.557 639.047C124.729 638.362 124.943 637.689 125.198 637.03C125.147 636.851 125.147 636.66 125.198 636.48V636.022C125.435 635.394 125.71 634.782 126.023 634.189C126.518 633.092 127.069 632.021 127.673 630.981C127.716 630.8 127.716 630.612 127.673 630.431C127.86 630.176 128.014 629.899 128.131 629.606L128.59 628.964C131.326 624.965 134.594 621.357 138.305 618.24C139.942 616.876 141.689 615.65 143.529 614.574C144.495 613.896 145.506 613.284 146.554 612.741C154.539 608.471 163.542 606.473 172.583 606.966C178.256 607.342 183.828 608.642 189.081 610.816C189.748 611.066 190.391 611.372 191.006 611.732C191.843 612.036 192.643 612.436 193.389 612.924C198.783 615.882 203.572 619.832 207.503 624.565L210.07 627.773C211.249 630.657 212.199 633.63 212.911 636.664Z" fill="#2BA9E0" fill-opacity="0.03"/>
</g>
</g>
<g opacity="0.74">
<g style="mix-blend-mode:multiply">
<path d="M377.062 88.8176C377.403 89.5723 377.62 90.3771 377.704 91.2008C377.704 91.2008 377.704 91.934 377.704 92.3006C377.704 92.3006 377.704 92.9423 377.704 93.3089C377.756 93.643 377.756 93.9831 377.704 94.3172V95.1421L377.154 95.7837H376.513H375.871H375.321L373.396 96.4253C371.75 96.7266 370.05 96.5022 368.539 95.7837H367.714C367.564 95.8225 367.406 95.8225 367.256 95.7837L363.131 98.1668V97.6169C363.086 97.3745 363.086 97.126 363.131 96.8836V95.8753C363.035 95.2988 363.035 94.7104 363.131 94.1339C363.082 93.8303 363.082 93.5208 363.131 93.2173V92.0257C363.079 91.5382 363.079 91.0466 363.131 90.5592V90.0092C363.605 89.334 364.159 88.7186 364.781 88.176L365.697 87.5344H366.247C367.624 86.7928 369.177 86.444 370.738 86.5261C371.71 86.6086 372.666 86.8245 373.58 87.1678C374.532 87.6269 375.352 88.3208 375.963 89.1843C376.019 89.3633 376.019 89.5552 375.963 89.7342C376.291 89.3856 376.66 89.0778 377.062 88.8176Z" fill="#2BA9E0" fill-opacity="0.03"/>
</g>
</g>
<g opacity="0.74">
<g style="mix-blend-mode:multiply">
<path d="M25.7542 495.784C26.3128 496.966 26.6543 498.239 26.7624 499.542C26.8081 500.152 26.8081 500.765 26.7624 501.375C26.8079 501.924 26.8079 502.476 26.7624 503.025C26.8067 503.543 26.8067 504.064 26.7624 504.583C26.6509 505.024 26.4974 505.454 26.3042 505.866V506.324V506.874L25.4793 507.791C25.329 507.83 25.1713 507.83 25.021 507.791L24.0128 508.524H23.1879H22.7297C21.0233 509.266 19.1827 509.649 17.3221 509.649C15.4616 509.649 13.6209 509.266 11.9145 508.524L10.6314 507.883H9.89816C9.16501 507.412 8.48845 506.858 7.88178 506.233L6.96525 505.225L6.41533 504.583C6.13678 504.176 5.89157 503.746 5.6821 503.3C5.37076 502.769 5.09519 502.218 4.85722 501.65C4.55703 500.756 4.34222 499.835 4.21564 498.9C4.17007 498.412 4.17007 497.921 4.21564 497.434C4.16995 496.762 4.16995 496.088 4.21564 495.417C4.12734 494.686 4.12734 493.948 4.21564 493.217C4.25539 493.036 4.25539 492.848 4.21564 492.667L4.67391 491.842C5.38451 490.719 6.2837 489.727 7.33187 488.909L8.70667 487.901L9.53155 487.351C11.7376 486.216 14.2024 485.679 16.6805 485.793C18.233 485.876 19.7562 486.249 21.1716 486.893H21.6298H22.3631C23.787 487.781 25.0822 488.86 26.2125 490.101C26.4478 490.391 26.6622 490.697 26.8541 491.017C26.9556 492.679 26.5736 494.335 25.7542 495.784Z" fill="#2BA9E0" fill-opacity="0.03"/>
</g>
</g>
<g opacity="0.74">
<g style="mix-blend-mode:multiply">
<path d="M242.331 872.961C242.849 874.157 243.188 875.424 243.34 876.719C243.385 877.329 243.385 877.942 243.34 878.552C243.385 879.101 243.385 879.653 243.34 880.202C243.34 880.752 243.34 881.21 243.34 881.76L242.881 883.043V883.685C242.908 883.867 242.908 884.052 242.881 884.235V884.693L241.965 885.61L240.957 886.343H240.132H239.582C238.616 886.773 237.6 887.081 236.557 887.259C233.927 887.739 231.214 887.42 228.767 886.343L227.575 885.701L226.842 885.243C226.095 884.792 225.416 884.236 224.826 883.593C224.473 883.303 224.165 882.963 223.909 882.585L223.359 881.943C223.081 881.536 222.835 881.107 222.626 880.66C222.344 880.128 222.099 879.576 221.893 879.01C221.55 878.129 221.334 877.203 221.251 876.26C221.207 875.773 221.207 875.282 221.251 874.794C221.205 874.123 221.205 873.449 221.251 872.777C221.359 872.035 221.512 871.301 221.709 870.578C221.709 870.578 221.709 870.578 221.709 870.028C221.827 869.734 221.981 869.457 222.168 869.203C222.845 868.082 223.713 867.089 224.734 866.27L226.2 865.261L227.025 864.711C229.225 863.56 231.695 863.022 234.174 863.153C235.723 863.258 237.243 863.63 238.665 864.253H239.215H239.857C241.318 865.089 242.621 866.175 243.706 867.461L244.439 868.378C243.936 869.989 243.227 871.53 242.331 872.961Z" fill="#2BA9E0" fill-opacity="0.03"/>
</g>
</g>
<g opacity="0.74">
<g style="mix-blend-mode:multiply">
<path d="M238.391 696.7C239.383 699.039 240.031 701.509 240.315 704.033C240.315 705.225 240.315 706.324 240.315 707.424C240.404 708.461 240.404 709.504 240.315 710.541C240.315 710.541 240.315 710.999 240.315 711.274C240.157 712.301 239.912 713.313 239.582 714.299C239.582 715.124 239.032 715.949 238.666 716.774C238.666 716.774 238.666 716.774 238.666 717.232C238.486 717.618 238.271 717.986 238.024 718.332L237.474 719.157V719.89L236.924 720.715C236.423 721.368 235.872 721.981 235.274 722.548H234.816C234.553 722.841 234.243 723.089 233.9 723.281L231.975 724.565H231.425L229.775 725.39H228.859C226.978 726.218 225.01 726.833 222.993 727.223C217.932 728.062 212.736 727.393 208.053 725.298L205.67 724.106L204.204 723.19C202.808 722.26 201.49 721.217 200.263 720.073L198.613 718.148C198.228 717.762 197.889 717.331 197.605 716.865C197.055 716.04 196.505 715.215 196.047 714.391C195.588 713.566 195.038 712.282 194.58 711.274C193.927 709.596 193.496 707.839 193.297 706.05C193.207 705.105 193.207 704.153 193.297 703.208C193.207 701.926 193.207 700.64 193.297 699.358C193.461 697.896 193.768 696.453 194.214 695.05C194.174 694.685 194.174 694.316 194.214 693.95C194.179 693.615 194.179 693.277 194.214 692.942L195.038 691.292C195.082 691.143 195.082 690.984 195.038 690.834C196.47 688.705 198.198 686.792 200.171 685.151L202.829 683.226L204.479 682.31C208.668 680.07 213.392 679.024 218.135 679.285C221.107 679.486 224.022 680.199 226.751 681.393L227.759 681.852L229.042 682.493C231.49 684.872 233.451 687.705 234.816 690.834C235.295 691.375 235.724 691.958 236.099 692.576C236.99 693.876 237.757 695.257 238.391 696.7Z" fill="#2BA9E0" fill-opacity="0.03"/>
</g>
</g>
<g opacity="0.74">
<g style="mix-blend-mode:multiply">
<path d="M90.4617 431.439C91.7899 434.336 92.6262 437.433 92.9363 440.605C92.9363 442.163 92.9363 443.63 92.9363 445.096C93.0274 446.439 93.0274 447.786 92.9363 449.129C92.9015 449.434 92.9015 449.741 92.9363 450.046C92.7414 451.422 92.4035 452.773 91.9281 454.079C91.6585 455.179 91.2904 456.253 90.8283 457.287V457.929V458.479C90.6395 458.993 90.3935 459.485 90.0951 459.945V460.495L89.4535 461.687C89.189 461.953 88.972 462.263 88.8119 462.603C88.5981 462.96 88.3527 463.298 88.0787 463.611L85.7874 465.995C85.5605 466.128 85.3713 466.318 85.2374 466.545H84.7792L83.5877 467.369C82.6711 468.011 81.8462 468.653 81.0214 469.111H80.2881L78.1801 470.119L76.897 470.669C74.4659 471.766 71.9118 472.566 69.2897 473.052C62.6506 474.172 55.8289 473.311 49.6758 470.578L46.468 469.019L44.6349 467.828C42.802 466.612 41.084 465.231 39.5023 463.703C38.7691 462.878 37.9442 462.053 37.3026 461.228C36.7946 460.689 36.3345 460.106 35.9278 459.487C35.2194 458.459 34.5766 457.387 34.0031 456.279C33.2486 454.959 32.6048 453.58 32.0783 452.154C31.2498 449.939 30.6958 447.63 30.4286 445.28C30.293 444.031 30.293 442.771 30.4286 441.522C30.2917 439.875 30.2917 438.219 30.4286 436.572C30.6002 434.645 30.9687 432.741 31.5284 430.889C31.5284 430.889 31.5284 429.881 31.9867 429.514C32.0903 429.057 32.2766 428.622 32.5366 428.231C32.8785 427.469 33.2767 426.734 33.7281 426.031C33.7371 425.848 33.7371 425.665 33.7281 425.481C35.609 422.713 37.8602 420.215 40.4188 418.057C41.5661 417.141 42.7591 416.285 43.9933 415.49L46.1013 414.207C51.7475 411.273 58.0789 409.912 64.4321 410.266C68.343 410.506 72.1852 411.405 75.7971 412.924L77.1719 413.566L78.8217 414.391C82.5022 416.497 85.7894 419.226 88.537 422.457L90.2784 424.656C90.4923 426.911 90.5535 429.177 90.4617 431.439Z" fill="#2BA9E0" fill-opacity="0.03"/>
</g>
</g>
<g opacity="0.74">
<g style="mix-blend-mode:multiply">
<path d="M218.96 461.687C219.571 463.182 219.972 464.755 220.152 466.361C220.197 467.094 220.197 467.828 220.152 468.561C220.243 469.23 220.243 469.908 220.152 470.577C220.16 470.73 220.16 470.883 220.152 471.036C220.204 471.707 220.204 472.381 220.152 473.052L219.602 474.61C219.585 474.855 219.585 475.1 219.602 475.344V475.894V476.352L218.502 477.544H217.952L216.669 478.368H215.661H215.019C213.804 478.877 212.547 479.276 211.261 479.56C207.975 480.09 204.606 479.676 201.546 478.368L199.988 477.544L199.071 476.994C198.154 476.37 197.295 475.664 196.505 474.885L195.405 473.694L194.764 472.869C194.395 472.371 194.059 471.851 193.755 471.311C193.412 470.656 193.106 469.983 192.839 469.294C192.392 468.213 192.114 467.069 192.014 465.903C191.924 465.264 191.924 464.616 192.014 463.978C191.968 463.154 191.968 462.328 192.014 461.503C192.141 460.568 192.355 459.648 192.655 458.753V458.203V457.47V456.829L193.205 455.729C194.135 454.363 195.245 453.13 196.505 452.062L198.338 450.779L199.346 450.137C202.158 448.643 205.336 447.976 208.512 448.213C210.441 448.343 212.333 448.809 214.102 449.588H214.744H215.569C217.397 450.582 219.015 451.92 220.335 453.529L221.251 454.629C220.849 457.084 220.077 459.464 218.96 461.687Z" fill="#2BA9E0" fill-opacity="0.03"/>
</g>
</g>
<g style="mix-blend-mode:screen" opacity="0.42">
<path d="M338.293 814.299C334.674 812.538 331.655 809.747 329.615 806.277C327.575 802.807 326.605 798.812 326.827 794.793C327.049 790.774 328.452 786.91 330.861 783.685C333.27 780.46 336.578 778.019 340.369 776.667C344.16 775.314 348.266 775.112 352.172 776.084C356.077 777.056 359.609 779.16 362.324 782.132C365.039 785.103 366.816 788.81 367.433 792.788C368.049 796.766 367.477 800.837 365.789 804.491C364.669 806.976 363.059 809.21 361.055 811.058C359.051 812.906 356.695 814.33 354.128 815.246C351.561 816.162 348.835 816.55 346.114 816.387C343.393 816.224 340.733 815.514 338.293 814.299Z" fill="#0C4F89"/>
</g>
<g style="mix-blend-mode:screen">
<path d="M439.204 956.645C440.445 954.726 442.228 953.218 444.327 952.313C446.426 951.408 448.746 951.146 450.994 951.561C453.242 951.975 455.316 953.047 456.954 954.642C458.592 956.236 459.72 958.28 460.196 960.516C460.671 962.752 460.472 965.079 459.625 967.201C458.777 969.324 457.319 971.148 455.434 972.441C453.549 973.734 451.323 974.439 449.037 974.467C446.752 974.494 444.51 973.842 442.595 972.594C440.034 970.925 438.24 968.31 437.604 965.32C436.969 962.331 437.544 959.211 439.204 956.645Z" fill="#0C4F89"/>
</g>
<g style="mix-blend-mode:screen" opacity="0.32">
<path d="M151.503 168.836C150.54 170.659 150.137 172.727 150.346 174.779C150.555 176.831 151.367 178.775 152.678 180.366C153.99 181.958 155.744 183.125 157.718 183.722C159.692 184.319 161.799 184.317 163.772 183.719C165.746 183.121 167.498 181.951 168.809 180.359C170.119 178.766 170.929 176.821 171.136 174.769C171.343 172.717 170.939 170.649 169.973 168.827C169.007 167.005 167.524 165.509 165.71 164.528C163.252 163.227 160.38 162.949 157.72 163.756C155.059 164.563 152.824 166.389 151.503 168.836Z" fill="#0C4F89"/>
</g>
<g style="mix-blend-mode:screen" opacity="0.38">
<path d="M179.824 137.305C176.644 138.536 173.901 140.683 171.941 143.474C169.982 146.265 168.894 149.574 168.817 152.983C168.739 156.393 169.675 159.748 171.505 162.625C173.336 165.503 175.979 167.772 179.099 169.146C182.22 170.521 185.678 170.938 189.036 170.345C192.395 169.753 195.501 168.178 197.964 165.818C200.426 163.459 202.133 160.423 202.868 157.093C203.604 153.763 203.335 150.29 202.096 147.113C201.285 145.001 200.064 143.07 198.503 141.432C196.942 139.794 195.073 138.482 193.002 137.57C190.932 136.658 188.702 136.165 186.44 136.12C184.178 136.075 181.929 136.477 179.824 137.305Z" fill="#0C4F89"/>
</g>
<g style="mix-blend-mode:screen" opacity="0.51">
<path d="M208.97 116.407C207.426 118.399 206.503 120.801 206.315 123.314C206.127 125.827 206.684 128.34 207.915 130.539C209.146 132.737 210.998 134.525 213.238 135.678C215.479 136.832 218.009 137.3 220.514 137.024C223.019 136.749 225.387 135.742 227.323 134.129C229.259 132.516 230.678 130.369 231.402 127.955C232.126 125.541 232.123 122.967 231.393 120.555C230.664 118.143 229.241 115.999 227.301 114.39C225.971 113.304 224.438 112.494 222.792 112.007C221.146 111.52 219.419 111.366 217.712 111.553C216.006 111.741 214.354 112.267 212.853 113.1C211.352 113.934 210.032 115.058 208.97 116.407Z" fill="#0C4F89"/>
</g>
<g style="mix-blend-mode:screen" opacity="0.73">
<path d="M172.034 123.373C169.228 124.36 166.778 126.156 164.994 128.536C163.209 130.916 162.171 133.771 162.01 136.741C161.849 139.711 162.573 142.662 164.09 145.221C165.607 147.779 167.849 149.83 170.532 151.114C173.215 152.398 176.218 152.857 179.162 152.433C182.106 152.009 184.858 150.721 187.069 148.732C189.281 146.743 190.853 144.143 191.587 141.261C192.32 138.378 192.182 135.343 191.189 132.539C189.861 128.786 187.098 125.713 183.507 123.994C179.916 122.276 175.79 122.052 172.034 123.373Z" fill="#0C4F89"/>
</g>
<g style="mix-blend-mode:screen">
<path d="M212.178 141.522C211.417 141.693 210.698 142.016 210.066 142.472C209.433 142.928 208.899 143.508 208.496 144.176C208.094 144.844 207.831 145.587 207.723 146.359C207.616 147.132 207.666 147.918 207.87 148.671C208.156 149.793 208.766 150.804 209.625 151.58C210.485 152.355 211.554 152.858 212.698 153.027C213.843 153.196 215.012 153.023 216.058 152.529C217.105 152.035 217.982 151.243 218.579 150.252C219.176 149.261 219.467 148.115 219.415 146.959C219.362 145.803 218.969 144.688 218.285 143.755C217.601 142.822 216.656 142.112 215.569 141.715C214.483 141.317 213.303 141.25 212.178 141.522Z" fill="#0C4F89"/>
</g>
<g style="mix-blend-mode:screen" opacity="0.32">
<path d="M67.09 773.877C65.1892 776.012 62.6989 777.537 59.933 778.259C57.1671 778.982 54.2493 778.869 51.5473 777.936C48.8452 777.003 46.4798 775.291 44.7489 773.016C43.0181 770.74 41.9994 768.004 41.8211 765.151C41.6427 762.297 42.3128 759.455 43.7469 756.982C45.181 754.509 47.3149 752.516 49.8797 751.253C52.4446 749.991 55.3256 749.516 58.1599 749.888C60.9942 750.261 63.655 751.464 65.8069 753.346C67.2466 754.605 68.4226 756.136 69.2671 757.852C70.1117 759.569 70.6079 761.435 70.7272 763.344C70.8465 765.253 70.5865 767.167 69.9622 768.974C69.338 770.782 68.3618 772.449 67.09 773.877Z" fill="#0C4F89"/>
</g>
<g style="mix-blend-mode:screen" opacity="0.38">
<path d="M77.7219 572.777C77.6855 577.49 76.2524 582.087 73.6038 585.986C70.9552 589.884 67.2101 592.91 62.842 594.68C58.474 596.45 53.6791 596.885 49.0638 595.93C44.4485 594.975 40.2201 592.673 36.9132 589.314C33.6063 585.956 31.3695 581.692 30.4855 577.063C29.6016 572.433 30.1103 567.645 31.9473 563.305C33.7843 558.964 36.8671 555.266 40.8058 552.677C44.7445 550.089 49.3623 548.726 54.0752 548.763C57.2047 548.787 60.2987 549.427 63.1807 550.647C66.0627 551.866 68.6762 553.642 70.8721 555.872C73.0679 558.102 74.803 560.743 75.9783 563.643C77.1535 566.544 77.746 569.648 77.7219 572.777Z" fill="#0C4F89"/>
</g>
<g style="mix-blend-mode:screen" opacity="0.51">
<path d="M83.4041 292.301C81.6175 295.305 78.981 297.712 75.8275 299.219C72.674 300.726 69.1448 301.265 65.6853 300.768C62.2258 300.271 58.991 298.76 56.3893 296.426C53.7876 294.092 51.9355 291.04 51.0668 287.655C50.1981 284.269 50.3518 280.702 51.5083 277.404C52.6649 274.105 54.7726 271.224 57.5653 269.122C60.3581 267.021 63.7107 265.793 67.2002 265.596C70.6896 265.398 74.1594 266.238 77.1717 268.011C81.2087 270.415 84.1304 274.319 85.2982 278.87C86.466 283.421 85.785 288.25 83.4041 292.301Z" fill="#0C4F89"/>
</g>
<g style="mix-blend-mode:screen" opacity="0.73">
<path d="M273.677 875.435C274.258 879.534 273.608 883.714 271.81 887.443C270.012 891.172 267.147 894.283 263.579 896.382C260.01 898.48 255.898 899.471 251.766 899.229C247.633 898.988 243.665 897.523 240.366 895.023C237.066 892.522 234.584 889.098 233.233 885.184C231.883 881.271 231.725 877.044 232.78 873.041C233.835 869.037 236.055 865.438 239.159 862.698C242.263 859.959 246.111 858.203 250.214 857.653C252.922 857.279 255.678 857.441 258.323 858.133C260.969 858.824 263.452 860.029 265.631 861.681C267.81 863.332 269.642 865.397 271.023 867.757C272.404 870.117 273.306 872.726 273.677 875.435Z" fill="#0C4F89"/>
</g>
<g style="mix-blend-mode:screen">
<path d="M143.162 706.783C143.305 708.872 142.648 710.937 141.324 712.56C140.001 714.182 138.11 715.241 136.035 715.521C133.96 715.8 131.856 715.281 130.15 714.067C128.444 712.852 127.263 711.035 126.848 708.983C126.588 706.82 127.194 704.644 128.534 702.926C129.873 701.209 131.837 700.092 133.997 699.817C136.135 699.53 138.3 700.101 140.018 701.407C141.736 702.713 142.866 704.646 143.162 706.783Z" fill="#0C4F89"/>
</g>
<g style="mix-blend-mode:screen">
<path d="M348.742 888.268C348.883 889.333 348.813 890.417 348.534 891.455C348.256 892.493 347.775 893.466 347.119 894.318C346.463 895.17 345.645 895.884 344.713 896.418C343.78 896.953 342.751 897.298 341.685 897.434C340.632 897.572 339.561 897.502 338.535 897.227C337.509 896.951 336.548 896.477 335.705 895.83C334.863 895.183 334.156 894.377 333.625 893.457C333.094 892.536 332.749 891.521 332.611 890.468C332.473 889.414 332.543 888.344 332.818 887.318C333.093 886.292 333.568 885.33 334.215 884.488C334.861 883.645 335.668 882.938 336.588 882.407C337.508 881.876 338.523 881.532 339.577 881.393C340.63 881.238 341.705 881.293 342.737 881.555C343.769 881.817 344.74 882.281 345.592 882.92C346.444 883.56 347.161 884.361 347.702 885.279C348.243 886.197 348.596 887.213 348.742 888.268Z" fill="#0C4F89"/>
</g>
<g style="mix-blend-mode:screen" opacity="0.38">
<path d="M422.889 240.88C422.424 243.041 421.33 245.015 419.744 246.554C418.158 248.094 416.151 249.128 413.977 249.527C411.804 249.927 409.561 249.673 407.531 248.798C405.501 247.923 403.777 246.467 402.574 244.612C401.372 242.757 400.747 240.588 400.776 238.378C400.806 236.168 401.49 234.017 402.742 232.195C403.994 230.374 405.757 228.964 407.81 228.144C409.862 227.325 412.111 227.131 414.274 227.589C417.156 228.248 419.669 230.005 421.277 232.487C422.886 234.968 423.464 237.979 422.889 240.88Z" fill="#0C4F89"/>
</g>
<g style="mix-blend-mode:screen" opacity="0.32">
<path d="M333.986 645.004C334.95 644.39 335.782 643.591 336.433 642.653C337.085 641.714 337.544 640.655 337.783 639.538C338.022 638.421 338.036 637.267 337.825 636.144C337.613 635.021 337.181 633.951 336.552 632.997C335.626 631.392 334.235 630.105 332.563 629.307C330.891 628.508 329.016 628.235 327.186 628.524C325.356 628.813 323.656 629.649 322.311 630.924C320.965 632.198 320.038 633.85 319.651 635.662C319.263 637.474 319.434 639.361 320.141 641.074C320.848 642.787 322.057 644.246 323.61 645.257C325.162 646.269 326.985 646.786 328.837 646.741C330.689 646.696 332.485 646.09 333.986 645.004Z" fill="#0C4F89"/>
</g>
<g style="mix-blend-mode:screen" opacity="0.38">
<path d="M300.623 656.645C303.423 657.017 306.271 656.551 308.806 655.306C311.342 654.061 313.452 652.093 314.87 649.65C316.288 647.207 316.951 644.399 316.775 641.58C316.599 638.76 315.592 636.056 313.881 633.809C312.17 631.561 309.832 629.871 307.161 628.951C304.49 628.031 301.607 627.923 298.875 628.64C296.143 629.358 293.684 630.868 291.81 632.981C289.935 635.094 288.728 637.715 288.342 640.513C288.084 642.379 288.197 644.279 288.676 646.101C289.154 647.923 289.988 649.633 291.129 651.133C292.27 652.632 293.697 653.89 295.326 654.836C296.955 655.782 298.756 656.397 300.623 656.645Z" fill="#0C4F89"/>
</g>
<g style="mix-blend-mode:screen" opacity="0.51">
<path d="M266.895 660.77C272.766 660.77 277.526 656.01 277.526 650.137C277.526 644.265 272.766 639.505 266.895 639.505C261.023 639.505 256.263 644.265 256.263 650.137C256.263 656.01 261.023 660.77 266.895 660.77Z" fill="#0C4F89"/>
</g>
<g style="mix-blend-mode:screen" opacity="0.73">
<path d="M300.531 669.936C302.98 670.39 305.508 670.107 307.795 669.121C310.081 668.135 312.023 666.491 313.374 664.398C314.724 662.306 315.422 659.859 315.378 657.369C315.334 654.879 314.551 652.459 313.128 650.415C311.705 648.371 309.707 646.796 307.387 645.891C305.067 644.986 302.531 644.791 300.1 645.331C297.669 645.871 295.453 647.122 293.735 648.924C292.017 650.727 290.873 653 290.45 655.454C289.888 658.709 290.631 662.054 292.518 664.764C294.405 667.475 297.284 669.333 300.531 669.936Z" fill="#0C4F89"/>
</g>
<g style="mix-blend-mode:screen">
<path d="M278.809 640.421C279.901 640.457 280.974 640.131 281.86 639.493C282.747 638.856 283.398 637.943 283.712 636.897C284.025 635.851 283.984 634.73 283.595 633.71C283.206 632.69 282.49 631.827 281.559 631.256C280.468 631.22 279.395 631.546 278.508 632.184C277.622 632.821 276.971 633.734 276.657 634.78C276.343 635.826 276.384 636.947 276.773 637.967C277.163 638.987 277.879 639.85 278.809 640.421Z" fill="#0C4F89"/>
</g>
<g opacity="0.74">
<g style="mix-blend-mode:multiply">
<path d="M140.963 193.034C140.957 194.71 140.71 196.377 140.23 197.984C139.995 198.701 139.719 199.405 139.405 200.092C139.136 200.721 138.83 201.333 138.488 201.925C138.136 202.529 137.704 203.084 137.205 203.575C136.865 204.025 136.498 204.453 136.105 204.858L135.464 205.408H134.914H134.455H133.905H133.172L131.706 206.049H130.606H129.873H128.315H123.915C122.589 206.04 121.267 205.886 119.974 205.591C116.701 204.781 113.737 203.028 111.45 200.55C111.035 200.133 110.666 199.672 110.351 199.175C110.086 198.908 109.869 198.598 109.709 198.258C109.082 197.342 108.559 196.358 108.151 195.325L107.601 193.767V192.759C107.512 192.12 107.512 191.473 107.601 190.834C107.553 190.071 107.553 189.306 107.601 188.543C107.681 187.361 107.896 186.192 108.242 185.06C108.371 184.463 108.555 183.88 108.792 183.318L109.892 181.027C110.398 180.232 110.949 179.467 111.542 178.735C111.486 178.556 111.486 178.364 111.542 178.185C111.542 178.185 111.542 178.185 112.092 178.185L113.1 177.36C114.527 176.457 116.068 175.748 117.683 175.252L119.791 174.794H120.982C124.14 174.506 127.316 175.109 130.148 176.535C131.891 177.424 133.472 178.602 134.822 180.018C134.822 180.018 134.822 180.018 134.822 180.568L135.372 181.302C136.688 183.001 137.682 184.927 138.305 186.984C138.305 186.984 138.305 187.901 138.305 188.359C139.386 189.798 140.279 191.369 140.963 193.034Z" fill="#2BA9E0" fill-opacity="0.03"/>
</g>
</g>
<g opacity="0.74">
<g style="mix-blend-mode:multiply">
<path d="M194.855 860.861C194.887 862.511 194.639 864.153 194.122 865.719C193.933 866.44 193.688 867.145 193.388 867.827C193.139 868.465 192.832 869.078 192.472 869.661C192.128 870.276 191.729 870.859 191.28 871.402C190.906 871.822 190.509 872.22 190.089 872.594C189.921 872.825 189.701 873.013 189.447 873.144H188.897H188.256H187.614L186.056 873.877H185.414H184.681H183.123H180.923C179.585 874.062 178.229 874.062 176.891 873.877C173.611 873.134 170.637 871.407 168.367 868.927L167.267 867.552C167.023 867.269 166.808 866.962 166.625 866.636C166.018 865.707 165.497 864.726 165.067 863.703L164.517 862.145V861.045C164.436 860.436 164.436 859.82 164.517 859.211C164.474 858.448 164.474 857.683 164.517 856.92C164.514 855.737 164.699 854.561 165.067 853.437C165.196 852.811 165.38 852.197 165.617 851.604C165.947 850.853 166.314 850.118 166.717 849.404C167.223 848.558 167.806 847.76 168.459 847.021L168.917 846.471H169.467L170.475 845.646C171.906 844.772 173.447 844.094 175.058 843.629C175.788 843.541 176.527 843.541 177.257 843.629H178.449C181.608 843.316 184.79 843.921 187.614 845.371C189.367 846.288 190.974 847.462 192.38 848.854V849.404C192.64 849.604 192.859 849.853 193.022 850.137C194.325 851.797 195.291 853.697 195.863 855.729C195.863 855.729 195.863 856.645 195.863 857.103C195.633 858.382 195.295 859.639 194.855 860.861Z" fill="#2BA9E0" fill-opacity="0.03"/>
</g>
</g>
<g opacity="0.74">
<g style="mix-blend-mode:multiply">
<path d="M150.678 255.454C150.71 257.103 150.462 258.745 149.944 260.312C149.756 261.032 149.511 261.737 149.211 262.42C148.999 263.073 148.69 263.691 148.295 264.253V264.711L147.103 266.361C146.729 266.781 146.332 267.179 145.912 267.553C145.7 267.595 145.482 267.595 145.27 267.553L143.162 269.203H142.704H142.154H141.696L140.138 269.844H138.671H137.938H136.471H133.997C132.659 270.029 131.302 270.029 129.964 269.844C126.685 269.101 123.711 267.375 121.44 264.895L120.34 263.52C120.096 263.236 119.881 262.929 119.699 262.603C119.092 261.675 118.57 260.693 118.141 259.67L117.316 260.037C117.272 259.671 117.272 259.302 117.316 258.937C117.227 258.329 117.227 257.711 117.316 257.104C117.272 256.34 117.272 255.575 117.316 254.812C117.312 253.629 117.498 252.453 117.866 251.329C118.007 250.706 118.191 250.094 118.416 249.496C118.416 248.763 119.149 247.938 119.515 247.296C120.021 246.45 120.604 245.652 121.257 244.913L121.715 244.363L122.265 243.813L123.273 242.988C124.68 242.048 126.227 241.337 127.856 240.88H130.056H131.247C134.406 240.566 137.589 241.171 140.413 242.621C142.204 243.476 143.82 244.657 145.178 246.105L145.637 246.654C145.897 246.854 146.115 247.103 146.278 247.388C147.565 249.059 148.528 250.955 149.12 252.979C149.12 252.979 149.12 253.895 149.12 254.354C149.654 254.699 150.174 255.066 150.678 255.454Z" fill="#2BA9E0" fill-opacity="0.03"/>
</g>
</g>
<g opacity="0.74">
<g style="mix-blend-mode:multiply">
<path d="M346.175 973.327C346.184 975.042 345.906 976.746 345.35 978.369C345.171 979.105 344.894 979.814 344.525 980.477C344.225 981.137 343.889 981.779 343.517 982.402C343.142 983.019 342.712 983.602 342.234 984.143L341.042 985.426H340.309H339.759H339.209L337.651 986.068H336.276H335.452H333.893H331.51C330.124 986.056 328.742 985.903 327.386 985.61C323.885 984.804 320.698 982.987 318.221 980.385L317.029 979.01L316.388 978.002C315.76 977.053 315.238 976.039 314.829 974.977L314.188 973.327V972.227C314.099 971.589 314.099 970.941 314.188 970.303C314.144 969.509 314.144 968.713 314.188 967.919C314.268 966.708 314.483 965.509 314.829 964.345C315.002 963.69 315.216 963.047 315.471 962.42C315.782 961.631 316.15 960.865 316.571 960.129C317.076 959.253 317.659 958.425 318.312 957.654V957.104L318.862 956.554L319.87 955.729C321.349 954.778 322.953 954.038 324.636 953.529H326.836H328.119C331.281 953.338 334.439 953.969 337.285 955.362C339.117 956.279 340.788 957.486 342.234 958.937L342.784 959.487L343.334 960.22C344.714 961.96 345.742 963.953 346.358 966.086C346.358 966.086 346.358 967.003 346.358 967.553C346.653 969.473 346.591 971.43 346.175 973.327Z" fill="#2BA9E0" fill-opacity="0.03"/>
</g>
</g>
<g style="mix-blend-mode:screen" opacity="0.73">
<path d="M155.719 756.187C152.636 752.747 150.647 748.469 150.003 743.895C149.359 739.322 150.09 734.66 152.102 730.504C154.115 726.347 157.318 722.882 161.305 720.551C165.292 718.22 169.882 717.127 174.491 717.412C179.101 717.697 183.521 719.346 187.191 722.151C190.86 724.955 193.613 728.788 195.098 733.161C196.584 737.534 196.735 742.25 195.533 746.709C194.331 751.169 191.83 755.17 188.347 758.203C183.745 762.245 177.73 764.301 171.617 763.923C165.504 763.546 159.788 760.764 155.719 756.187Z" fill="#0C4F89"/>
</g>
</g>
<defs>
<clipPath id="clip0_139_3300">
<rect width="1287" height="1000" fill="white"/>
</clipPath>
</defs>
</svg>
