<svg width="25" height="24" viewBox="0 0 25 24" fill="none" xmlns="http://www.w3.org/2000/svg">
<path opacity="0.4" fill-rule="evenodd" clip-rule="evenodd" d="M16.0303 8.46969C16.3232 8.76259 16.3232 9.23746 16.0303 9.53035L13.5605 12L16.0303 14.4697C16.3232 14.7625 16.3232 15.2374 16.0303 15.5303C15.7375 15.8232 15.2626 15.8232 14.9697 15.5303L12.4998 13.0606L10.0303 15.53C9.73741 15.8228 9.26254 15.8228 8.96965 15.5299C8.67677 15.237 8.67678 14.7621 8.96969 14.4693L11.4391 12L8.96969 9.53074C8.67678 9.23786 8.67677 8.76298 8.96965 8.47008C9.26254 8.17718 9.73741 8.17716 10.0303 8.47005L12.4998 10.9394L14.9697 8.46965C15.2626 8.17677 15.7375 8.17678 16.0303 8.46969Z" fill="#0c4f89"/>
<path fill-rule="evenodd" clip-rule="evenodd" d="M12.4428 1.75H12.5572C14.7479 1.74999 16.4686 1.74998 17.812 1.93059C19.1886 2.11568 20.2809 2.50271 21.1391 3.36091C21.9973 4.21911 22.3843 5.31137 22.5694 6.68802C22.75 8.03144 22.75 9.75212 22.75 11.9428V12.0572C22.75 14.2479 22.75 15.9686 22.5694 17.312C22.3843 18.6886 21.9973 19.7809 21.1391 20.6391C20.2809 21.4973 19.1886 21.8843 17.812 22.0694C16.4686 22.25 14.7479 22.25 12.5572 22.25H12.4428C10.2521 22.25 8.53144 22.25 7.18802 22.0694C5.81137 21.8843 4.71911 21.4973 3.86091 20.6391C3.00271 19.7809 2.61568 18.6886 2.43059 17.312C2.24998 15.9686 2.24999 14.2479 2.25 12.0572V11.9428C2.24999 9.75212 2.24998 8.03144 2.43059 6.68802C2.61568 5.31137 3.00272 4.21911 3.86091 3.36091C4.71911 2.50272 5.81137 2.11568 7.18802 1.93059C8.53144 1.74998 10.2521 1.74999 12.4428 1.75ZM7.38789 3.41722C6.17757 3.57994 5.45462 3.88853 4.92157 4.42157C4.38853 4.95462 4.07994 5.67757 3.91722 6.88789C3.75159 8.11979 3.75 9.73963 3.75 12C3.75 14.2604 3.75159 15.8802 3.91722 17.1121C4.07994 18.3224 4.38853 19.0454 4.92157 19.5784C5.45462 20.1115 6.17757 20.4201 7.38789 20.5828C8.61979 20.7484 10.2396 20.75 12.5 20.75C14.7604 20.75 16.3802 20.7484 17.6121 20.5828C18.8224 20.4201 19.5454 20.1115 20.0784 19.5784C20.6115 19.0454 20.9201 18.3224 21.0828 17.1121C21.2484 15.8802 21.25 14.2604 21.25 12C21.25 9.73963 21.2484 8.11979 21.0828 6.88789C20.9201 5.67757 20.6115 4.95462 20.0784 4.42157C19.5454 3.88853 18.8224 3.57994 17.6121 3.41722C16.3802 3.25159 14.7604 3.25 12.5 3.25C10.2396 3.25 8.61979 3.25159 7.38789 3.41722Z" fill="#0c4f89"/>
</svg>
