<svg width="22" height="22" viewBox="0 0 22 22" fill="none" xmlns="http://www.w3.org/2000/svg">
<path d="M3.75064 12.9709C3.61064 14.6009 4.90063 16.0009 6.54063 16.0009H17.1907C18.6307 16.0009 19.8907 14.8209 20.0007 13.3909L20.5406 5.89087C20.6606 4.23087 19.4007 2.88086 17.7307 2.88086H4.82064" stroke="#0C4F89" stroke-width="1.5" stroke-miterlimit="10" stroke-linecap="round" stroke-linejoin="round"/>
<path d="M1 1H2.74001C3.82001 1 4.67 1.93 4.58 3L4.08 9.05" stroke="#0C4F89" stroke-width="1.5" stroke-miterlimit="10" stroke-linecap="round" stroke-linejoin="round"/>
<path d="M15.25 21C15.9404 21 16.5 20.4404 16.5 19.75C16.5 19.0596 15.9404 18.5 15.25 18.5C14.5596 18.5 14 19.0596 14 19.75C14 20.4404 14.5596 21 15.25 21Z" stroke="#0C4F89" stroke-width="1.5" stroke-miterlimit="10" stroke-linecap="round" stroke-linejoin="round"/>
<path d="M7.25 21C7.94036 21 8.5 20.4404 8.5 19.75C8.5 19.0596 7.94036 18.5 7.25 18.5C6.55964 18.5 6 19.0596 6 19.75C6 20.4404 6.55964 21 7.25 21Z" stroke="#0C4F89" stroke-width="1.5" stroke-miterlimit="10" stroke-linecap="round" stroke-linejoin="round"/>
<path d="M8 7H20" stroke="#0C4F89" stroke-width="1.5" stroke-miterlimit="10" stroke-linecap="round" stroke-linejoin="round"/>
</svg>
