<svg width="61" height="61" viewBox="0 0 61 61" fill="none" xmlns="http://www.w3.org/2000/svg">
<path d="M45.2633 45.2633C53.596 36.9306 53.596 23.4205 45.2633 15.0878C36.9305 6.75503 23.4205 6.75504 15.0878 15.0878C6.75502 23.4205 6.75502 36.9306 15.0878 45.2633C23.4205 53.596 36.9306 53.5961 45.2633 45.2633Z" fill="#280008"/>
<path d="M39.4432 39.9898C44.7153 34.7177 44.7153 26.17 39.4432 20.8979C34.1712 15.6258 25.6234 15.6258 20.3514 20.8979C15.0793 26.17 15.0793 34.7177 20.3514 39.9898C25.6234 45.2619 34.1712 45.2619 39.4432 39.9898Z" fill="#1F547A"/>
<path d="M39.9761 30.6204C39.9761 36.1426 35.4984 40.6204 29.9761 40.6204C24.4538 40.6204 19.9761 36.1426 19.9761 30.6204C19.9761 25.0981 24.4538 20.6204 29.9761 20.6204C35.4984 20.6204 39.9761 25.0964 39.9761 30.6204Z" fill="#AED1EA"/>
<path d="M30.0554 31.927L30.0554 40.6216" stroke="black" stroke-width="0.5"/>
<path d="M30.0554 20.5942L30.0554 28.8521" stroke="black" stroke-width="0.5"/>
<path d="M31.6301 30.3523L39.9851 30.3523" stroke="black" stroke-width="0.5"/>
<path d="M19.9612 30.3521L28.3055 30.3521" stroke="black" stroke-width="0.5"/>
<path d="M29.8054 28.6021C30.7718 28.6021 31.5554 29.3854 31.5554 30.3521C31.5554 31.3184 30.7718 32.1021 29.8054 32.1021C28.839 32.1021 28.0554 31.3184 28.0554 30.3521C28.0554 29.3857 28.839 28.6021 29.8054 28.6021Z" stroke="black" stroke-width="0.5"/>
</svg>
