<svg width="59" height="66" viewBox="0 0 59 66" fill="none" xmlns="http://www.w3.org/2000/svg">
<path d="M45.9004 52.5192L49.2599 58.3562C49.7099 59.1102 49.4639 60.0867 48.7094 60.5367C47.9554 60.9867 46.9789 60.7407 46.5289 59.9862L43.1499 54.1157C42.8234 53.5532 43.1744 52.7397 43.9339 52.2992C44.6934 51.8582 45.5739 51.9567 45.9004 52.5192Z" fill="#455A64"/>
<path d="M19.1583 42.2241L13.3213 45.5836C12.5673 46.0336 11.5908 45.7876 11.1408 45.0331C10.6908 44.2791 10.9373 43.3026 11.6913 42.8526L17.5618 39.4736C18.1243 39.1471 18.9378 39.4981 19.3788 40.2576C19.8188 41.0171 19.7203 41.8976 19.1583 42.2241Z" fill="#455A64"/>
<path d="M12.6941 15.9193L12.6936 15.9183L12.7211 15.9023C12.7221 15.9018 12.7232 15.9013 12.7242 15.9008L26.9366 7.69529C26.9386 7.69379 26.9411 7.69278 26.9431 7.69178L26.9821 7.66928L26.9831 7.67078C30.1036 5.89378 34.4016 6.16278 39.1471 8.90278C48.6816 14.4073 56.4106 27.7948 56.4106 38.8043C56.4106 44.2918 54.4896 48.1518 51.3826 49.9628L51.3831 49.9638L51.3557 49.9798C51.3547 49.9803 51.3531 49.9813 51.3521 49.9818L37.1381 58.1883C37.1371 58.1888 37.1361 58.1893 37.1351 58.1898L37.1026 58.2088L37.1021 58.2073C33.9806 59.9893 29.6796 59.7223 24.9296 56.9798C15.3951 51.4753 7.66614 38.0878 7.66614 27.0783C7.66614 21.5898 9.58714 17.7298 12.6941 15.9193Z" fill="#4998D0"/>
<path opacity="0.1" d="M37.3656 58.0507L51.3506 49.9807C51.3556 49.9807 51.3557 49.9807 51.3557 49.9807L51.3857 49.9607C54.4907 48.1457 56.4106 44.2857 56.4106 38.8057C56.4106 33.8957 54.8706 28.5157 52.3256 23.5757L38.1106 31.7807C40.6606 36.7207 42.1956 42.1007 42.1956 47.0107C42.1956 52.3807 40.3556 56.1907 37.3656 58.0507Z" fill="black"/>
<path opacity="0.4" d="M12.7256 44.0981C5.98376 32.4211 5.98372 19.7996 12.7255 15.9071C19.4673 12.0146 30.398 18.3251 37.1399 30.0021C43.8818 41.679 43.8818 54.3005 37.14 58.193C30.3982 62.0855 19.4675 55.775 12.7256 44.0981Z" fill="white"/>
<path d="M32.6404 55.8367C38.1039 55.8367 38.6938 49.6647 38.6938 47.0117C38.6938 37.3012 31.5893 24.9962 23.1803 20.1417C21.0403 18.9057 18.9793 18.2527 17.2203 18.2527C11.7563 18.2527 11.1668 24.4247 11.1668 27.0777C11.1668 36.7877 18.2713 49.0927 26.6803 53.9477C28.8203 55.1832 30.8819 55.8367 32.6404 55.8367Z" fill="#FAFAFA"/>
<path d="M28.7573 48.2927C28.7848 48.2927 28.8123 48.2882 28.8398 48.2787C28.9703 48.2332 29.0388 48.0907 28.9933 47.9602L25.1668 37.0347C25.1208 36.9042 24.9783 36.8352 24.8483 36.8812C24.7178 36.9267 24.6493 37.0692 24.6948 37.1997L28.5213 48.1252C28.5573 48.2282 28.6543 48.2927 28.7573 48.2927Z" fill="#4998D0"/>
<path d="M19.1962 40.3471C19.2952 40.3471 19.3962 40.3276 19.4937 40.2856L25.6802 37.6101V26.3901C25.6802 25.9761 25.3442 25.6401 24.9302 25.6401C24.5162 25.6401 24.1802 25.9761 24.1802 26.3901V36.6246L18.8982 38.9081C18.5182 39.0726 18.3432 39.5141 18.5077 39.8946C18.6302 40.1781 18.9062 40.3471 19.1962 40.3471Z" fill="#37474F"/>
<path d="M24.9302 34.6992C23.8087 34.0517 22.8992 34.5767 22.8992 35.8717C22.8992 37.1672 23.8087 38.7422 24.9302 39.3897C26.0517 40.0372 26.9612 39.5122 26.9612 38.2172C26.9612 36.9217 26.0522 35.3467 24.9302 34.6992Z" fill="#4998D0"/>
<path d="M41.4491 26.6473C43.8996 30.8863 48.5121 32.8023 51.9816 30.7988C56.2216 28.3498 57.6701 22.9253 55.2196 18.6863C52.7691 14.4473 47.3311 12.9723 43.1071 15.4488C39.6501 17.4748 38.9981 22.4088 41.4491 26.6473Z" fill="#455A64"/>
<path d="M51.9819 30.7988C48.5124 32.8028 43.9004 30.8863 41.4494 26.6473C40.8769 25.6578 40.4809 24.6303 40.2434 23.6108C40.3854 23.7948 44.4619 28.9943 49.5309 27.5318C54.6909 26.0428 55.6639 22.0668 55.2194 18.6863C57.6699 22.9253 56.2214 28.3498 51.9819 30.7988Z" fill="#37474F"/>
<path d="M53.4089 17.8238L56.0364 16.3043C56.7904 15.8543 57.7669 16.1004 58.2169 16.8549C58.6669 17.6089 58.4209 18.5853 57.6664 19.0353L55.0054 20.5743C54.4429 20.9008 53.6294 20.5498 53.1884 19.7903C52.7479 19.0303 52.8464 18.1503 53.4089 17.8238Z" fill="#4998D0"/>
<path d="M14.1767 5.1408L12.6572 2.51329C12.2072 1.75929 12.4532 0.782796 13.2077 0.332796C13.9617 -0.117204 14.9382 0.129295 15.3882 0.883295L16.9272 3.5443C17.2537 4.1068 16.9027 4.9203 16.1432 5.3613C15.3837 5.8018 14.5032 5.7028 14.1767 5.1408Z" fill="#4998D0"/>
<path d="M26.8833 6.22333C24.4328 1.98433 19.0098 0.534824 14.7708 2.98582C10.5318 5.43632 9.08229 10.8593 11.5333 15.0983L26.8833 6.22333Z" fill="#455A64"/>
<path d="M13.4598 3.91919C12.9563 4.96669 11.5983 9.39269 13.4643 10.4902C15.3358 11.5907 23.9153 7.93919 23.9153 7.93919L11.5328 15.0982C9.35629 11.3332 10.2618 6.64019 13.4598 3.91919Z" fill="#37474F"/>
</svg>
