<svg width="507" height="544" viewBox="0 0 507 544" fill="none" xmlns="http://www.w3.org/2000/svg">
<g filter="url(#filter0_dddd_599_1863)">
<path d="M278.038 469.222C281.924 474.626 280.694 482.158 275.289 486.044C269.885 489.931 262.353 488.7 258.467 483.296C254.58 477.891 255.811 470.359 261.215 466.473C266.62 462.587 274.152 463.817 278.038 469.222Z" fill="#2BA9E0" class="svg-elem-1"></path>
<path d="M85.4028 20.1143C93.9605 23.1582 98.4304 32.5631 95.3865 41.1208C92.3426 49.6785 82.9376 54.1484 74.3799 51.1045C65.8222 48.0606 61.3523 38.6556 64.3962 30.0979C67.4401 21.5402 76.8451 17.0704 85.4028 20.1143Z" fill="#2BA9E0" class="svg-elem-2"></path>
<path d="M62.3448 215.475C66.7501 220.211 66.4822 227.621 61.7465 232.027C57.0108 236.432 49.6006 236.164 45.1953 231.428C40.79 226.693 41.0578 219.283 45.7935 214.877C50.5292 210.472 57.9395 210.74 62.3448 215.475Z" fill="#2BA9E0" class="svg-elem-3"></path>
<path d="M437.775 339.185C436.733 340.033 435.463 340.552 434.125 340.678C432.788 340.804 431.443 340.53 430.261 339.892C429.079 339.253 428.113 338.279 427.485 337.091C426.857 335.904 426.595 334.557 426.733 333.22C426.871 331.884 427.401 330.618 428.258 329.584C429.115 328.549 430.259 327.792 431.547 327.408C432.834 327.023 434.206 327.03 435.49 327.425C436.774 327.821 437.911 328.589 438.759 329.631C439.895 331.028 440.43 332.82 440.246 334.612C440.061 336.403 439.173 338.048 437.775 339.185Z" fill="#2BA9E0" class="svg-elem-4"></path>
<path d="M141.862 420.683C143.016 419.747 144.421 419.173 145.9 419.035C147.38 418.897 148.867 419.2 150.174 419.907C151.481 420.614 152.548 421.693 153.242 423.007C153.936 424.321 154.225 425.811 154.072 427.289C153.919 428.767 153.331 430.166 152.382 431.31C151.434 432.454 150.168 433.291 148.744 433.715C147.32 434.139 145.802 434.132 144.383 433.694C142.963 433.255 141.705 432.406 140.768 431.253C140.146 430.487 139.681 429.606 139.399 428.66C139.117 427.715 139.024 426.723 139.126 425.741C139.227 424.76 139.522 423.808 139.991 422.94C140.461 422.072 141.096 421.305 141.862 420.683Z" fill="#2BA9E0" class="svg-elem-5"></path>
<path d="M381.439 32.4644C382.593 31.5284 383.998 30.9554 385.477 30.8177C386.956 30.6801 388.443 30.984 389.749 31.6912C391.055 32.3983 392.123 33.4769 392.817 34.7905C393.51 36.1042 393.799 37.594 393.646 39.0716C393.493 40.5492 392.905 41.9483 391.957 43.0921C391.01 44.2358 389.744 45.0729 388.32 45.4976C386.897 45.9222 385.379 45.9153 383.96 45.4777C382.54 45.0401 381.282 44.1915 380.345 43.0391C379.088 41.4917 378.497 39.5083 378.702 37.5252C378.907 35.5421 379.892 33.7217 381.439 32.4644Z" fill="#2BA9E0" class="svg-elem-6"></path>
<path d="M41.0036 123.655C40.7956 122.942 40.3947 122.3 39.8451 121.801C39.2955 121.301 38.6186 120.963 37.889 120.824C37.1748 120.693 36.4383 120.762 35.7607 121.023C35.0831 121.284 34.4906 121.727 34.0484 122.303C33.9638 122.44 33.8369 122.547 33.6865 122.606C33.5361 122.666 33.3704 122.675 33.2144 122.632C33.0585 122.59 32.9207 122.497 32.8215 122.37C32.7224 122.242 32.6674 122.085 32.6648 121.924C32.3755 118.63 28.5769 117.189 25.7464 117.063C24.2786 116.984 22.7423 117.331 22.1794 118.846C21.5639 120.514 22.2899 122.303 22.8792 123.86C22.9177 124.018 22.9043 124.183 22.8408 124.333C22.7773 124.482 22.6672 124.607 22.527 124.689C22.3867 124.77 22.2238 124.804 22.0625 124.786C21.9013 124.767 21.7505 124.697 21.6324 124.586C20.3487 123.129 17.9969 123.692 16.4396 124.37C15.5231 124.718 14.7302 125.329 14.1615 126.127C13.8937 126.603 13.7241 127.127 13.6627 127.669C13.6012 128.212 13.6492 128.761 13.8038 129.284C14.7719 133.256 18.5861 136.187 22.4688 136.939C22.5578 136.951 22.6432 136.982 22.7194 137.029C22.7955 137.077 22.8606 137.14 22.9104 137.214C22.9602 137.289 22.9936 137.374 23.0081 137.462C23.0227 137.551 23.0181 137.641 22.9949 137.728C23.1012 137.791 23.1875 137.882 23.2434 137.992C23.2994 138.102 23.3227 138.226 23.3106 138.349C23.1896 140.637 24.5417 143.331 27.0302 143.668C29.745 144.041 29.8765 140.864 29.787 138.97C29.787 138.37 30.6603 137.917 31.0654 138.444C32.7174 140.548 36.4791 139.496 38.3468 138.259C39.5674 137.454 40.4249 135.971 39.7252 134.54C39.0254 133.109 37.305 132.399 35.8529 131.83C35.6845 131.776 35.5407 131.664 35.4467 131.514C35.3527 131.364 35.3145 131.186 35.339 131.01C35.3635 130.835 35.4491 130.674 35.5806 130.555C35.7122 130.437 35.8813 130.369 36.0582 130.363C39.3622 130.094 42.0979 127.006 41.0036 123.655Z" fill="white" class="svg-elem-7"></path>
<path d="M149.024 295.481C148.424 295.883 147.701 296.06 146.983 295.981C146.496 295.929 146.039 295.718 145.684 295.381C145.659 295.37 145.636 295.356 145.615 295.339C145.335 295.099 145.109 294.802 144.952 294.469C144.795 294.135 144.711 293.771 144.705 293.403C144.703 293.001 144.783 292.604 144.941 292.235C145.098 291.866 145.33 291.532 145.621 291.256C145.887 290.963 146.22 290.738 146.592 290.599C146.964 290.461 147.363 290.414 147.757 290.462C148.164 290.521 148.556 290.664 148.907 290.88C149.258 291.096 149.561 291.382 149.798 291.719C150.183 292.324 150.318 293.054 150.174 293.757C150.029 294.459 149.617 295.077 149.024 295.481Z" fill="white" class="svg-elem-8"></path>
<path d="M223.343 353.773C222.483 354.35 221.447 354.606 220.418 354.494C219.719 354.414 219.064 354.111 218.55 353.631C218.518 353.613 218.488 353.592 218.46 353.568C218.058 353.225 217.734 352.8 217.508 352.322C217.282 351.844 217.16 351.324 217.15 350.795C217.15 350.22 217.265 349.651 217.49 349.122C217.716 348.593 218.046 348.116 218.46 347.718C218.843 347.296 219.322 346.973 219.855 346.775C220.389 346.578 220.963 346.511 221.528 346.581C222.112 346.667 222.672 346.871 223.175 347.18C223.678 347.489 224.113 347.898 224.453 348.381C225.004 349.248 225.197 350.295 224.99 351.302C224.782 352.308 224.192 353.194 223.343 353.773Z" fill="white" class="svg-elem-9"></path>
<path d="M287.723 6.7638C287.572 6.25072 287.283 5.78923 286.886 5.43004C286.49 5.07084 286.002 4.82785 285.477 4.72777C284.964 4.63225 284.435 4.67996 283.948 4.86559C283.461 5.05122 283.034 5.3676 282.715 5.77998C282.662 5.89116 282.572 5.98033 282.46 6.03193C282.348 6.08352 282.222 6.09428 282.103 6.06237C281.984 6.03046 281.88 5.95793 281.809 5.85731C281.739 5.75668 281.705 5.63435 281.715 5.51166C281.51 3.13892 278.774 2.11832 276.733 2.00784C275.681 1.94997 274.571 2.20247 274.166 3.29151C273.724 4.49629 274.245 5.77999 274.692 6.90586C274.881 7.43197 274.134 7.82129 273.792 7.43197C272.866 6.37975 271.162 6.79015 270.051 7.27417C269.391 7.526 268.82 7.96703 268.41 8.54204C268.217 8.88515 268.094 9.26363 268.05 9.65495C268.006 10.0463 268.04 10.4425 268.152 10.8201C268.852 13.6874 271.598 15.7918 274.397 16.339C274.461 16.3479 274.522 16.3703 274.576 16.4047C274.631 16.4391 274.677 16.4847 274.712 16.5385C274.748 16.5923 274.771 16.653 274.781 16.7165C274.791 16.7801 274.788 16.8451 274.771 16.9072C274.849 16.9506 274.912 17.0164 274.952 17.0961C274.993 17.1758 275.008 17.2657 274.997 17.3543C274.913 19.001 275.886 20.9424 277.675 21.1844C279.632 21.4527 279.727 19.1642 279.663 17.8016C279.663 17.3649 280.29 17.0492 280.584 17.4227C281.773 18.9274 284.477 18.1856 285.845 17.2859C286.719 16.7072 287.339 15.6392 286.839 14.6081C286.34 13.5769 285.093 13.0666 284.046 12.6562C283.906 12.6367 283.78 12.5625 283.695 12.45C283.611 12.3375 283.574 12.196 283.593 12.0565C283.613 11.9169 283.687 11.7909 283.8 11.706C283.912 11.6212 284.054 11.5845 284.193 11.604C286.54 11.3936 288.497 9.17863 287.723 6.7638Z" fill="white" class="svg-elem-10"></path>
<path d="M62.017 66.9347C62.787 67.2951 63.3828 67.9459 63.6742 68.7446C63.7489 68.8717 63.8073 69.0078 63.8478 69.1497C64.0532 69.9984 64.0247 70.8868 63.7653 71.7206C63.5059 72.5544 63.0253 73.3023 62.3747 73.8846C61.639 74.4827 60.7611 74.8802 59.8263 75.0388C58.8916 75.1973 57.9316 75.1115 57.0399 74.7895C56.578 74.6305 56.1533 74.3792 55.7915 74.0508C55.4298 73.7225 55.1385 73.3241 54.9355 72.8798C54.559 71.9601 54.5329 70.9344 54.8619 69.9967C55.5142 68.0922 57.4924 66.9821 59.3654 66.6507C60.2576 66.4748 61.1822 66.5739 62.017 66.9347Z" fill="white" class="svg-elem-11"></path>
<path d="M359.867 3.38637C360.599 3.50502 361.266 3.87753 361.75 4.43858C362.068 4.82211 362.253 5.29842 362.276 5.79592C362.279 5.82038 362.279 5.84512 362.276 5.86958C362.323 6.24735 362.288 6.6307 362.173 6.99372C362.059 7.35675 361.868 7.69101 361.614 7.97401C361.336 8.27565 360.999 8.51754 360.625 8.68488C360.25 8.85222 359.846 8.94148 359.435 8.94729C359.032 8.98085 358.626 8.91773 358.252 8.7631C357.878 8.60847 357.546 8.36681 357.284 8.0582C357.019 7.73001 356.823 7.35133 356.709 6.94523C356.595 6.53913 356.565 6.11411 356.621 5.69599C356.746 4.95962 357.158 4.30283 357.766 3.86983C358.375 3.43684 359.13 3.26298 359.867 3.38637Z" fill="white" class="svg-elem-12"></path>
<path d="M469.718 340.084C466.399 339.469 465.125 336.175 465.578 333.113C465.731 332.014 464.373 331.767 463.747 332.419C463.605 332.505 463.488 332.625 463.405 332.769C463.322 332.912 463.277 333.074 463.274 333.24C463.187 335.125 462.493 336.932 461.295 338.39C460.712 339.095 460.019 339.703 459.244 340.19C458.465 340.668 457.613 340.989 457.35 341.957C457.271 342.227 457.301 342.516 457.431 342.764C457.562 343.012 457.783 343.2 458.049 343.288C459.628 343.846 461.327 344.404 462.506 345.645C463.684 346.887 464.084 348.586 464.157 350.249C464.194 351.606 466.225 351.701 466.288 350.317C466.425 347.266 466.904 343.625 469.913 342.047C470.66 341.652 470.655 340.263 469.718 340.084Z" fill="white" class="svg-elem-13"></path>
<path d="M311.586 124.122C310.333 123.805 309.237 123.043 308.504 121.978C307.77 120.914 307.448 119.619 307.598 118.335C307.662 118.063 307.621 117.776 307.482 117.533C307.344 117.29 307.118 117.108 306.851 117.025C306.666 116.978 306.472 116.978 306.288 117.025C306.162 117.029 306.038 117.06 305.924 117.114C305.81 117.169 305.709 117.247 305.628 117.343C305.546 117.439 305.485 117.552 305.449 117.673C305.414 117.794 305.403 117.921 305.42 118.046C305.63 121.034 303.184 123.112 301.085 124.848C300.411 125.417 300.89 126.369 301.568 126.632C302.884 127.168 304.032 128.047 304.891 129.178C305.751 130.309 306.292 131.65 306.456 133.061C306.593 134.402 308.561 134.455 308.592 133.061C308.629 130.383 309.276 127.416 311.843 126.064C312.028 125.961 312.178 125.805 312.273 125.616C312.368 125.428 312.404 125.215 312.376 125.005C312.348 124.796 312.258 124.599 312.117 124.442C311.976 124.285 311.791 124.173 311.586 124.122Z" fill="white" class="svg-elem-14"></path>
<path d="M494.557 177.598C494.35 176.886 493.949 176.245 493.399 175.746C492.849 175.247 492.172 174.91 491.443 174.773C490.73 174.641 489.994 174.709 489.317 174.968C488.64 175.228 488.049 175.671 487.608 176.246C487.522 176.382 487.395 176.488 487.245 176.546C487.095 176.605 486.931 176.614 486.775 176.572C486.62 176.531 486.482 176.44 486.382 176.314C486.281 176.188 486.224 176.033 486.219 175.873C485.934 172.579 482.131 171.164 479.3 171.006C477.832 170.927 476.301 171.274 475.739 172.795C475.123 174.463 475.844 176.246 476.438 177.809C476.701 178.498 475.665 179.082 475.186 178.529C473.902 177.072 471.556 177.64 469.993 178.314C469.081 178.663 468.292 179.274 467.726 180.071C467.459 180.547 467.291 181.071 467.229 181.613C467.168 182.155 467.215 182.704 467.368 183.228C468.336 187.205 472.151 190.13 476.033 190.882C476.364 191.319 476.645 191.792 476.87 192.292C476.754 194.586 478.101 197.28 480.589 197.611C483.309 197.985 483.441 194.812 483.351 192.918C483.356 192.772 483.403 192.631 483.486 192.511C483.569 192.391 483.685 192.297 483.82 192.242C483.955 192.186 484.104 192.171 484.247 192.197C484.391 192.224 484.524 192.292 484.63 192.392C486.276 194.497 490.038 193.445 491.906 192.203C493.126 191.398 494.01 189.914 493.29 188.489C492.569 187.063 490.869 186.342 489.417 185.774C489.247 185.723 489.1 185.612 489.004 185.463C488.907 185.313 488.867 185.134 488.892 184.957C488.916 184.781 489.002 184.619 489.135 184.5C489.268 184.382 489.439 184.315 489.617 184.311C492.932 184.027 495.641 180.95 494.557 177.598Z" fill="white" class="svg-elem-15"></path>
<path d="M352.629 490.773C349.309 490.157 348.031 486.864 348.483 483.802C348.641 482.702 347.283 482.455 346.652 483.107C346.511 483.193 346.394 483.314 346.312 483.457C346.231 483.601 346.186 483.763 346.184 483.928C346.096 485.814 345.4 487.621 344.201 489.079C343.618 489.785 342.925 490.393 342.149 490.878C341.375 491.357 340.518 491.678 340.255 492.646C340.178 492.915 340.208 493.203 340.338 493.451C340.468 493.699 340.689 493.887 340.954 493.977C342.533 494.529 344.232 495.092 345.411 496.334C346.589 497.575 346.989 499.275 347.063 500.937C347.105 502.294 349.135 502.389 349.199 501.005C349.33 497.949 349.814 494.308 352.818 492.735C353.586 492.34 353.581 490.946 352.629 490.773Z" fill="white" class="svg-elem-16"></path>
<path d="M63.3376 482.781C62.0848 482.462 60.9897 481.7 60.2555 480.636C59.5213 479.572 59.1977 478.278 59.3444 476.993C59.4093 476.722 59.3688 476.436 59.2312 476.192C59.0935 475.949 58.869 475.768 58.6027 475.683C58.418 475.636 58.2244 475.636 58.0397 475.683C57.9131 475.687 57.7887 475.717 57.6744 475.771C57.5601 475.826 57.4585 475.903 57.3762 476C57.2939 476.096 57.2328 476.208 57.1966 476.33C57.1604 476.451 57.15 476.578 57.1663 476.704C57.382 479.692 54.9356 481.77 52.8364 483.507C52.163 484.075 52.6419 485.027 53.3205 485.29C54.6362 485.826 55.7838 486.705 56.6435 487.836C57.5033 488.967 58.0436 490.308 58.2081 491.719C58.3449 493.061 60.3124 493.113 60.3387 491.719C60.3808 489.041 61.028 486.074 63.5954 484.722C63.7802 484.619 63.9297 484.463 64.0247 484.275C64.1196 484.086 64.1555 483.873 64.1277 483.663C64.0999 483.454 64.0097 483.258 63.8688 483.1C63.7278 482.943 63.5428 482.831 63.3376 482.781Z" fill="white" class="svg-elem-17"></path>
<path d="M235.433 280.981C235.283 280.469 234.994 280.007 234.599 279.648C234.203 279.289 233.717 279.046 233.192 278.945C232.679 278.85 232.15 278.897 231.663 279.083C231.176 279.269 230.749 279.585 230.43 279.998C230.377 280.109 230.287 280.198 230.175 280.249C230.063 280.301 229.937 280.312 229.818 280.28C229.699 280.248 229.595 280.175 229.525 280.075C229.454 279.974 229.42 279.852 229.43 279.729C229.225 277.356 226.484 276.336 224.443 276.225C223.391 276.167 222.286 276.42 221.881 277.514C221.439 278.714 221.96 279.998 222.407 281.123C222.596 281.623 221.849 282.039 221.507 281.649C220.581 280.597 218.876 281.008 217.766 281.492C217.106 281.742 216.534 282.183 216.125 282.76C215.932 283.104 215.809 283.483 215.765 283.875C215.72 284.267 215.755 284.664 215.867 285.043C216.562 287.905 219.308 290.015 222.107 290.556C222.171 290.565 222.232 290.588 222.286 290.622C222.34 290.657 222.387 290.702 222.422 290.756C222.458 290.81 222.481 290.871 222.491 290.934C222.501 290.998 222.498 291.063 222.48 291.125C222.558 291.169 222.621 291.235 222.662 291.314C222.703 291.393 222.721 291.483 222.712 291.572C222.622 293.219 223.596 295.16 225.39 295.402C227.347 295.67 227.442 293.382 227.378 292.019C227.372 291.91 227.399 291.801 227.458 291.708C227.516 291.615 227.602 291.542 227.703 291.501C227.805 291.459 227.917 291.45 228.024 291.475C228.131 291.5 228.227 291.558 228.299 291.64C229.483 293.145 232.192 292.408 233.56 291.509C234.439 290.925 235.06 289.857 234.555 288.831C234.049 287.805 232.813 287.284 231.766 286.874C231.627 286.854 231.501 286.78 231.416 286.668C231.331 286.555 231.294 286.413 231.314 286.274C231.333 286.134 231.407 286.008 231.52 285.924C231.632 285.839 231.774 285.802 231.913 285.822C234.255 285.616 236.233 283.396 235.433 280.981Z" fill="white" class="svg-elem-18"></path>
<path d="M476.837 114.369H450.916C450.255 114.37 449.621 114.634 449.154 115.101C448.686 115.568 448.423 116.202 448.422 116.863V126.333C448.422 126.994 448.685 127.628 449.152 128.096C449.62 128.564 450.254 128.826 450.916 128.826H476.837C477.499 128.826 478.134 128.564 478.602 128.096C479.071 127.629 479.335 126.995 479.336 126.333V116.863C479.335 116.201 479.071 115.567 478.602 115.099C478.134 114.632 477.499 114.369 476.837 114.369ZM450.916 127.906C450.497 127.906 450.096 127.739 449.8 127.443C449.504 127.147 449.337 126.746 449.337 126.327V116.857C449.337 116.439 449.504 116.037 449.8 115.741C450.096 115.445 450.497 115.279 450.916 115.279H476.837C477.256 115.279 477.657 115.445 477.953 115.741C478.249 116.037 478.415 116.439 478.415 116.857V126.327C478.415 126.746 478.249 127.147 477.953 127.443C477.657 127.739 477.256 127.906 476.837 127.906H450.916Z" fill="#2BA9E0" class="svg-elem-19"></path>
<path d="M109.441 451.43H83.5035C82.8426 451.431 82.2091 451.694 81.7418 452.161C81.2744 452.629 81.0112 453.262 81.0098 453.923V463.393C81.0098 464.055 81.2726 464.689 81.7402 465.157C82.2079 465.624 82.8421 465.887 83.5035 465.887H109.441C110.102 465.887 110.736 465.624 111.204 465.157C111.672 464.689 111.934 464.055 111.934 463.393V453.923C111.933 453.262 111.67 452.629 111.203 452.161C110.735 451.694 110.102 451.431 109.441 451.43ZM83.514 464.966C83.0954 464.966 82.694 464.8 82.398 464.504C82.102 464.208 81.9357 463.807 81.9357 463.388V453.918C81.9357 453.499 82.102 453.098 82.398 452.802C82.694 452.506 83.0954 452.34 83.514 452.34H109.441C109.859 452.34 110.261 452.506 110.557 452.802C110.853 453.098 111.019 453.499 111.019 453.918V463.388C111.019 463.807 110.853 464.208 110.557 464.504C110.261 464.8 109.859 464.966 109.441 464.966H83.514Z" fill="#2BA9E0" class="svg-elem-20"></path>
<path d="M40.4151 48.0734H14.4937C13.8328 48.0747 13.1992 48.3379 12.7319 48.8053C12.2645 49.2727 12.0014 49.9061 12 50.5671V60.037C12 60.6984 12.2627 61.3327 12.7303 61.8004C13.198 62.268 13.8324 62.5308 14.4937 62.5308H40.4151C41.0765 62.5308 41.7107 62.268 42.1784 61.8004C42.646 61.3327 42.9088 60.6984 42.9088 60.037V50.5671C42.9088 49.9057 42.646 49.2714 42.1784 48.8038C41.7107 48.3361 41.0765 48.0734 40.4151 48.0734ZM14.4937 61.6101C14.0751 61.6101 13.6737 61.4438 13.3777 61.1478C13.0817 60.8518 12.9154 60.4504 12.9154 60.0318V50.5618C12.9154 50.1432 13.0817 49.7418 13.3777 49.4458C13.6737 49.1499 14.0751 48.9835 14.4937 48.9835H40.4151C40.8337 48.9835 41.2351 49.1499 41.5311 49.4458C41.8271 49.7418 41.9934 50.1432 41.9934 50.5618V60.0318C41.9934 60.4504 41.8271 60.8518 41.5311 61.1478C41.2351 61.4438 40.8337 61.6101 40.4151 61.6101H14.4937Z" fill="#2BA9E0" class="svg-elem-21"></path>
<path d="M125.728 497.606H138.686C139.226 497.606 139.744 497.391 140.126 497.01C140.507 496.628 140.722 496.11 140.722 495.57V486.1C140.722 485.56 140.507 485.042 140.126 484.66C139.744 484.278 139.226 484.064 138.686 484.064H125.723V497.606H125.728Z" fill="#2BA9E0" class="svg-elem-22"></path>
<path d="M367.006 416.438H354.043C353.503 416.438 352.985 416.652 352.603 417.034C352.221 417.416 352.007 417.934 352.007 418.474V427.943C352.007 428.483 352.221 429.001 352.603 429.383C352.985 429.765 353.503 429.979 354.043 429.979H367.006V416.438Z" fill="#2BA9E0" class="svg-elem-23"></path>
<path d="M405.37 382.687H379.449C378.787 382.687 378.153 382.95 377.686 383.418C377.218 383.885 376.955 384.52 376.955 385.181V394.651C376.956 395.312 377.22 395.945 377.687 396.413C378.154 396.88 378.788 397.143 379.449 397.145H405.37C406.032 397.145 406.667 396.882 407.135 396.415C407.604 395.947 407.868 395.313 407.869 394.651V385.181C407.868 384.519 407.604 383.885 407.135 383.417C406.667 382.95 406.032 382.687 405.37 382.687ZM379.449 396.224C379.03 396.224 378.629 396.058 378.333 395.762C378.037 395.466 377.87 395.064 377.87 394.646V385.176C377.87 384.757 378.037 384.356 378.333 384.06C378.629 383.764 379.03 383.598 379.449 383.598H405.37C405.789 383.598 406.19 383.764 406.486 384.06C406.782 384.356 406.948 384.757 406.948 385.176V394.646C406.948 395.064 406.782 395.466 406.486 395.762C406.19 396.058 405.789 396.224 405.37 396.224H379.449Z" fill="#2BA9E0" class="svg-elem-24"></path>
<path d="M50.473 303.273H24.5517C23.4273 303.273 22.5156 302.361 22.5156 301.237V291.772C22.5156 290.648 23.4273 289.736 24.5517 289.736H50.473C51.5975 289.736 52.509 290.648 52.509 291.772V301.237C52.509 302.361 51.5975 303.273 50.473 303.273Z" fill="#2BA9E0" class="svg-elem-25"></path>
</g>
<defs>
<filter id="filter0_dddd_599_1863" x="0" y="0.000244141" width="506.801" height="544" filterUnits="userSpaceOnUse" color-interpolation-filters="sRGB">
<feFlood flood-opacity="0" result="BackgroundImageFix"></feFlood>
<feColorMatrix in="SourceAlpha" type="matrix" values="0 0 0 0 0 0 0 0 0 0 0 0 0 0 0 0 0 0 127 0" result="hardAlpha"></feColorMatrix>
<feOffset dy="2"></feOffset>
<feGaussianBlur stdDeviation="2"></feGaussianBlur>
<feColorMatrix type="matrix" values="0 0 0 0 0.168627 0 0 0 0 0.662745 0 0 0 0 0.878431 0 0 0 0.1 0"></feColorMatrix>
<feBlend mode="normal" in2="BackgroundImageFix" result="effect1_dropShadow_599_1863"></feBlend>
<feColorMatrix in="SourceAlpha" type="matrix" values="0 0 0 0 0 0 0 0 0 0 0 0 0 0 0 0 0 0 127 0" result="hardAlpha"></feColorMatrix>
<feOffset dy="7"></feOffset>
<feGaussianBlur stdDeviation="3.5"></feGaussianBlur>
<feColorMatrix type="matrix" values="0 0 0 0 0.168627 0 0 0 0 0.662745 0 0 0 0 0.878431 0 0 0 0.09 0"></feColorMatrix>
<feBlend mode="normal" in2="effect1_dropShadow_599_1863" result="effect2_dropShadow_599_1863"></feBlend>
<feColorMatrix in="SourceAlpha" type="matrix" values="0 0 0 0 0 0 0 0 0 0 0 0 0 0 0 0 0 0 127 0" result="hardAlpha"></feColorMatrix>
<feOffset dy="17"></feOffset>
<feGaussianBlur stdDeviation="5"></feGaussianBlur>
<feColorMatrix type="matrix" values="0 0 0 0 0.168627 0 0 0 0 0.662745 0 0 0 0 0.878431 0 0 0 0.05 0"></feColorMatrix>
<feBlend mode="normal" in2="effect2_dropShadow_599_1863" result="effect3_dropShadow_599_1863"></feBlend>
<feColorMatrix in="SourceAlpha" type="matrix" values="0 0 0 0 0 0 0 0 0 0 0 0 0 0 0 0 0 0 127 0" result="hardAlpha"></feColorMatrix>
<feOffset dy="30"></feOffset>
<feGaussianBlur stdDeviation="6"></feGaussianBlur>
<feColorMatrix type="matrix" values="0 0 0 0 0.168627 0 0 0 0 0.662745 0 0 0 0 0.878431 0 0 0 0.01 0"></feColorMatrix>
<feBlend mode="normal" in2="effect3_dropShadow_599_1863" result="effect4_dropShadow_599_1863"></feBlend>
<feBlend mode="normal" in="SourceGraphic" in2="effect4_dropShadow_599_1863" result="shape"></feBlend>
</filter>
</defs>
</svg>
