<svg width="398" height="413" viewBox="0 0 398 413" fill="none" xmlns="http://www.w3.org/2000/svg">
<path d="M389.06 223.965C392.448 228.114 394.311 233.3 394.339 238.657C394.367 244.014 392.558 249.218 389.214 253.403C385.869 257.587 381.191 260.499 375.96 261.652C370.728 262.806 365.26 262.131 360.466 259.74C351.496 266.278 341.295 270.931 330.478 273.419C333.095 277.953 334.201 283.202 333.633 288.407C333.066 293.611 330.855 298.499 327.322 302.362C323.788 306.225 319.116 308.862 313.983 309.89C308.85 310.918 303.523 310.283 298.774 308.079L298.248 308.642C298.689 311.276 298.502 313.976 297.702 316.524C296.902 319.072 295.512 321.395 293.644 323.304C291.777 325.213 289.485 326.654 286.956 327.509C284.426 328.365 281.73 328.612 279.087 328.229C279.358 329.174 279.295 330.184 278.908 331.088C278.521 331.992 277.834 332.735 276.963 333.191C276.092 333.647 275.09 333.789 274.127 333.592C273.163 333.396 272.297 332.873 271.674 332.112L271.596 332.006C272.06 334.125 271.812 336.338 270.891 338.301C269.969 340.264 268.425 341.869 266.498 342.865C264.571 343.861 262.37 344.193 260.235 343.81C258.1 343.426 256.152 342.349 254.692 340.745C251.318 360.924 240.59 379.139 224.579 391.875C208.567 404.611 188.406 410.966 167.985 409.713C147.564 408.461 128.33 399.689 113.995 385.092C99.6599 370.494 91.2389 351.105 90.3568 330.665C87.0993 331.34 83.7235 331.175 80.5475 330.185C77.3715 329.195 74.4999 327.412 72.2034 325.005C69.9069 322.598 68.2612 319.646 67.4213 316.427C66.5814 313.208 66.575 309.828 67.4028 306.606C65.5224 307.162 63.519 307.144 61.6485 306.556C59.778 305.968 58.1251 304.836 56.9011 303.304C55.677 301.772 54.9373 299.91 54.7762 297.956C54.6151 296.002 55.0401 294.044 55.9968 292.333C45.3238 290.266 35.4357 285.272 27.4376 277.909C19.4396 270.546 13.6467 261.104 10.7062 250.638C7.76577 240.172 7.79363 229.095 10.7868 218.644C13.7799 208.192 19.6203 198.78 27.6553 191.457C26.6628 190.516 25.7298 189.515 24.8617 188.458C20.771 183.424 18.3556 177.238 17.9528 170.765C17.55 164.291 19.1801 157.853 22.6152 152.351C19.5607 151.849 16.6363 150.746 14.0108 149.106C11.3854 147.466 9.11123 145.321 7.31979 142.797C5.52836 140.272 4.25515 137.418 3.57398 134.398C2.89281 131.378 2.8171 128.254 3.35125 125.204C3.88541 122.155 5.01883 119.242 6.68592 116.634C8.35302 114.026 10.5208 111.774 13.0637 110.009C15.6066 108.243 18.4742 107 21.5008 106.35C24.5274 105.7 27.6528 105.657 30.6963 106.222C31.4688 96.3561 34.5137 86.8024 39.5927 78.3086C44.6717 69.8148 51.647 62.6113 59.9731 57.2617C68.2991 51.9121 77.75 48.5615 87.5864 47.4719C97.4227 46.3824 107.378 47.5835 116.673 50.9812C120.96 42.8354 126.95 35.7071 134.235 30.08C141.52 24.4529 149.93 20.4586 158.895 18.3683C167.86 16.2779 177.17 16.1403 186.192 17.9648C195.215 19.7893 203.74 23.5333 211.188 28.9426C211.927 24.56 213.596 20.3865 216.083 16.7031C218.57 13.0197 221.817 9.9119 225.606 7.58879C229.395 5.26568 233.637 3.78122 238.048 3.23539C242.459 2.68957 246.935 3.09502 251.176 4.42445C255.417 5.75388 259.324 7.97649 262.634 10.9425C265.944 13.9086 268.58 17.5493 270.364 21.6196C272.149 25.6899 273.041 30.0953 272.98 34.5393C272.92 38.9833 271.907 43.3626 270.012 47.3826C275.727 47.0628 281.356 48.8884 285.795 52.5017C286.227 52.0966 286.674 51.6968 287.142 51.3127C291.837 47.4919 297.761 45.5089 303.809 45.7336C309.858 45.9583 315.619 48.3753 320.017 52.5339C324.415 56.6924 327.15 62.3087 327.713 68.3354C328.276 74.3621 326.627 80.3877 323.075 85.2887C326.874 88.6908 329.779 92.9739 331.535 97.7615C333.29 102.549 333.843 107.695 333.145 112.746C344.465 115.76 355.017 121.142 364.103 128.536C373.19 135.93 380.603 145.169 385.854 155.641C391.105 166.113 394.073 177.58 394.563 189.285C395.053 200.989 393.054 212.665 388.697 223.539C388.818 223.655 388.944 223.823 389.06 223.965Z" fill="white" stroke="#2BA9E0" stroke-width="5" stroke-linecap="round" stroke-linejoin="round"/>
</svg>
