<svg width="365" height="308" viewBox="0 0 365 308" fill="none" xmlns="http://www.w3.org/2000/svg">
<g filter="url(#filter0_d_206_294)">
<path d="M226.732 33.7005C196.685 33.7005 173.572 28.8201 144.68 21.4969C113.477 12.9556 70.7168 27.5994 54.5381 58.1075C38.3594 86.1769 37.2028 134.99 41.8251 167.939C46.1787 213.907 100.748 236.064 155.343 242.568C193.805 253.218 228.272 251.155 264.864 227.738C357.322 169.16 335.364 38.5821 226.732 33.7005Z" fill="#0C4F89"/>
<path d="M333.982 112.53C332.006 98.5079 327.08 85.0643 319.529 73.0852C311.978 61.1062 301.973 50.8639 290.175 43.0336C272.512 31.5093 251.616 25.9751 230.675 25.0352" stroke="#0C4F89" stroke-width="7.43" stroke-miterlimit="10"/>
<path d="M324.314 177.514C331.887 163.389 333.272 147.337 335.096 131.703" stroke="#0C4F89" stroke-width="4.644" stroke-miterlimit="10"/>
<path d="M174.451 256.867C222.63 265.691 270.958 246.554 303.107 210.287C307.853 204.929 312.243 199.266 316.248 193.334" stroke="#0C4F89" stroke-width="7.43" stroke-miterlimit="10"/>
<path d="M34.5747 72.4099C26.9253 94.8795 26.8531 119.15 27.0456 142.623C27.2208 163.845 28.864 186.597 42.3298 204.04" stroke="#0C4F89" stroke-width="7.43" stroke-miterlimit="10"/>
<path d="M141.523 11.7711C102.786 1.16007 61.0198 22.0907 41.7177 56.32" stroke="#0C4F89" stroke-width="7.43" stroke-miterlimit="10"/>
<path d="M74.8568 12.548C76.5317 10.3525 78.2761 9.38226 80.0901 9.6372C80.9179 9.71933 81.7046 10.0373 82.3571 10.5532C83.0096 11.0692 83.5003 11.7615 83.7711 12.548C84.4155 14.2274 83.8985 16.1644 82.2201 18.359C80.749 20.1664 79.5718 22.1942 78.7316 24.3678C77.9888 26.321 77.4048 28.3309 76.9854 30.378C79.7854 30.3822 82.4695 31.4969 84.449 33.4774C85.3836 34.4571 86.1134 35.6134 86.5955 36.8787C87.0777 38.144 87.3025 39.4927 87.2568 40.846C87.3061 42.2512 87.0745 43.6522 86.5756 44.9668C86.0767 46.2815 85.3205 47.4834 84.3514 48.5021C83.3697 49.5022 82.1899 50.2862 80.8876 50.8038C79.5853 51.3214 78.1892 51.5612 76.7888 51.5079C75.3088 51.5848 73.831 51.3185 72.4709 50.7298C71.1108 50.1411 69.9051 49.246 68.9482 48.1144C67.07 45.852 66.1341 42.5887 66.1403 38.3243C66.1838 33.9975 66.803 29.6958 67.9815 25.5324C69.3307 20.7674 71.6739 16.3422 74.8568 12.548ZM107.03 12.548C108.711 10.3525 110.456 9.38226 112.264 9.6372C113.092 9.71949 113.879 10.0375 114.531 10.5534C115.184 11.0694 115.674 11.7616 115.945 12.548C116.594 14.2274 116.079 16.1644 114.398 18.359C112.924 20.1649 111.745 22.193 110.906 24.3678C110.167 26.3217 109.586 28.3315 109.168 30.378C111.967 30.3833 114.65 31.4978 116.63 33.4774C117.564 34.4576 118.293 35.614 118.775 36.8792C119.257 38.1443 119.482 39.4928 119.438 40.846C119.488 42.2516 119.256 43.6531 118.756 44.9679C118.256 46.2826 117.499 47.4843 116.528 48.5021C115.547 49.5022 114.368 50.2862 113.067 50.8038C111.765 51.3214 110.37 51.5612 108.97 51.5079C107.488 51.586 106.009 51.3204 104.647 50.7317C103.285 50.1429 102.078 49.2472 101.12 48.1144C99.2478 45.852 98.3118 42.5887 98.3118 38.3243C98.3554 33.9975 98.9746 29.6958 100.153 25.5324C101.505 20.7684 103.849 16.3437 107.03 12.548Z" fill="#2BA9E0"/>
<path d="M285.599 231.932C283.924 234.129 282.179 235.099 280.364 234.843C279.537 234.76 278.75 234.443 278.097 233.927C277.445 233.411 276.954 232.718 276.683 231.932C276.039 230.253 276.556 228.316 278.236 226.121C279.706 224.313 280.883 222.286 281.723 220.112C282.466 218.159 283.05 216.149 283.469 214.102C280.669 214.099 277.985 212.984 276.007 211.003C275.072 210.023 274.342 208.867 273.86 207.601C273.378 206.336 273.153 204.987 273.199 203.634C273.15 202.229 273.381 200.828 273.88 199.513C274.379 198.199 275.135 196.997 276.104 195.978C277.086 194.978 278.266 194.194 279.568 193.676C280.87 193.159 282.267 192.919 283.667 192.972C285.148 192.894 286.627 193.16 287.988 193.749C289.349 194.338 290.555 195.233 291.513 196.366C293.391 198.628 294.327 201.891 294.321 206.156C294.277 210.482 293.658 214.784 292.48 218.948C291.128 223.713 288.783 228.138 285.599 231.932ZM253.425 231.932C251.745 234.129 250 235.099 248.19 234.843C247.362 234.76 246.576 234.443 245.923 233.927C245.271 233.411 244.78 232.718 244.509 231.932C243.86 230.253 244.376 228.316 246.056 226.121C247.53 224.315 248.709 222.287 249.549 220.112C250.287 218.158 250.868 216.148 251.287 214.102C248.487 214.097 245.804 212.982 243.825 211.003C242.891 210.022 242.161 208.866 241.679 207.601C241.197 206.336 240.972 204.987 241.017 203.634C240.967 202.228 241.199 200.827 241.698 199.512C242.198 198.197 242.955 196.996 243.926 195.978C244.907 194.978 246.086 194.194 247.388 193.676C248.689 193.159 250.085 192.919 251.485 192.972C252.966 192.894 254.446 193.16 255.808 193.748C257.169 194.337 258.377 195.233 259.335 196.366C261.207 198.628 262.143 201.891 262.143 206.156C262.099 210.482 261.48 214.784 260.303 218.948C258.949 223.711 256.606 228.136 253.425 231.932Z" fill="#2BA9E0"/>
</g>
<defs>
<filter id="filter0_d_206_294" x="0.28418" y="0.280518" width="364.376" height="307.436" filterUnits="userSpaceOnUse" color-interpolation-filters="sRGB">
<feFlood flood-opacity="0" result="BackgroundImageFix"/>
<feColorMatrix in="SourceAlpha" type="matrix" values="0 0 0 0 0 0 0 0 0 0 0 0 0 0 0 0 0 0 127 0" result="hardAlpha"/>
<feOffset dx="2" dy="20"/>
<feGaussianBlur stdDeviation="12.5"/>
<feColorMatrix type="matrix" values="0 0 0 0 0 0 0 0 0 0 0 0 0 0 0 0 0 0 0.08 0"/>
<feBlend mode="normal" in2="BackgroundImageFix" result="effect1_dropShadow_206_294"/>
<feBlend mode="normal" in="SourceGraphic" in2="effect1_dropShadow_206_294" result="shape"/>
</filter>
</defs>
</svg>
