<svg width="365" height="308" viewBox="0 0 341 289" fill="none" xmlns="http://www.w3.org/2000/svg">
<g filter="url(#filter0_d_49_171)">
<path d="M226.732 33.7002C196.685 33.7002 173.572 28.8199 144.68 21.4967C113.477 12.9554 70.7168 27.5991 54.5381 58.1073C38.3594 86.1766 37.2028 134.989 41.8251 167.939C46.1787 213.907 100.748 236.063 155.343 242.568C193.805 253.218 228.272 251.155 264.864 227.737C357.322 169.16 335.364 38.5819 226.732 33.7002Z" fill="#0C4F89"/>
<path d="M333.982 112.53C332.006 98.5079 327.08 85.0643 319.529 73.0852C311.978 61.1062 301.973 50.8639 290.175 43.0336C272.512 31.5093 251.616 25.9751 230.675 25.0352" stroke="#0C4F89" stroke-width="7.43" stroke-miterlimit="10"/>
<path d="M324.314 177.514C331.888 163.389 333.273 147.337 335.097 131.703" stroke="#0C4F89" stroke-width="4.644" stroke-miterlimit="10"/>
<path d="M174.45 256.867C222.629 265.691 270.958 246.554 303.107 210.287C307.853 204.929 312.243 199.266 316.248 193.334" stroke="#0C4F89" stroke-width="7.43" stroke-miterlimit="10"/>
<path d="M34.5747 72.4097C26.9253 94.8793 26.8531 119.15 27.0456 142.622C27.2208 163.845 28.864 186.596 42.3298 204.04" stroke="#0C4F89" stroke-width="7.43" stroke-miterlimit="10"/>
<path d="M141.523 11.7711C102.786 1.16007 61.0199 22.0907 41.7178 56.32" stroke="#0C4F89" stroke-width="7.43" stroke-miterlimit="10"/>
<path d="M74.8561 12.5473C76.5311 10.3518 78.2755 9.38153 80.0895 9.63646C80.9172 9.71859 81.704 10.0365 82.3565 10.5525C83.009 11.0684 83.4997 11.7608 83.7705 12.5473C84.4149 14.2267 83.8979 16.1637 82.2194 18.3583C80.7484 20.1656 79.5711 22.1934 78.731 24.3671C77.9881 26.3202 77.4042 28.3301 76.9847 30.3772C79.7848 30.3815 82.4689 31.4961 84.4483 33.4766C85.383 34.4563 86.1128 35.6127 86.5949 36.878C87.0771 38.1432 87.3019 39.492 87.2562 40.8453C87.3055 42.2505 87.0739 43.6515 86.575 44.9661C86.0761 46.2807 85.3199 47.4826 84.3507 48.5014C83.3691 49.5015 82.1893 50.2855 80.887 50.8031C79.5847 51.3207 78.1886 51.5605 76.7882 51.5071C75.3082 51.584 73.8304 51.3178 72.4703 50.7291C71.1101 50.1404 69.9045 49.2453 68.9476 48.1136C67.0694 45.8513 66.1334 42.5879 66.1397 38.3235C66.1832 33.9968 66.8024 29.6951 67.9809 25.5317C69.3301 20.7667 71.6733 16.3414 74.8561 12.5473ZM107.029 12.5473C108.71 10.3518 110.455 9.38153 112.264 9.63646C113.091 9.71875 113.878 10.0368 114.531 10.5527C115.183 11.0686 115.674 11.7608 115.945 12.5473C116.594 14.2267 116.078 16.1637 114.398 18.3583C112.923 20.1642 111.745 22.1922 110.905 24.3671C110.167 26.321 109.586 28.3308 109.167 30.3772C111.966 30.3826 114.65 31.4971 116.629 33.4766C117.563 34.4569 118.292 35.6133 118.775 36.8785C119.257 38.1436 119.482 39.4921 119.437 40.8453C119.487 42.2509 119.255 43.6523 118.755 44.9671C118.256 46.2819 117.498 47.4836 116.528 48.5014C115.547 49.5015 114.368 50.2854 113.066 50.8031C111.764 51.3207 110.369 51.5605 108.969 51.5071C107.488 51.5853 106.008 51.3196 104.646 50.7309C103.284 50.1422 102.077 49.2464 101.119 48.1136C99.2472 45.8513 98.3112 42.5879 98.3112 38.3235C98.3548 33.9968 98.974 29.6951 100.152 25.5317C101.505 20.7676 103.848 16.3429 107.029 12.5473Z" fill="#2BA9E0"/>
<path d="M285.599 231.932C283.924 234.129 282.179 235.1 280.364 234.843C279.536 234.761 278.75 234.443 278.097 233.927C277.445 233.411 276.954 232.719 276.683 231.932C276.039 230.253 276.556 228.316 278.235 226.121C279.706 224.314 280.882 222.286 281.723 220.112C282.465 218.159 283.049 216.149 283.469 214.102C280.669 214.099 277.985 212.984 276.007 211.003C275.072 210.023 274.342 208.867 273.86 207.602C273.377 206.336 273.153 204.988 273.199 203.634C273.149 202.229 273.381 200.828 273.88 199.513C274.379 198.199 275.135 196.997 276.104 195.978C277.086 194.978 278.266 194.194 279.568 193.676C280.87 193.159 282.266 192.919 283.667 192.972C285.148 192.895 286.626 193.161 287.988 193.749C289.349 194.338 290.555 195.233 291.513 196.366C293.391 198.628 294.327 201.892 294.321 206.156C294.277 210.483 293.658 214.784 292.479 218.948C291.128 223.713 288.783 228.138 285.599 231.932ZM253.424 231.932C251.744 234.129 249.999 235.1 248.19 234.843C247.362 234.761 246.575 234.443 245.923 233.927C245.27 233.411 244.78 232.719 244.509 231.932C243.86 230.253 244.376 228.316 246.056 226.121C247.53 224.315 248.709 222.287 249.548 220.112C250.287 218.158 250.868 216.149 251.287 214.102C248.487 214.097 245.804 212.982 243.824 211.003C242.89 210.023 242.161 208.866 241.679 207.601C241.197 206.336 240.972 204.987 241.016 203.634C240.967 202.229 241.198 200.827 241.698 199.512C242.198 198.198 242.955 196.996 243.926 195.978C244.907 194.978 246.086 194.194 247.387 193.676C248.689 193.159 250.085 192.919 251.484 192.972C252.966 192.894 254.445 193.16 255.807 193.749C257.169 194.337 258.376 195.233 259.334 196.366C261.206 198.628 262.142 201.892 262.142 206.156C262.099 210.483 261.48 214.784 260.302 218.948C258.949 223.712 256.605 228.136 253.424 231.932Z" fill="#2BA9E0"/>
</g>
<defs>
<filter id="filter0_d_49_171" x="0.28418" y="0.280273" width="364.376" height="307.436" filterUnits="userSpaceOnUse" color-interpolation-filters="sRGB">
<feFlood flood-opacity="0" result="BackgroundImageFix"/>
<feColorMatrix in="SourceAlpha" type="matrix" values="0 0 0 0 0 0 0 0 0 0 0 0 0 0 0 0 0 0 127 0" result="hardAlpha"/>
<feOffset dx="2" dy="20"/>
<feGaussianBlur stdDeviation="12.5"/>
<feColorMatrix type="matrix" values="0 0 0 0 0 0 0 0 0 0 0 0 0 0 0 0 0 0 0.08 0"/>
<feBlend mode="normal" in2="BackgroundImageFix" result="effect1_dropShadow_49_171"/>
<feBlend mode="normal" in="SourceGraphic" in2="effect1_dropShadow_49_171" result="shape"/>
</filter>
</defs>
</svg>
