<svg width="365" height="308" viewBox="0 0 365 308" fill="none" xmlns="http://www.w3.org/2000/svg">
<g filter="url(#filter0_d_206_309)">
<path d="M226.732 33.7005C196.685 33.7005 173.572 28.8201 144.68 21.4969C113.477 12.9556 70.7168 27.5994 54.5381 58.1075C38.3594 86.1769 37.2028 134.99 41.8251 167.939C46.1787 213.907 100.748 236.064 155.343 242.568C193.805 253.218 228.272 251.155 264.864 227.738C357.322 169.16 335.364 38.5821 226.732 33.7005Z" fill="#2BA9E0"/>
<path d="M333.982 112.53C332.006 98.5079 327.08 85.0643 319.529 73.0852C311.978 61.1062 301.973 50.8639 290.175 43.0336C272.512 31.5093 251.616 25.9751 230.675 25.0352" stroke="#2BA9E0" stroke-width="7.43" stroke-miterlimit="10"/>
<path d="M324.314 177.514C331.887 163.389 333.272 147.337 335.096 131.703" stroke="#2BA9E0" stroke-width="4.644" stroke-miterlimit="10"/>
<path d="M174.451 256.867C222.63 265.691 270.958 246.554 303.107 210.287C307.853 204.929 312.243 199.266 316.248 193.334" stroke="#2BA9E0" stroke-width="7.43" stroke-miterlimit="10"/>
<path d="M34.5747 72.4099C26.9253 94.8795 26.8531 119.15 27.0456 142.623C27.2208 163.845 28.864 186.597 42.3298 204.04" stroke="#2BA9E0" stroke-width="7.43" stroke-miterlimit="10"/>
<path d="M141.523 11.7711C102.786 1.16007 61.0198 22.0907 41.7177 56.32" stroke="#2BA9E0" stroke-width="7.43" stroke-miterlimit="10"/>
<path d="M75.7165 11.9506C77.3914 9.75513 79.1359 8.78485 80.9498 9.03978C81.7776 9.12191 82.5644 9.43985 83.2169 9.9558C83.8693 10.4718 84.3601 11.1641 84.6308 11.9506C85.2753 13.63 84.7583 15.567 83.0798 17.7616C81.6087 19.569 80.4315 21.5967 79.5913 23.7704C78.8485 25.7235 78.2645 27.7335 77.8451 29.7806C80.6452 29.7848 83.3293 30.8995 85.3087 32.88C86.2433 33.8597 86.9731 35.016 87.4553 36.2813C87.9374 37.5466 88.1622 38.8953 88.1166 40.2486C88.1658 41.6538 87.9342 43.0548 87.4353 44.3694C86.9364 45.6841 86.1802 46.886 85.2111 47.9047C84.2294 48.9048 83.0496 49.6888 81.7473 50.2064C80.445 50.724 79.049 50.9638 77.6486 50.9105C76.1685 50.9874 74.6907 50.7211 73.3306 50.1324C71.9705 49.5437 70.7649 48.6486 69.8079 47.517C67.9298 45.2546 66.9938 41.9913 67 37.7269C67.0436 33.4001 67.6627 29.0984 68.8412 24.935C70.1905 20.17 72.5337 15.7448 75.7165 11.9506ZM107.889 11.9506C109.571 9.75513 111.315 8.78485 113.124 9.03978C113.952 9.12207 114.738 9.44007 115.391 9.95601C116.043 10.4719 116.534 11.1642 116.805 11.9506C117.454 13.63 116.938 15.567 115.258 17.7616C113.784 19.5675 112.605 21.5956 111.766 23.7704C111.027 25.7243 110.446 27.7341 110.027 29.7806C112.827 29.7859 115.51 30.9004 117.49 32.88C118.424 33.8602 119.153 35.0166 119.635 36.2818C120.117 37.5469 120.342 38.8954 120.297 40.2486C120.347 41.6542 120.115 43.0557 119.616 44.3704C119.116 45.6852 118.359 46.8869 117.388 47.9047C116.407 48.9048 115.228 49.6888 113.926 50.2064C112.625 50.724 111.229 50.9638 109.829 50.9105C108.348 50.9886 106.868 50.7229 105.507 50.1342C104.145 49.5455 102.938 48.6498 101.979 47.517C100.108 45.2546 99.1716 41.9913 99.1716 37.7269C99.2151 33.4001 99.8343 29.0984 101.013 24.935C102.365 20.1709 104.708 15.7462 107.889 11.9506Z" fill="#0C4F89"/>
<path d="M286.459 231.335C284.784 233.532 283.039 234.502 281.224 234.245C280.396 234.163 279.61 233.845 278.957 233.329C278.305 232.813 277.814 232.121 277.543 231.335C276.899 229.655 277.416 227.718 279.095 225.524C280.566 223.716 281.742 221.688 282.583 219.515C283.325 217.562 283.909 215.552 284.329 213.505C281.529 213.501 278.845 212.387 276.867 210.405C275.932 209.426 275.202 208.269 274.72 207.004C274.238 205.739 274.013 204.39 274.059 203.037C274.009 201.631 274.241 200.23 274.74 198.916C275.239 197.601 275.995 196.399 276.964 195.38C277.946 194.38 279.126 193.596 280.428 193.079C281.73 192.561 283.126 192.321 284.527 192.375C286.008 192.297 287.486 192.563 288.848 193.152C290.209 193.74 291.415 194.636 292.373 195.768C294.251 198.031 295.187 201.294 295.181 205.558C295.137 209.885 294.518 214.187 293.339 218.35C291.988 223.115 289.643 227.541 286.459 231.335ZM254.285 231.335C252.604 233.532 250.859 234.502 249.05 234.245C248.222 234.163 247.435 233.845 246.783 233.329C246.131 232.813 245.64 232.121 245.369 231.335C244.72 229.655 245.236 227.718 246.916 225.524C248.39 223.718 249.569 221.69 250.408 219.515C251.147 217.561 251.728 215.551 252.147 213.505C249.347 213.499 246.664 212.385 244.684 210.405C243.75 209.425 243.021 208.269 242.539 207.003C242.057 205.738 241.832 204.39 241.876 203.037C241.827 201.631 242.058 200.23 242.558 198.915C243.058 197.6 243.815 196.398 244.786 195.38C245.767 194.38 246.946 193.596 248.248 193.079C249.549 192.561 250.945 192.321 252.344 192.375C253.826 192.297 255.306 192.562 256.667 193.151C258.029 193.74 259.236 194.635 260.194 195.768C262.066 198.031 263.002 201.294 263.002 205.558C262.959 209.885 262.34 214.187 261.163 218.35C259.809 223.114 257.465 227.539 254.285 231.335Z" fill="#0C4F89"/>
</g>
<defs>
<filter id="filter0_d_206_309" x="0.28418" y="0.280518" width="364.376" height="307.436" filterUnits="userSpaceOnUse" color-interpolation-filters="sRGB">
<feFlood flood-opacity="0" result="BackgroundImageFix"/>
<feColorMatrix in="SourceAlpha" type="matrix" values="0 0 0 0 0 0 0 0 0 0 0 0 0 0 0 0 0 0 127 0" result="hardAlpha"/>
<feOffset dx="2" dy="20"/>
<feGaussianBlur stdDeviation="12.5"/>
<feColorMatrix type="matrix" values="0 0 0 0 0 0 0 0 0 0 0 0 0 0 0 0 0 0 0.08 0"/>
<feBlend mode="normal" in2="BackgroundImageFix" result="effect1_dropShadow_206_309"/>
<feBlend mode="normal" in="SourceGraphic" in2="effect1_dropShadow_206_309" result="shape"/>
</filter>
</defs>
</svg>
