<svg width="40" height="32" viewBox="0 0 40 32" fill="none" xmlns="http://www.w3.org/2000/svg">
<path d="M32.0947 28.3738C31.3271 28.3738 30.609 28.4117 29.8959 28.349C29.7061 28.3325 29.4816 28.037 29.3793 27.8192C28.8197 26.6274 27.9068 25.9671 26.5896 25.9159C26.0407 25.9075 25.4998 26.0477 25.0242 26.3218C24.5486 26.5958 24.1559 26.9934 23.8879 27.4725C23.6199 27.9516 23.4865 28.4942 23.5019 29.0429C23.5173 29.5916 23.6808 30.126 23.9752 30.5893C24.2696 31.0526 24.6838 31.4276 25.1741 31.6746C25.6643 31.9216 26.2122 32.0314 26.7597 31.9923C27.3073 31.9531 27.834 31.7666 28.2841 31.4524C28.7343 31.1383 29.091 30.7082 29.3165 30.2077C29.4073 30.003 29.4816 29.7934 29.584 29.5474H33.2947V17.1887H35.7807V16.0332H33.3492V14.7407H38.2336V13.539H33.3426V12.2614H39.4766V11.0927H29.5906V8.61663H28.4268V20.9259H14.7706C14.7607 20.6948 14.7426 20.4934 14.7426 20.292C14.7426 14.5525 14.7426 8.81306 14.7294 3.07524C14.7294 2.50906 14.8779 2.30932 15.4491 2.35554C16.0202 2.40176 16.6326 2.36545 17.2846 2.36545V4.78867C17.519 4.80682 17.699 4.83158 17.8789 4.83158C20.3549 4.83158 22.8178 4.81838 25.2872 4.84644C25.8088 4.84644 25.9145 4.65496 25.8913 4.19937C25.86 3.62658 25.8913 3.04388 25.8913 2.42157H28.4103V7.29607H29.546V1.1885H25.9145C25.8897 0.769225 25.8682 0.406071 25.8435 0H17.3226V1.16869H13.6234V11.0729H9.89447V17.258C8.69606 17.258 7.55048 17.3108 6.40985 17.2399C5.59441 17.1887 5.03482 17.4577 4.48184 18.0437C3.16129 19.4518 1.74994 20.7822 0.404625 22.1705C0.178017 22.4146 0.0427284 22.7295 0.0216637 23.0619C-0.0113487 25.1978 0.00350952 27.3338 0.00350952 29.5342H2.4977C2.88397 30.8086 3.61688 31.6801 4.92423 31.9343C6.40985 32.2265 7.82285 31.4771 8.34612 30.0723C8.51119 29.6382 8.72413 29.5425 9.14505 29.5441C13.2404 29.559 17.3358 29.554 21.4312 29.554H22.1872V28.3754H21.4427C18.1909 28.3754 14.939 28.3672 11.6871 28.3853C11.1919 28.3853 10.9988 28.2698 11.0186 27.7399C11.0599 26.7181 11.0301 25.6931 11.0301 24.6366H32.0947V28.3738ZM11.0714 12.2894H13.6184V22.0912H29.612V12.2878H32.0781V23.3755H11.0714V12.2894ZM1.18045 28.3738V23.4002H9.84825V28.3754C9.55359 28.4007 9.25712 28.3957 8.96348 28.3606C8.76539 28.3177 8.49633 28.1757 8.43195 28.0106C7.91529 26.6752 6.95623 25.9605 5.53829 25.9176C4.20948 25.8779 3.18605 26.6571 2.5984 28.0403C2.55736 28.1196 2.49969 28.1892 2.42932 28.2441C2.35896 28.2991 2.27756 28.3383 2.19068 28.3589C1.85477 28.389 1.5171 28.394 1.18045 28.3738ZM1.97774 22.1606C3.27188 20.8829 4.43562 19.7307 5.60926 18.5819C5.67656 18.5062 5.76828 18.4565 5.86842 18.4416C7.18898 18.4317 8.52439 18.4416 9.8565 18.4416V22.1672L1.97774 22.1606ZM18.5078 3.61998V1.16869H24.6797V3.61998H18.5078ZM5.53663 27.078C6.02549 27.0911 6.49 27.2942 6.83158 27.6442C7.17317 27.9942 7.36495 28.4635 7.36624 28.9525C7.36753 29.4415 7.17822 29.9118 6.83849 30.2636C6.49875 30.6154 6.03532 30.8209 5.54654 30.8366C5.29509 30.8447 5.04459 30.8022 4.80985 30.7118C4.57512 30.6213 4.36092 30.4846 4.17997 30.3098C3.99901 30.1351 3.85497 29.9258 3.75637 29.6943C3.65778 29.4629 3.60663 29.214 3.60597 28.9624C3.60531 28.7108 3.65514 28.4617 3.75252 28.2297C3.84989 27.9978 3.99282 27.7877 4.17286 27.612C4.35289 27.4363 4.56636 27.2985 4.80061 27.2067C5.03487 27.115 5.28515 27.0712 5.53663 27.078ZM26.5467 27.078C26.7979 27.074 27.0473 27.1204 27.2803 27.2144C27.5133 27.3084 27.725 27.4482 27.9031 27.6254C28.0811 27.8027 28.2218 28.0138 28.3169 28.2464C28.412 28.4789 28.4595 28.7281 28.4566 28.9794C28.4538 29.2306 28.4006 29.4787 28.3002 29.709C28.1999 29.9393 28.0544 30.1471 27.8723 30.3203C27.6903 30.4934 27.4754 30.6283 27.2403 30.717C27.0052 30.8057 26.7548 30.8464 26.5038 30.8366C26.0144 30.8176 25.5517 30.6085 25.2142 30.2536C24.8767 29.8987 24.691 29.4261 24.6966 28.9364C24.7022 28.4467 24.8986 27.9785 25.2442 27.6314C25.5897 27.2844 26.057 27.0858 26.5467 27.078Z" fill="#8D8F95"/>
<path d="M23.5183 14.6809H27.0723V11.0923H23.5183V14.6809ZM24.687 13.5089V12.2956H25.9102V13.5089H24.687Z" fill="#8D8F95"/>
<path d="M27.0742 19.605V16.0444H23.5186V19.6066L27.0742 19.605ZM24.6675 17.2412H25.9121V18.433H24.6675V17.2412Z" fill="#8D8F95"/>
<path d="M27.1117 6.15186H23.533V9.77183C24.6373 9.77183 25.7416 9.77183 26.846 9.76027C26.907 9.742 26.9624 9.70847 27.0069 9.66283C27.0514 9.61719 27.0835 9.56097 27.1002 9.49946C27.1249 8.38855 27.1117 7.28258 27.1117 6.15186ZM24.6852 8.56517V7.34861H25.9117V8.56517H24.6852Z" fill="#8D8F95"/>
<path d="M12.3748 25.9492V27.0387H19.6973V25.9492H12.3748Z" fill="#8D8F95"/>
<path d="M22.1992 12.2001V11.1123H16.6991V12.2001H22.1992Z" fill="#8D8F95"/>
<path d="M16.7051 17.1574H22.1738V16.063H16.7018L16.7051 17.1574Z" fill="#8D8F95"/>
<path d="M22.1855 7.26484V6.15723H16.7085V7.26484H22.1855Z" fill="#8D8F95"/>
<path d="M17.9315 13.5688V14.6798H22.1738V13.5688H17.9315Z" fill="#8D8F95"/>
<path d="M22.1836 18.521H17.9331V19.622H22.1836V18.521Z" fill="#8D8F95"/>
<path d="M17.9277 8.63281V9.73052H22.1914V8.63281H17.9277Z" fill="#8D8F95"/>
<path d="M6.8039 24.0884V25.1811H9.1875V24.0884H6.8039Z" fill="#8D8F95"/>
<path d="M6.11133 28.4087H4.95584V29.4965H6.11133V28.4087Z" fill="#8D8F95"/>
<path d="M27.125 28.4087H25.9695V29.4948H27.125V28.4087Z" fill="#8D8F95"/>
</svg>
