<svg width="28" height="28" viewBox="0 0 28 28" fill="none" xmlns="http://www.w3.org/2000/svg">
<path d="M27.3337 19.4674C27.3337 24.3207 24.4403 27.214 19.587 27.214H18.0003C17.267 27.214 16.667 26.614 16.667 25.8807V18.1874C16.667 17.8274 16.9603 17.5207 17.3203 17.5207L19.667 17.4807C19.8537 17.4674 20.0137 17.334 20.0537 17.1474L20.5203 14.6007C20.5603 14.3607 20.3737 14.134 20.1203 14.134L17.2803 14.174C16.907 14.174 16.6137 13.8807 16.6003 13.5207L16.547 10.254C16.547 10.0407 16.7203 9.85404 16.947 9.85404L20.147 9.8007C20.3737 9.8007 20.547 9.62738 20.547 9.40071L20.4937 6.20068C20.4937 5.97402 20.3203 5.8007 20.0937 5.8007L16.4937 5.85404C14.2803 5.89404 12.5203 7.70736 12.5603 9.9207L12.627 13.5874C12.6403 13.9607 12.347 14.254 11.9737 14.2674L10.3737 14.294C10.147 14.294 9.97367 14.4674 9.97367 14.694L10.0137 17.2274C10.0137 17.454 10.187 17.6274 10.4137 17.6274L12.0137 17.6007C12.387 17.6007 12.6803 17.894 12.6937 18.254L12.8137 25.854C12.827 26.6007 12.227 27.214 11.4803 27.214H8.41366C3.56033 27.214 0.666992 24.3207 0.666992 19.454V8.29403C0.666992 3.4407 3.56033 0.547363 8.41366 0.547363H19.587C24.4403 0.547363 27.3337 3.4407 27.3337 8.29403V19.4674Z" fill="white"/>
</svg>
