<svg width="83" height="82" viewBox="0 0 83 82" fill="none" xmlns="http://www.w3.org/2000/svg">
<path d="M12.0517 67.345C13.9241 66.7881 15.393 65.9111 16.0771 64.1177C17.0812 61.4867 15.8228 58.8163 13.183 57.6718C12.402 57.3592 11.7519 56.788 11.3413 56.0537C9.73641 52.423 6.80287 51.4758 3.40013 53.6289C3.2603 53.7021 3.11337 53.7608 2.96163 53.8043C-2.91423 40.9169 -0.61212 20.8381 14.994 8.47694C30.1792 -3.551 50.6263 -1.95927 63.0621 8.10421C62.5929 8.32785 62.1851 8.50325 61.7466 8.7225C59.8961 9.73981 58.9402 11.3184 59.0717 13.4232C59.1989 15.4534 60.3258 16.8127 62.1412 17.7204C62.9042 18.0975 63.825 18.6851 64.1101 19.3999C64.8994 21.3775 66.1973 22.6228 68.2583 22.9078C70.3192 23.1929 71.9767 22.2939 73.1168 20.5224C73.2123 20.3943 73.3178 20.2741 73.4325 20.1629C78.0674 26.5605 80.1284 39.4172 77.7693 47.2444C75.3268 46.0473 72.9458 44.5388 70.3718 43.7364C67.7978 42.9339 64.9476 42.7673 62.1237 42.3113C60.1154 30.9893 53.2967 22.3246 45.2065 14.4449C43.8383 13.1294 42.3299 11.9235 40.9223 10.63C39.8349 9.63018 38.8351 9.66088 37.7608 10.63C35.2745 12.9277 32.7619 15.1947 30.0915 17.6459C29.8897 17.1241 29.7977 16.5189 29.46 16.1155C29.0215 15.5849 28.3945 14.9228 27.8069 14.8746C27.3245 14.8351 26.4914 15.528 26.316 16.0541C25.9648 17.324 25.2939 18.4825 24.3673 19.4191C23.4407 20.3557 22.2893 21.039 21.0233 21.4038C20.4621 21.588 19.7648 22.465 19.778 23.0087C19.7912 23.5524 20.5278 24.2058 21.0935 24.5829C21.8048 24.9908 22.5519 25.3328 23.3254 25.6046C21.5013 29.4107 19.4447 32.9187 18.0942 36.681C14.9633 45.5167 15.8403 53.9139 22.2862 61.1491C27.5701 67.0907 34.3142 69.612 42.2817 68.6386C42.4431 68.6181 42.6058 68.6108 42.7684 68.6166C42.8736 68.6166 42.9745 68.6736 42.7684 68.6166L47.2499 77.711C39.9138 81.9031 18.3923 75.7904 12.0517 67.345Z" fill="#2BA9E0"/>
<path d="M25.2931 28.9196C26.3806 29.7966 27.1348 30.9279 28.0118 31.0375C29.4764 31.2173 29.4676 29.5905 29.9324 28.5995C30.3381 27.6709 30.9402 26.8412 31.6971 26.1675C32.4541 25.4938 33.348 24.9921 34.3174 24.6969C35.2777 24.3987 36.2643 23.969 36.0012 22.8903C35.8434 22.2325 34.9576 21.6975 34.313 21.2284C33.8921 20.9585 33.4401 20.7406 32.9668 20.5794L39.1935 13.3267C48.4502 21.8291 56.5668 30.4982 58.9259 43.0786C48.2046 46.7357 42.7015 54.0103 42.5392 65.3191C36.4003 66.2487 30.8927 64.7622 26.3148 60.5921C19.3383 54.2076 18.1632 46.3191 21.1844 37.6895C22.3114 34.5937 23.9864 31.6996 25.2931 28.9196ZM22.9823 46.7137C23.3199 51.068 24.9511 54.8171 28.1565 57.8428C28.9941 58.632 29.9105 58.825 30.7437 57.9524C31.5768 57.0798 31.2216 56.251 30.4499 55.5143C30.292 55.3653 30.1429 55.2074 29.9894 55.0495C27.7496 52.7745 26.4325 49.7499 26.2929 46.5603C26.2271 45.3369 25.9772 44.2582 24.5389 44.3239C23.1006 44.3897 22.8989 45.5166 22.9823 46.7181V46.7137Z" fill="#2BA9E0"/>
<path d="M45.9572 63.8505C45.9771 61.4815 46.4634 59.1396 47.3883 56.9585C48.3132 54.7774 49.6587 52.7999 51.3479 51.1388C53.0371 49.4777 55.0369 48.1656 57.2332 47.2774C59.4295 46.3891 61.7793 45.9422 64.1483 45.9621C66.5173 45.9819 68.8592 46.4682 71.0403 47.3932C73.2214 48.3181 75.1989 49.6636 76.86 51.3527C78.5211 53.0419 79.8332 55.0418 80.7215 57.238C81.6097 59.4343 82.0566 61.7841 82.0368 64.1531C81.9885 74.0236 73.8149 82.0393 63.8435 81.9998C59.0692 81.9512 54.5082 80.0151 51.1568 76.6145C47.8054 73.2138 45.9361 68.625 45.9572 63.8505ZM64.0145 77.0931C66.6107 77.0879 69.1471 76.313 71.303 74.8665C73.4589 73.42 75.1375 71.3667 76.1267 68.9663C77.1158 66.5659 77.371 63.9261 76.86 61.3807C76.3491 58.8353 75.0949 56.4985 73.256 54.6658C71.4172 52.833 69.0762 51.5866 66.5291 51.0842C63.9819 50.5817 61.343 50.8458 58.9459 51.8429C56.5488 52.84 54.5012 54.5255 53.0618 56.6862C51.6225 58.8469 50.8561 61.3858 50.8596 63.982C50.8781 67.4612 52.2714 70.7919 54.7357 73.248C57.2 75.704 60.5353 77.0862 64.0145 77.0931Z" fill="#2BA9E0"/>
<path d="M75.99 13.0547C75.1481 13.8046 74.7008 14.4711 74.0869 14.6991C73.2614 14.978 72.5101 15.4411 71.8902 16.0535C71.2702 16.6658 70.7978 17.4113 70.5088 18.2334C70.2808 18.8166 69.4477 19.5971 68.9697 19.5489C68.6066 19.4529 68.2692 19.2777 67.9819 19.0358C67.6945 18.794 67.4643 18.4915 67.3078 18.1501C67.0008 17.3661 66.5338 16.6548 65.9366 16.0614C65.3394 15.468 64.6251 15.0055 63.8393 14.7035C63.4999 14.5429 63.2014 14.3077 62.966 14.0153C62.7305 13.7229 62.5644 13.381 62.4799 13.0153C62.4405 12.5373 63.2385 11.7436 63.8349 11.5068C64.6241 11.2111 65.3417 10.7514 65.9404 10.158C66.539 9.56472 67.005 8.85124 67.3078 8.06465C67.5709 7.44637 68.404 6.66146 68.9521 6.679C69.5003 6.69654 70.2676 7.50337 70.5527 8.13919C70.8557 8.89721 71.312 9.58447 71.893 10.1579C72.474 10.7314 73.1672 11.1787 73.9291 11.4718C74.6 11.7349 75.1087 12.3575 75.99 13.0547Z" fill="#2BA9E0"/>
<path d="M13.5937 62.3284C12.8 63.0256 12.3483 63.6877 11.7388 63.9114C10.9136 64.1934 10.1629 64.6587 9.54324 65.2724C8.92354 65.886 8.45086 66.632 8.16068 67.4544C7.93266 68.0376 7.09513 68.8138 6.62155 68.7699C6.25882 68.6729 5.92208 68.4967 5.6355 68.2541C5.34891 68.0115 5.1196 67.7085 4.96403 67.3667C4.65883 66.5806 4.19086 65.868 3.59083 65.2755C2.99079 64.683 2.27225 64.2241 1.48236 63.9289C0.890393 63.6965 0.096717 62.8941 0.136182 62.4117C0.222876 62.0474 0.390477 61.7072 0.626554 61.4165C0.862631 61.1258 1.16113 60.8919 1.49991 60.7323C2.2859 60.4293 3.0002 59.966 3.59736 59.3718C4.19451 58.7777 4.66144 58.0657 4.96842 57.2813C5.12523 56.941 5.35565 56.6398 5.64306 56.3994C5.93046 56.159 6.26767 55.9855 6.63032 55.8913C7.10829 55.843 7.94582 56.628 8.16506 57.2068C8.45568 58.0287 8.92914 58.7738 9.54973 59.3861C10.1703 59.9983 10.9218 60.4616 11.7476 60.741C12.3615 60.9603 12.8088 61.6268 13.5937 62.3284Z" fill="#2BA9E0"/>
<path d="M28.2102 20.8906L30.2448 22.8814L27.8331 24.9774L25.8555 22.8639L28.2102 20.8906Z" fill="#2BA9E0"/>
<path d="M63.9872 54.1289C65.936 54.1272 67.8414 54.7045 69.4615 55.7875C71.0817 56.8705 72.3436 58.4105 73.0871 60.2118C73.8307 62.0132 74.0223 63.9949 73.6377 65.9054C73.2531 67.8159 72.3096 69.569 70.927 70.9424C69.5444 72.3158 67.7849 73.2475 65.8719 73.6192C63.9588 73.991 61.9785 73.7861 60.1821 73.0304C58.3858 72.2748 56.8544 71.0026 55.7823 69.3752C54.7101 67.7478 54.1457 65.8386 54.1604 63.8898C54.1824 61.2965 55.2268 58.8166 57.0668 56.9889C58.9068 55.1612 61.3937 54.1334 63.9872 54.1289ZM62.8032 64.495C62.0402 63.7671 61.6105 63.0874 61.0098 62.8594C60.409 62.6313 59.1505 62.4954 58.9137 62.8594C58.7237 63.1977 58.6159 63.5761 58.5991 63.9638C58.5824 64.3516 58.6571 64.7378 58.8173 65.0913C59.3873 66.0428 60.3696 66.7444 61.1676 67.56C62.1718 68.5905 63.154 68.5247 64.1406 67.56C65.6798 66.0209 67.2101 64.4906 68.7668 62.9471C69.6131 62.1052 70.2357 61.158 69.179 60.1451C68.1222 59.1321 67.1838 59.8206 66.3814 60.6757C65.1974 61.8991 64.0266 63.1751 62.8032 64.495Z" fill="#2BA9E0"/>
</svg>
