<svg width="83" height="82" viewBox="0 0 83 82" fill="none" xmlns="http://www.w3.org/2000/svg">
<path d="M9.13209 42.287C5.66005 42.6648 5.66006 42.6648 5.66006 46.322C5.66006 48.1128 5.66006 49.9036 5.66006 51.6945C5.66006 53.2586 6.10964 53.7724 7.66998 53.6817C8.86007 53.6137 9.32478 54.0142 9.6837 55.1665C12.8271 65.2427 23.3716 71.8807 33.7387 70.4904C37.5782 70.0132 41.2378 68.5846 44.3853 66.3345C44.5779 66.1985 44.7857 66.0852 44.9897 65.9567C45.0162 65.9567 45.0729 65.9869 45.1824 66.0247V73.4864H4.96111C1.64019 73.4864 0.015625 71.8656 0.015625 68.5749C0.015625 53.7875 0.015625 38.9976 0.015625 24.2051V22.7241H59.3917V38.8376C63.1698 36.7333 66.9819 36.1439 70.964 37.4095C73.6381 38.2415 75.9982 39.8627 77.7343 42.0603L75.7092 43.7869C71.2813 39.0492 65.3195 38.0442 59.4635 42.1812V38.7167L55.7081 41.9621L57.9145 43.8285L59.3955 42.5364C59.3955 45.4228 59.4144 48.0373 59.3691 50.6517C59.3326 50.8153 59.2567 50.9676 59.1481 51.0953C59.0395 51.223 58.9013 51.3223 58.7457 51.3846C57.0229 51.8191 55.2774 52.178 53.3544 52.6012C54.6276 44.9506 52.867 38.1538 47.5739 32.4338C44.3222 28.9069 39.9987 26.5499 35.2725 25.7277C24.3917 23.6913 12.6079 29.9214 9.13209 42.287Z" fill="#2BA9E0"/>
<path d="M18.2773 53.8026C19.5241 53.5381 19.8528 52.7447 19.8264 51.6075C19.7735 49.3029 19.7659 46.9945 19.8264 44.686C19.8566 43.4884 19.6374 42.5477 18.2962 42.2983C20.7331 36.3063 27.5374 32.8871 34.1641 34.2283C40.3224 35.4675 45.1734 41.3576 45.2452 47.6707C45.3245 54.5242 40.6926 60.4898 34.217 61.8688C27.6772 63.2629 20.8993 59.8928 18.2773 53.8026Z" fill="#2BA9E0"/>
<path d="M0.0181535 19.6825C0.0181535 14.363 -0.0385111 9.1417 0.0483845 3.92417C0.0861651 1.65732 1.99786 0.0214091 4.40827 0.0100749C9.35376 -0.0125936 14.2993 0.0100749 19.2447 0.0100749H54.4337C57.7697 0.0100749 59.3943 1.61576 59.3943 4.92158C59.3943 9.8142 59.3943 14.703 59.3943 19.6939L0.0181535 19.6825ZM21.232 16.9623C26.6951 16.9623 32.1569 16.9623 37.6175 16.9623C39.1287 16.9623 39.5934 16.5165 39.601 15.0733C39.6211 11.6352 39.6211 8.1997 39.601 4.76668C39.601 3.297 39.1325 2.8323 37.6553 2.8323C26.6838 2.8323 15.7135 2.8323 4.74452 2.8323C3.28619 2.8323 2.83659 3.30456 2.82904 4.7969C2.82904 8.13673 2.82904 11.4778 2.82904 14.8202C2.82904 16.5581 3.24085 16.9661 4.98632 16.9699C10.4041 16.9699 15.8193 16.9674 21.232 16.9623ZM56.5758 9.81042C56.5609 8.4124 56.1321 7.05014 55.3437 5.89555C54.5553 4.74097 53.4425 3.84581 52.1458 3.32304C50.8492 2.80027 49.4267 2.67334 48.0579 2.95824C46.6892 3.24314 45.4355 3.92711 44.4551 4.92385C43.4747 5.92058 42.8115 7.1854 42.5492 8.55868C42.287 9.93196 42.4374 11.3522 42.9815 12.64C43.5256 13.9279 44.439 15.0258 45.6064 15.795C46.7739 16.5643 48.143 16.9705 49.5411 16.9623C51.4216 16.9444 53.2182 16.1814 54.537 14.8407C55.8557 13.4999 56.5889 11.691 56.5758 9.81042Z" fill="#2BA9E0"/>
<path d="M48.0928 66.3684C59.4988 72.1791 70.6743 72.2357 82.001 66.3457C82.001 69.2322 82.1748 72.2357 81.9065 75.2015C81.8159 76.2292 80.7996 77.3701 79.9079 78.0918C77.1159 80.3586 73.6779 81.1596 70.2285 81.6243C64.8599 82.3459 59.5177 82.0965 54.3606 80.2717C53.3035 79.8841 52.2789 79.4129 51.2966 78.8625C49.1091 77.6686 47.8284 76.0063 48.0626 73.2898C48.2515 70.9663 48.0928 68.6126 48.0928 66.3684Z" fill="#2BA9E0"/>
<path d="M64.9874 67.8492C60.601 67.7623 56.2336 67.2333 52.191 65.2045C51.1817 64.7076 50.247 64.0718 49.4142 63.3155C47.6233 61.6607 47.6422 59.8812 49.4142 58.2037C51.4203 56.3147 53.9252 55.3475 56.5547 54.743C63.7859 53.0769 70.9114 53.194 77.795 56.2542C78.8605 56.7457 79.8402 57.4052 80.6966 58.2075C82.4949 59.8736 82.5629 61.7627 80.6701 63.2852C79.1612 64.4651 77.4873 65.4172 75.7019 66.1112C72.3092 67.4902 68.6899 67.7925 64.9874 67.8492ZM74.8103 62.2387C74.9161 62.7336 75.0068 63.1605 75.0823 63.5232H77.6854C77.761 63.0397 77.8252 62.6429 77.8857 62.2803L79.1211 62.0611V59.4165L77.8706 59.254L77.6741 57.9846H75.0181C74.9766 58.4342 74.9426 58.8309 74.901 59.2729L73.5976 59.4051V62.114L74.8103 62.2387ZM50.9518 62.0838H56.5056V59.4391H50.9669L50.9518 62.0838Z" fill="#2BA9E0"/>
<path d="M15.0728 42.3434H12.1523C14.2189 36.0604 18.2313 31.693 24.3517 29.4601C27.0343 28.4762 29.8983 28.0854 32.7464 28.3147C35.5945 28.5441 38.3591 29.388 40.8497 30.7884C43.3403 32.1889 45.4977 34.1125 47.1735 36.4269C48.8492 38.7413 50.0033 41.3913 50.5564 44.1946C51.2134 47.2496 51.0623 50.4231 50.1182 53.4018C49.8953 53.9988 49.501 54.5167 48.9847 54.8904C46.8123 56.4999 45.1538 58.3624 45.2067 61.2905C45.1694 61.7008 44.9776 62.0816 44.6702 62.3559C39.2487 67.2863 32.9355 69.0129 25.8592 67.0672C19.0171 65.1781 14.4683 60.7275 12.2581 53.9496C12.2581 53.9119 12.2581 53.859 12.2884 53.7532C12.5453 53.7532 12.8173 53.7041 13.0893 53.7003C13.7467 53.7003 14.4003 53.7003 15.0199 53.7003C18.798 62.9642 27.3666 66.1944 34.6659 64.6378C42.6565 62.9377 48.1687 55.8916 48.0856 47.6969C48.0069 43.8758 46.641 40.193 44.209 37.2447C41.777 34.2964 38.4212 32.2551 34.6847 31.4512C27.1022 29.8341 18.6506 33.412 15.0728 42.3434Z" fill="#2BA9E0"/>
<path d="M8.52148 50.7875V45.3433H16.8672V50.7875H8.52148Z" fill="#2BA9E0"/>
<path d="M72.7 47.0205L70.9508 48.9095C67.6601 46.6427 65.8428 46.6427 62.639 48.9284L60.75 47.2018C63.4815 43.556 69.6096 43.488 72.7 47.0205Z" fill="#2BA9E0"/>
<path d="M36.703 5.7417V14.0535H5.78711V5.7417H36.703Z" fill="#2BA9E0"/>
<path d="M49.5394 5.65825C50.3787 5.66588 51.1969 5.92275 51.8899 6.39625C52.583 6.86974 53.1198 7.53851 53.432 8.31764C53.7443 9.09676 53.818 9.95111 53.6438 10.7722C53.4697 11.5933 53.0554 12.3442 52.4537 12.9294C51.852 13.5146 51.0899 13.9078 50.2643 14.0592C49.4387 14.2105 48.5867 14.113 47.8165 13.7792C47.0464 13.4454 46.3928 12.8903 45.9388 12.1843C45.4847 11.4783 45.2507 10.6534 45.2664 9.81414C45.2921 8.69971 45.7542 7.63991 46.5533 6.8627C47.3524 6.0855 48.4247 5.653 49.5394 5.65825Z" fill="#2BA9E0"/>
</svg>
