<svg width="82" height="82" viewBox="0 0 82 82" fill="none" xmlns="http://www.w3.org/2000/svg">
<path d="M4.54543 52.76H11.2109C12.0907 52.76 12.8473 52.5478 13.0356 51.5413C13.2376 50.4697 12.57 49.7747 11.2691 49.7645C8.36259 49.7439 5.44922 49.7645 2.55297 49.7474C2.09423 49.7474 1.45747 49.7816 1.22125 49.5146C0.694036 48.9257 0.122311 48.1931 0.0161833 47.4605C-0.117332 46.5053 0.591329 45.7898 1.5499 45.5262C2.04987 45.4168 2.56216 45.3742 3.07334 45.3996C8.8841 45.3996 14.696 45.3996 20.509 45.3996C20.8514 45.3996 21.1937 45.3996 21.5361 45.3996C22.4365 45.3551 23.0116 44.8997 23.0219 43.9857C23.0219 42.9997 22.4467 42.5239 21.471 42.5204H7.53753C7.03086 39.7269 9.61558 36.7998 12.6727 36.6732C13.4832 36.6505 14.2921 36.7568 15.0692 36.9881C17.0958 37.5667 17.7052 37.1148 17.6231 34.9683C17.5067 31.8324 18.9651 29.4531 21.6696 28.3644C24.5761 27.1936 27.7188 28.1487 29.5949 30.7608C30.5877 32.1473 30.9917 32.2466 32.4158 31.3668C32.9001 31.0522 33.4521 30.8571 34.0264 30.7976C34.6008 30.7381 35.1811 30.8158 35.7195 31.0244C37.4483 31.6304 38.2905 31.045 38.1159 29.2066C37.6811 24.3966 41.5394 20.6822 45.7434 20.5178C46.8426 20.4598 47.9417 20.6318 48.9706 21.0227C49.9996 21.4137 50.9356 22.015 51.7189 22.7883C52.5021 23.5616 53.1155 24.4898 53.5196 25.5136C53.9237 26.5375 54.1098 27.6343 54.0658 28.7341C54.0282 30.0385 54.4082 30.7882 55.6132 31.3052C57.1983 31.9899 58.1226 33.2873 58.4308 35.0196C58.7731 36.9505 59.1771 37.1867 61.1387 36.7314C62.1655 36.4853 63.2443 36.5773 64.2145 36.9936C65.1848 37.41 65.9947 38.1285 66.5238 39.0422C67.188 40.1069 67.8932 40.35 69.0743 39.8501C71.0804 38.9943 72.734 40.0179 73.1824 42.4211C72.7237 42.4485 72.2821 42.4999 71.8405 42.4999C68.1671 42.4999 64.4903 42.4999 60.8169 42.4999C59.7899 42.4999 59.0059 42.7224 58.9237 43.8932C58.8518 44.8758 59.5228 45.3893 60.8443 45.3927C67.0065 45.3927 73.1608 45.3927 79.307 45.3927C81.077 45.3927 82.193 46.4643 81.9773 47.8918C81.8062 49.0387 80.9503 49.7439 79.6049 49.7474C74.6477 49.7474 69.6768 49.7474 64.7333 49.7474C64.391 49.7306 64.0479 49.7364 63.7063 49.7645C62.8539 49.8809 62.2479 50.302 62.2411 51.2366C62.2342 52.1712 62.8265 52.647 63.6823 52.7223C64.5382 52.7977 65.3941 52.7497 66.2431 52.7497H77.3591C76.9174 56.1082 76.5135 59.3467 76.0684 62.5785C75.4214 67.3097 74.7367 72.0307 74.0863 76.7619C73.648 79.9286 71.2893 81.9998 68.0233 81.9998C52.5972 81.9998 37.1699 81.9998 21.7415 81.9998C19.231 81.9998 16.7101 81.9998 14.1791 81.9998C10.5707 81.9998 8.35916 80.11 7.84564 76.5017C6.72959 68.6723 5.66148 60.8188 4.54543 52.76ZM40.9403 38.1281C37.1784 38.1329 33.5024 39.2535 30.3776 41.348C27.2527 43.4426 24.8194 46.4171 23.3856 49.895C21.9518 53.373 21.5819 57.1981 22.3227 60.8863C23.0635 64.5746 24.8818 67.9602 27.5473 70.6147C30.2129 73.2693 33.606 75.0735 37.2973 75.799C40.9886 76.5245 44.8121 76.1387 48.2841 74.6905C51.7561 73.2423 54.7204 70.7967 56.802 67.6632C58.8837 64.5297 59.989 60.8491 59.9781 57.0873C59.991 54.5873 59.5067 52.1097 58.5535 49.7985C57.6003 47.4874 56.1972 45.3887 54.4258 43.6246C52.6544 41.8605 50.5499 40.4661 48.2348 39.5225C45.9197 38.5789 43.4402 38.105 40.9403 38.1281ZM16.9384 79.1446C17.9654 79.1446 18.9925 79.1686 20.0195 79.1446C21.2177 79.1104 22.0736 78.4325 21.94 77.563C21.7894 76.4743 21.0294 76.1354 20.0058 76.1491C18.2153 76.1731 16.4283 76.1286 14.6378 76.1696C13.9018 76.1868 13.5457 75.9813 13.5218 75.1871C13.4978 74.3929 13.5218 73.5781 13.1794 72.9413C13.0089 72.6557 12.7786 72.4102 12.5045 72.2217C12.2303 72.0332 11.9187 71.9062 11.5909 71.8492C10.783 71.7808 10.3345 72.4894 10.3996 73.3316C10.468 74.2593 10.6152 75.1837 10.7419 76.1114C10.9952 78.0697 12.0599 79.0693 14.025 79.1446C14.9801 79.172 15.9593 79.1412 16.9384 79.1446ZM49.4339 25.0847C49.3001 24.7772 49.1149 24.4947 48.8861 24.2494C47.6913 23.2224 45.2196 23.1847 43.5729 24.109C41.9262 25.0334 40.6835 27.1183 41.0293 28.628C41.1491 29.1518 41.8133 29.8468 42.296 29.905C42.7787 29.9632 43.5866 29.3846 43.7509 28.9087C44.6513 26.324 45.0142 26.0638 47.5715 26.7588C48.6054 27.0395 49.4818 26.372 49.4339 25.0847ZM24.5932 33.7974C25.5244 33.7974 26.2091 33.3387 26.2776 32.5205C26.3666 31.5311 25.7606 31.0655 24.8876 30.843C22.4193 30.2165 19.9202 32.6643 20.509 35.1394C20.7179 36.009 21.1937 36.6766 22.1728 36.5396C23.104 36.413 23.5799 35.7625 23.4498 34.8279C23.3197 33.8933 23.7168 33.6434 24.5932 33.7974Z" fill="#2BA9E0"/>
<path d="M73.785 37.7072C72.217 36.8342 70.6696 36.3378 68.9408 36.7623C68.7628 36.8102 68.4889 36.6254 68.3074 36.4816C68.0438 36.2693 67.8692 35.9064 67.5817 35.7695C65.822 34.941 65.7022 33.6435 65.7809 31.788C66.2362 20.8843 59.2558 11.7984 48.7389 9.28901C38.2221 6.77961 26.8801 12.9555 23.2923 23.2739C22.8815 24.4584 22.344 25.0643 21.091 25.4717C17.6676 26.5878 15.5861 29.0527 14.7884 32.5788C14.7234 32.8698 14.6823 33.1642 14.6207 33.4587C14.5869 33.5757 14.5446 33.6901 14.494 33.801L13.3095 33.6709C12.5877 26.7282 14.3066 19.7509 18.1708 13.9381C26.5138 1.13432 43.1621 -3.62429 56.9724 2.93849C63.348 5.91383 68.5021 10.9974 71.5649 17.3314C74.6278 23.6655 75.4119 30.8622 73.785 37.7072Z" fill="#2BA9E0"/>
<path d="M35.0274 27.7003C33.9832 27.8989 32.9733 28.1077 31.9873 28.2618C31.8547 28.2813 31.7194 28.2735 31.5899 28.2387C31.4603 28.204 31.3393 28.1431 31.2342 28.0598C29.8006 26.5297 27.9356 25.4719 25.8867 25.0266C27.619 18.0291 35.5546 10.4872 46.2324 11.8668C58.5568 13.4587 64.3288 24.8349 62.665 33.4928C61.6859 33.9413 61.2237 33.6674 60.6794 32.6301C59.9612 31.3888 59.0467 30.272 57.9714 29.3231C57.4442 28.8232 57.1019 28.4467 57.0231 27.6901C56.8258 25.2036 55.7859 22.8589 54.0752 21.0436C52.3646 19.2283 50.0857 18.0511 47.6153 17.7067C45.1449 17.3622 42.6309 17.8711 40.489 19.1491C38.347 20.4272 36.7053 22.398 35.8353 24.7356C35.4793 25.7216 35.2807 26.7726 35.0274 27.7003Z" fill="#2BA9E0"/>
<path d="M41.0286 41.0108C44.2196 41.0217 47.3356 41.9789 49.9823 43.7612C52.6291 45.5436 54.6876 48.0711 55.8974 51.0238C57.1073 53.9765 57.414 57.2218 56.7789 60.3489C56.1437 63.476 54.5952 66.3444 52.3292 68.5911C50.0633 70.8379 47.1819 72.362 44.0495 72.9705C40.9171 73.5791 37.6746 73.2448 34.7322 72.0099C31.7899 70.775 29.28 68.6951 27.5202 66.0333C25.7604 63.3715 24.8297 60.2475 24.8459 57.0565C24.874 52.7859 26.5923 48.7001 29.625 45.6931C32.6577 42.6861 36.7579 41.0025 41.0286 41.0108ZM39.4641 51.2161C39.4641 53.01 39.4299 54.8039 39.4846 56.5944C39.4711 57.1408 39.641 57.6759 39.9674 58.1144C42.3638 60.6032 44.815 63.0408 47.2799 65.468C47.9235 66.1013 48.8067 66.1527 49.2792 65.4029C49.5804 64.9271 49.423 64.1055 49.3305 63.4618C49.2894 63.1845 48.8957 62.9586 48.6458 62.7155C46.9341 61.0038 45.2224 59.2441 43.4696 57.5803C43.1206 57.2804 42.8462 56.9034 42.6679 56.4792C42.4897 56.055 42.4125 55.5951 42.4425 55.136C42.5144 52.1918 42.4699 49.2476 42.4665 46.3C42.4665 44.7355 41.929 43.9036 40.9328 43.9447C39.9365 43.9858 39.4607 44.7697 39.4607 46.3616C39.4607 47.9536 39.4709 49.5968 39.4709 51.2161H39.4641Z" fill="#2BA9E0"/>
</svg>
