<svg width="102" height="16" viewBox="0 0 102 16" fill="none" xmlns="http://www.w3.org/2000/svg">
<path d="M0.190529 13.91H13.1905V0.91H0.190529V13.91ZM23.46 4.04346C24.1836 4.00537 24.939 5.05273 24.6597 5.37012C24.3423 5.73828 23.5552 6.43018 22.749 7.09033C24.1709 7.42676 25.396 8.55664 25.396 10.5308C25.396 10.9243 25.3452 11.2798 25.2818 11.5527C25.6182 11.5908 25.8975 11.6289 26.0435 11.6289C26.4243 11.6289 26.729 11.9399 26.729 12.3208C26.729 12.7017 26.4243 13.0127 26.0435 13.0127C24.793 13.0127 23.6758 12.6318 21.5747 12.689C20.5528 12.7144 19.3721 13.2412 19.3721 13.2412C18.6104 13.0381 18.4707 11.8701 18.8516 11.6289C19.772 11.0513 22.0318 11.1973 23.7964 11.3877C24.1773 9.30566 22.9395 8.29004 21.8223 8.29004C21.3462 8.29004 20.9654 8.46143 20.5845 8.63916C19.753 8.15674 19.7783 7.50293 20.1021 7.35693C20.1148 7.35693 20.1211 7.35059 20.1275 7.34424C21.0542 6.90625 23.3203 4.06885 23.3203 4.06885C23.3648 4.05615 23.4092 4.04346 23.46 4.04346ZM28.5378 4.29736C28.8615 5.26221 28.8297 9.75635 28.7155 10.5435C28.4806 12.2065 27.1286 13.0127 25.8844 13.0127C25.5036 13.0127 25.1989 12.7017 25.1989 12.3208C25.1989 11.9399 25.5036 11.6289 25.8844 11.6289C26.005 11.6289 26.151 11.6099 26.2716 11.5781C26.9508 11.4194 27.2111 10.9307 27.2809 10.2642C27.3825 9.28027 26.735 4.81152 26.735 4.81152C26.9381 4.0498 28.3918 3.86572 28.5378 4.29736ZM30.5115 4.06885C30.7972 4.05615 31.0384 4.12598 31.0955 4.28467C31.3748 5.12256 31.3875 8.60742 31.3113 10.042V10.0674C31.3113 10.0737 31.3113 10.0864 31.3113 10.0928C31.305 10.1943 31.3113 10.2959 31.324 10.4038C31.3938 11.064 31.6604 11.4194 32.3333 11.5781C32.4539 11.6099 32.5999 11.6289 32.7205 11.6289C33.1014 11.6289 33.4061 11.9399 33.4061 12.3208C33.4061 12.7017 33.1014 13.0127 32.7205 13.0127C30.9241 13.0127 30.137 12.0796 29.8387 10.2769C29.68 9.29297 29.2991 4.80518 29.2991 4.80518C29.4261 4.3291 30.0354 4.08154 30.5115 4.06885ZM34.6435 7.88379C34.9291 7.87744 35.164 7.95361 35.2084 8.11865C35.5639 9.0708 35.5004 9.95947 35.3925 10.7529C35.1513 12.416 33.8056 13.0698 32.5678 13.0698C32.1806 13.0698 31.8759 12.7651 31.8759 12.3843C31.8759 12.0034 32.1806 11.6924 32.5678 11.6924C32.6821 11.6924 32.8281 11.6733 32.955 11.6416C33.6279 11.4766 33.8881 11.1274 33.958 10.4673C34.0659 9.4834 33.4057 8.62012 33.4057 8.62012C33.5327 8.14404 34.1611 7.90283 34.6435 7.88379ZM33.6787 13.6411C34.0913 13.6411 34.4277 13.9648 34.4277 14.3774C34.4277 14.79 34.0913 15.1265 33.6787 15.1265C33.2661 15.1265 32.9296 14.79 32.9296 14.3774C32.9296 13.9648 33.2661 13.6411 33.6787 13.6411ZM40.5905 7.29346C41.9236 7.3252 43.2566 8.23291 44.0754 9.83887C44.1008 9.84521 44.1262 9.85156 44.1516 9.86426C44.4753 9.96582 44.4499 10.8037 44.1008 11.3052C44.3103 11.4956 44.5832 11.6289 44.9006 11.6289C45.2815 11.6289 45.5925 11.9399 45.5925 12.3208C45.5925 12.7017 45.2815 13.0127 44.9006 13.0127C43.8913 13.0127 42.6472 12.3462 42.2981 11.1401C42.133 11.1211 41.968 11.1084 41.7903 11.1274C41.1301 11.1973 40.4192 11.4575 40.2541 12.1304C40.2287 12.2573 40.216 12.4033 40.216 12.5176C40.216 13.4951 41.384 13.8442 42.0505 13.9141C43.0344 14.0156 44.1516 13.3618 44.1516 13.3618C44.9133 13.5649 45.0847 15.0186 44.6594 15.1646C43.6946 15.4883 42.4504 15.4565 41.6633 15.3486C40.0002 15.1074 38.8259 13.7617 38.8259 12.5176C38.8259 11.2798 39.8542 9.91504 41.5237 9.68018C41.841 9.63574 42.1711 9.61035 42.5266 9.604H42.552C41.8283 8.73438 40.4509 8.74072 39.7019 9.47705C38.9148 9.47705 38.3498 8.08691 38.7434 7.86475C39.3274 7.4585 39.9621 7.28076 40.5905 7.29346ZM46.8299 7.82031C47.1219 7.81396 47.3568 7.89014 47.4012 8.05518C47.7504 9.00732 47.6932 9.90234 47.579 10.6895C47.3441 12.3525 45.9921 13.0127 44.7543 13.0127C44.3734 13.0127 44.0624 12.7017 44.0624 12.3208C44.0624 11.9399 44.3734 11.6289 44.7543 11.6289C44.8749 11.6289 45.0145 11.6099 45.1415 11.5781C45.8143 11.4131 46.0809 11.064 46.1507 10.4038C46.2523 9.41992 45.5922 8.55664 45.5922 8.55664C45.7191 8.08691 46.3539 7.83936 46.8299 7.82031ZM45.6429 13.5649C46.0555 13.5649 46.3793 13.9014 46.3793 14.314C46.3793 14.7266 46.0555 15.063 45.6429 15.063C45.2367 15.063 44.8939 14.7266 44.8939 14.314C44.8939 13.9014 45.2367 13.5649 45.6429 13.5649ZM47.2743 13.5649C47.6805 13.5649 48.017 13.9014 48.017 14.314C48.017 14.7266 47.6805 15.063 47.2743 15.063C46.8553 15.063 46.5253 14.7266 46.5253 14.314C46.5253 13.9014 46.8553 13.5649 47.2743 13.5649ZM50.3271 7.83936H50.3652C50.6001 7.83936 50.7778 7.91553 50.8286 8.04883C51.4951 9.96582 51.895 13.3301 49.1401 14.7456C49.0957 14.7646 49.0386 14.7837 48.9941 14.8091C48.626 14.9868 47.8452 13.9775 48.1943 13.3618C48.1943 13.3618 48.6133 13.3301 49.0449 13.0952C50.2383 12.4414 50.0605 10.645 49.2163 8.51221C49.3306 8.08691 49.8955 7.85205 50.3271 7.83936ZM55.9568 4.77979C56.3631 4.77979 56.6995 5.11621 56.6995 5.52881C56.6995 5.94141 56.3631 6.27783 55.9568 6.27783C55.5379 6.27783 55.2205 5.94141 55.2205 5.52881C55.2205 5.11621 55.5379 4.77979 55.9568 4.77979ZM57.7722 4.77979C58.1848 4.77979 58.5213 5.11621 58.5213 5.52881C58.5213 5.94141 58.1848 6.27783 57.7722 6.27783C57.3596 6.27783 57.0232 5.94141 57.0232 5.52881C57.0232 5.11621 57.3596 4.77979 57.7722 4.77979ZM58.4514 6.98242H58.4895C58.7434 6.98877 58.9529 7.07129 59.0037 7.21729C59.3274 8.17578 59.2957 9.78174 59.1814 10.5688C59.1751 10.6323 59.156 10.6895 59.1433 10.7529C59.1751 10.8545 59.2195 10.9688 59.2766 11.0767C59.4353 11.375 59.6892 11.6289 59.9685 11.6289C60.3494 11.6289 60.6604 11.9399 60.6604 12.3208C60.6604 12.7017 60.3494 13.0063 59.9685 13.0063C59.3972 13.0063 58.864 12.6382 58.4768 12.1431C58.4324 12.1938 58.4007 12.2319 58.3562 12.2764C56.4456 14.1807 53.4241 11.7812 54.8079 9.45801C55.3411 8.56934 56.3313 8.04248 57.2708 7.91553C57.2327 7.79492 57.1946 7.71875 57.1946 7.71875C57.3279 7.23633 57.969 6.98877 58.4514 6.98242ZM57.7786 9.24219C56.7122 9.31201 55.4744 10.2769 56.0203 11.1147C56.2742 11.4893 56.8772 11.7495 57.3787 11.4639C57.9055 11.1528 57.9246 9.98486 57.7786 9.24219ZM61.5932 4.45605C61.9994 4.45605 62.3232 4.79248 62.3232 5.20508C62.3232 5.61768 61.9994 5.94141 61.5932 5.94141C61.1742 5.94141 60.8442 5.61768 60.8442 5.20508C60.8442 4.79248 61.1742 4.45605 61.5932 4.45605ZM62.4311 6.63965C63.2753 6.63965 64.1196 7.08398 64.5068 8.10596C64.7099 8.64551 64.8622 9.94043 64.5575 10.8164C63.7958 13.0063 61.517 13.0127 59.8222 13.0127C59.4413 13.0127 59.1303 12.7017 59.1303 12.3208C59.1303 11.9399 59.4413 11.6289 59.8222 11.6289C61.1806 11.6289 62.6723 11.6162 63.0976 11.0259C61.936 11.3369 60.2411 10.3911 60.1205 9.2168C59.9809 7.82031 60.9394 6.63965 62.4311 6.63965ZM62.558 8.37891C62.3295 8.37891 62.101 8.48047 61.9613 8.62646C61.4662 9.16602 62.4311 9.96582 63.3197 9.87695C63.415 9.29932 63.3451 8.82324 62.996 8.53125C62.8627 8.42334 62.7104 8.37891 62.558 8.37891ZM66.4361 4.06885C66.7217 4.05615 66.963 4.12598 67.0201 4.28467C67.2994 5.12256 67.3121 8.60742 67.2359 10.042V10.0674C67.2359 10.0737 67.2359 10.0864 67.2359 10.0928C67.2296 10.1943 67.2359 10.2959 67.2486 10.4038C67.3184 11.064 67.585 11.4194 68.2579 11.5781C68.3785 11.6099 68.5245 11.6289 68.6451 11.6289C69.0259 11.6289 69.3306 11.9399 69.3306 12.3208C69.3306 12.7017 69.0259 13.0127 68.6451 13.0127C66.8487 13.0127 66.0616 12.0796 65.7632 10.2769C65.6046 9.29297 65.2237 4.80518 65.2237 4.80518C65.3506 4.3291 65.96 4.08154 66.4361 4.06885ZM69.6413 3.82129C69.8825 3.81494 70.0856 3.89111 70.1428 4.05615C70.2888 4.50049 70.3649 6.17627 70.384 7.92822C70.4855 7.83301 70.5808 7.73145 70.6823 7.64258C72.3518 6.14453 75.4558 7.22363 75.4558 10.5308L75.4431 11.6035C75.6018 11.6226 75.7351 11.6289 75.8557 11.6289C76.2365 11.6289 76.5476 11.9399 76.5476 12.3208C76.5476 12.7017 76.2365 13.0127 75.8557 13.0127C75.0305 13.0127 74.4147 12.4668 70.8918 12.7905C70.4602 12.8286 69.3557 13.0127 68.4924 13.0127C68.1115 13.0127 67.8005 12.7017 67.8005 12.3208C67.8005 11.9399 68.1115 11.6289 68.4924 11.6289C68.7019 11.6289 68.9304 11.6289 69.1462 11.6162C69.0954 9.69287 68.5939 4.57031 68.5939 4.57031C68.7209 4.09424 69.2351 3.84033 69.6413 3.82129ZM72.3073 4.83057C72.7199 4.83057 73.0564 5.17334 73.0564 5.57959C73.0564 5.99219 72.7199 6.32861 72.3073 6.32861C71.8947 6.32861 71.5583 5.99219 71.5583 5.57959C71.5583 5.17334 71.8947 4.83057 72.3073 4.83057ZM72.5168 8.19482C71.4758 8.15039 70.4411 9.31201 70.384 10.5435C70.384 10.9053 70.384 11.2354 70.3713 11.5146C71.4187 11.4194 72.4533 11.3179 73.3293 11.3687C73.507 11.3813 73.6403 11.4004 73.7927 11.4131C73.8879 10.1943 73.7863 8.63916 72.9548 8.30273C72.8088 8.23926 72.6628 8.20117 72.5168 8.19482ZM76.7503 5.93506C77.1629 5.93506 77.4994 6.27783 77.4994 6.68408C77.4994 7.09668 77.1629 7.43311 76.7503 7.43311C76.3377 7.43311 76.0013 7.09668 76.0013 6.68408C76.0013 6.27783 76.3377 5.93506 76.7503 5.93506ZM77.4168 7.82031C77.7088 7.81396 77.9437 7.89014 77.9881 8.05518C78.3372 9.00732 78.2801 9.896 78.1659 10.6895C77.931 12.3525 76.9408 13.0063 75.703 13.0063C75.3221 13.0063 75.0111 12.7017 75.0111 12.3208C75.0111 11.9399 75.3221 11.6289 75.703 11.6289C75.8172 11.6289 75.9632 11.6099 76.0902 11.5781C76.763 11.4131 76.7376 10.645 76.7376 10.4038C76.7376 9.33105 76.1917 8.55664 76.1917 8.55664C76.325 8.08057 76.9408 7.83936 77.4168 7.82031ZM88.3341 7.79492C89.1085 7.79492 90.1051 7.92188 90.5939 8.65186C90.5939 8.65186 89.9464 9.40723 90.0543 10.3911C90.1241 11.0513 90.3844 11.4194 91.0573 11.5781C91.1842 11.6099 91.3302 11.6289 91.4445 11.6289C91.8253 11.6289 92.1364 11.9399 92.1364 12.3208C92.1364 12.7017 91.8253 13.0127 91.4445 13.0127C90.2067 13.0127 88.8546 12.3525 88.6198 10.6895C88.5563 10.2388 88.5055 9.76904 88.5436 9.28027C88.3278 9.27393 88.131 9.29297 87.9342 9.31836C88.4166 10.188 88.1119 11.1274 87.9469 11.4766C87.4581 12.5366 86.2267 13.0127 84.9952 13.0127C82.399 13.0127 81.3961 11.2354 81.3961 9.74365C81.3961 9.36279 81.5612 8.44873 82.4371 7.94092C82.5577 7.87109 82.7101 7.82031 82.8815 7.79492C82.9323 7.78857 82.9894 7.79492 83.0465 7.79492C83.421 7.80127 83.7955 7.95996 83.7955 8.45508C83.7955 8.45508 83.0529 8.63916 82.8815 9.74365C82.9386 10.9624 83.5988 11.6289 84.6969 11.6289C85.8014 11.6289 86.5568 11.4639 86.8805 10.626C87.0138 10.2832 86.9503 10.0229 86.7916 9.85156C86.5948 10.0166 86.4235 10.2134 86.2838 10.4546V10.4673C85.5221 10.6704 84.8048 9.98486 85.0333 9.59131C85.7823 8.34082 86.9884 7.80127 88.3341 7.79492ZM83.8844 13.5522C84.297 13.5522 84.6334 13.8887 84.6334 14.3013C84.6334 14.7139 84.297 15.0503 83.8844 15.0503C83.4718 15.0503 83.1354 14.7139 83.1354 14.3013C83.1354 13.8887 83.4718 13.5522 83.8844 13.5522ZM85.7062 13.5522C86.1188 13.5522 86.4552 13.8887 86.4552 14.3013C86.4552 14.7139 86.1188 15.0503 85.7062 15.0503C85.2936 15.0503 84.9572 14.7139 84.9572 14.3013C84.9572 13.8887 85.2936 13.5522 85.7062 13.5522ZM93.3547 4.06885C93.6404 4.05615 93.8816 4.12598 93.9387 4.28467C94.218 5.12256 94.2307 8.60742 94.1545 10.042V10.0674C94.1545 10.0737 94.1545 10.0864 94.1545 10.0928C94.1482 10.1943 94.1545 10.2959 94.1672 10.4038C94.2371 11.064 94.5037 11.4194 95.1765 11.5781C95.2971 11.6099 95.4431 11.6289 95.5637 11.6289C95.9446 11.6289 96.2493 11.9399 96.2493 12.3208C96.2493 12.7017 95.9446 13.0127 95.5637 13.0127C94.7703 13.0127 93.9451 12.7397 93.3801 12.1177C92.8215 12.7144 92.0408 13.0127 91.2918 13.0127C90.9109 13.0127 90.5999 12.7017 90.5999 12.3208C90.5999 11.9399 90.9109 11.6289 91.2918 11.6289C91.4124 11.6289 91.552 11.6099 91.679 11.5781C92.3518 11.4131 92.6121 10.937 92.6819 10.2769C92.7898 9.29297 92.1423 4.80518 92.1423 4.80518C92.2693 4.3291 92.8787 4.08154 93.3547 4.06885ZM98.4579 6.96973C99.4164 6.93799 100.356 7.40771 100.794 8.18213C100.794 8.18213 100.127 9.25488 99.3656 9.25488C98.058 8.14404 96.4013 8.81055 97.2836 10.3403C97.7851 11.2036 98.3817 11.2671 99.6322 11.2036C100.045 11.1782 100.496 11.1528 101.041 11.1528C101.238 11.21 101.581 12.105 101.467 12.4922C98.1596 12.4795 97.6137 13.0127 95.3983 13.0127C95.0175 13.0127 94.7128 12.7017 94.7128 12.3208C94.7128 11.9399 95.0175 11.6289 95.3983 11.6289C95.8935 11.6289 96.2934 11.5972 96.6806 11.5527C95.684 10.5942 95.6078 9.15967 96.433 8.04248C96.9599 7.3252 97.7152 6.99512 98.4579 6.96973Z" fill="white"/>
</svg>
