<svg width="28" height="28" viewBox="0 0 28 28" fill="none" xmlns="http://www.w3.org/2000/svg">
<path d="M19.587 0.547363H8.41366C3.56033 0.547363 0.666992 3.4407 0.666992 8.29403V19.454C0.666992 24.3207 3.56033 27.214 8.41366 27.214H19.5737C24.427 27.214 27.3203 24.3207 27.3203 19.4674V8.29403C27.3337 3.4407 24.4403 0.547363 19.587 0.547363ZM14.0003 19.054C11.147 19.054 8.82699 16.734 8.82699 13.8807C8.82699 11.0274 11.147 8.70736 14.0003 8.70736C16.8537 8.70736 19.1737 11.0274 19.1737 13.8807C19.1737 16.734 16.8537 19.054 14.0003 19.054ZM21.8937 7.05403C21.827 7.21403 21.7337 7.3607 21.6137 7.49403C21.4803 7.61403 21.3337 7.70736 21.1737 7.77403C21.0137 7.8407 20.8403 7.8807 20.667 7.8807C20.307 7.8807 19.9737 7.74736 19.7203 7.49403C19.6003 7.3607 19.507 7.21403 19.4403 7.05403C19.3737 6.89403 19.3337 6.7207 19.3337 6.54736C19.3337 6.37403 19.3737 6.2007 19.4403 6.0407C19.507 5.86736 19.6003 5.73403 19.7203 5.6007C20.027 5.29403 20.4937 5.14736 20.9203 5.2407C21.0137 5.25403 21.0937 5.2807 21.1737 5.3207C21.2537 5.34736 21.3337 5.38736 21.4137 5.4407C21.4803 5.4807 21.547 5.54736 21.6137 5.6007C21.7337 5.73403 21.827 5.86736 21.8937 6.0407C21.9603 6.2007 22.0003 6.37403 22.0003 6.54736C22.0003 6.7207 21.9603 6.89403 21.8937 7.05403Z" fill="white"/>
</svg>
