<svg width="36" height="36" viewBox="0 0 36 36" fill="none" xmlns="http://www.w3.org/2000/svg">
<rect x="0.5" y="0.5" width="35" height="35" rx="17.5" fill="white"/>
<rect x="0.5" y="0.5" width="35" height="35" rx="17.5" stroke="#0C4F89"/>
<g clip-path="url(#clip0_211_3103)">
<mask id="mask0_211_3103" style="mask-type:luminance" maskUnits="userSpaceOnUse" x="8" y="8" width="20" height="20">
<path d="M28 8H8V28H28V8Z" fill="white"/>
</mask>
<g mask="url(#mask0_211_3103)">
<path d="M20.5996 16.5913C20.5996 18.0246 19.4412 19.1913 17.9996 19.1913C16.5579 19.1913 15.3996 18.0329 15.3996 16.5913C15.3996 15.1495 16.5662 13.9912 17.9996 13.9912C18.2829 13.9912 18.5579 14.0329 18.8079 14.1162" stroke="#0C4F89" stroke-width="1.5" stroke-linecap="round" stroke-linejoin="round"/>
<path d="M12.9833 11.5834C16.625 8.15838 23.6833 9.33338 24.9833 15.0917C25.9417 19.3251 23.3083 22.9084 21 25.1251C19.325 26.7418 16.675 26.7418 14.9916 25.1251C12.6916 22.9001 10.05 19.3168 11.0166 15.0834" stroke="#0C4F89" stroke-width="1.5" stroke-linecap="round" stroke-linejoin="round"/>
</g>
</g>
<defs>
<clipPath id="clip0_211_3103">
<rect width="20" height="20" fill="white" transform="translate(8 8)"/>
</clipPath>
</defs>
</svg>
