<svg width="60" height="61" viewBox="0 0 60 61" fill="none" xmlns="http://www.w3.org/2000/svg">
<path d="M14.9504 11.4088C25.8754 1.13384 47.0504 4.65885 50.9504 21.9338C53.8254 34.6338 45.9254 45.3838 39.0004 52.0338C33.9754 56.8838 26.0254 56.8838 20.9754 52.0338C14.0754 45.3588 6.15039 34.6088 9.05039 21.9088" stroke="#4998D0" stroke-width="2.5" stroke-linecap="round" stroke-linejoin="round"/>
<path d="M28.0538 17.9758C29.1913 17.0661 30.808 17.0659 31.9454 17.9758L41.0607 25.2678C41.505 25.6236 41.5771 26.2724 41.2218 26.7171C40.8661 27.1617 40.2173 27.2337 39.7726 26.8782L39.3663 26.553V35.4514C39.3661 37.1712 37.9709 38.5654 36.2511 38.5657H23.7511C22.0313 38.5655 20.6371 37.1712 20.6368 35.4514V26.5501L20.2277 26.8782C19.783 27.2339 19.1333 27.1616 18.7775 26.7171C18.4221 26.2724 18.4942 25.6235 18.9386 25.2678L28.0538 17.9758ZM30.6574 19.5862C30.2733 19.2789 29.7271 19.2792 29.3429 19.5862L22.6993 24.9006V35.4514C22.6996 36.0321 23.1704 36.503 23.7511 36.5032H36.2511C36.8318 36.5029 37.3036 36.0321 37.3038 35.4514V24.9026L30.6574 19.5862ZM30.0001 29.8372C30.5697 29.8372 31.0314 30.2989 31.0314 30.8684V31.9104C31.0312 32.4798 30.5696 32.9417 30.0001 32.9417C29.4307 32.9417 28.9691 32.4798 28.9689 31.9104V30.8684C28.9689 30.2989 29.4306 29.8372 30.0001 29.8372Z" fill="#4998D0"/>
</svg>
