<svg width="1280" height="694" viewBox="0 0 1280 694" fill="none" xmlns="http://www.w3.org/2000/svg">
<mask id="mask0_576_897" style="mask-type:alpha" maskUnits="userSpaceOnUse" x="0" y="0" width="1280" height="640">
<path d="M0 0H1280C1280 353.462 993.462 640 640 640C286.538 640 0 353.462 0 0Z" fill="#D9D9D9"/>
</mask>
<g mask="url(#mask0_576_897)">
</g>
<g clip-path="url(#clip0_576_897)">
<path d="M685.044 438.455C684.442 438.25 683.887 437.929 683.409 437.51C682.931 437.09 682.541 436.581 682.26 436.011C681.979 435.44 681.813 434.82 681.772 434.186C681.731 433.552 681.815 432.915 682.019 432.314C682.224 431.712 682.545 431.156 682.964 430.679C683.384 430.201 683.893 429.81 684.463 429.529C685.034 429.249 685.654 429.083 686.288 429.041C686.922 429 687.558 429.084 688.16 429.289C688.787 429.468 689.372 429.77 689.882 430.176C690.392 430.582 690.816 431.084 691.132 431.655C691.447 432.226 691.646 432.853 691.718 433.501C691.79 434.148 691.733 434.804 691.551 435.43C691.326 436.059 690.979 436.636 690.529 437.129C690.079 437.623 689.535 438.021 688.93 438.303C688.325 438.584 687.669 438.743 687.002 438.769C686.335 438.795 685.669 438.688 685.044 438.455Z" fill="white"/>
<path d="M426.824 81.3054C423.644 82.5362 420.901 84.683 418.941 87.4739C416.982 90.2648 415.895 93.5744 415.817 96.9836C415.739 100.393 416.675 103.748 418.505 106.626C420.336 109.503 422.979 111.772 426.099 113.146C429.22 114.521 432.679 114.938 436.037 114.346C439.395 113.753 442.502 112.178 444.964 109.819C447.426 107.459 449.133 104.423 449.869 101.093C450.604 97.763 450.335 94.2898 449.096 91.1129C448.285 89.0008 447.064 87.0702 445.503 85.4323C443.943 83.7945 442.073 82.4818 440.003 81.5701C437.932 80.6583 435.702 80.1656 433.44 80.1202C431.178 80.0747 428.93 80.4775 426.824 81.3054Z" fill="white"/>
<path d="M64.0901 467.877C62.1893 470.012 59.699 471.537 56.9332 472.259C54.1673 472.982 51.2495 472.869 48.5474 471.936C45.8453 471.003 43.4799 469.291 41.7491 467.016C40.0182 464.74 38.9995 462.004 38.8212 459.151C38.6429 456.297 39.3129 453.455 40.747 450.982C42.1811 448.509 44.315 446.516 46.8798 445.253C49.4447 443.991 52.3258 443.516 55.1601 443.888C57.9944 444.261 60.6551 445.464 62.807 447.346C64.2467 448.605 65.4228 450.136 66.2673 451.852C67.1118 453.569 67.608 455.435 67.7273 457.344C67.8466 459.253 67.5866 461.167 66.9623 462.974C66.3381 464.782 65.3619 466.449 64.0901 467.877Z" fill="white"/>
<path d="M1103.08 428.739C1101.18 430.887 1098.69 432.425 1095.92 433.159C1093.15 433.893 1090.23 433.789 1087.52 432.861C1084.81 431.933 1082.44 430.222 1080.7 427.945C1078.96 425.668 1077.94 422.927 1077.76 420.068C1077.58 417.209 1078.25 414.361 1079.69 411.885C1081.13 409.408 1083.27 407.414 1085.84 406.154C1088.42 404.894 1091.31 404.426 1094.14 404.807C1096.98 405.189 1099.64 406.404 1101.79 408.299C1103.23 409.55 1104.4 411.074 1105.25 412.782C1106.09 414.49 1106.59 416.349 1106.7 418.251C1106.82 420.152 1106.56 422.058 1105.94 423.859C1105.32 425.659 1104.34 427.318 1103.08 428.739Z" fill="white"/>
<path d="M74.7217 266.777C74.6853 271.491 73.2522 276.087 70.6036 279.986C67.955 283.884 64.2099 286.91 59.8418 288.68C55.4738 290.45 50.6789 290.885 46.0636 289.93C41.4484 288.975 37.2199 286.673 33.913 283.314C30.6061 279.956 28.3693 275.693 27.4854 271.063C26.6014 266.433 27.1101 261.645 28.9471 257.305C30.7841 252.964 33.8669 249.266 37.8056 246.677C41.7443 244.089 46.3621 242.727 51.0751 242.763C54.2045 242.787 57.2985 243.427 60.1805 244.647C63.0625 245.867 65.6761 247.642 67.8719 249.872C70.0677 252.102 71.8028 254.743 72.9781 257.643C74.1534 260.544 74.7458 263.648 74.7217 266.777Z" fill="white"/>
<path d="M120.162 580.783C120.305 582.872 119.648 584.937 118.324 586.56C117.001 588.182 115.11 589.241 113.035 589.521C110.96 589.8 108.856 589.281 107.15 588.067C105.444 586.852 104.263 585.035 103.848 582.983C103.588 580.82 104.194 578.644 105.534 576.926C106.873 575.209 108.837 574.092 110.997 573.817C113.135 573.53 115.3 574.101 117.018 575.407C118.736 576.713 119.866 578.646 120.162 580.783Z" fill="white"/>
<path d="M330.987 339.004C331.951 338.39 332.783 337.591 333.434 336.653C334.086 335.714 334.545 334.655 334.784 333.538C335.023 332.421 335.037 331.267 334.826 330.144C334.614 329.021 334.182 327.951 333.553 326.997C332.627 325.392 331.236 324.105 329.564 323.307C327.892 322.508 326.017 322.235 324.187 322.524C322.357 322.813 320.657 323.649 319.312 324.924C317.966 326.198 317.039 327.85 316.652 329.662C316.264 331.474 316.435 333.361 317.142 335.074C317.849 336.787 319.058 338.246 320.611 339.257C322.163 340.269 323.986 340.786 325.838 340.741C327.69 340.696 329.486 340.09 330.987 339.004Z" fill="white"/>
<path d="M207.623 220.645C210.423 221.017 213.271 220.551 215.806 219.306C218.342 218.061 220.452 216.093 221.87 213.65C223.288 211.207 223.951 208.399 223.775 205.58C223.599 202.76 222.592 200.056 220.881 197.809C219.17 195.561 216.832 193.871 214.161 192.951C211.49 192.031 208.607 191.923 205.875 192.64C203.143 193.358 200.684 194.868 198.81 196.981C196.935 199.094 195.728 201.715 195.342 204.513C195.084 206.379 195.197 208.279 195.676 210.101C196.154 211.923 196.988 213.633 198.129 215.133C199.27 216.632 200.697 217.89 202.326 218.836C203.955 219.782 205.756 220.397 207.623 220.645Z" fill="white"/>
<path d="M263.894 354.77C269.765 354.77 274.525 350.01 274.525 344.137C274.525 338.265 269.765 333.505 263.894 333.505C258.022 333.505 253.262 338.265 253.262 344.137C253.262 350.01 258.022 354.77 263.894 354.77Z" fill="white"/>
<path d="M417.531 243.936C419.979 244.39 422.507 244.107 424.794 243.121C427.081 242.135 429.022 240.491 430.373 238.398C431.723 236.306 432.421 233.859 432.377 231.369C432.333 228.879 431.55 226.459 430.127 224.415C428.704 222.371 426.706 220.796 424.386 219.891C422.066 218.986 419.53 218.791 417.099 219.331C414.668 219.871 412.452 221.122 410.734 222.924C409.016 224.727 407.872 227 407.449 229.454C406.887 232.709 407.63 236.054 409.517 238.764C411.404 241.475 414.283 243.333 417.531 243.936Z" fill="white"/>
<path d="M275.81 334.421C276.902 334.457 277.975 334.131 278.861 333.493C279.748 332.856 280.399 331.943 280.713 330.897C281.026 329.851 280.985 328.73 280.596 327.71C280.207 326.69 279.491 325.827 278.56 325.256C277.469 325.22 276.396 325.546 275.509 326.184C274.623 326.821 273.972 327.734 273.658 328.78C273.344 329.826 273.385 330.947 273.774 331.967C274.164 332.987 274.88 333.85 275.81 334.421Z" fill="white"/>
<path d="M1008.4 655.998C1008.99 655.899 1009.56 655.682 1010.07 655.359C1010.58 655.036 1011.02 654.613 1011.36 654.117C1011.7 653.621 1011.94 653.062 1012.06 652.471C1012.18 651.881 1012.18 651.272 1012.06 650.682C1011.84 649.487 1011.16 648.427 1010.17 647.725C1009.18 647.024 1007.95 646.736 1006.75 646.924C1005.58 647.167 1004.55 647.86 1003.88 648.854C1003.21 649.847 1002.96 651.062 1003.17 652.24C1003.25 652.839 1003.45 653.416 1003.76 653.934C1004.07 654.453 1004.48 654.902 1004.97 655.255C1005.46 655.607 1006.02 655.855 1006.61 655.983C1007.2 656.111 1007.81 656.116 1008.4 655.998Z" fill="white"/>
<path d="M335.294 508.299C331.675 506.538 328.656 503.747 326.616 500.277C324.576 496.807 323.606 492.812 323.828 488.793C324.05 484.774 325.453 480.909 327.862 477.685C330.271 474.46 333.578 472.019 337.369 470.666C341.161 469.314 345.266 469.111 349.172 470.084C353.078 471.056 356.61 473.16 359.325 476.132C362.04 479.103 363.817 482.81 364.433 486.788C365.05 490.766 364.478 494.837 362.79 498.491C361.67 500.976 360.06 503.209 358.056 505.057C356.052 506.905 353.696 508.33 351.129 509.246C348.561 510.161 345.836 510.55 343.115 510.387C340.394 510.224 337.734 509.514 335.294 508.299Z" fill="white"/>
<path d="M764.729 533.954C762.389 532.87 760.424 531.115 759.083 528.912C757.742 526.708 757.086 524.156 757.198 521.58C757.31 519.003 758.185 516.518 759.711 514.439C761.238 512.36 763.348 510.782 765.774 509.905C768.199 509.028 770.83 508.891 773.333 509.512C775.836 510.132 778.099 511.483 779.833 513.392C781.567 515.301 782.695 517.682 783.074 520.233C783.453 522.785 783.065 525.391 781.96 527.721C781.241 529.265 780.225 530.651 778.968 531.801C777.712 532.95 776.241 533.84 774.64 534.42C773.039 534.999 771.339 535.256 769.638 535.176C767.937 535.096 766.269 534.681 764.729 533.954Z" fill="white"/>
<path d="M436.204 650.645C437.445 648.726 439.228 647.218 441.327 646.313C443.426 645.408 445.746 645.146 447.994 645.561C450.242 645.975 452.316 647.047 453.954 648.641C455.592 650.236 456.72 652.28 457.196 654.516C457.671 656.752 457.472 659.079 456.625 661.201C455.777 663.324 454.319 665.148 452.434 666.441C450.549 667.734 448.323 668.439 446.037 668.466C443.752 668.494 441.51 667.842 439.595 666.594C437.034 664.925 435.24 662.31 434.604 659.32C433.969 656.331 434.544 653.211 436.204 650.645Z" fill="white"/>
<path d="M270.677 569.435C271.258 573.534 270.608 577.714 268.81 581.443C267.012 585.172 264.147 588.283 260.579 590.382C257.01 592.48 252.898 593.471 248.766 593.229C244.633 592.987 240.665 591.523 237.366 589.023C234.066 586.522 231.584 583.098 230.233 579.184C228.883 575.271 228.725 571.044 229.78 567.041C230.835 563.037 233.055 559.438 236.159 556.698C239.263 553.959 243.111 552.203 247.214 551.653C249.922 551.279 252.678 551.441 255.323 552.132C257.969 552.824 260.452 554.029 262.631 555.681C264.81 557.332 266.642 559.397 268.023 561.757C269.404 564.117 270.306 566.726 270.677 569.435Z" fill="white"/>
<path d="M345.743 582.268C345.884 583.333 345.814 584.417 345.535 585.455C345.257 586.493 344.776 587.466 344.12 588.318C343.464 589.17 342.646 589.884 341.714 590.418C340.781 590.953 339.752 591.298 338.686 591.434C337.632 591.572 336.562 591.502 335.536 591.227C334.51 590.951 333.549 590.477 332.706 589.83C331.864 589.183 331.157 588.377 330.626 587.457C330.095 586.536 329.75 585.521 329.612 584.468C329.474 583.414 329.544 582.344 329.819 581.318C330.094 580.292 330.569 579.33 331.216 578.488C331.862 577.645 332.669 576.938 333.589 576.407C334.509 575.876 335.524 575.532 336.578 575.393C337.631 575.238 338.706 575.293 339.738 575.555C340.77 575.817 341.741 576.281 342.593 576.92C343.445 577.56 344.162 578.361 344.703 579.279C345.243 580.197 345.597 581.213 345.743 582.268Z" fill="white"/>
<path d="M589.815 668.977C591.407 668.04 592.68 666.644 593.465 664.971C594.251 663.299 594.512 661.428 594.216 659.604C593.919 657.78 593.078 656.089 591.803 654.751C590.528 653.414 588.879 652.493 587.071 652.109C585.264 651.726 583.382 651.898 581.674 652.602C579.966 653.307 578.511 654.511 577.499 656.058C576.488 657.604 575.967 659.42 576.006 661.268C576.045 663.115 576.641 664.908 577.716 666.411C579.048 668.272 581.029 669.567 583.267 670.042C585.506 670.517 587.842 670.137 589.815 668.977Z" fill="white"/>
<path d="M686.452 630.526C689.248 630.894 692.091 630.428 694.623 629.185C697.154 627.942 699.262 625.978 700.68 623.54C702.098 621.103 702.764 618.3 702.593 615.485C702.423 612.669 701.423 609.968 699.721 607.719C698.019 605.47 695.69 603.775 693.026 602.847C690.363 601.919 687.485 601.799 684.754 602.503C682.023 603.207 679.561 604.702 677.678 606.802C675.795 608.901 674.575 611.511 674.171 614.302C673.9 616.176 674.003 618.084 674.476 619.917C674.948 621.75 675.779 623.471 676.922 624.98C678.064 626.49 679.495 627.757 681.131 628.709C682.767 629.661 684.576 630.278 686.452 630.526Z" fill="white"/>
<path d="M506.757 553.826C508.726 553.031 510.415 551.669 511.61 549.913C512.804 548.156 513.45 546.085 513.466 543.961C513.482 541.837 512.867 539.756 511.699 537.983C510.53 536.209 508.862 534.822 506.904 533.998C504.947 533.173 502.789 532.949 500.704 533.353C498.619 533.757 496.7 534.771 495.192 536.267C493.684 537.762 492.654 539.672 492.233 541.754C491.811 543.835 492.018 545.995 492.825 547.96C493.902 550.579 495.972 552.666 498.582 553.765C501.192 554.864 504.131 554.886 506.757 553.826Z" fill="white"/>
<path d="M586.363 493.817C588.833 494.294 591.39 494.023 593.705 493.039C596.021 492.055 597.991 490.403 599.363 488.293C600.734 486.184 601.446 483.713 601.406 481.198C601.367 478.682 600.578 476.235 599.14 474.17C597.702 472.105 595.682 470.515 593.336 469.605C590.99 468.695 588.426 468.505 585.972 469.059C583.518 469.614 581.285 470.887 579.559 472.718C577.832 474.548 576.691 476.852 576.281 479.335C575.719 482.589 576.462 485.934 578.349 488.645C580.236 491.356 583.115 493.214 586.363 493.817Z" fill="white"/>
<path d="M534.273 664.303C535.211 664.589 536.213 664.59 537.152 664.306C538.09 664.022 538.923 663.466 539.545 662.708C540.167 661.95 540.55 661.024 540.645 660.048C540.74 659.072 540.543 658.09 540.079 657.226C539.615 656.362 538.904 655.656 538.038 655.196C537.172 654.737 536.189 654.545 535.213 654.645C534.238 654.745 533.314 655.133 532.559 655.759C531.804 656.385 531.253 657.221 530.974 658.161C530.603 659.413 530.741 660.761 531.359 661.912C531.977 663.062 533.025 663.921 534.273 664.303Z" fill="white"/>
<path d="M1086.7 617.666C1087.54 616.287 1087.95 614.689 1087.88 613.076C1087.81 611.462 1087.26 609.906 1086.3 608.604C1085.35 607.303 1084.03 606.313 1082.51 605.762C1080.99 605.211 1079.35 605.122 1077.78 605.508C1076.21 605.894 1074.79 606.736 1073.7 607.928C1072.62 609.12 1071.91 610.609 1071.66 612.205C1071.42 613.802 1071.66 615.434 1072.34 616.896C1073.03 618.357 1074.13 619.583 1075.52 620.416C1077.37 621.506 1079.58 621.829 1081.67 621.315C1083.76 620.802 1085.56 619.492 1086.7 617.666Z" fill="white"/>
<path d="M963.235 560.764C965.751 559.948 967.969 558.403 969.608 556.326C971.247 554.249 972.234 551.733 972.444 549.095C972.653 546.457 972.076 543.817 970.785 541.507C969.494 539.197 967.548 537.322 965.192 536.118C962.836 534.915 960.176 534.436 957.548 534.744C954.92 535.052 952.442 536.132 950.428 537.847C948.414 539.563 946.953 541.837 946.231 544.382C945.509 546.928 945.557 549.631 946.37 552.148C946.9 553.829 947.759 555.388 948.897 556.734C950.035 558.079 951.429 559.185 952.999 559.987C954.568 560.789 956.281 561.271 958.039 561.404C959.796 561.537 961.562 561.32 963.235 560.764Z" fill="white"/>
<path d="M899.681 595.613C900.985 594.156 901.828 592.346 902.104 590.41C902.38 588.475 902.077 586.5 901.233 584.737C900.389 582.973 899.041 581.499 897.36 580.501C895.679 579.502 893.74 579.024 891.788 579.126C889.836 579.228 887.957 579.906 886.389 581.074C884.822 582.243 883.635 583.849 882.98 585.691C882.324 587.533 882.228 589.528 882.705 591.425C883.182 593.321 884.209 595.034 885.658 596.347C886.625 597.223 887.756 597.899 888.985 598.337C890.215 598.775 891.518 598.965 892.822 598.897C894.125 598.829 895.402 598.504 896.579 597.94C897.756 597.377 898.81 596.586 899.681 595.613Z" fill="white"/>
<path d="M1138.37 552.313C1140.61 551.69 1142.62 550.413 1144.13 548.645C1145.65 546.877 1146.61 544.697 1146.88 542.385C1147.15 540.072 1146.73 537.73 1145.67 535.658C1144.61 533.585 1142.95 531.876 1140.91 530.747C1138.88 529.618 1136.55 529.121 1134.23 529.319C1131.91 529.517 1129.7 530.401 1127.88 531.859C1126.07 533.317 1124.73 535.282 1124.03 537.504C1123.34 539.727 1123.32 542.106 1123.98 544.339C1124.83 547.304 1126.83 549.809 1129.52 551.304C1132.22 552.799 1135.4 553.162 1138.37 552.313Z" fill="white"/>
<path d="M466.633 469.16C465.652 468.189 464.983 466.948 464.709 465.595C464.435 464.242 464.569 462.838 465.095 461.561C465.62 460.285 466.513 459.193 467.66 458.425C468.806 457.657 470.156 457.247 471.536 457.247C472.916 457.247 474.266 457.657 475.412 458.425C476.559 459.193 477.452 460.285 477.977 461.561C478.503 462.838 478.637 464.242 478.363 465.595C478.089 466.948 477.42 468.189 476.439 469.16C475.135 470.453 473.373 471.179 471.536 471.179C469.699 471.179 467.937 470.453 466.633 469.16Z" fill="white"/>
<path d="M816.948 632.653C815.655 631.348 814.93 629.586 814.93 627.749C814.93 625.912 815.655 624.15 816.948 622.845C817.505 622.039 818.227 621.36 819.068 620.856C819.908 620.351 820.847 620.032 821.82 619.92C822.794 619.809 823.781 619.906 824.713 620.207C825.646 620.507 826.504 621.004 827.229 621.663C827.955 622.323 828.531 623.129 828.918 624.03C829.306 624.93 829.497 625.902 829.478 626.882C829.459 627.862 829.231 628.827 828.809 629.712C828.387 630.596 827.78 631.38 827.03 632.011C826.432 632.748 825.688 633.353 824.844 633.788C824.001 634.223 823.077 634.479 822.129 634.539C821.182 634.599 820.233 634.463 819.341 634.138C818.45 633.814 817.635 633.308 816.948 632.653Z" fill="white"/>
<path d="M635.294 218.299C631.675 216.538 628.656 213.747 626.616 210.277C624.576 206.807 623.606 202.812 623.828 198.793C624.05 194.774 625.453 190.909 627.862 187.685C630.271 184.46 633.578 182.019 637.369 180.666C641.161 179.314 645.266 179.111 649.172 180.084C653.078 181.056 656.61 183.16 659.325 186.132C662.04 189.103 663.817 192.81 664.433 196.788C665.05 200.766 664.478 204.837 662.79 208.491C661.67 210.976 660.06 213.209 658.056 215.057C656.052 216.905 653.696 218.33 651.129 219.246C648.561 220.161 645.836 220.55 643.115 220.387C640.394 220.224 637.734 219.514 635.294 218.299Z" fill="white"/>
<path d="M1064.73 243.954C1062.39 242.87 1060.42 241.115 1059.08 238.912C1057.74 236.708 1057.09 234.156 1057.2 231.58C1057.31 229.003 1058.18 226.518 1059.71 224.439C1061.24 222.36 1063.35 220.782 1065.77 219.905C1068.2 219.028 1070.83 218.891 1073.33 219.512C1075.84 220.132 1078.1 221.483 1079.83 223.392C1081.57 225.301 1082.7 227.682 1083.07 230.233C1083.45 232.785 1083.07 235.391 1081.96 237.721C1081.24 239.265 1080.22 240.651 1078.97 241.801C1077.71 242.95 1076.24 243.84 1074.64 244.42C1073.04 244.999 1071.34 245.256 1069.64 245.176C1067.94 245.096 1066.27 244.681 1064.73 243.954Z" fill="white"/>
<path d="M736.204 360.645C737.445 358.726 739.228 357.218 741.327 356.313C743.426 355.408 745.746 355.146 747.994 355.561C750.242 355.975 752.316 357.047 753.954 358.641C755.592 360.236 756.72 362.28 757.196 364.516C757.671 366.752 757.472 369.079 756.625 371.201C755.777 373.324 754.319 375.148 752.434 376.441C750.549 377.734 748.323 378.439 746.037 378.466C743.752 378.494 741.51 377.842 739.595 376.594C737.034 374.925 735.24 372.31 734.604 369.32C733.969 366.331 734.544 363.211 736.204 360.645Z" fill="white"/>
<path d="M570.677 279.435C571.258 283.534 570.608 287.714 568.81 291.443C567.012 295.172 564.147 298.283 560.579 300.382C557.01 302.48 552.898 303.471 548.766 303.229C544.633 302.987 540.665 301.523 537.366 299.023C534.066 296.522 531.584 293.098 530.233 289.184C528.883 285.271 528.725 281.044 529.78 277.041C530.835 273.037 533.055 269.438 536.159 266.698C539.263 263.959 543.111 262.203 547.214 261.653C549.922 261.279 552.678 261.441 555.323 262.132C557.969 262.824 560.452 264.029 562.631 265.681C564.81 267.332 566.642 269.397 568.023 271.757C569.404 274.117 570.306 276.726 570.677 279.435Z" fill="white"/>
<path d="M645.743 292.268C645.884 293.333 645.814 294.417 645.535 295.455C645.257 296.493 644.776 297.466 644.12 298.318C643.464 299.17 642.646 299.884 641.714 300.418C640.781 300.953 639.752 301.298 638.686 301.434C637.632 301.572 636.562 301.502 635.536 301.227C634.51 300.951 633.549 300.477 632.706 299.83C631.864 299.183 631.157 298.377 630.626 297.457C630.095 296.536 629.75 295.521 629.612 294.468C629.474 293.414 629.544 292.344 629.819 291.318C630.094 290.292 630.569 289.33 631.216 288.488C631.862 287.645 632.669 286.938 633.589 286.407C634.509 285.876 635.524 285.532 636.578 285.393C637.631 285.238 638.706 285.293 639.738 285.555C640.77 285.817 641.741 286.281 642.593 286.92C643.445 287.56 644.162 288.361 644.703 289.279C645.243 290.197 645.597 291.213 645.743 292.268Z" fill="white"/>
<path d="M889.815 378.977C891.407 378.04 892.68 376.644 893.465 374.971C894.251 373.299 894.512 371.428 894.216 369.604C893.919 367.78 893.078 366.089 891.803 364.751C890.528 363.414 888.879 362.493 887.071 362.109C885.264 361.726 883.382 361.898 881.674 362.602C879.966 363.307 878.511 364.511 877.499 366.058C876.488 367.604 875.967 369.42 876.006 371.268C876.045 373.115 876.641 374.908 877.716 376.411C879.048 378.272 881.029 379.567 883.267 380.042C885.506 380.517 887.842 380.137 889.815 378.977Z" fill="white"/>
<path d="M986.452 340.526C989.248 340.894 992.091 340.428 994.623 339.185C997.154 337.942 999.262 335.978 1000.68 333.54C1002.1 331.103 1002.76 328.3 1002.59 325.485C1002.42 322.669 1001.42 319.968 999.721 317.719C998.019 315.47 995.69 313.775 993.026 312.847C990.363 311.919 987.485 311.799 984.754 312.503C982.023 313.207 979.561 314.702 977.678 316.802C975.795 318.901 974.575 321.511 974.171 324.302C973.9 326.176 974.003 328.084 974.476 329.917C974.948 331.75 975.779 333.471 976.922 334.98C978.064 336.49 979.495 337.757 981.131 338.709C982.767 339.661 984.576 340.278 986.452 340.526Z" fill="white"/>
<path d="M806.757 263.826C808.726 263.031 810.415 261.669 811.61 259.913C812.804 258.156 813.45 256.085 813.466 253.961C813.482 251.837 812.867 249.756 811.699 247.983C810.53 246.209 808.862 244.822 806.904 243.998C804.947 243.173 802.789 242.949 800.704 243.353C798.619 243.757 796.7 244.771 795.192 246.267C793.684 247.762 792.654 249.672 792.233 251.754C791.811 253.835 792.018 255.995 792.825 257.96C793.902 260.579 795.972 262.666 798.582 263.765C801.192 264.864 804.131 264.886 806.757 263.826Z" fill="white"/>
<path d="M886.363 203.817C888.833 204.294 891.39 204.023 893.705 203.039C896.021 202.055 897.991 200.403 899.363 198.293C900.734 196.184 901.446 193.713 901.406 191.198C901.367 188.682 900.578 186.235 899.14 184.17C897.702 182.105 895.682 180.515 893.336 179.605C890.99 178.695 888.426 178.505 885.972 179.059C883.518 179.614 881.285 180.887 879.559 182.718C877.832 184.548 876.691 186.852 876.281 189.335C875.719 192.589 876.462 195.934 878.349 198.645C880.236 201.356 883.115 203.214 886.363 203.817Z" fill="white"/>
<path d="M834.273 374.303C835.211 374.589 836.213 374.59 837.152 374.306C838.09 374.022 838.923 373.466 839.545 372.708C840.167 371.95 840.55 371.024 840.645 370.048C840.74 369.072 840.543 368.09 840.079 367.226C839.615 366.362 838.904 365.656 838.038 365.196C837.172 364.737 836.189 364.545 835.213 364.645C834.238 364.745 833.314 365.133 832.559 365.759C831.804 366.385 831.253 367.221 830.974 368.161C830.603 369.413 830.741 370.761 831.359 371.912C831.977 373.062 833.025 373.921 834.273 374.303Z" fill="white"/>
<path d="M1263.23 270.764C1265.75 269.948 1267.97 268.403 1269.61 266.326C1271.25 264.249 1272.23 261.733 1272.44 259.095C1272.65 256.457 1272.08 253.817 1270.79 251.507C1269.49 249.197 1267.55 247.322 1265.19 246.118C1262.84 244.915 1260.18 244.436 1257.55 244.744C1254.92 245.052 1252.44 246.132 1250.43 247.847C1248.41 249.563 1246.95 251.837 1246.23 254.382C1245.51 256.928 1245.56 259.631 1246.37 262.148C1246.9 263.829 1247.76 265.388 1248.9 266.734C1250.04 268.079 1251.43 269.185 1253 269.987C1254.57 270.789 1256.28 271.271 1258.04 271.404C1259.8 271.537 1261.56 271.32 1263.23 270.764Z" fill="white"/>
<path d="M1199.68 305.613C1200.98 304.156 1201.83 302.346 1202.1 300.41C1202.38 298.475 1202.08 296.5 1201.23 294.737C1200.39 292.973 1199.04 291.499 1197.36 290.501C1195.68 289.502 1193.74 289.024 1191.79 289.126C1189.84 289.228 1187.96 289.906 1186.39 291.074C1184.82 292.243 1183.64 293.849 1182.98 295.691C1182.32 297.533 1182.23 299.528 1182.7 301.425C1183.18 303.321 1184.21 305.034 1185.66 306.347C1186.62 307.223 1187.76 307.899 1188.99 308.337C1190.21 308.775 1191.52 308.965 1192.82 308.897C1194.13 308.829 1195.4 308.504 1196.58 307.94C1197.76 307.377 1198.81 306.586 1199.68 305.613Z" fill="white"/>
<path d="M766.633 179.16C765.652 178.189 764.983 176.948 764.709 175.595C764.435 174.242 764.569 172.838 765.095 171.561C765.62 170.285 766.513 169.193 767.66 168.425C768.806 167.657 770.156 167.247 771.536 167.247C772.916 167.247 774.266 167.657 775.412 168.425C776.559 169.193 777.452 170.285 777.977 171.561C778.503 172.838 778.637 174.242 778.363 175.595C778.089 176.948 777.42 178.189 776.439 179.16C775.135 180.453 773.373 181.179 771.536 181.179C769.699 181.179 767.937 180.453 766.633 179.16Z" fill="white"/>
<path d="M1116.95 342.653C1115.66 341.348 1114.93 339.586 1114.93 337.749C1114.93 335.912 1115.66 334.15 1116.95 332.845C1117.5 332.039 1118.23 331.36 1119.07 330.856C1119.91 330.351 1120.85 330.032 1121.82 329.92C1122.79 329.809 1123.78 329.906 1124.71 330.207C1125.65 330.507 1126.5 331.004 1127.23 331.663C1127.95 332.323 1128.53 333.129 1128.92 334.03C1129.31 334.93 1129.5 335.902 1129.48 336.882C1129.46 337.862 1129.23 338.827 1128.81 339.712C1128.39 340.596 1127.78 341.38 1127.03 342.011C1126.43 342.748 1125.69 343.353 1124.84 343.788C1124 344.223 1123.08 344.479 1122.13 344.539C1121.18 344.599 1120.23 344.463 1119.34 344.138C1118.45 343.814 1117.63 343.308 1116.95 342.653Z" fill="white"/>
<path d="M152.719 450.187C149.636 446.747 147.647 442.469 147.003 437.895C146.359 433.322 147.09 428.66 149.102 424.504C151.115 420.347 154.318 416.882 158.305 414.551C162.292 412.22 166.882 411.127 171.491 411.412C176.101 411.697 180.521 413.346 184.191 416.151C187.86 418.955 190.613 422.788 192.098 427.161C193.584 431.534 193.735 436.25 192.533 440.709C191.331 445.169 188.83 449.17 185.347 452.203C180.745 456.245 174.73 458.301 168.617 457.923C162.504 457.546 156.788 454.764 152.719 450.187Z" fill="white"/>
<path d="M1186.85 347.346C1188.1 345.462 1189.88 343.992 1191.96 343.118C1194.05 342.245 1196.35 342.009 1198.57 342.438C1200.79 342.868 1202.83 343.945 1204.44 345.534C1206.05 347.122 1207.15 349.151 1207.61 351.366C1208.07 353.58 1207.86 355.88 1207.01 357.976C1206.17 360.073 1204.72 361.872 1202.85 363.148C1200.98 364.423 1198.78 365.117 1196.52 365.144C1194.26 365.17 1192.04 364.526 1190.15 363.294C1187.6 361.611 1185.82 358.989 1185.21 356.001C1184.59 353.012 1185.18 349.901 1186.85 347.346Z" fill="white"/>
</g>
<defs>
<clipPath id="clip0_576_897">
<rect width="1280" height="694" fill="white"/>
</clipPath>
</defs>
</svg>
