<svg width="54" height="43" viewBox="0 0 54 43" fill="none" xmlns="http://www.w3.org/2000/svg">
<path d="M9.41571 3.54729C11.0906 1.35181 12.8351 0.381528 14.6491 0.636464C15.4768 0.718594 16.2636 1.03653 16.9161 1.55248C17.5685 2.06844 18.0593 2.76076 18.33 3.54729C18.9745 5.22666 18.4575 7.16366 16.779 9.35825C15.308 11.1656 14.1307 13.1934 13.2905 15.3671C12.5477 17.3202 11.9637 19.3301 11.5443 21.3772C14.3444 21.3815 17.0285 22.4961 19.0079 24.4766C19.9426 25.4563 20.6723 26.6127 21.1545 27.878C21.6366 29.1432 21.8615 30.492 21.8158 31.8453C21.865 33.2505 21.6334 34.6515 21.1345 35.9661C20.6356 37.2807 19.8795 38.4826 18.9103 39.5014C17.9286 40.5015 16.7488 41.2855 15.4465 41.8031C14.1442 42.3207 12.7482 42.5605 11.3478 42.5071C9.86776 42.584 8.38994 42.3178 7.02983 41.7291C5.66971 41.1404 4.4641 40.2453 3.50713 39.1136C1.62898 36.8513 0.69301 33.5879 0.69925 29.3235C0.742778 24.9968 1.36195 20.6951 2.54043 16.5317C3.8897 11.7667 6.23287 7.34144 9.41571 3.54729ZM41.5886 3.54729C43.2697 1.35181 45.0146 0.381528 46.8233 0.636464C47.651 0.718754 48.4377 1.03675 49.0902 1.55269C49.7426 2.06862 50.2334 2.76085 50.5042 3.54729C51.1532 5.22666 50.6375 7.16366 48.9573 9.35825C47.4831 11.1642 46.3043 13.1922 45.4648 15.3671C44.7264 17.321 44.1451 19.3308 43.7266 21.3772C46.526 21.3826 49.2094 22.4971 51.1889 24.4766C52.1228 25.4569 52.852 26.6133 53.3341 27.8785C53.8162 29.1436 54.0415 30.4921 53.9967 31.8453C54.0465 33.2509 53.8147 34.6523 53.3151 35.9671C52.8154 37.2819 52.058 38.4836 51.0872 39.5014C50.1064 40.5015 48.9273 41.2854 47.6256 41.8031C46.324 42.3207 44.9285 42.5605 43.5287 42.5071C42.0471 42.5853 40.5676 42.3196 39.2058 41.7309C37.8439 41.1422 36.6368 40.2464 35.6787 39.1136C33.8068 36.8513 32.8708 33.5879 32.8708 29.3235C32.9144 24.9968 33.5335 20.6951 34.712 16.5317C36.0643 11.7676 38.4077 7.34292 41.5886 3.54729Z" fill="#2BA9E0"/>
</svg>
