<svg width="28" height="32" viewBox="0 0 28 32" fill="none" xmlns="http://www.w3.org/2000/svg">
<path d="M3.63299 31.0616H12.5891V18.4429H3.63299V18.9776C3.63299 20.6111 3.63299 22.2441 3.63299 23.8767C3.63299 24.0264 3.67711 24.2162 3.60225 24.3151C3.48061 24.4796 3.28544 24.6747 3.10899 24.6867C2.97532 24.6961 2.79754 24.4528 2.70798 24.2857C2.64248 24.1694 2.68392 23.993 2.68392 23.8433C2.68392 22.0761 2.6946 20.3103 2.67054 18.5445C2.65605 18.2892 2.55518 18.0464 2.38449 17.8561C1.71612 17.1396 1.01166 16.4498 0.307205 15.7627C0.0532258 15.5154 -0.109857 15.2107 0.0879788 14.9273C0.221652 14.7415 0.543805 14.6172 0.7911 14.6025C1.46882 14.5583 2.15056 14.5864 2.88576 14.5864C2.89646 14.3525 2.91383 14.16 2.91383 13.9662C2.91383 12.1669 2.91383 10.3672 2.91383 8.56712C2.91383 8.4174 2.87105 8.23828 2.93789 8.12599C3.03413 7.96291 3.23064 7.72498 3.35362 7.74503C3.52873 7.76909 3.70384 7.97494 3.82548 8.14604C3.88964 8.23293 3.84152 8.40403 3.84152 8.53771V14.553H4.84407V13.9729C4.84407 11.2896 4.84407 8.60722 4.84407 5.92574C4.84407 5.11701 5.07399 4.88442 5.87603 4.87774C6.4428 4.87774 7.00957 4.87774 7.57501 4.86571C7.6212 4.8572 7.66612 4.84282 7.70868 4.82293V3.89658C6.70212 3.89658 5.70358 3.86851 4.71574 3.90727C4.22382 3.92732 3.8736 4.38449 3.84954 4.90848C3.8335 5.24133 3.84954 5.57685 3.84954 5.90836C3.84954 6.23987 3.71586 6.42033 3.37901 6.42567C3.04215 6.43102 2.91517 6.23719 2.91517 5.94712C2.89993 5.51386 2.90886 5.08009 2.9419 4.64782C3.04216 3.67067 3.90569 2.92879 4.947 2.91007C5.86132 2.89804 6.77565 2.91007 7.67928 2.91007C7.92523 2.05724 8.09233 1.93025 8.95051 1.93025C9.73383 1.93025 10.5171 1.91688 11.3005 1.93025C11.5772 1.93693 11.7015 1.84336 11.8031 1.58403C12.2041 0.57614 13.0489 -0.00266424 14.0608 9.22068e-06C14.5564 -0.000309574 15.0396 0.154088 15.4432 0.441654C15.8467 0.729219 16.1504 1.1356 16.3119 1.60409C16.4188 1.90351 16.5699 1.93292 16.8212 1.93025C17.6366 1.92356 18.4533 1.93025 19.2701 1.93025C20.0133 1.93025 20.2499 2.1361 20.3862 2.91007C21.2057 2.91007 22.0358 2.91007 22.8645 2.91007C24.3991 2.91007 25.1971 3.71211 25.1985 5.25202C25.1985 8.15184 25.1985 11.0512 25.1985 13.9501V14.5851C25.9002 14.5851 26.5352 14.5543 27.1568 14.5998C27.3853 14.6172 27.7276 14.7682 27.7877 14.938C27.8171 15.0677 27.8168 15.2023 27.787 15.3319C27.7571 15.4615 27.6984 15.5827 27.6153 15.6865C26.9777 16.3883 26.2999 17.0554 25.6102 17.709C25.4689 17.833 25.3576 17.9873 25.2847 18.1605C25.2117 18.3337 25.1791 18.5212 25.1891 18.7089C25.2051 22.7418 25.1985 26.7734 25.1985 30.8063C25.1985 31.8008 24.9953 32 23.9954 32H3.80008C2.91249 32 2.68124 31.7687 2.6799 30.8731C2.6799 29.523 2.6799 28.1743 2.6799 26.8242C2.6799 26.7413 2.6799 26.6571 2.6799 26.5742C2.68926 26.2587 2.7855 25.9981 3.15578 26.0021C3.52605 26.0061 3.62898 26.2694 3.62898 26.5809C3.62898 27.8802 3.62898 29.1795 3.62898 30.4801L3.63299 31.0616ZM24.2186 18.4509H13.5823V31.0523H24.22L24.2186 18.4509ZM5.8132 5.82147V14.5864C7.07908 14.5864 8.30754 14.6091 9.536 14.5771C9.80915 14.5617 10.0822 14.6089 10.3343 14.7153C10.5864 14.8216 10.8108 14.9842 10.9904 15.1906C11.6587 15.9058 12.3552 16.5902 13.0636 17.312C13.7093 16.6624 14.3643 16.1263 14.8655 15.4713C15.562 14.561 16.4763 14.5035 17.4601 14.6078C17.6245 14.6252 17.8879 14.8751 17.8852 15.0222C17.8852 15.1839 17.6526 15.3724 17.4842 15.4847C17.3773 15.5542 17.1888 15.5235 17.0431 15.4994C16.4215 15.3991 15.9617 15.6331 15.5727 16.1116C15.2666 16.4832 14.8936 16.7987 14.5554 17.1436C14.4599 17.253 14.3707 17.3677 14.2881 17.4871C17.6887 17.4871 21.0011 17.4871 24.3135 17.4871C24.4122 17.4923 24.5095 17.463 24.5889 17.4042C25.2011 16.8067 25.8027 16.2012 26.4951 15.5074H25.8842C23.9183 15.5074 21.9524 15.5074 19.9866 15.5074C19.6283 15.5074 19.2139 15.5382 19.1939 15.0529C19.1725 14.5356 19.5949 14.5891 19.9518 14.5891C20.7298 14.5891 21.5078 14.5891 22.3098 14.5891V5.83484H20.3595C20.3515 5.95247 20.3421 6.03401 20.3394 6.11555C20.3127 7.17291 19.7754 7.7076 18.726 7.7076C15.5785 7.7076 12.43 7.7076 9.28068 7.7076C8.36101 7.7076 7.79022 7.14751 7.74344 6.23719C7.74344 6.10352 7.72873 5.98054 7.72071 5.83617L5.8132 5.82147ZM19.4037 2.90071H16.6835C15.8454 2.90071 15.713 2.80447 15.4697 2.03318C15.2585 1.36481 14.6771 0.917007 14.0328 0.930374C13.7148 0.942311 13.4088 1.05507 13.1592 1.25236C12.9095 1.44964 12.729 1.72122 12.6439 2.02783C12.406 2.7764 12.2442 2.89938 11.4702 2.90071H8.75C8.72907 2.96583 8.71298 3.0324 8.70187 3.09989C8.70187 4.04897 8.69385 4.99671 8.70187 5.94579C8.70187 6.68634 8.79277 6.77456 9.53866 6.7759C12.5517 6.7759 15.5642 6.7759 18.5763 6.7759C18.6926 6.7759 18.8436 6.816 18.9185 6.75986C19.1003 6.62618 19.3823 6.45374 19.389 6.28799C19.4238 5.18251 19.4037 4.06634 19.4037 2.90071ZM11.7951 17.4871L11.8566 17.3361C11.3326 16.8281 10.8246 16.3001 10.2752 15.8202C10.0689 15.6413 9.80978 15.5348 9.53733 15.5168C6.97214 15.4954 4.40562 15.5034 1.8391 15.5047C1.72281 15.5047 1.60651 15.5301 1.38862 15.5555C1.98881 16.1424 2.49409 16.6744 3.04616 17.1596C3.26179 17.3478 3.53323 17.4601 3.8188 17.4791C6.31848 17.5018 8.81817 17.4925 11.3179 17.4925L11.7951 17.4871ZM20.3501 4.80556C20.3957 4.83022 20.4442 4.84908 20.4945 4.8617C21.0599 4.8617 21.6267 4.87239 22.1922 4.87774C23.0183 4.88442 23.2321 5.09295 23.2321 5.90702C23.2321 8.60543 23.2321 11.3038 23.2321 14.0023V14.5463H24.236V11.6055C24.236 9.42218 24.236 7.23885 24.236 5.05552C24.236 4.27888 23.855 3.88722 23.0851 3.85915C22.7028 3.84578 22.3191 3.85915 21.9368 3.85915H20.3555L20.3501 4.80556Z" fill="#8D8F95"/>
<path d="M21.3043 30.0762C20.922 30.0762 20.5397 30.0896 20.1574 30.0762C19.6361 30.0549 19.4302 29.8503 19.4182 29.341C19.4062 28.8317 19.4089 28.3438 19.4182 27.8452C19.4276 27.4242 19.6548 27.205 20.0786 27.2036C20.91 27.2036 21.741 27.2036 22.5716 27.2036C23.0234 27.2036 23.2399 27.4442 23.2399 27.8907C23.2399 28.3733 23.2466 28.8545 23.2399 29.337C23.2332 29.8196 23.0207 30.0549 22.5061 30.0762C22.1037 30.0896 21.704 30.0762 21.3043 30.0762ZM22.3055 29.0857V28.15H20.37V29.0857H22.3055Z" fill="#8D8F95"/>
<path d="M13.2078 11.4409C14.0018 10.6389 14.7116 9.91838 15.4268 9.20189C16.043 8.58432 16.3946 8.58833 17.0202 9.20991C17.2675 9.45721 17.5228 9.69782 17.7581 9.95581C18.135 10.3662 18.1591 10.7578 17.7674 11.1482C16.4735 12.4653 15.1684 13.774 13.8521 15.0742C13.4511 15.4658 13.0234 15.4565 12.6197 15.0594C11.7401 14.1959 10.8685 13.3244 10.005 12.4448C9.59063 12.0224 9.604 11.6053 10.005 11.1762C10.2924 10.8755 10.5852 10.5787 10.8873 10.2927C11.3164 9.89165 11.7254 9.89165 12.1572 10.3087C12.5127 10.6549 12.8362 11.0319 13.2078 11.4409ZM16.1954 9.7152C15.4108 10.5172 14.6702 11.2778 13.923 12.0331C13.3709 12.5892 13.1089 12.5905 12.5528 12.0197C12.2173 11.6762 11.9112 11.3046 11.6011 10.9503L10.8017 11.7845L13.2439 14.2494C14.4782 13.0187 15.7258 11.7711 16.9868 10.5065L16.1954 9.7152Z" fill="#8D8F95"/>
<path d="M14.0885 4.8778H17.7378C18.0559 4.8778 18.3781 4.90186 18.3754 5.32026C18.3728 5.73866 18.0559 5.80148 17.7071 5.80015C15.2582 5.80015 12.8093 5.80015 10.355 5.78678C10.2446 5.78551 10.1355 5.76187 10.0344 5.7173C9.93334 5.67273 9.84233 5.60815 9.76688 5.52745C9.54365 5.21867 9.815 4.88582 10.2842 4.88315C11.5568 4.87245 12.8226 4.8778 14.0885 4.8778Z" fill="#8D8F95"/>
<path d="M14.1701 1.88595C14.2864 2.07309 14.519 2.28697 14.4882 2.44069C14.4476 2.54486 14.3822 2.63753 14.2976 2.71067C14.213 2.78382 14.1119 2.83522 14.003 2.86043C13.8854 2.87647 13.6127 2.57303 13.6113 2.41262C13.61 2.25221 13.8386 2.05571 13.9682 1.87793L14.1701 1.88595Z" fill="#8D8F95"/>
</svg>
