<svg width="242" height="179" viewBox="0 0 242 179" fill="none" xmlns="http://www.w3.org/2000/svg">
<path d="M0.146484 170.459C0.146484 170.459 44.4165 188.479 74.1755 167.859C115.763 139.045 107.665 88.4189 95.6935 79.5509C83.7215 70.6829 69.2345 85.872 84.7595 100.351C99.9055 114.479 127.076 114.133 140.316 91.964C153.556 69.795 142.688 42.704 173.838 32.085" stroke="#2BA9E0" stroke-width="0.75" stroke-miterlimit="10" stroke-dasharray="4 5"/>
<path d="M171.66 16.481L164.007 37.499L180.072 24.952L241.494 2.67603L171.66 16.481Z" fill="#2BA9E0"/>
<path opacity="0.1" d="M171.66 16.481L164.007 37.499L180.072 24.952L241.494 2.67603L171.66 16.481Z" fill="#2BA9E0"/>
<path d="M182.134 29.8489L164.007 37.4989L180.072 24.9519L182.134 29.8489Z" fill="#263238"/>
<path d="M180.072 24.9518L241.494 2.67578L191.114 51.8388L180.072 24.9518Z" fill="#2BA9E0"/>
<path d="M171.66 16.481L146.134 0.000976562L241.494 2.67598L171.66 16.481Z" fill="#2BA9E0"/>
</svg>
