<svg width="34" height="107" viewBox="0 0 34 107" fill="none" xmlns="http://www.w3.org/2000/svg">
<path d="M1.57306 32.2569C10.4231 20.3579 13.3341 19.0329 14.9976 18.6289L12.0801 26.6094L6.03206 34.4149" fill="#FFA8A7"/>
<path d="M15.8635 18.5005C15.8635 18.5005 13.982 17.9275 11.266 20.5925C8.55004 23.2575 5.24153 27.1445 5.24153 27.1445C5.24153 27.1445 6.13053 30.319 8.89603 31.307L12.9095 27.1445L15.8635 18.5005Z" fill="#4998D0"/>
<path opacity="0.1" d="M15.8635 18.5005C15.8635 18.5005 13.982 17.9275 11.266 20.5925C8.55004 23.2575 5.24153 27.1445 5.24153 27.1445C5.24153 27.1445 6.13053 30.319 8.89603 31.307L12.9095 27.1445L15.8635 18.5005Z" fill="black"/>
<path d="M14.1381 11.8975C11.4074 11.2527 9.71649 8.51629 10.3613 5.78561C11.0061 3.05492 13.7424 1.36398 16.4731 2.00877C19.2038 2.65356 20.8948 5.38992 20.25 8.12061C19.6052 10.8513 16.8688 12.5422 14.1381 11.8975Z" fill="#263238"/>
<path d="M27.4721 99.062H23.8931V92.9355H27.4721V99.062Z" fill="#FFA8A7"/>
<path d="M15.8015 94.6109L12.2245 94.7339L12.0455 88.2499L15.622 88.1274L15.8015 94.6109Z" fill="#FFA8A7"/>
<path d="M27.2364 44.3701C27.2364 47.7876 27.2399 69.1241 27.2399 69.1241C27.3234 70.1076 28.0494 71.8111 28.2469 75.9971C28.4894 81.1291 27.7054 95.2591 27.7054 95.2591C27.7054 95.2591 26.0269 96.9226 23.6579 95.2591C23.6579 95.2591 20.4814 75.0886 19.8399 70.0041C19.2804 65.5666 18.3309 53.5116 18.3309 53.5116L16.1889 71.6726C16.1889 71.6726 16.7724 75.0081 16.9009 77.3626C17.0289 79.7171 15.8704 92.2736 15.8704 92.2736C15.8704 92.2736 14.0509 93.5311 11.9759 92.4221C11.9759 92.4221 9.52391 73.5956 9.15491 71.4696C8.78591 69.3431 10.4974 44.3706 10.4974 44.3706H27.2364V44.3701Z" fill="#37474F"/>
<path d="M23.7983 19.6471C24.2798 19.7326 24.8378 19.8156 25.2758 19.9876C26.2573 20.3731 26.7068 21.5831 26.9428 22.6521C27.1123 23.4201 27.2368 24.3356 27.2368 25.3696V32.3816V44.3696C24.7273 47.0996 15.9783 48.3716 10.4978 44.3696C10.4978 44.3696 10.6053 27.5871 11.0158 24.8301C11.7288 20.0401 14.0223 18.3316 16.3248 18.5101L21.8488 19.3006L23.7983 19.6471Z" fill="#4998D0"/>
<path d="M24.0874 10.5776C24.0874 10.5776 23.2644 14.4456 22.9339 15.0811C22.6039 15.7166 21.9214 15.8971 21.9214 15.8971L21.9789 13.1761L24.0874 10.5776Z" fill="#263238"/>
<path d="M23.0542 5.03645C23.0542 5.03645 23.9407 4.88445 24.6322 5.59145C25.3097 6.28445 24.9312 8.45345 24.0877 10.578L22.5367 10.7559L23.0542 5.03645Z" fill="#263238"/>
<path d="M22.0717 10.7571C22.3827 10.9426 22.8262 10.3456 23.2097 9.94406C23.5932 9.54306 24.8452 8.99456 25.4697 10.3106C26.1062 11.6516 24.9182 13.4236 23.9327 13.7331C22.2342 14.2661 21.9792 13.1766 21.9792 13.1766L21.8497 19.3036C21.8497 19.3036 20.7377 22.0251 17.7257 22.4331C14.7142 22.8411 15.3342 20.3586 16.3232 19.1416L16.3282 17.2771C16.3282 17.2771 14.7892 17.5106 14.0382 17.3946C12.7892 17.2016 12.0032 16.2161 11.6242 14.8641C11.0157 12.6921 10.7847 10.9386 11.3007 6.66757C11.8667 1.98607 17.3117 1.93757 20.2522 3.78807C23.1927 5.63807 22.0717 10.7571 22.0717 10.7571Z" fill="#FFA8A7"/>
<path d="M22.0717 11.2801C22.2282 11.2831 22.8227 10.2961 23.2097 9.94405C23.7462 9.45605 23.0542 5.03655 23.0542 5.03655C23.0542 5.03655 23.5697 3.93805 22.5367 2.80105C21.8017 1.99255 20.5737 1.90255 18.4772 1.57305C17.3772 1.40005 15.7097 1.09205 14.6112 0.888053C13.2992 0.644053 12.2137 0.386054 11.2872 1.19105C10.5662 1.81755 10.2562 2.92455 10.6442 3.79705C10.7352 4.00155 10.8667 4.18655 11.0167 4.35305C11.2822 4.64805 11.3277 5.04855 11.7057 5.17105C11.7057 5.17105 12.4972 5.88805 14.4872 6.13055C16.4767 6.37305 19.5762 6.08405 19.9997 6.02605C20.5767 5.94705 20.7352 6.12905 21.0462 7.65655C21.3192 8.99705 21.5457 11.2701 22.0717 11.2801Z" fill="#263238"/>
<path d="M23.0512 5.37997L24.9312 4.37047C24.6642 3.83197 24.0272 3.62097 23.5077 3.89947C22.9887 4.17847 22.7842 4.84147 23.0512 5.37997Z" fill="#263238"/>
<path d="M16.3282 17.2765C16.3282 17.2765 19.1167 16.7145 20.0917 16.1965C20.7442 15.8495 21.2817 15.2485 21.4392 14.863C21.4392 14.863 21.2567 15.6905 20.6737 16.4355C19.9607 17.347 16.3287 18.018 16.3287 18.018L16.3282 17.2765Z" fill="#F28F8F"/>
<path d="M16.8207 10.5725C16.8207 10.893 17.0712 11.1525 17.3797 11.1515C17.6882 11.1505 17.9387 10.89 17.9387 10.5695C17.9387 10.249 17.6887 9.98948 17.3797 9.99048C17.0712 9.99098 16.8207 10.252 16.8207 10.5725Z" fill="#263238"/>
<path d="M17.4141 8.46308L18.6096 9.12258C18.7861 8.77908 18.6611 8.35309 18.3311 8.17109C18.0006 7.98859 17.5901 8.11908 17.4141 8.46308Z" fill="#263238"/>
<path d="M16.5805 13.9202L15.3051 14.3987C15.4311 14.7642 15.8191 14.9537 16.1716 14.8212C16.5236 14.6892 16.7065 14.2857 16.5805 13.9202Z" fill="#F28F8F"/>
<path d="M11.839 8.92811L12.929 8.0886C12.7065 7.7766 12.2825 7.7116 11.9815 7.9431C11.68 8.1751 11.6165 8.61611 11.839 8.92811Z" fill="#263238"/>
<path d="M12.1738 10.4138C12.1738 10.7343 12.4238 10.9938 12.7328 10.9928C13.0413 10.9918 13.2913 10.7313 13.2913 10.4108C13.2913 10.0903 13.0413 9.83079 12.7328 9.83179C12.4238 9.83229 12.1738 10.0928 12.1738 10.4138Z" fill="#263238"/>
<path d="M15.1975 9.37109L15.014 12.7316L13.2595 12.1331L15.1975 9.37109Z" fill="#F28F8F"/>
<path d="M23.892 97.2948V96.7829C23.5495 96.9319 22.754 99.9673 21.334 101.263C20.205 102.292 18.665 103.482 18.2735 104.63C17.866 105.824 20.418 106.483 21.4725 106.296C22.698 106.079 24.822 105.216 25.355 104.416C25.888 103.616 26.138 102.436 26.571 101.85C27.0045 101.264 28.003 100.61 28.237 99.9313C28.3655 99.5588 28.213 98.7423 28.032 98.0528C27.866 97.4198 27.6865 96.7243 27.47 96.7838C27.4695 96.8608 27.47 97.1738 27.47 97.1738C27.21 97.4618 26.4915 97.7474 25.6805 97.7789C25.158 97.7984 23.888 97.6943 23.892 97.2948Z" fill="#263238"/>
<path d="M12.1868 93.6305C12.0008 93.637 11.8498 93.899 11.4398 94.343C10.9443 94.879 10.1343 95.4575 9.33428 95.8575C7.99428 96.5285 5.38878 97.5605 4.20978 98.0915C3.47328 98.4235 3.50777 99.313 4.26927 99.8195C5.03077 100.326 6.86928 100.691 9.07678 100.197C10.2793 99.928 11.8448 98.8175 12.8353 98.8775C13.8263 98.9375 15.6803 98.923 16.4113 98.419C17.1428 97.915 16.8498 96.838 16.6433 95.913C16.4178 94.9035 16.0948 93.3585 15.7608 93.4275L15.7718 93.745C15.3413 94.3965 13.1508 94.6625 12.2058 94.183L12.1868 93.6305Z" fill="#263238"/>
<path d="M18.3315 53.5118C18.3315 53.5118 15.4711 52.7063 13.3481 50.6543C13.3481 50.6543 14.3096 52.4548 17.1696 54.1303L17.1086 63.8828L18.3315 53.5118Z" fill="#263238"/>
<path d="M25.1116 53.3485C25.7046 52.8385 26.0726 52.203 26.9651 51.551C27.7511 50.977 28.0651 50.7265 28.5366 49.9525C29.0481 49.1135 29.5181 46.313 29.6881 43.6565C29.8891 40.522 29.0496 36.545 28.4516 34.8915C27.2376 31.535 24.7711 27.034 23.9526 25.1345C23.1336 23.235 23.5736 22.2805 24.3081 21.3165C25.1711 20.1835 26.7616 20.1815 28.2671 22.7555C29.7721 25.3295 31.9521 30.144 33.0406 34.0615C33.5681 35.96 34.1491 39.065 33.9066 43.094C33.7371 45.9085 33.1266 48.058 32.3321 50.7635C32.1156 51.5005 32.1371 52.1015 31.8901 53.556C31.7901 54.1425 31.6991 54.789 31.4286 55.318C31.0851 55.99 30.6646 56.6265 30.1431 57.1745C29.4866 57.8645 28.6651 58.412 27.7481 58.6675C27.2436 58.808 26.7071 58.859 26.1936 58.756C25.6801 58.653 25.1906 58.387 24.8681 57.974C24.8026 57.89 24.7431 57.797 24.7276 57.692C24.7001 57.502 24.8206 57.326 24.9361 57.1725C25.5791 56.3145 26.4006 55.4855 26.9471 54.5685C27.4091 53.7935 27.6281 53.1825 27.4506 53.215C27.2731 53.248 27.0331 53.722 26.3646 54.137C25.7261 54.5335 24.8636 54.5425 24.6691 54.167C24.4746 53.791 24.5186 53.8585 25.1116 53.3485Z" fill="#FFA8A7"/>
<path d="M24.8707 19.874C26.2997 19.962 27.6002 20.2785 29.0297 23.117C30.4592 25.9555 32.7017 31.259 32.7017 31.259C32.7017 31.259 31.1667 34.408 27.2362 34.4145C27.2362 34.4145 23.9492 27.5455 23.4127 25.7365C22.8767 23.9285 22.4907 21.015 24.8707 19.874Z" fill="#4998D0"/>
<path opacity="0.1" d="M24.8707 19.874C26.2997 19.962 27.6002 20.2785 29.0297 23.117C30.4592 25.9555 32.7017 31.259 32.7017 31.259C32.7017 31.259 31.1667 34.408 27.2362 34.4145C27.2362 34.4145 23.9492 27.5455 23.4127 25.7365C22.8767 23.9285 22.4907 21.015 24.8707 19.874Z" fill="black"/>
<path d="M6.03151 34.4151C6.36051 35.3666 9.47701 38.2581 11.7755 39.1786C12.1825 39.3416 13.0495 39.4301 13.462 39.2811C13.9695 39.0981 14.6165 38.8966 15.1655 38.9486C15.832 39.0121 16.515 39.1421 17.187 39.2181C17.3275 39.2341 17.4715 39.2511 17.595 39.3196C18.001 39.5456 17.77 39.8926 17.442 40.0126C16.92 40.2041 16.3835 40.3576 15.839 40.4711C15.8415 40.5196 15.8435 40.5681 15.846 40.6166C17.218 41.1656 18.7085 41.3286 20.178 41.4871C20.4375 41.5151 20.719 41.5531 20.904 41.7371C21.083 41.9156 21.1265 42.1976 21.0695 42.4441C21.0125 42.6906 20.8695 42.9076 20.7165 43.1086C20.07 43.9576 19.197 44.7406 18.109 44.8856C17.0415 45.0281 15.9325 44.7721 14.9105 44.4846C14.417 44.3461 13.929 44.1876 13.445 44.0186C12.3245 43.6271 10.645 42.8851 9.31901 42.1741C5.86601 40.3236 3.00952 38.1611 1.44902 36.6396C0.00651848 35.2336 0.362016 33.8836 1.57152 32.2571" fill="#FFA8A7"/>
<path d="M12.0825 39.2675C12.0825 39.2675 11.5685 39.0835 11.015 39.9975C10.4615 40.9115 10.0815 42.586 10.801 42.9145C10.801 42.9145 10.0965 43.0185 9.53651 42.2885C9.53651 42.2885 8.96951 40.1665 10.801 38.73C10.801 38.73 11.7235 38.766 12.0825 39.2675Z" fill="#37474F"/>
<path d="M9.441 39.6058C9.156 40.1063 9.337 40.7473 9.8455 41.0368C10.354 41.3263 10.9975 41.1553 11.2825 40.6543C11.5675 40.1533 11.3865 39.5128 10.878 39.2233C10.3695 38.9338 9.7265 39.1053 9.441 39.6058Z" fill="#4998D0"/>
<path d="M9.68237 39.7435C9.47187 40.113 9.60538 40.5855 9.98038 40.799C10.3554 41.0125 10.8299 40.8865 11.0404 40.517C11.2509 40.1475 11.1174 39.675 10.7424 39.4615C10.3669 39.2475 9.89237 39.374 9.68237 39.7435Z" fill="#FAFAFA"/>
</svg>
