<svg width="290" height="201" viewBox="0 0 290 201" fill="none" xmlns="http://www.w3.org/2000/svg">
<mask id="mask0_197_655" style="mask-type:alpha" maskUnits="userSpaceOnUse" x="0" y="0" width="290" height="201">
<rect width="290" height="201" fill="#D9D9D9"/>
</mask>
<g mask="url(#mask0_197_655)">
<mask id="mask1_197_655" style="mask-type:alpha" maskUnits="userSpaceOnUse" x="0" y="-77" width="290" height="278">
<rect y="-77" width="290" height="278" rx="20" fill="#D9D9D9"/>
</mask>
<g mask="url(#mask1_197_655)">
<path d="M344.896 50.7753C337.171 50.7753 329.67 49.8238 322.502 48.0316C309.391 44.7536 293.804 51.4682 284.505 61.2746C274.956 71.3447 261.452 77.6253 246.479 77.6253C228.483 77.6253 222.113 57.4049 203.17 54.7318C187.105 52.465 176.415 61.0067 162.103 61.0067C135.749 61.0067 119.385 39.1777 90.2582 40.6326C44.5782 42.9144 35.8781 104.475 -7.92764 104.475C-10.8126 104.475 -13.671 104.361 -16.4985 104.137C-32.0846 102.903 -47.8384 115.401 -42.9753 130.261C-16.677 210.615 58.8989 268.662 148.039 268.662C259.029 268.662 349 178.691 349 67.7015C349 63.1237 348.837 58.5876 348.533 54.09C348.406 52.1981 346.792 50.7753 344.896 50.7753Z" fill="white"/>
<path d="M329.469 101.687C326.464 101.687 323.95 103.96 323.541 106.937C311.15 197.152 235.124 267.071 142.199 269.937C144.163 269.996 146.132 270.038 148.107 270.038C243.276 270.038 322.009 199.721 335.209 108.207C335.709 104.738 332.974 101.687 329.469 101.687Z" fill="white"/>
<path d="M-4.66016 65.7192C3.90142 65.7192 10.8396 72.8815 10.8398 81.7192C10.8398 90.5536 3.90158 97.7192 -4.66016 97.7192C-13.2219 97.7192 -20.1602 90.5572 -20.1602 81.7192C-20.1599 72.8815 -13.2217 65.7192 -4.66016 65.7192ZM-5.13965 67.7202C-5.23148 67.7204 -5.23456 67.8593 -5.14355 67.8726C1.61132 68.8597 6.79883 74.6804 6.79883 81.7202C6.79859 88.7598 1.61116 94.5797 -5.14355 95.5669C-5.23501 95.5803 -5.23194 95.72 -5.13965 95.7202C2.58093 95.7202 8.83958 89.4522 8.83984 81.7202C8.83984 73.988 2.58109 67.7202 -5.13965 67.7202Z" fill="white"/>
<path d="M24.8848 40.8081C30.9594 40.8081 35.8826 45.7309 35.8828 51.8101C35.8828 57.8848 30.9595 62.8081 24.8848 62.8081C18.8102 62.8079 13.8828 57.8847 13.8828 51.8101C13.883 45.7356 18.8057 40.8083 24.8848 40.8081ZM24.6318 42.8081C24.3789 42.8081 24.1308 42.8171 23.8828 42.8354C29.1943 43.1893 33.3848 47.2938 33.3848 52.3081C33.3848 57.3224 29.1943 61.4269 23.8828 61.7808C24.1308 61.7991 24.3789 61.8081 24.6318 61.8081C30.2954 61.808 34.8828 57.5567 34.8828 52.3081C34.8878 47.0595 30.2954 42.8082 24.6318 42.8081Z" fill="white"/>
<path d="M10.3828 8.70361C17.2864 8.70361 22.8828 14.3001 22.8828 21.2036C22.8828 28.1072 17.2864 33.7036 10.3828 33.7036C3.47924 33.7036 -2.11719 28.1072 -2.11719 21.2036C-2.11718 14.3001 3.47925 8.70361 10.3828 8.70361ZM10.6309 9.70361C10.5574 9.70365 10.5545 9.81121 10.627 9.82275C15.5818 10.5967 19.3867 15.1744 19.3867 20.7036C19.3867 26.2328 15.5818 30.8105 10.627 31.5845C10.5545 31.596 10.5574 31.7036 10.6309 31.7036C16.2912 31.7036 20.8828 26.781 20.8828 20.7036C20.8828 14.6262 16.2912 9.70361 10.6309 9.70361Z" fill="white"/>
<path d="M247.199 37.5103C254.103 37.5103 259.699 43.1067 259.699 50.0103C259.699 56.9138 254.103 62.5103 247.199 62.5103C240.296 62.5102 234.699 56.9138 234.699 50.0103C234.699 43.1067 240.296 37.5103 247.199 37.5103ZM246.516 39.5103C246.241 39.5103 245.97 39.522 245.699 39.5415C251.495 39.9324 256.067 44.471 256.067 50.0103C256.067 55.5495 251.495 60.0881 245.699 60.479C245.97 60.4986 246.241 60.5103 246.516 60.5103C252.695 60.5101 257.699 55.8074 257.699 50.0103C257.699 44.2131 252.695 39.5104 246.516 39.5103Z" fill="white"/>
</g>
</g>
</svg>
