<svg width="162" height="102" viewBox="0 0 162 102" fill="none" xmlns="http://www.w3.org/2000/svg">
<path d="M133.372 89.24C121.595 84.5259 107.767 84.157 95.146 85.5625C82.5255 86.968 70.5611 89.994 58.0313 91.6497C45.5015 93.3054 31.8488 93.4901 19.6594 89.4466L28.8369 20.7014C41.0264 24.745 54.679 24.5603 67.2088 22.9046C79.7386 21.2488 91.7031 18.2229 104.324 16.8174C116.944 15.4119 130.773 15.7802 142.55 20.4949L133.372 89.24Z" fill="#2BAAE0"/>
<path d="M137.575 87.1292L133.255 86.5526C132.866 86.5006 132.594 86.144 132.646 85.7561C132.697 85.3682 133.054 85.0956 133.442 85.1471L137.762 85.7236C138.151 85.7757 138.423 86.1323 138.371 86.5202C138.32 86.9086 137.963 87.1812 137.575 87.1292Z" fill="#0C4F89"/>
<path d="M138.23 82.2102L133.91 81.6337C133.521 81.5816 133.249 81.2251 133.301 80.8372C133.352 80.4493 133.709 80.1767 134.097 80.2282L138.417 80.8047C138.806 80.8568 139.078 81.2133 139.026 81.6012C138.975 81.9897 138.618 82.2623 138.23 82.2102Z" fill="#0C4F89"/>
<path d="M138.891 77.2925L134.571 76.716C134.183 76.6639 133.911 76.3073 133.962 75.9194C134.014 75.5315 134.37 75.2589 134.759 75.3104L139.079 75.887C139.467 75.939 139.739 76.2956 139.688 76.6835C139.636 77.0719 139.28 77.3445 138.891 77.2925Z" fill="#0C4F89"/>
<path d="M139.547 72.374L135.227 71.7975C134.838 71.7454 134.566 71.3889 134.618 71.001C134.669 70.6131 135.026 70.3405 135.414 70.392L139.734 70.9685C140.123 71.0206 140.395 71.3771 140.343 71.765C140.291 72.1529 139.935 72.4261 139.547 72.374Z" fill="#0C4F89"/>
<path d="M140.202 67.4556L135.882 66.879C135.494 66.827 135.222 66.4704 135.273 66.0825C135.325 65.6946 135.681 65.422 136.07 65.4735L140.39 66.0501C140.778 66.1021 141.05 66.4587 140.999 66.8466C140.947 67.2345 140.591 67.5071 140.202 67.4556Z" fill="#0C4F89"/>
<path d="M140.856 62.5364L136.536 61.9598C136.148 61.9078 135.876 61.5512 135.927 61.1633C135.979 60.7754 136.335 60.5028 136.724 60.5543L141.044 61.1309C141.432 61.1829 141.704 61.5395 141.653 61.9274C141.601 62.3158 141.245 62.5884 140.856 62.5364Z" fill="#0C4F89"/>
<path d="M141.512 57.6174L137.191 57.0409C136.803 56.9889 136.531 56.6323 136.582 56.2444C136.634 55.8565 136.991 55.5839 137.379 55.6354L141.699 56.2119C142.088 56.264 142.36 56.6205 142.308 57.0084C142.256 57.3969 141.9 57.6695 141.512 57.6174Z" fill="#0C4F89"/>
<path d="M142.167 52.7L137.847 52.1234C137.458 52.0714 137.186 51.7148 137.238 51.3269C137.29 50.939 137.646 50.6664 138.034 50.7179L142.354 51.2944C142.743 51.3465 143.015 51.7031 142.963 52.091C142.911 52.4794 142.555 52.752 142.167 52.7Z" fill="#0C4F89"/>
<path d="M142.829 47.7811L138.509 47.2046C138.12 47.1525 137.848 46.796 137.9 46.4081C137.952 46.0202 138.308 45.7476 138.696 45.7991L143.016 46.3756C143.405 46.4277 143.677 46.7842 143.625 47.1721C143.573 47.56 143.217 47.8326 142.829 47.7811Z" fill="#0C4F89"/>
<path d="M143.484 42.8627L139.164 42.2861C138.776 42.2341 138.504 41.8775 138.555 41.4896C138.607 41.1017 138.963 40.8291 139.352 40.8806L143.672 41.4572C144.06 41.5092 144.332 41.8658 144.281 42.2537C144.229 42.6416 143.873 42.9142 143.484 42.8627Z" fill="#0C4F89"/>
<path d="M144.139 37.9439L139.819 37.3673C139.431 37.3153 139.159 36.9587 139.21 36.5708C139.262 36.1829 139.618 35.9103 140.007 35.9618L144.327 36.5383C144.715 36.5904 144.988 36.947 144.936 37.3349C144.885 37.7228 144.528 37.9954 144.139 37.9439Z" fill="#0C4F89"/>
<path d="M144.801 33.0256L140.481 32.4491C140.093 32.3971 139.821 32.0405 139.872 31.6526C139.924 31.2647 140.28 30.9921 140.669 31.0436L144.989 31.6201C145.377 31.6722 145.649 32.0287 145.598 32.4166C145.546 32.8051 145.189 33.0777 144.801 33.0256Z" fill="#0C4F89"/>
<path d="M145.457 28.1068L141.137 27.5303C140.748 27.4782 140.476 27.1217 140.528 26.7338C140.58 26.3459 140.936 26.0733 141.324 26.1248L145.644 26.7013C146.033 26.7534 146.305 27.1099 146.253 27.4978C146.202 27.8863 145.845 28.1589 145.457 28.1068Z" fill="#0C4F89"/>
<path d="M146.112 23.1884L141.792 22.6118C141.404 22.5598 141.132 22.2032 141.183 21.8153C141.235 21.4274 141.591 21.1548 141.98 21.2063L146.3 21.7829C146.688 21.8349 146.96 22.1915 146.909 22.5794C146.857 22.9673 146.5 23.2404 146.112 23.1884Z" fill="#0C4F89"/>
<path d="M20.4662 87.9448L16.1461 87.3683C15.7577 87.3163 15.4856 86.9597 15.5371 86.5718C15.5886 86.1839 15.9452 85.9113 16.3337 85.9628L20.6537 86.5393C21.0422 86.5914 21.3142 86.9479 21.2627 87.3358C21.2112 87.7237 20.8547 87.9969 20.4662 87.9448Z" fill="#0C4F89"/>
<path d="M21.1281 83.0264L16.8081 82.4498C16.4196 82.3978 16.1476 82.0412 16.1991 81.6533C16.2511 81.2654 16.6071 80.9928 16.9956 81.0443L21.3157 81.6209C21.7041 81.6729 21.9762 82.0295 21.9247 82.4174C21.8726 82.8053 21.516 83.0779 21.1281 83.0264Z" fill="#0C4F89"/>
<path d="M21.7835 78.1082L17.4634 77.5316C17.0749 77.4796 16.8029 77.123 16.8544 76.7351C16.9065 76.3472 17.2625 76.0746 17.6509 76.1261L21.971 76.7027C22.3595 76.7547 22.6315 77.1112 22.58 77.4991C22.5279 77.8876 22.1714 78.1602 21.7835 78.1082Z" fill="#0C4F89"/>
<path d="M22.4388 73.189L18.1187 72.6124C17.7303 72.5604 17.4582 72.2038 17.5097 71.8159C17.5618 71.428 17.9178 71.1554 18.3062 71.2069L22.6263 71.7835C23.0148 71.8355 23.2868 72.1921 23.2353 72.58C23.1833 72.9684 22.8273 73.241 22.4388 73.189Z" fill="#0C4F89"/>
<path d="M23.0939 68.2705L18.7738 67.694C18.3854 67.6419 18.1133 67.2854 18.1648 66.8975C18.2169 66.5096 18.5729 66.237 18.9613 66.2885L23.2814 66.865C23.6699 66.9171 23.9419 67.2736 23.8904 67.6615C23.8384 68.05 23.4824 68.3226 23.0939 68.2705Z" fill="#0C4F89"/>
<path d="M23.7483 63.352L19.4282 62.7755C19.0397 62.7235 18.7677 62.3669 18.8192 61.979C18.8712 61.5911 19.2272 61.3185 19.6157 61.37L23.9358 61.9465C24.3242 61.9986 24.5963 62.3552 24.5448 62.7431C24.4927 63.131 24.1367 63.4041 23.7483 63.352Z" fill="#0C4F89"/>
<path d="M24.4114 58.4334L20.0913 57.8568C19.7029 57.8048 19.4308 57.4482 19.4823 57.0603C19.5344 56.6724 19.8904 56.3998 20.2788 56.4513L24.5989 57.0278C24.9874 57.0799 25.2594 57.4365 25.2079 57.8244C25.1559 58.2123 24.7999 58.4849 24.4114 58.4334Z" fill="#0C4F89"/>
<path d="M25.0667 53.5154L20.7467 52.9389C20.3582 52.8868 20.0862 52.5302 20.1377 52.1423C20.1892 51.7544 20.5457 51.4818 20.9342 51.5333L25.2543 52.1099C25.6427 52.1619 25.9147 52.5185 25.8632 52.9064C25.8112 53.2949 25.4552 53.5674 25.0667 53.5154Z" fill="#0C4F89"/>
<path d="M25.7209 48.5966L21.4008 48.02C21.0123 47.968 20.7403 47.6114 20.7918 47.2235C20.8433 46.8356 21.1998 46.563 21.5883 46.6145L25.9084 47.1911C26.2968 47.2431 26.5689 47.5997 26.5174 47.9876C26.4653 48.376 26.1093 48.6486 25.7209 48.5966Z" fill="#0C4F89"/>
<path d="M26.3762 43.6777L22.0561 43.1012C21.6676 43.0492 21.3956 42.6926 21.4471 42.3047C21.4986 41.9168 21.8552 41.6442 22.2436 41.6957L26.5637 42.2722C26.9522 42.3243 27.2242 42.6808 27.1727 43.0687C27.1212 43.4572 26.7647 43.7298 26.3762 43.6777Z" fill="#0C4F89"/>
<path d="M27.0315 38.7593L22.7114 38.1828C22.323 38.1307 22.051 37.7741 22.1024 37.3862C22.1539 36.9983 22.5105 36.7257 22.899 36.7772L27.219 37.3538C27.6075 37.4058 27.8795 37.7624 27.828 38.1503C27.7765 38.5387 27.42 38.8113 27.0315 38.7593Z" fill="#0C4F89"/>
<path d="M27.6869 33.8416L23.3668 33.265C22.9783 33.213 22.7063 32.8564 22.7578 32.4685C22.8093 32.0806 23.1658 31.808 23.5543 31.8595L27.8744 32.436C28.2628 32.4881 28.5349 32.8447 28.4834 33.2326C28.4319 33.6205 28.0753 33.8931 27.6869 33.8416Z" fill="#0C4F89"/>
<path d="M28.3486 28.9227L24.0285 28.3462C23.6401 28.2941 23.368 27.9376 23.4195 27.5497C23.471 27.1618 23.8276 26.8892 24.216 26.9407L28.5361 27.5172C28.9246 27.5693 29.1966 27.9258 29.1451 28.3137C29.0936 28.7016 28.7371 28.9742 28.3486 28.9227Z" fill="#0C4F89"/>
<path d="M29.0039 24.0035L24.6839 23.427C24.2954 23.375 24.0234 23.0184 24.0749 22.6305C24.1264 22.2426 24.4829 21.97 24.8714 22.0215L29.1914 22.598C29.5799 22.6501 29.8519 23.0067 29.8004 23.3946C29.7484 23.783 29.3918 24.0556 29.0039 24.0035Z" fill="#0C4F89"/>
<path d="M96.9581 47.9743C97.365 44.9248 97.7719 41.8753 98.1794 38.8264C96.6178 40.5639 95.0482 42.3601 93.4726 44.2027C91.8398 42.4564 90.1953 40.8001 88.5435 39.1975C90.5602 37.6678 92.5703 36.1878 94.5691 34.7924C91.4452 34.9452 88.2877 35.3448 85.1207 35.8201C87.1201 34.2556 89.1156 32.7163 91.1037 31.2352C87.9166 31.5705 84.7059 32.0844 81.4952 32.5988C78.2846 33.1126 75.0733 33.627 71.8862 33.9623C73.5296 35.0616 75.1814 36.1027 76.8359 37.1192C73.6689 37.5944 70.512 37.9941 67.3875 38.1469C69.0376 39.3643 70.6989 40.4973 72.367 41.5798C70.226 43.643 68.0917 45.653 65.9697 47.573C64.8698 45.854 63.7755 44.0886 62.6896 42.2644C62.2827 45.3138 61.8752 48.3633 61.4683 51.4122C60.3958 49.6098 59.3306 47.7498 58.2749 45.8187C57.863 48.9057 57.4504 51.9932 57.0385 55.0802C56.6265 58.1672 56.214 61.2547 55.802 64.3417C57.3273 62.7548 58.8621 61.0974 60.4042 59.3812C59.9973 62.4307 59.5898 65.4802 59.1828 68.5291C60.7445 66.7917 62.314 64.9955 63.8897 63.1528C65.5225 64.8992 67.167 66.5549 68.8188 68.158C66.802 69.6878 64.792 71.1677 62.7932 72.5631C65.9171 72.4103 69.0746 72.0107 72.2416 71.5355C70.2422 73.0999 68.2467 74.6392 66.2585 76.1209C69.4457 75.7856 72.6564 75.2717 75.867 74.7579C79.0777 74.2441 82.2889 73.7296 85.4755 73.3944C83.8321 72.295 82.1804 71.2539 80.5258 70.2374C83.6928 69.7622 86.8503 69.3625 89.9742 69.2097C88.3241 67.9923 86.6628 66.8594 84.9947 65.7768C87.1357 63.7136 89.27 61.7036 91.392 59.7837C92.4919 61.5027 93.5862 63.2681 94.6721 65.0923C95.079 62.0428 95.4865 58.9933 95.8935 55.9444C96.9665 57.7462 98.0311 59.6068 99.0868 61.5379C99.4987 58.451 99.9113 55.3634 100.323 52.2765C100.735 49.1895 101.148 46.1019 101.56 43.015C100.035 44.6007 98.5002 46.2581 96.9581 47.9743ZM76.6333 69.0166C71.9981 64.7548 67.3623 60.4929 62.8357 55.4188C68.7281 50.2664 74.7285 44.3018 80.7289 38.3372C85.3642 42.5991 89.9994 46.861 94.5266 51.935C88.6347 57.0874 82.6337 63.052 76.6333 69.0166Z" fill="#BDE4F6"/>
<path d="M104.324 16.8168C91.7031 18.2223 79.7386 21.2482 67.2088 22.904C54.679 24.5597 41.0264 24.7444 28.8369 20.7008L19.6594 89.446C31.8488 93.4895 45.5015 93.3048 58.0313 91.6491C70.5611 89.9934 82.5255 86.9674 95.146 85.5619C107.767 84.1564 121.595 84.5247 133.372 89.2394L142.55 20.4943C130.773 15.7801 116.944 15.4113 104.324 16.8168ZM127.248 79.707C117.222 77.196 106.276 77.1776 96.1144 78.3093C83.4939 79.7149 71.5294 82.7408 58.9996 84.3965C48.8694 85.7349 38.0054 86.1121 27.7739 84.0708L27.7762 84.0545L35.0131 29.8459C45.2446 31.8878 56.1086 31.5105 66.2388 30.1722C78.7686 28.5165 90.733 25.4905 103.354 24.085C113.516 22.9532 124.461 22.9717 134.487 25.4827L127.248 79.707Z" fill="#BDE4F6"/>
<path d="M28.8301 76.1689L27.7756 84.0702C27.7756 84.0702 33.5801 85.2127 36.4353 85.244L28.8301 76.1689Z" fill="#0C4F89"/>
<path d="M33.9568 37.7516L35.0119 29.8503C35.0119 29.8503 39.7814 30.7286 43.6974 31.0168L33.9568 37.7516Z" fill="#0C4F89"/>
<path d="M133.432 33.3839L134.487 25.4826C134.487 25.4826 130.232 24.3827 125.485 23.8834L133.432 33.3839Z" fill="#0C4F89"/>
<path d="M128.302 71.8086L127.248 79.7099C127.248 79.7099 123.237 78.6559 118.246 78.113L128.302 71.8086Z" fill="#0C4F89"/>
<path d="M80.7288 38.3372L84.2434 41.5836L76.9169 42.1199L80.7288 38.3372Z" fill="#0C4F89"/>
<path d="M62.8359 55.425L66.4815 52.155L66.3315 59.1703C65.5557 58.3894 64.2107 56.9251 62.8359 55.425Z" fill="#0C4F89"/>
<path d="M94.5265 51.9317C93.407 50.6852 92.292 49.4857 91.1809 48.3405L90.718 55.3478C91.5593 54.6381 93.0258 53.3065 94.5265 51.9317Z" fill="#0C4F89"/>
<path d="M76.627 69.0244L73.1124 65.7784L80.4389 65.2422L76.627 69.0244Z" fill="#0C4F89"/>
<path d="M128.641 69.2778L127.249 79.7064C123.806 78.8444 120.254 78.2757 116.664 77.9471" stroke="#0C4F89" stroke-miterlimit="10" stroke-linecap="round" stroke-linejoin="round"/>
<path d="M129.805 60.5481L129.015 66.464" stroke="#0C4F89" stroke-miterlimit="10" stroke-linecap="round" stroke-linejoin="round"/>
<path d="M77.8011 28.3188C80.8668 27.7658 83.9208 27.1853 86.982 26.6239" stroke="#0C4F89" stroke-miterlimit="10" stroke-linecap="round" stroke-linejoin="round"/>
<path d="M33.9555 37.7516L35.0112 29.8452C36.6859 30.1794 38.3775 30.4486 40.0796 30.6596" stroke="#0C4F89" stroke-miterlimit="10" stroke-linecap="round" stroke-linejoin="round"/>
<path d="M33.2974 42.6867L33.6774 39.8398" stroke="#0C4F89" stroke-miterlimit="10" stroke-linecap="round" stroke-linejoin="round"/>
<path d="M47.2236 85.4247C44.4327 85.5311 41.6267 85.53 38.8314 85.3945" stroke="#0C4F89" stroke-miterlimit="10" stroke-linecap="round" stroke-linejoin="round"/>
<path d="M80.0243 80.7969C78.9339 80.9961 77.8447 81.1982 76.756 81.4008" stroke="#0C4F89" stroke-miterlimit="10" stroke-linecap="round" stroke-linejoin="round"/>
<path d="M64.433 54.0042L68.3607 50.4" stroke="#0C4F89" stroke-miterlimit="10" stroke-linecap="round" stroke-linejoin="round"/>
<path d="M85.8426 59.9578C84.6297 61.1259 83.4145 62.3109 82.1982 63.5065" stroke="#0C4F89" stroke-miterlimit="10" stroke-linecap="round" stroke-linejoin="round"/>
<path d="M93.6655 52.6914C91.5967 54.524 89.5156 56.4518 87.4261 58.4394" stroke="#0C4F89" stroke-miterlimit="10" stroke-linecap="round" stroke-linejoin="round"/>
<path d="M69.8729 49.0103L75.6271 43.3563" stroke="#0C4F89" stroke-miterlimit="10" stroke-linecap="round" stroke-linejoin="round"/>
<path d="M137.602 0.00012207L139.178 5.24433L144.422 6.82L139.178 8.39623L137.602 13.6399L136.026 8.39623L130.782 6.82L136.026 5.24433L137.602 0.00012207Z" fill="#0C4F89"/>
<path d="M157.183 23.0862L158.284 26.7491L161.947 27.8496L158.284 28.9506L157.183 32.6135L156.082 28.9506L152.419 27.8496L156.082 26.7491L157.183 23.0862Z" fill="#0C4F89"/>
<path d="M8.23463 60.3635L9.15037 63.4108L12.1976 64.3265L9.15037 65.2422L8.23463 68.2895L7.3189 65.2422L4.27167 64.3265L7.3189 63.4108L8.23463 60.3635Z" fill="#0C4F89"/>
<path d="M108.614 6.82275L109.467 9.6612L112.306 10.5142L109.467 11.3673L108.614 14.2063L107.761 11.3673L104.922 10.5142L107.761 9.6612L108.614 6.82275Z" fill="#0C4F89"/>
<path d="M38.8741 94.6167L39.7272 97.4557L42.5656 98.3088L39.7272 99.1618L38.8741 102L38.0205 99.1618L35.1821 98.3088L38.0205 97.4557L38.8741 94.6167Z" fill="#0C4F89"/>
<path d="M7.31989 86.6709L8.89555 91.9151L14.1398 93.4908L8.89555 95.0665L7.31989 100.311L5.74422 95.0665L0.5 93.4908L5.74422 91.9151L7.31989 86.6709Z" fill="#0C4F89"/>
</svg>
