<svg width="133" height="76" viewBox="0 0 133 76" fill="none" xmlns="http://www.w3.org/2000/svg">
<path d="M9.2658 2.68395C9.17988 2.6847 9.11525 2.71608 9.0622 2.75793C9.04539 2.76876 9.0297 2.77959 9.01513 2.79342C9.01439 2.79454 9.01364 2.79566 9.01289 2.79678C8.9576 2.85133 8.91838 2.9268 8.91763 3.02804C8.8317 15.7047 7.97023 28.3634 8.00834 41.0411C8.02515 46.7264 8.62997 52.2339 9.41374 57.8549C10.1941 63.4524 11.031 69.2744 10.0081 74.8958C9.96888 75.1114 10.0974 75.3382 10.3387 75.3359C23.9938 75.2268 37.6492 75.1177 51.3046 75.0087C71.965 74.8435 92.6255 74.6784 113.286 74.5129C116.871 74.4845 120.459 74.4079 124.042 74.4322C124.289 74.4337 124.409 74.2152 124.379 73.9966C122.842 62.5494 125.032 50.9812 125.146 39.512C125.208 33.3934 124.47 27.2213 124.243 21.1053C124.015 14.9635 124.065 8.80448 124.812 2.69629C124.835 2.50688 124.64 2.35146 124.468 2.34811C86.0676 1.55796 47.6667 2.37051 9.2658 2.68395Z" fill="white"/>
<path d="M7.59202 72.4915C7.58679 72.4967 7.58194 72.5012 7.57671 72.5061C7.03726 73.0164 7.03726 73.9623 7.57671 74.473C7.58194 74.4779 7.58679 74.4824 7.59202 74.4876C7.96037 74.8362 8.46881 74.9867 8.96492 74.8507C9.57049 74.6841 10.0009 74.1174 10.0009 73.4897C10.0009 72.9921 9.73113 72.5225 9.30189 72.2711C8.74339 71.9435 8.05377 72.0544 7.59202 72.4915Z" fill="#0C4F89"/>
<path d="M7.59839 73.4909C6.255 73.7543 5.16863 74.4308 3.93059 74.9879C3.37956 75.2355 3.78041 76.1901 4.34302 75.9663C5.57396 75.4769 6.51277 74.4454 7.72428 73.9485C8.00335 73.8338 7.90435 73.4307 7.59839 73.4909Z" fill="#0C4F89"/>
<path d="M7.83964 73.0464C6.34309 72.9059 4.84802 72.749 3.34063 72.7665C2.70555 72.774 2.70555 73.7446 3.34063 73.7521C4.84765 73.7696 6.34271 73.6127 7.83964 73.4722C8.11348 73.4465 8.11348 73.0721 7.83964 73.0464Z" fill="#0C4F89"/>
<path d="M8.38043 73.208C7.78532 72.4772 6.9937 71.9781 6.24654 71.414C5.65255 70.9657 4.78847 69.969 3.9849 70.2152C3.828 70.2634 3.75365 70.4105 3.78541 70.5671C3.94194 71.3453 5.19081 71.7704 5.80834 72.1634C6.61377 72.676 7.36616 73.2099 8.32925 73.3324C8.39985 73.3414 8.41554 73.2498 8.38043 73.208Z" fill="#0C4F89"/>
<path opacity="0.5" d="M8.59981 73.7393C8.59495 73.7345 8.58972 73.7296 8.58449 73.7248C8.15226 73.3157 8.07231 72.6305 8.3327 72.1105C8.06073 72.1635 7.80184 72.2909 7.59077 72.4908C7.58554 72.496 7.58068 72.5005 7.57545 72.5054C7.03601 73.0157 7.03601 73.9616 7.57545 74.4723C7.58068 74.4772 7.58554 74.4816 7.59077 74.4869C7.95912 74.8354 8.46756 74.986 8.96367 74.85C9.35033 74.7435 9.66413 74.4734 9.84158 74.1293C9.38806 74.2078 8.93565 74.0572 8.59981 73.7393Z" fill="#0C4F89"/>
<path d="M7.53312 65.3532C7.52826 65.3584 7.52378 65.3636 7.5193 65.3693C7.0258 65.9244 7.10724 66.8666 7.6889 67.3291C7.69451 67.3332 7.70011 67.3377 7.70534 67.3422C8.10283 67.6579 8.6221 67.764 9.10477 67.5854C9.69353 67.3672 10.0738 66.7654 10.0197 66.14C9.9767 65.6442 9.66738 65.1993 9.21796 64.9863C8.63294 64.708 7.95564 64.878 7.53312 65.3532Z" fill="#0C4F89"/>
<path d="M7.62676 66.3484C6.31101 66.7269 5.28741 67.4942 4.10167 68.1562C3.57418 68.4506 4.05572 69.3667 4.59741 69.0954C5.78128 68.5018 6.62781 67.3926 7.79188 66.7934C8.05974 66.6555 7.92637 66.2621 7.62676 66.3484Z" fill="#0C4F89"/>
<path d="M7.82112 65.8815C6.31821 65.8703 4.81493 65.8431 3.31501 65.9906C2.68291 66.0526 2.76659 67.0199 3.40018 66.9724C4.90309 66.86 6.3791 66.5746 7.8581 66.3056C8.12857 66.2563 8.09607 65.883 7.82112 65.8815Z" fill="#0C4F89"/>
<path d="M8.37974 65.9964C7.72336 65.3202 6.89215 64.891 6.09867 64.393C5.46807 63.9977 4.52142 63.0791 3.74213 63.394C3.59009 63.4556 3.52882 63.6088 3.57327 63.7616C3.79667 64.5233 5.0773 64.8394 5.72658 65.1775C6.57311 65.6187 7.36921 66.0857 8.33902 66.1249C8.41038 66.1279 8.41785 66.0356 8.37974 65.9964Z" fill="#0C4F89"/>
<path opacity="0.5" d="M8.64535 66.5099C8.63974 66.5055 8.63414 66.501 8.62854 66.4965C8.16268 66.1266 8.02408 65.4508 8.23852 64.9099C7.97216 64.9861 7.72485 65.1355 7.53208 65.3529C7.52723 65.3582 7.52274 65.3634 7.51826 65.369C7.02476 65.9242 7.1062 66.8664 7.68786 67.3289C7.69347 67.333 7.69907 67.3375 7.7043 67.3419C8.10179 67.6576 8.62106 67.7637 9.10373 67.5851C9.47955 67.4458 9.7687 67.1495 9.91589 66.7913C9.47096 66.9086 9.00735 66.7976 8.64535 66.5099Z" fill="#0C4F89"/>
<path d="M6.55072 58.4349C6.54586 58.4401 6.54175 58.4453 6.53652 58.4506C6.0434 59.0057 6.12484 59.9483 6.70613 60.4104C6.71173 60.4145 6.71734 60.419 6.72257 60.4235C7.11968 60.7392 7.63933 60.8453 8.12199 60.6667C8.71075 60.4485 9.09106 59.8467 9.03689 59.2213C8.99393 58.7255 8.6846 58.2809 8.23519 58.0676C7.65054 57.7897 6.97324 57.9597 6.55072 58.4349Z" fill="#0C4F89"/>
<path d="M6.64408 59.4287C5.32833 59.8068 4.30473 60.5745 3.11899 61.2366C2.59187 61.5309 3.07304 62.447 3.61435 62.1757C4.7986 61.5821 5.64475 60.4729 6.80882 59.8737C7.07705 59.7355 6.94369 59.3424 6.64408 59.4287Z" fill="#0C4F89"/>
<path d="M6.83856 58.9625C5.33565 58.9517 3.83275 58.924 2.33283 59.072C1.70036 59.134 1.78404 60.1008 2.41763 60.0538C3.92054 59.9413 5.39655 59.6559 6.87555 59.3869C7.14639 59.3376 7.11389 58.9644 6.83856 58.9625Z" fill="#0C4F89"/>
<path d="M7.39664 59.0783C6.74064 58.4021 5.90905 57.9729 5.11557 57.4749C4.48534 57.0796 3.53869 56.161 2.75941 56.4759C2.60736 56.5375 2.54609 56.6907 2.59092 56.8435C2.81432 57.6053 4.09495 57.9213 4.74386 58.2594C5.59039 58.7006 6.38611 59.1676 7.3563 59.2065C7.42728 59.2098 7.43512 59.1175 7.39664 59.0783Z" fill="#0C4F89"/>
<path opacity="0.5" d="M7.66195 59.5905C7.65634 59.5857 7.65074 59.5816 7.64551 59.5771C7.17966 59.2068 7.04106 58.531 7.25549 57.9904C6.98913 58.0667 6.7422 58.2157 6.54905 58.4332C6.5442 58.4384 6.54009 58.4436 6.53486 58.4488C6.04174 59.004 6.12318 59.9466 6.70446 60.4087C6.71007 60.4128 6.71567 60.4173 6.7209 60.4218C7.11801 60.7375 7.63766 60.8436 8.12033 60.665C8.49615 60.5256 8.7853 60.2294 8.93249 59.8711C8.48756 59.9892 8.02395 59.8782 7.66195 59.5905Z" fill="#0C4F89"/>
<path d="M5.96897 51.5184C5.96486 51.524 5.96037 51.5296 5.95589 51.5349C5.48817 52.1117 5.61257 53.0498 6.21441 53.4846C6.22001 53.4884 6.22599 53.4929 6.23159 53.497C6.6429 53.7943 7.16629 53.8769 7.64036 53.6763C8.21866 53.4316 8.57132 52.8129 8.48876 52.1909C8.42338 51.6978 8.09388 51.2674 7.6355 51.075C7.03815 50.8243 6.36944 51.0245 5.96897 51.5184Z" fill="#0C4F89"/>
<path d="M6.10966 52.5056C4.81222 52.9434 3.82448 53.7571 2.67086 54.4722C2.15719 54.7901 2.67946 55.6837 3.20845 55.3878C4.3643 54.7408 5.1589 53.5943 6.29495 52.9431C6.55646 52.7929 6.40516 52.4062 6.10966 52.5056Z" fill="#0C4F89"/>
<path d="M6.28672 52.0349C4.78456 52.0921 3.28202 52.1336 1.79032 52.3491C1.16159 52.4399 1.28935 53.4019 1.91996 53.3261C3.41614 53.1453 4.87758 52.7933 6.34276 52.4571C6.61136 52.3951 6.56205 52.0237 6.28672 52.0349Z" fill="#0C4F89"/>
<path d="M6.84243 52.1215C6.15616 51.4763 5.30589 51.0852 4.49075 50.6238C3.84296 50.2577 2.85559 49.3827 2.09125 49.7328C1.94219 49.8012 1.88802 49.957 1.93958 50.1075C2.19697 50.8584 3.49105 51.1158 4.1549 51.424C5.02048 51.826 5.83675 52.2568 6.80768 52.2512C6.87866 52.2515 6.8824 52.1593 6.84243 52.1215Z" fill="#0C4F89"/>
<path opacity="0.5" d="M7.13202 52.6225C7.12641 52.6184 7.12081 52.6143 7.11483 52.6102C6.63254 52.2616 6.46368 51.5926 6.65271 51.043C6.39009 51.1312 6.15025 51.2914 5.9672 51.5175C5.96309 51.5231 5.9586 51.5287 5.95412 51.5339C5.4864 52.1107 5.6108 53.0488 6.21264 53.4837C6.21824 53.4874 6.22422 53.4919 6.22982 53.496C6.64113 53.7934 7.16452 53.8759 7.63859 53.6753C8.00769 53.5192 8.28339 53.2098 8.41376 52.8456C7.97518 52.9834 7.50672 52.8938 7.13202 52.6225Z" fill="#0C4F89"/>
<path d="M5.53074 44.3738C5.52588 44.3787 5.52102 44.3842 5.51579 44.3891C4.99278 44.9162 5.0223 45.8618 5.57743 46.3549C5.58304 46.3594 5.58789 46.3643 5.5935 46.3691C5.97268 46.7061 6.4856 46.8406 6.97686 46.6885C7.57683 46.5032 7.98963 45.9234 7.96983 45.2958C7.95414 44.7986 7.66985 44.3376 7.23314 44.0996C6.66418 43.7899 5.97866 43.9221 5.53074 44.3738Z" fill="#0C4F89"/>
<path d="M5.57552 45.3727C4.24073 45.6779 3.1764 46.3881 1.95629 46.984C1.41348 47.2485 1.84384 48.1899 2.39936 47.949C3.61461 47.4211 4.52016 46.3601 5.71562 45.8262C5.99132 45.7029 5.87962 45.3032 5.57552 45.3727Z" fill="#0C4F89"/>
<path d="M5.79699 44.9186C4.29707 44.8248 2.79753 44.715 1.292 44.78C0.657293 44.8069 0.687553 45.7767 1.32301 45.7648C2.83003 45.7349 4.31949 45.5317 5.81081 45.3441C6.08353 45.3094 6.07195 44.9354 5.79699 44.9186Z" fill="#0C4F89"/>
<path d="M6.34351 45.0621C5.72524 44.3512 4.91868 43.8767 4.15397 43.3361C3.54615 42.9069 2.65143 41.937 1.85608 42.2086C1.70067 42.2617 1.63119 42.4111 1.6678 42.5665C1.84861 43.3395 3.10981 43.7254 3.73967 44.099C4.56042 44.5861 5.32925 45.0961 6.29569 45.1884C6.36705 45.1951 6.37975 45.1036 6.34351 45.0621Z" fill="#0C4F89"/>
<path opacity="0.5" d="M6.57861 45.5885C6.57338 45.584 6.56815 45.5791 6.56255 45.5743C6.11836 45.179 6.01712 44.4969 6.26032 43.969C5.9906 44.0302 5.73507 44.1659 5.53072 44.3721C5.52587 44.3769 5.52101 44.3825 5.51578 44.3874C4.99277 44.9145 5.02228 45.8601 5.57742 46.3532C5.58302 46.3577 5.58788 46.3626 5.59348 46.3674C5.97267 46.7044 6.48559 46.8389 6.97684 46.6868C7.35976 46.5684 7.66498 46.2886 7.83197 45.9393C7.38106 46.0323 6.92417 45.896 6.57861 45.5885Z" fill="#0C4F89"/>
<path d="M5.26143 37.2923C5.25657 37.2976 5.25209 37.3028 5.24723 37.3076C4.74439 37.8546 4.80977 38.7983 5.38359 39.2697C5.38882 39.2746 5.39442 39.2783 5.40003 39.2832C5.79154 39.6056 6.30932 39.7207 6.7946 39.5499C7.38709 39.3418 7.77785 38.7463 7.73415 38.1206C7.69978 37.6241 7.39793 37.1743 6.95225 36.9531C6.37208 36.6658 5.69217 36.8239 5.26143 37.2923Z" fill="#0C4F89"/>
<path d="M5.34654 38.2868C4.02444 38.6425 2.98813 39.3926 1.79118 40.0341C1.25883 40.3195 1.72469 41.2438 2.27086 40.9819C3.46519 40.4084 4.32965 39.3134 5.50381 38.734C5.77428 38.601 5.64764 38.2057 5.34654 38.2868Z" fill="#0C4F89"/>
<path d="M5.5472 37.8267C4.04466 37.7897 2.5425 37.7374 1.03997 37.8589C0.406749 37.9104 0.473993 38.8788 1.10833 38.8425C2.61273 38.7555 4.0936 38.4951 5.57671 38.2511C5.84867 38.2063 5.82252 37.8327 5.5472 37.8267Z" fill="#0C4F89"/>
<path d="M6.10025 37.9507C5.45508 37.2641 4.63134 36.8206 3.84645 36.3096C3.22294 35.9035 2.29198 34.9684 1.50747 35.2702C1.3543 35.3296 1.29042 35.4809 1.33263 35.6356C1.54296 36.4011 2.81799 36.7384 3.46129 37.0881C4.30035 37.5435 5.08785 38.024 6.05729 38.0793C6.12827 38.0826 6.13723 37.9903 6.10025 37.9507Z" fill="#0C4F89"/>
<path opacity="0.5" d="M6.35457 38.468C6.34934 38.4635 6.34411 38.4591 6.33813 38.4549C5.87901 38.0765 5.75199 37.3988 5.97502 36.862C5.70753 36.9329 5.45798 37.0783 5.26111 37.2923C5.25625 37.2976 5.25177 37.3028 5.24691 37.3076C4.74407 37.8546 4.80945 38.7983 5.38327 39.2697C5.3885 39.2746 5.3941 39.2783 5.39971 39.2832C5.79122 39.6056 6.309 39.7207 6.79427 39.5499C7.17271 39.4169 7.46672 39.1259 7.61988 38.7706C7.17346 38.8805 6.71172 38.7617 6.35457 38.468Z" fill="#0C4F89"/>
<path d="M5.25102 30.4745C5.24579 30.479 5.24056 30.4838 5.23496 30.4887C4.67982 30.9818 4.65031 31.9278 5.17369 32.4545C5.17892 32.4597 5.18341 32.4646 5.18901 32.4695C5.54615 32.8296 6.04973 32.9962 6.54996 32.8752C7.16001 32.7272 7.60868 32.1743 7.62811 31.5471C7.6438 31.0498 7.38827 30.572 6.96725 30.3075C6.41883 29.9627 5.72622 30.052 5.25102 30.4745Z" fill="#0C4F89"/>
<path d="M5.23245 31.4749C3.88084 31.6964 2.77467 32.339 1.51982 32.8568C0.961322 33.0873 1.33228 34.0538 1.90162 33.8476C3.14713 33.3966 4.11769 32.3943 5.34378 31.9363C5.62658 31.8309 5.5399 31.4245 5.23245 31.4749Z" fill="#0C4F89"/>
<path d="M5.47952 31.0369C3.98819 30.8493 2.49874 30.6461 0.992094 30.6166C0.356636 30.6042 0.326376 31.5745 0.961086 31.6017C2.46698 31.6664 3.96615 31.5562 5.46645 31.462C5.74065 31.4448 5.75261 31.0705 5.47952 31.0369Z" fill="#0C4F89"/>
<path d="M6.0172 31.2143C5.44487 30.466 4.6697 29.9422 3.93972 29.3549C3.3603 28.8883 2.5276 27.8647 1.71693 28.0862C1.55891 28.1295 1.47971 28.2741 1.50661 28.4318C1.63885 29.2144 2.87353 29.6781 3.47873 30.0901C4.26773 30.6277 5.0033 31.1851 5.96191 31.3372C6.03214 31.3484 6.05044 31.2572 6.0172 31.2143Z" fill="#0C4F89"/>
<path opacity="0.5" d="M6.21969 31.7544C6.21483 31.7499 6.20998 31.7451 6.20475 31.7398C5.78596 31.3177 5.72731 30.6303 6.00339 30.1184C5.7303 30.1629 5.46693 30.2821 5.24988 30.4752C5.24465 30.4797 5.23942 30.4846 5.23382 30.4894C4.67868 30.9826 4.64916 31.9285 5.17255 32.4552C5.17778 32.4605 5.18226 32.4653 5.18786 32.4702C5.54501 32.8303 6.04859 32.997 6.54881 32.8759C6.93845 32.7818 7.26011 32.5214 7.44876 32.1833C6.99262 32.2475 6.54545 32.0832 6.21969 31.7544Z" fill="#0C4F89"/>
<path d="M5.7393 23.4174C5.7337 23.4223 5.72884 23.4271 5.72323 23.432C5.17183 23.9288 5.14867 24.8744 5.67579 25.3982C5.68065 25.4034 5.68588 25.4079 5.69073 25.4131C6.05049 25.7706 6.55519 25.9335 7.0543 25.8087C7.6636 25.6574 8.10779 25.1012 8.12311 24.4739C8.13506 23.9763 7.87654 23.5007 7.45365 23.2381C6.903 22.8974 6.21113 22.9919 5.7393 23.4174Z" fill="#0C4F89"/>
<path d="M5.73058 24.4182C4.38084 24.6487 3.27879 25.2991 2.02767 25.8262C1.47104 26.0601 1.84835 27.024 2.41657 26.8144C3.65909 26.3549 4.62218 25.3454 5.84527 24.8784C6.12733 24.7709 6.03841 24.3655 5.73058 24.4182Z" fill="#0C4F89"/>
<path d="M5.97778 23.9781C4.48533 23.8018 2.99437 23.6086 1.48698 23.59C0.851898 23.5825 0.827991 24.552 1.46345 24.5755C2.96972 24.6297 4.46814 24.5086 5.96769 24.404C6.24227 24.3853 6.25124 24.011 5.97778 23.9781Z" fill="#0C4F89"/>
<path d="M6.51414 24.153C5.93659 23.4092 5.1573 22.8907 4.42359 22.3079C3.84081 21.8458 3.001 20.8281 2.19183 21.0552C2.03418 21.0993 1.95648 21.2454 1.98412 21.4023C2.1216 22.1838 3.35964 22.6396 3.96783 23.0465C4.76056 23.5792 5.49987 24.1306 6.4596 24.2767C6.5302 24.2875 6.54813 24.1968 6.51414 24.153Z" fill="#0C4F89"/>
<path opacity="0.5" d="M6.71827 24.6911C6.71342 24.6866 6.70856 24.6814 6.70296 24.6761C6.28119 24.257 6.21805 23.5707 6.49039 23.057C6.21768 23.1026 5.95505 23.2244 5.7395 23.4186C5.73389 23.4235 5.72904 23.4283 5.72343 23.4332C5.17203 23.9301 5.14887 24.8756 5.67599 25.3994C5.68084 25.4046 5.68607 25.4091 5.69093 25.4143C6.05069 25.7719 6.55539 25.9347 7.05449 25.81C7.44376 25.7132 7.76355 25.4513 7.94959 25.1114C7.49494 25.179 7.04628 25.0172 6.71827 24.6911Z" fill="#0C4F89"/>
<path d="M5.88732 16.3355C5.88209 16.3407 5.87723 16.3452 5.872 16.3501C5.33965 16.8682 5.35273 17.8142 5.89927 18.317C5.9045 18.3219 5.90973 18.3264 5.91459 18.3312C6.28817 18.6749 6.79848 18.8188 7.29235 18.6753C7.89568 18.5001 8.31857 17.9277 8.30998 17.3001C8.30326 16.8025 8.02681 16.3366 7.5942 16.0916C7.03085 15.7718 6.34309 15.8917 5.88732 16.3355Z" fill="#0C4F89"/>
<path d="M5.91951 17.3347C4.57986 17.6171 3.5032 18.3079 2.27301 18.8824C1.72571 19.138 2.13926 20.0869 2.69926 19.8553C3.92348 19.3483 4.84734 18.3037 6.05213 17.7908C6.3297 17.6727 6.22472 17.2704 5.91951 17.3347Z" fill="#0C4F89"/>
<path d="M6.14757 16.8869C4.64952 16.7666 3.15222 16.6307 1.64558 16.6695C1.01049 16.6852 1.02394 17.6554 1.6594 17.6547C3.16642 17.6513 4.65961 17.4738 6.15393 17.3121C6.42739 17.2833 6.42216 16.9086 6.14757 16.8869Z" fill="#0C4F89"/>
<path d="M6.69377 17.0414C6.0882 16.3196 5.28986 15.831 4.53448 15.2773C3.93451 14.8372 3.0566 13.8524 2.25715 14.1098C2.10099 14.1603 2.02852 14.3086 2.06251 14.4644C2.22988 15.2403 3.48435 15.6483 4.10711 16.0327C4.91964 16.5337 5.67988 17.0575 6.64408 17.1662C6.71432 17.1748 6.72851 17.0836 6.69377 17.0414Z" fill="#0C4F89"/>
<path opacity="0.5" d="M6.91503 17.5708C6.9098 17.566 6.90494 17.5611 6.89934 17.5566C6.46188 17.1539 6.37259 16.4699 6.62513 15.9465C6.35391 16.0029 6.09689 16.1344 5.88843 16.3365C5.8832 16.3417 5.87835 16.3462 5.87312 16.3511C5.34077 16.8692 5.35384 17.8152 5.90039 18.318C5.90562 18.3229 5.91085 18.3273 5.9157 18.3322C6.28928 18.6759 6.79959 18.8197 7.29346 18.6763C7.67862 18.5649 7.98869 18.2904 8.16129 17.9437C7.71 18.0288 7.25536 17.8835 6.91503 17.5708Z" fill="#0C4F89"/>
<path d="M6.13476 9.62067C6.12991 9.62552 6.12468 9.63001 6.11944 9.6345C5.58 10.1452 5.58 11.0911 6.11944 11.6018C6.12468 11.6067 6.12953 11.6115 6.13476 11.6168C6.50348 11.9653 7.01193 12.1159 7.50804 11.9799C8.11361 11.8129 8.54397 11.2462 8.54397 10.6182C8.54397 10.1209 8.27425 9.65093 7.84501 9.39951C7.28613 9.07224 6.59688 9.18319 6.13476 9.62067Z" fill="#0C4F89"/>
<path d="M6.1508 10.6202C4.80741 10.8835 3.72105 11.5601 2.483 12.1175C1.93198 12.3645 2.33283 13.319 2.89544 13.0952C4.12638 12.6062 5.06518 11.5747 6.2767 11.0778C6.55576 10.9635 6.45639 10.56 6.1508 10.6202Z" fill="#0C4F89"/>
<path d="M6.38232 10.1723C4.88576 10.0318 3.39033 9.87488 1.88368 9.89243C1.24822 9.89953 1.24822 10.8705 1.88368 10.8783C3.3907 10.8955 4.88576 10.739 6.38232 10.5981C6.65653 10.572 6.65653 10.1977 6.38232 10.1723Z" fill="#0C4F89"/>
<path d="M6.9273 10.3339C6.33182 9.60354 5.54058 9.10405 4.79305 8.53993C4.19943 8.09163 3.33534 7.09451 2.53177 7.34146C2.37487 7.38928 2.30053 7.53647 2.33191 7.69263C2.48844 8.47082 3.73769 8.89634 4.35484 9.28898C5.16027 9.80192 5.91266 10.3358 6.87575 10.4583C6.94673 10.4677 6.96205 10.3761 6.9273 10.3339Z" fill="#0C4F89"/>
<path opacity="0.5" d="M7.1456 10.8687C7.14075 10.8642 7.13552 10.8594 7.13029 10.8545C6.69806 10.4454 6.61811 9.76028 6.8785 9.24024C6.60653 9.29329 6.34727 9.4203 6.1362 9.62054C6.13134 9.6254 6.12611 9.62989 6.12088 9.63437C5.58143 10.1451 5.58143 11.091 6.12088 11.6017C6.12611 11.6065 6.13097 11.6114 6.1362 11.6166C6.50492 11.9652 7.01336 12.1157 7.50947 11.9798C7.89613 11.8733 8.20993 11.6032 8.38738 11.2584C7.93386 11.3376 7.48145 11.187 7.1456 10.8687Z" fill="#0C4F89"/>
<path d="M6.15682 2.68167C6.15196 2.68652 6.14673 2.69138 6.14188 2.69586C5.60243 3.20656 5.60243 4.15248 6.14188 4.66281C6.14711 4.66804 6.15196 4.67252 6.15682 4.67775C6.52554 5.02631 7.03398 5.17725 7.53009 5.04089C8.13566 4.87389 8.56603 4.30753 8.56603 3.67952C8.56603 3.1819 8.2963 2.7123 7.86706 2.46088C7.30819 2.13361 6.61894 2.24457 6.15682 2.68167Z" fill="#0C4F89"/>
<path d="M6.1635 3.68461C4.82011 3.94837 3.73374 4.62456 2.4957 5.18196C1.94505 5.42927 2.34552 6.3838 2.90813 6.16002C4.13908 5.67062 5.07788 4.63913 6.28939 4.14263C6.56846 4.02793 6.46946 3.62446 6.1635 3.68461Z" fill="#0C4F89"/>
<path d="M6.40193 3.23708C4.90537 3.09698 3.40993 2.9397 1.90329 2.95763C1.26783 2.96473 1.26783 3.93531 1.90329 3.94316C3.41031 3.96034 4.90537 3.80381 6.40193 3.66297C6.67613 3.63756 6.67613 3.26323 6.40193 3.23708Z" fill="#0C4F89"/>
<path d="M6.94981 3.39902C6.35432 2.66903 5.56309 2.16954 4.81555 1.60505C4.22194 1.15674 3.35748 0.159636 2.55428 0.406579C2.39738 0.454398 2.32303 0.601585 2.35441 0.758119C2.51094 1.53631 3.76019 1.96183 4.37734 2.35409C5.18278 2.86741 5.93517 3.40127 6.89826 3.52343C6.96924 3.5324 6.98455 3.44124 6.94981 3.39902Z" fill="#0C4F89"/>
<path opacity="0.5" d="M7.16654 3.93239C7.16168 3.92754 7.15645 3.92268 7.1516 3.9182C6.71937 3.50875 6.63942 2.82396 6.89981 2.30393C6.62784 2.35697 6.36895 2.48399 6.15751 2.68423C6.15265 2.68909 6.14742 2.69395 6.14256 2.69844C5.60311 3.20913 5.60311 4.15506 6.14256 4.66538C6.14779 4.67061 6.15265 4.6751 6.15751 4.68033C6.52623 5.02888 7.03467 5.17981 7.53078 5.04345C7.91743 4.93698 8.23087 4.66688 8.40869 4.3228C7.95517 4.40051 7.50276 4.24994 7.16654 3.93239Z" fill="#0C4F89"/>
<path d="M126.909 72.5159C126.914 72.5208 126.919 72.5256 126.925 72.5305C127.469 73.0352 127.479 73.9811 126.946 74.497C126.94 74.5019 126.935 74.5067 126.93 74.512C126.565 74.8646 126.058 75.0208 125.561 74.8893C124.954 74.729 124.517 74.1668 124.511 73.5395C124.505 73.0419 124.77 72.5693 125.197 72.3134C125.752 71.9802 126.442 72.0837 126.909 72.5159Z" fill="#0C4F89"/>
<path d="M126.912 73.5152C128.258 73.7644 129.351 74.4294 130.595 74.9733C131.149 75.215 130.758 76.1737 130.193 75.9558C128.957 75.4799 128.007 74.4578 126.791 73.974C126.511 73.8626 126.605 73.4584 126.912 73.5152Z" fill="#0C4F89"/>
<path d="M126.672 73.0731C128.167 72.917 129.66 72.7444 131.167 72.7459C131.803 72.7466 131.813 73.7172 131.178 73.7314C129.671 73.7646 128.174 73.6238 126.676 73.499C126.402 73.4762 126.397 73.1019 126.672 73.0731Z" fill="#0C4F89"/>
<path d="M126.129 73.2375C126.716 72.5012 127.503 71.9934 128.244 71.4211C128.833 70.9664 129.686 69.9607 130.493 70.1987C130.65 70.245 130.726 70.3919 130.696 70.5484C130.548 71.3281 129.304 71.7663 128.69 72.166C127.89 72.6872 127.143 73.2293 126.182 73.3615C126.111 73.3716 126.094 73.2805 126.129 73.2375Z" fill="#0C4F89"/>
<path opacity="0.5" d="M125.914 73.7732C125.918 73.7683 125.924 73.7635 125.929 73.7586C126.357 73.345 126.429 72.6591 126.163 72.1417C126.436 72.1918 126.697 72.3166 126.91 72.5142C126.914 72.519 126.92 72.5239 126.926 72.5288C127.47 73.0335 127.48 73.9794 126.946 74.4953C126.941 74.5002 126.936 74.505 126.931 74.5103C126.566 74.8629 126.059 75.0191 125.562 74.8876C125.174 74.7856 124.857 74.5185 124.677 74.1763C125.131 74.2499 125.581 74.0945 125.914 73.7732Z" fill="#0C4F89"/>
<path d="M126.889 65.3711C126.895 65.3767 126.899 65.3816 126.904 65.3868C127.403 65.9367 127.332 66.88 126.755 67.3481C126.749 67.3526 126.744 67.3567 126.739 67.3612C126.345 67.6814 125.827 67.7927 125.342 67.619C124.751 67.4072 124.365 66.8094 124.412 66.1836C124.45 65.6871 124.754 65.2396 125.202 65.0214C125.783 64.7375 126.462 64.9 126.889 65.3711Z" fill="#0C4F89"/>
<path d="M126.799 66.3674C128.119 66.732 129.151 67.4889 130.343 68.1382C130.874 68.4269 130.402 69.3482 129.858 69.0822C128.667 68.5013 127.81 67.4014 126.639 66.8145C126.369 66.6793 126.499 66.2848 126.799 66.3674Z" fill="#0C4F89"/>
<path d="M126.596 65.9057C128.099 65.8788 129.602 65.8355 131.103 65.9674C131.736 66.0227 131.663 66.9906 131.028 66.9499C129.525 66.8532 128.046 66.5834 126.564 66.3298C126.293 66.2838 126.321 65.9102 126.596 65.9057Z" fill="#0C4F89"/>
<path d="M126.047 66.0257C126.696 65.3428 127.522 64.9049 128.311 64.3991C128.937 63.9967 129.874 63.0684 130.656 63.3751C130.809 63.4349 130.872 63.5873 130.829 63.7408C130.614 64.5048 129.336 64.8347 128.69 65.1795C127.849 65.6297 127.058 66.1053 126.088 66.1542C126.017 66.1576 126.009 66.0653 126.047 66.0257Z" fill="#0C4F89"/>
<path opacity="0.5" d="M125.788 66.5405C125.793 66.5357 125.798 66.5316 125.804 66.5271C126.266 66.152 126.397 65.4747 126.177 64.9363C126.444 65.0096 126.693 65.1568 126.888 65.3716C126.893 65.3772 126.898 65.382 126.902 65.3873C127.402 65.9372 127.33 66.8805 126.754 67.3486C126.748 67.3531 126.743 67.3572 126.738 67.3617C126.343 67.6819 125.825 67.7932 125.341 67.6195C124.964 67.4842 124.671 67.1913 124.521 66.8346C124.966 66.9478 125.429 66.8319 125.788 66.5405Z" fill="#0C4F89"/>
<path d="M127.112 58.4485C127.117 58.4538 127.121 58.4594 127.126 58.4642C127.626 59.0141 127.554 59.9574 126.977 60.4256C126.971 60.43 126.967 60.4345 126.961 60.4386C126.566 60.7584 126.049 60.8705 125.564 60.6968C124.973 60.485 124.587 59.8868 124.634 59.2611C124.672 58.7649 124.977 58.3174 125.424 58.0988C126.005 57.8153 126.684 57.9778 127.112 58.4485Z" fill="#0C4F89"/>
<path d="M127.027 59.4446C128.347 59.8092 129.378 60.5658 130.571 61.2154C131.101 61.5038 130.629 62.4251 130.086 62.1595C128.894 61.5782 128.037 60.478 126.866 59.8914C126.597 59.7562 126.726 59.3617 127.027 59.4446Z" fill="#0C4F89"/>
<path d="M126.824 58.98C128.326 58.9531 129.829 58.9097 131.33 59.0416C131.963 59.0973 131.89 60.0649 131.256 60.0241C129.752 59.9274 128.273 59.658 126.791 59.4044C126.52 59.3577 126.549 58.9844 126.824 58.98Z" fill="#0C4F89"/>
<path d="M126.267 59.0999C126.916 58.417 127.743 57.9791 128.531 57.4729C129.158 57.0709 130.095 56.1422 130.877 56.4489C131.029 56.5087 131.092 56.6615 131.05 56.815C130.835 57.579 129.557 57.9082 128.912 58.2537C128.069 58.7039 127.278 59.1791 126.309 59.2284C126.238 59.2318 126.229 59.1395 126.267 59.0999Z" fill="#0C4F89"/>
<path opacity="0.5" d="M126.014 59.6154C126.019 59.6109 126.025 59.6068 126.03 59.602C126.492 59.2269 126.623 58.5499 126.404 58.0116C126.671 58.0848 126.92 58.2316 127.115 58.4468C127.12 58.452 127.124 58.4576 127.129 58.4625C127.628 59.0124 127.557 59.9557 126.98 60.4238C126.974 60.4283 126.969 60.4328 126.963 60.4369C126.569 60.7567 126.052 60.8688 125.567 60.6951C125.19 60.5598 124.898 60.2662 124.747 59.9098C125.193 60.023 125.655 59.9072 126.014 59.6154Z" fill="#0C4F89"/>
<path d="M127.269 51.5232C127.274 51.5288 127.278 51.5344 127.283 51.5397C127.757 52.1116 127.642 53.0508 127.045 53.4921C127.039 53.4962 127.033 53.5003 127.027 53.5048C126.619 53.8062 126.097 53.8944 125.621 53.6987C125.039 53.4603 124.68 52.8454 124.756 52.2226C124.816 51.7287 125.141 51.2953 125.597 51.0973C126.193 50.8399 126.863 51.0335 127.269 51.5232Z" fill="#0C4F89"/>
<path d="M127.139 52.5141C128.441 52.9381 129.437 53.7413 130.599 54.4444C131.116 54.7571 130.602 55.656 130.071 55.3657C128.908 54.731 128.101 53.593 126.959 52.9534C126.695 52.8062 126.842 52.4181 127.139 52.5141Z" fill="#0C4F89"/>
<path d="M126.956 52.0439C128.459 52.0853 129.962 52.1107 131.456 52.3106C132.086 52.395 131.968 53.3581 131.337 53.2887C129.839 53.1239 128.373 52.7873 126.905 52.4664C126.636 52.4074 126.681 52.036 126.956 52.0439Z" fill="#0C4F89"/>
<path d="M126.399 52.1379C127.078 51.4853 127.924 51.0855 128.734 50.6159C129.379 50.2423 130.357 49.3577 131.124 49.6995C131.274 49.7664 131.33 49.9214 131.28 50.0731C131.03 50.8266 129.739 51.0975 129.078 51.4128C128.217 51.8241 127.405 52.2631 126.434 52.2683C126.363 52.2683 126.36 52.176 126.399 52.1379Z" fill="#0C4F89"/>
<path opacity="0.5" d="M126.112 52.6409C126.118 52.6364 126.123 52.6323 126.13 52.6282C126.608 52.2744 126.77 51.6038 126.575 51.0561C126.838 51.142 127.08 51.2997 127.265 51.5235C127.27 51.5291 127.274 51.5347 127.279 51.5399C127.753 52.1119 127.638 53.0511 127.041 53.4923C127.035 53.4964 127.029 53.5005 127.023 53.505C126.615 53.8065 126.093 53.8947 125.617 53.6989C125.246 53.5468 124.967 53.2405 124.832 52.8774C125.273 53.0104 125.74 52.9155 126.112 52.6409Z" fill="#0C4F89"/>
<path d="M127.638 44.3752C127.643 44.38 127.648 44.3856 127.653 44.3901C128.181 44.9117 128.162 45.8576 127.612 46.3567C127.607 46.3616 127.602 46.366 127.596 46.3709C127.221 46.7116 126.71 46.8521 126.217 46.7049C125.615 46.5259 125.196 45.9502 125.209 45.323C125.219 44.8254 125.498 44.3617 125.934 44.1193C126.498 43.8032 127.185 43.9284 127.638 44.3752Z" fill="#0C4F89"/>
<path d="M127.599 45.3739C128.937 45.6653 130.009 46.3643 131.235 46.9468C131.78 47.2056 131.36 48.152 130.802 47.9166C129.581 47.4018 128.664 46.3505 127.463 45.829C127.187 45.7087 127.294 45.3074 127.599 45.3739Z" fill="#0C4F89"/>
<path d="M127.379 44.9232C128.878 44.8137 130.376 44.6878 131.882 44.7367C132.517 44.7573 132.497 45.7275 131.862 45.7219C130.355 45.7081 128.863 45.5202 127.37 45.3487C127.097 45.3173 127.105 44.943 127.379 44.9232Z" fill="#0C4F89"/>
<path d="M126.828 45.073C127.439 44.3554 128.241 43.8727 128.999 43.3239C129.602 42.8879 130.487 41.9091 131.285 42.1725C131.441 42.2236 131.512 42.3723 131.477 42.5285C131.305 43.3029 130.047 43.7023 129.422 44.0823C128.606 44.5784 127.842 45.0962 126.877 45.1985C126.806 45.206 126.793 45.1149 126.828 45.073Z" fill="#0C4F89"/>
<path opacity="0.5" d="M126.604 45.5999C126.609 45.595 126.614 45.5905 126.62 45.5857C127.06 45.1859 127.155 44.5023 126.905 43.977C127.176 44.0353 127.433 44.1683 127.639 44.3723C127.644 44.3771 127.649 44.3827 127.654 44.3872C128.183 44.9087 128.163 45.8547 127.614 46.3538C127.608 46.3586 127.603 46.3631 127.598 46.368C127.222 46.7087 126.711 46.8492 126.218 46.702C125.834 46.5876 125.525 46.3116 125.355 45.9634C125.806 46.0519 126.262 45.9107 126.604 45.5999Z" fill="#0C4F89"/>
<path d="M127.826 37.2975C127.83 37.3031 127.835 37.308 127.84 37.3129C128.349 37.8542 128.293 38.7986 127.724 39.2764C127.719 39.2813 127.714 39.2854 127.708 39.2899C127.32 39.6168 126.804 39.7371 126.316 39.5716C125.722 39.3698 125.325 38.7785 125.362 38.1523C125.391 37.6554 125.688 37.2023 126.131 36.9766C126.709 36.6834 127.39 36.8339 127.826 37.2975Z" fill="#0C4F89"/>
<path d="M127.752 38.2974C129.078 38.6396 130.123 39.3785 131.326 40.0073C131.861 40.2871 131.405 41.2162 130.856 40.9599C129.656 40.3992 128.78 39.3135 127.599 38.7472C127.328 38.616 127.451 38.2193 127.752 38.2974Z" fill="#0C4F89"/>
<path d="M127.544 37.8375C129.046 37.7856 130.548 37.7168 132.051 37.8225C132.685 37.8677 132.628 38.8365 131.993 38.807C130.488 38.736 129.004 38.4913 127.519 38.263C127.247 38.2208 127.268 37.8472 127.544 37.8375Z" fill="#0C4F89"/>
<path d="M126.997 37.966C127.634 37.2722 128.453 36.8202 129.233 36.3009C129.852 35.8881 130.773 34.944 131.561 35.2369C131.714 35.2937 131.78 35.4454 131.739 35.5997C131.537 36.3678 130.266 36.7186 129.626 37.0746C128.792 37.5386 128.009 38.028 127.041 38.093C126.97 38.0986 126.96 38.0067 126.997 37.966Z" fill="#0C4F89"/>
<path opacity="0.5" d="M126.743 38.4857C126.749 38.4808 126.754 38.4767 126.76 38.4722C127.215 38.0896 127.335 37.4101 127.106 36.8755C127.375 36.9446 127.626 37.0869 127.824 37.2988C127.829 37.3044 127.834 37.3092 127.839 37.3141C128.347 37.8554 128.292 38.7998 127.723 39.2777C127.718 39.2825 127.712 39.2866 127.707 39.2911C127.319 39.618 126.802 39.7383 126.315 39.5728C125.935 39.4439 125.638 39.1563 125.481 38.8021C125.929 38.9071 126.39 38.783 126.743 38.4857Z" fill="#0C4F89"/>
<path d="M127.42 30.477C127.425 30.4818 127.43 30.4863 127.436 30.4904C127.996 30.9783 128.035 31.9239 127.517 32.4563C127.513 32.4615 127.508 32.4663 127.503 32.4712C127.149 32.8351 126.647 33.0066 126.146 32.8911C125.534 32.7499 125.08 32.2015 125.054 31.575C125.033 31.0777 125.283 30.5973 125.702 30.3283C126.246 29.9779 126.939 30.0597 127.42 30.477Z" fill="#0C4F89"/>
<path d="M127.45 31.4768C128.804 31.6841 129.917 32.3148 131.177 32.8195C131.738 33.0444 131.377 34.0142 130.806 33.8144C129.555 33.3769 128.575 32.385 127.344 31.9397C127.06 31.8366 127.142 31.4301 127.45 31.4768Z" fill="#0C4F89"/>
<path d="M127.196 31.0436C128.685 30.8408 130.173 30.6215 131.679 30.5763C132.314 30.5572 132.355 31.5267 131.72 31.561C130.215 31.6417 128.714 31.5468 127.213 31.4691C126.938 31.4546 126.923 31.0802 127.196 31.0436Z" fill="#0C4F89"/>
<path d="M126.66 31.2279C127.225 30.4733 127.994 29.942 128.718 29.3469C129.293 28.874 130.114 27.8417 130.927 28.0547C131.086 28.0961 131.166 28.2403 131.141 28.398C131.017 29.1822 129.788 29.6589 129.187 30.0769C128.404 30.6231 127.675 31.1883 126.718 31.3505C126.647 31.3624 126.628 31.272 126.66 31.2279Z" fill="#0C4F89"/>
<path opacity="0.5" d="M126.464 31.7678C126.47 31.7626 126.474 31.7581 126.479 31.7525C126.894 31.3259 126.945 30.6381 126.663 30.1293C126.937 30.1707 127.202 30.288 127.421 30.4782C127.426 30.4831 127.431 30.4875 127.437 30.4916C127.997 30.9796 128.036 31.9251 127.519 32.4575C127.514 32.4627 127.509 32.4676 127.504 32.4724C127.15 32.8363 126.648 33.0078 126.148 32.8923C125.757 32.8027 125.432 32.5456 125.24 32.2094C125.696 32.2688 126.142 32.0996 126.464 31.7678Z" fill="#0C4F89"/>
<path d="M127.195 23.4244C127.201 23.4289 127.206 23.4341 127.212 23.4382C127.768 23.9299 127.801 24.8754 127.28 25.4044C127.275 25.4093 127.27 25.4141 127.265 25.4194C126.909 25.7803 126.406 25.9487 125.905 25.8299C125.295 25.6842 124.844 25.1328 124.823 24.5056C124.805 24.008 125.058 23.5298 125.479 23.2634C126.026 22.9171 126.719 23.0037 127.195 23.4244Z" fill="#0C4F89"/>
<path d="M127.224 24.4264C128.575 24.6427 129.685 25.2811 130.941 25.7948C131.501 26.0231 131.133 26.9903 130.563 26.7871C129.315 26.341 128.342 25.3417 127.114 24.8877C126.83 24.7831 126.916 24.377 127.224 24.4264Z" fill="#0C4F89"/>
<path d="M126.969 23.9876C128.46 23.7948 129.949 23.5864 131.456 23.5516C132.09 23.537 132.124 24.5072 131.49 24.5364C129.984 24.607 128.484 24.502 126.984 24.4131C126.709 24.397 126.696 24.0227 126.969 23.9876Z" fill="#0C4F89"/>
<path d="M126.433 24.1681C127.002 23.4176 127.776 22.8912 128.503 22.3013C129.081 21.8328 129.911 20.8062 130.722 21.0247C130.88 21.0677 130.96 21.2123 130.934 21.3692C130.804 22.1526 129.571 22.6211 128.967 23.0354C128.181 23.5752 127.447 24.1349 126.489 24.291C126.418 24.3022 126.4 24.2118 126.433 24.1681Z" fill="#0C4F89"/>
<path opacity="0.5" d="M126.232 24.7071C126.238 24.7018 126.243 24.6974 126.248 24.6918C126.665 24.2685 126.721 23.5811 126.443 23.0704C126.716 23.1137 126.98 23.2321 127.198 23.4242C127.203 23.4286 127.209 23.4339 127.214 23.438C127.771 23.9296 127.804 24.8752 127.282 25.4042C127.278 25.409 127.272 25.4139 127.267 25.4191C126.911 25.78 126.408 25.9485 125.907 25.8297C125.517 25.7367 125.195 25.4774 125.006 25.1401C125.461 25.2028 125.908 25.0369 126.232 24.7071Z" fill="#0C4F89"/>
<path d="M126.975 16.3461C126.979 16.3517 126.985 16.3558 126.99 16.361C127.527 16.8732 127.524 17.8192 126.983 18.328C126.978 18.3328 126.972 18.3373 126.968 18.3426C126.598 18.6904 126.089 18.8391 125.593 18.7008C124.989 18.5323 124.559 17.9641 124.562 17.3365C124.563 16.8389 124.834 16.3704 125.265 16.1204C125.825 15.795 126.514 15.9079 126.975 16.3461Z" fill="#0C4F89"/>
<path d="M126.96 17.345C128.303 17.6128 129.387 18.2924 130.623 18.8535C131.174 19.1038 130.77 20.0569 130.208 19.8312C128.978 19.3373 128.043 18.3025 126.833 17.8019C126.554 17.6868 126.655 17.2841 126.96 17.345Z" fill="#0C4F89"/>
<path d="M126.726 16.8972C128.222 16.762 129.718 16.6096 131.225 16.6324C131.86 16.6421 131.857 17.6123 131.222 17.6183C129.715 17.6302 128.22 17.4688 126.724 17.3228C126.45 17.2962 126.451 16.9219 126.726 16.8972Z" fill="#0C4F89"/>
<path d="M126.18 17.0579C126.778 16.3298 127.571 15.8329 128.32 15.2714C128.916 14.825 129.783 13.8313 130.585 14.0801C130.742 14.129 130.816 14.2766 130.784 14.4324C130.624 15.2102 129.374 15.6312 128.756 16.0224C127.949 16.5319 127.194 17.0639 126.23 17.1827C126.161 17.1917 126.146 17.1005 126.18 17.0579Z" fill="#0C4F89"/>
<path opacity="0.5" d="M125.961 17.5896C125.966 17.5851 125.971 17.5795 125.976 17.575C126.41 17.1678 126.492 16.483 126.234 15.9622C126.506 16.016 126.764 16.1441 126.975 16.3444C126.979 16.35 126.985 16.3541 126.99 16.3593C127.528 16.8715 127.524 17.8175 126.983 18.3263C126.978 18.3311 126.972 18.3356 126.968 18.3409C126.598 18.6887 126.089 18.8373 125.594 18.6991C125.208 18.5915 124.895 18.3203 124.718 17.9759C125.171 18.0554 125.625 17.906 125.961 17.5896Z" fill="#0C4F89"/>
<path d="M127.006 9.62804C127.012 9.63289 127.017 9.63775 127.022 9.64261C127.567 10.1473 127.577 11.0936 127.043 11.6092C127.037 11.614 127.033 11.6193 127.027 11.6241C126.663 11.9764 126.156 12.1326 125.659 12.0014C125.051 11.8412 124.615 11.2793 124.608 10.6517C124.603 10.1544 124.868 9.68183 125.294 9.42592C125.85 9.0923 126.54 9.19579 127.006 9.62804Z" fill="#0C4F89"/>
<path d="M127.007 10.631C128.352 10.8802 129.445 11.5448 130.69 12.0891C131.243 12.3312 130.853 13.2895 130.288 13.072C129.051 12.5957 128.101 11.5732 126.885 11.0898C126.605 10.9784 126.7 10.5742 127.007 10.631Z" fill="#0C4F89"/>
<path d="M126.769 10.1879C128.264 10.0321 129.758 9.85911 131.264 9.86098C131.9 9.86173 131.91 10.8323 131.274 10.8465C129.768 10.8798 128.271 10.7385 126.773 10.6141C126.499 10.5906 126.495 10.2163 126.769 10.1879Z" fill="#0C4F89"/>
<path d="M126.229 10.3526C126.816 9.61624 127.603 9.10854 128.344 8.53657C128.933 8.08191 129.786 7.07621 130.592 7.31418C130.749 7.36051 130.825 7.50733 130.796 7.66387C130.647 8.44355 129.403 8.88215 128.79 9.28151C127.99 9.80267 127.243 10.3444 126.281 10.477C126.211 10.4863 126.195 10.3952 126.229 10.3526Z" fill="#0C4F89"/>
<path opacity="0.5" d="M126.014 10.889C126.019 10.8841 126.024 10.8796 126.029 10.8744C126.457 10.4616 126.529 9.77531 126.264 9.25752C126.536 9.30795 126.797 9.43273 127.01 9.62999C127.015 9.63485 127.02 9.6397 127.026 9.64456C127.57 10.1493 127.58 11.0956 127.046 11.6111C127.041 11.616 127.037 11.6212 127.031 11.6261C126.666 11.9784 126.16 12.1345 125.662 12.0034C125.275 11.9014 124.958 11.6343 124.777 11.2925C125.231 11.3657 125.681 11.2103 126.014 10.889Z" fill="#0C4F89"/>
<path d="M127.607 2.69302C127.613 2.6975 127.617 2.70236 127.623 2.70721C128.167 3.21193 128.177 4.15787 127.643 4.67379C127.638 4.67865 127.634 4.68387 127.628 4.68873C127.263 5.04102 126.757 5.19681 126.259 5.06606C125.652 4.90579 125.215 4.34391 125.209 3.71665C125.203 3.21903 125.468 2.74644 125.895 2.49053C126.45 2.15728 127.14 2.26078 127.607 2.69302Z" fill="#0C4F89"/>
<path d="M127.605 3.6913C128.951 3.94049 130.044 4.60547 131.287 5.14942C131.841 5.3915 131.451 6.34976 130.885 6.13233C129.65 5.65601 128.7 4.63386 127.483 4.14969C127.203 4.03874 127.298 3.63489 127.605 3.6913Z" fill="#0C4F89"/>
<path d="M127.363 3.24878C128.859 3.09225 130.352 2.91965 131.859 2.92189C132.494 2.92227 132.505 3.89285 131.87 3.90704C130.363 3.94029 128.866 3.79945 127.368 3.67467C127.094 3.65188 127.09 3.27755 127.363 3.24878Z" fill="#0C4F89"/>
<path d="M126.824 3.41644C127.411 2.67934 128.197 2.17164 128.939 1.60004C129.527 1.14539 130.382 0.139679 131.187 0.377282C131.345 0.423607 131.42 0.57043 131.391 0.726964C131.243 1.50702 129.998 1.94561 129.385 2.34535C128.585 2.86651 127.838 3.40784 126.876 3.54047C126.806 3.54981 126.79 3.45903 126.824 3.41644Z" fill="#0C4F89"/>
<path opacity="0.5" d="M126.612 3.95128C126.618 3.94605 126.622 3.94119 126.628 3.93634C127.055 3.52315 127.128 2.83723 126.863 2.31944C127.135 2.36987 127.395 2.49466 127.608 2.69229C127.614 2.69677 127.618 2.70163 127.624 2.70648C128.168 3.2112 128.179 4.15713 127.645 4.67306C127.64 4.67792 127.635 4.68314 127.63 4.688C127.265 5.04029 126.758 5.19608 126.26 5.06532C125.873 4.96333 125.556 4.69659 125.375 4.35438C125.829 4.42798 126.279 4.27294 126.612 3.95128Z" fill="#0C4F89"/>
<path d="M12.2647 6.35086C12.2614 6.8567 12.2543 7.86913 12.2543 7.86913C12.1687 20.5271 11.0947 33.1772 11.503 45.8378C11.9423 53.9417 14.8387 64.0876 13.3048 71.6719L120.705 70.8795L121.034 70.8817C119.616 61.2525 121.672 49.6211 121.741 39.4953C121.328 28.5219 119.967 17.0523 121.415 6.07628C83.8858 5.31789 47.8261 6.08524 12.2647 6.35086Z" fill="#2BAAE0"/>
<mask id="mask0_139_3878" style="mask-type:luminance" maskUnits="userSpaceOnUse" x="11" y="5" width="111" height="67">
<path d="M12.2636 6.35184C12.2603 6.85768 12.2532 7.87011 12.2532 7.87011C12.1676 20.5281 11.0936 33.1782 11.5019 45.8388C11.9412 53.9427 14.8376 64.0886 13.3037 71.6729L120.703 70.8805L121.033 70.8827C119.615 61.2534 121.671 49.6221 121.74 39.4963C121.327 28.5229 119.966 17.0533 121.414 6.07726C83.8847 5.31887 47.825 6.08622 12.2636 6.35184Z" fill="white"/>
</mask>
<g mask="url(#mask0_139_3878)">
<path d="M-31.8376 50.6984C-25.1203 45.8347 -18.598 40.706 -12.227 35.3973C-5.85896 30.0909 0.359264 24.6066 6.49343 19.0319C12.6291 13.4557 18.6814 7.78867 24.7244 2.11235C30.7779 -3.57368 36.8224 -9.26904 42.9327 -14.8942C49.0396 -20.5156 55.2126 -26.0668 61.519 -31.464C62.3147 -32.1451 63.113 -32.8235 63.9129 -33.4997C64.2805 -33.8105 63.75 -34.3369 63.3846 -34.0279C57.0416 -28.6669 50.8376 -23.1438 44.7102 -17.5384C38.6018 -11.9507 32.5677 -6.28257 26.5348 -0.61335C20.5131 5.04504 14.4918 10.7045 8.39681 16.2848C2.30561 21.8622 -3.85956 27.3607 -10.1656 32.6948C-16.5097 38.0606 -22.9965 43.2606 -29.6795 48.1991C-30.5215 48.8215 -31.3669 49.4391 -32.2149 50.0532C-32.6005 50.3327 -32.228 50.9812 -31.8376 50.6984Z" fill="white"/>
<path d="M-20.3532 56.9931C-13.6359 52.1293 -7.1136 47.0007 -0.742584 41.692C5.62544 36.3855 11.8437 30.9012 17.9778 25.3265C24.1135 19.7503 30.1658 14.0834 36.2089 8.40703C42.2623 2.721 48.3068 -2.97438 54.4171 -8.59951C60.524 -14.2209 66.697 -19.7721 73.0034 -25.1693C73.7991 -25.8504 74.5974 -26.5288 75.3973 -27.205C75.7649 -27.5158 75.2344 -28.0422 74.869 -27.7333C68.526 -22.3723 62.322 -16.8491 56.1946 -11.2438C50.0862 -5.656 44.0521 0.0120926 38.0192 5.68132C31.9975 11.3397 25.9758 16.9992 19.8812 22.5795C13.79 28.1568 7.62484 33.6553 1.31882 38.9894C-5.02492 44.3557 -11.5117 49.5553 -18.1947 54.4938C-19.0367 55.1162 -19.8821 55.7337 -20.7302 56.3479C-21.1161 56.6274 -20.7436 57.2759 -20.3532 56.9931Z" fill="white"/>
<path d="M-8.8558 63.287C-2.13847 58.4233 4.38384 53.2946 10.7549 47.9859C17.1229 42.6795 23.3411 37.1952 29.4753 31.6205C35.6109 26.0443 41.6633 20.3773 47.7063 14.701C53.7598 9.01494 59.8043 3.31957 65.9145 -2.30556C72.0214 -7.92697 78.1944 -13.4781 84.5008 -18.8754C85.2965 -19.5564 86.0949 -20.2349 86.8947 -20.9111C87.2623 -21.2219 86.7318 -21.7483 86.3665 -21.4393C80.0235 -16.0783 73.8194 -10.5552 67.692 -4.94984C61.5836 0.637943 55.5496 6.30605 49.5166 11.9753C43.4949 17.6337 37.4732 23.2932 31.3786 28.8735C25.2874 34.4508 19.1223 39.9493 12.8163 45.2834C6.47252 50.6496 -0.0143051 55.8493 -6.69726 60.7877C-7.5393 61.4101 -8.38471 62.0277 -9.23274 62.6419C-9.61864 62.9213 -9.24619 63.5699 -8.8558 63.287Z" fill="white"/>
<path d="M2.63612 69.5807C9.35344 64.717 15.8757 59.5883 22.2468 54.2796C28.6148 48.9732 34.833 43.4889 40.9672 37.9142C47.1028 32.338 53.1552 26.671 59.1982 20.9947C65.2517 15.3086 71.2962 9.61327 77.4064 3.98814C83.5133 -1.63327 89.6863 -7.18443 95.9927 -12.5817C96.7884 -13.2627 97.5868 -13.9412 98.3866 -14.6174C98.7542 -14.9282 98.2237 -15.4546 97.8584 -15.1456C91.5154 -9.78462 85.3114 -4.26146 79.1839 1.34388C73.0755 6.93166 67.0415 12.5998 61.0086 18.269C54.9868 23.9274 48.9651 29.5869 42.8706 35.1672C36.7794 40.7445 30.6142 46.243 24.3082 51.5771C17.9644 56.9433 11.4776 62.143 4.79465 67.0814C3.95261 67.7038 3.1072 68.3214 2.25918 68.9356C1.87327 69.215 2.24573 69.8636 2.63612 69.5807Z" fill="white"/>
<path d="M14.1286 75.8814C20.8459 71.0177 27.3682 65.889 33.7392 60.5803C40.1073 55.2739 46.3255 49.7896 52.4596 44.2149C58.5953 38.6387 64.6476 32.9717 70.6907 27.2954C76.7441 21.6093 82.7886 15.914 88.8989 10.2888C95.0058 4.66744 101.179 -0.883736 107.485 -6.28098C108.281 -6.96204 109.079 -7.64046 109.879 -8.31667C110.247 -8.62749 109.716 -9.15388 109.351 -8.84492C103.008 -3.48391 96.8038 2.03924 90.6764 7.64458C84.568 13.2324 78.534 18.9004 72.501 24.5697C66.4793 30.2281 60.458 35.8876 54.363 41.4679C48.2718 47.0452 42.1066 52.5437 35.8006 57.8778C29.4569 63.244 22.9701 68.444 16.2871 73.3821C15.4451 74.0045 14.5997 74.6221 13.7516 75.2363C13.3657 75.5153 13.7382 76.1639 14.1286 75.8814Z" fill="white"/>
<path d="M25.6134 82.1751C32.3307 77.3114 38.853 72.1827 45.224 66.874C51.592 61.5675 57.8103 56.0832 63.9444 50.5085C70.0801 44.9323 76.1324 39.2654 82.1755 33.5891C88.2289 27.903 94.2734 22.2076 100.384 16.5825C106.491 10.9611 112.664 5.40993 118.97 0.0126877C119.766 -0.668365 120.564 -1.34681 121.364 -2.023C121.731 -2.33383 121.201 -2.86022 120.836 -2.55126C114.493 2.80975 108.289 8.3329 102.161 13.9382C96.0528 19.526 90.0187 25.1941 83.9858 30.8633C77.9641 36.5217 71.9424 42.1812 65.8478 47.7615C59.7566 53.3389 53.5914 58.8373 47.2854 64.1715C40.9417 69.5377 34.4549 74.7377 27.7719 79.6758C26.9299 80.2982 26.0845 80.9157 25.2364 81.5299C24.8502 81.8094 25.2226 82.4576 25.6134 82.1751Z" fill="white"/>
<path d="M37.1055 88.4733C43.8228 83.6096 50.3451 78.4809 56.7162 73.1722C63.0842 67.8658 69.3024 62.3815 75.4366 56.8068C81.5722 51.2306 87.6246 45.5636 93.6676 39.8873C99.7211 34.2012 105.766 28.5058 111.876 22.8807C117.983 17.2593 124.156 11.7081 130.462 6.3109C131.258 5.62984 132.056 4.9514 132.856 4.27521C133.224 3.96438 132.693 3.43799 132.328 3.74695C125.985 9.10796 119.781 14.6311 113.653 20.2364C107.545 25.8242 101.511 31.4923 95.478 37.1616C89.4562 42.8199 83.4349 48.4794 77.34 54.0597C71.2487 59.6371 65.0836 65.1356 58.7776 70.4697C52.4338 75.8359 45.947 81.0359 39.264 85.974C38.422 86.5964 37.5766 87.214 36.7286 87.8281C36.3427 88.1076 36.7151 88.7561 37.1055 88.4733Z" fill="white"/>
<path d="M48.6026 94.7665C55.3199 89.9028 61.8422 84.7741 68.2133 79.4654C74.5813 74.159 80.7995 68.6747 86.9337 63.1C93.0693 57.5238 99.1217 51.8568 105.165 46.1805C111.218 40.4944 117.263 34.7991 123.373 29.1739C129.48 23.5525 135.653 18.0014 141.959 12.6041C142.755 11.9231 143.553 11.2446 144.353 10.5684C144.721 10.2576 144.19 9.73122 143.825 10.0402C137.482 15.4012 131.278 20.9243 125.15 26.5297C119.042 32.1174 113.008 37.7855 106.975 43.4548C100.953 49.1131 94.9316 54.7727 88.8371 60.353C82.7458 65.9303 76.5807 71.4288 70.2747 76.7629C63.9309 82.1291 57.4441 87.3291 50.7611 92.2672C49.9191 92.8896 49.0737 93.5072 48.2257 94.1213C47.8398 94.4008 48.2122 95.0493 48.6026 94.7665Z" fill="white"/>
<path d="M60.0872 101.061C66.8045 96.1972 73.3268 91.0686 79.6978 85.7599C86.0658 80.4534 92.2841 74.9691 98.4182 69.3944C104.554 63.8182 110.606 58.1512 116.649 52.4749C122.703 46.7889 128.747 41.0935 134.857 35.4684C140.964 29.847 147.137 24.2958 153.444 18.8985C154.24 18.2175 155.038 17.539 155.838 16.8629C156.205 16.552 155.675 16.0256 155.309 16.3346C148.966 21.6956 142.762 27.2188 136.635 32.8241C130.527 38.4119 124.493 44.08 118.46 49.7492C112.438 55.4076 106.417 61.0671 100.322 66.6474C94.2304 72.2247 88.0652 77.7232 81.7592 83.0573C75.4155 88.4236 68.9287 93.6236 62.2457 98.5617C61.4037 99.1841 60.5583 99.8016 59.7102 100.416C59.3243 100.695 59.6968 101.344 60.0872 101.061Z" fill="white"/>
<path d="M71.5795 107.355C78.2969 102.491 84.8192 97.3625 91.1902 92.0538C97.5582 86.7473 103.776 81.263 109.911 75.6883C116.046 70.1121 122.099 64.4452 128.142 58.7688C134.195 53.0828 140.24 47.3874 146.35 41.7623C152.457 36.1409 158.63 30.5897 164.936 25.1925C165.732 24.5114 166.53 23.833 167.33 23.1568C167.698 22.846 167.167 22.3196 166.802 22.6285C160.459 27.9895 154.255 33.5127 148.127 39.118C142.019 44.7058 135.985 50.3739 129.952 56.0431C123.93 61.7015 117.909 67.361 111.814 72.9413C105.723 78.5187 99.5576 84.0172 93.2516 89.3513C86.9078 94.7175 80.421 99.9175 73.7381 104.856C72.896 105.478 72.0506 106.096 71.2026 106.71C70.8167 106.989 71.1891 107.638 71.5795 107.355Z" fill="white"/>
</g>
<mask id="mask1_139_3878" style="mask-type:luminance" maskUnits="userSpaceOnUse" x="11" y="5" width="111" height="67">
<path d="M12.2636 6.35184C12.2603 6.85768 12.2532 7.87011 12.2532 7.87011C12.1676 20.5281 11.0936 33.1782 11.5019 45.8388C11.9412 53.9427 14.8376 64.0886 13.3037 71.6729L120.703 70.8805L121.033 70.8827C119.615 61.2534 121.671 49.6221 121.74 39.4963C121.327 28.5229 119.966 17.0533 121.414 6.07726C83.8847 5.31887 47.825 6.08622 12.2636 6.35184Z" fill="white"/>
</mask>
<g mask="url(#mask1_139_3878)">
<path d="M-32.2149 27.6161C-25.4785 32.4933 -18.9412 37.6395 -12.5556 42.9669C-6.21303 48.2584 -0.0183411 53.7259 6.09303 59.2823C12.2063 64.8402 18.237 70.4881 24.2591 76.1446C30.2912 81.8109 36.3152 87.4864 42.4042 93.0918C48.511 98.7132 54.6841 104.264 60.9904 109.662C61.7862 110.343 62.5845 111.021 63.3843 111.697C63.7493 112.006 64.2806 111.48 63.9126 111.169C57.5472 105.789 51.3222 100.246 45.1739 94.6205C39.0449 89.0126 32.9903 83.3243 26.9365 77.6356C20.8935 71.9574 14.8508 66.2785 8.73349 60.6806C2.61912 55.0854 -3.57033 49.5708 -9.90212 44.2225C-16.21 38.8944 -22.661 33.7325 -29.3021 28.825C-30.1441 28.2026 -30.9895 27.5851 -31.8376 26.9709C-32.2276 26.6885 -32.6008 27.3367 -32.2149 27.6161Z" fill="white"/>
<path d="M-20.7301 21.3221C-13.9937 26.1994 -7.45646 31.3456 -1.07087 36.673C5.27175 41.9648 11.4664 47.432 17.5778 52.9883C23.6911 58.5462 29.7217 64.1942 35.7438 69.8507C41.776 75.5169 47.8 81.1925 53.8889 86.7978C59.9958 92.4192 66.1688 97.9704 72.4752 103.368C73.271 104.049 74.0693 104.727 74.8691 105.403C75.2341 105.712 75.7653 105.186 75.3973 104.875C69.0319 99.4954 62.807 93.9524 56.6586 88.3266C50.5297 82.7186 44.4751 77.0303 38.4213 71.3413C32.3783 65.6631 26.3356 59.9842 20.2183 54.3863C14.1039 48.7911 7.91445 43.2765 1.58266 37.9282C-4.72522 32.6001 -11.1762 27.4382 -17.8173 22.5307C-18.6593 21.9083 -19.5047 21.2908 -20.3528 20.6766C-20.7432 20.3945 -21.1164 21.0423 -20.7301 21.3221Z" fill="white"/>
<path d="M-9.23265 15.0219C-2.49628 19.8991 4.04098 25.0453 10.4266 30.3727C16.7692 35.6645 22.9639 41.1317 29.0752 46.6881C35.1885 52.2459 41.2192 57.8939 47.2413 63.5504C53.2734 69.2166 59.2974 74.8922 65.3864 80.4975C71.4933 86.1189 77.6663 91.6701 83.9727 97.0673C84.7684 97.7484 85.5667 98.4268 86.3666 99.103C86.7315 99.4116 87.2628 98.8856 86.8948 98.5748C80.5294 93.1951 74.3044 87.6518 68.1561 82.0263C62.0271 76.4183 55.9726 70.73 49.9187 65.041C43.8757 59.3628 37.8331 53.6839 31.7157 48.086C25.6013 42.4908 19.4119 36.9762 13.0801 31.6279C6.77221 26.2998 0.321256 21.1379 -6.31986 16.2304C-7.1619 15.608 -8.00731 14.9905 -8.85534 14.3763C-9.24573 14.0942 -9.61893 14.742 -9.23265 15.0219Z" fill="white"/>
<path d="M2.25937 8.72743C8.99574 13.6046 15.533 18.7508 21.9186 24.0782C28.2612 29.3701 34.4559 34.8372 40.5673 40.3936C46.6805 45.9515 52.7112 51.5994 58.7333 57.256C64.7655 62.9222 70.7894 68.5978 76.8784 74.2031C82.9853 79.8245 89.1583 85.3757 95.4647 90.7729C96.2604 91.454 97.0587 92.1324 97.8586 92.8086C98.2236 93.1172 98.7548 92.5912 98.3868 92.2804C92.0214 86.9007 85.7965 81.3573 79.6481 75.7318C73.5192 70.1239 67.4646 64.4356 61.4107 58.7466C55.3677 53.0684 49.3251 47.3895 43.2077 41.7916C37.0934 36.1963 30.9039 30.6818 24.5721 25.3335C18.2642 20.0053 11.8133 14.8435 5.17216 9.93599C4.33012 9.31358 3.48471 8.69605 2.63668 8.08187C2.24629 7.79981 1.87309 8.44761 2.25937 8.72743Z" fill="white"/>
<path d="M13.7517 2.42982C20.4881 7.30704 27.0254 12.4532 33.4109 17.7806C39.7536 23.0725 45.9482 28.5396 52.0596 34.096C58.1729 39.6539 64.2036 45.3018 70.2256 50.9583C76.2578 56.6246 82.2818 62.3002 88.3708 67.9055C94.4776 73.5269 100.651 79.0781 106.957 84.4753C107.753 85.1564 108.551 85.8348 109.351 86.511C109.716 86.8196 110.247 86.2936 109.879 85.9827C103.514 80.6031 97.2888 75.0597 91.1405 69.4342C85.0115 63.8263 78.9569 58.1376 72.9031 52.449C66.8601 46.7708 60.8174 41.0919 54.7001 35.494C48.5857 29.8987 42.3963 24.3842 36.0645 19.0359C29.7566 13.7077 23.3056 8.54585 16.6645 3.63838C15.8225 3.01598 14.9771 2.39845 14.129 1.78426C13.7386 1.50258 13.3654 2.15038 13.7517 2.42982Z" fill="white"/>
<path d="M25.2362 -3.86414C31.9726 1.01308 38.5098 6.15965 44.8954 11.4867C51.238 16.7786 57.4327 22.2457 63.5441 27.8021C69.6574 33.3603 75.688 39.0079 81.7101 44.6644C87.7423 50.3306 93.7663 56.0062 99.8552 61.6115C105.962 67.2329 112.135 72.7841 118.442 78.1814C119.237 78.8624 120.036 79.5409 120.835 80.2171C121.2 80.5256 121.732 79.9996 121.364 79.6888C114.998 74.3091 108.773 68.7658 102.625 63.1403C96.496 57.5323 90.4414 51.8437 84.3876 46.155C78.3446 40.4768 72.3019 34.7979 66.1846 29.2C60.0702 23.6048 53.8807 18.0902 47.549 12.7419C41.2411 7.4138 34.7901 2.25191 28.149 -2.65556C27.307 -3.27797 26.4615 -3.89552 25.6135 -4.5097C25.2235 -4.79176 24.8499 -4.14358 25.2362 -3.86414Z" fill="white"/>
<path d="M36.7286 -10.1595C43.465 -5.28232 50.0022 -0.13575 56.3878 5.19126C62.7304 10.4832 68.9251 15.9503 75.0365 21.5067C81.1497 27.0646 87.1804 32.7125 93.2025 38.369C99.2347 44.0352 105.259 49.7108 111.348 55.3161C117.454 60.9375 123.628 66.4887 129.934 71.886C130.73 72.567 131.528 73.2454 132.328 73.9216C132.693 74.2302 133.224 73.7042 132.856 73.3934C126.491 68.0137 120.266 62.4704 114.117 56.8449C107.988 51.2369 101.934 45.5483 95.8799 39.8596C89.8369 34.1814 83.7943 28.5025 77.6769 22.9046C71.5626 17.3094 65.3731 11.7948 59.0413 6.44653C52.7335 1.11839 46.2825 -4.0435 39.6414 -8.95097C38.7993 -9.57338 37.9539 -10.1909 37.1059 -10.8051C36.7159 -11.0872 36.3423 -10.4394 36.7286 -10.1595Z" fill="white"/>
<path d="M48.2255 -16.4539C54.9619 -11.5763 61.4992 -6.43007 67.8847 -1.10268C74.2274 4.18922 80.422 9.65632 86.5334 15.2127C92.6467 20.7706 98.6773 26.4185 104.699 32.0751C110.732 37.7413 116.756 43.4169 122.845 49.0222C128.951 54.6436 135.124 60.1948 141.431 65.592C142.227 66.2731 143.025 66.9515 143.825 67.6277C144.19 67.9363 144.721 67.4103 144.353 67.0994C137.988 61.7198 131.763 56.1764 125.614 50.5509C119.485 44.943 113.431 39.2543 107.377 33.5657C101.334 27.8875 95.2912 22.2085 89.1739 16.6107C83.0595 11.0154 76.8701 5.50089 70.5383 0.152573C64.2304 -5.17556 57.7794 -10.3374 51.1383 -15.2449C50.2963 -15.8673 49.4509 -16.4849 48.6028 -17.099C48.2128 -17.3815 47.8396 -16.7337 48.2255 -16.4539Z" fill="white"/>
<path d="M59.7103 -22.7542C66.4467 -17.8766 72.9839 -12.7304 79.3695 -7.40298C85.7121 -2.11108 91.9068 3.35603 98.0182 8.91242C104.131 14.4707 110.162 20.1182 116.184 25.7748C122.216 31.441 128.24 37.1166 134.329 42.7219C140.436 48.3433 146.609 53.8945 152.916 59.2917C153.711 59.9728 154.51 60.6512 155.31 61.3274C155.675 61.636 156.206 61.11 155.838 60.7992C149.472 55.4195 143.247 49.8761 137.099 44.2506C130.97 38.6427 124.916 32.954 118.862 27.2654C112.819 21.5872 106.776 15.9083 100.659 10.3104C94.5443 4.71515 88.3548 -0.799404 82.0231 -6.14771C75.7152 -11.4758 69.2642 -16.6377 62.6231 -21.5452C61.7811 -22.1676 60.9357 -22.7851 60.0876 -23.3993C59.6972 -23.6818 59.324 -23.034 59.7103 -22.7542Z" fill="white"/>
<path d="M71.2027 -29.0485C77.9391 -24.1709 84.4763 -19.0247 90.8619 -13.6973C97.2045 -8.40539 103.399 -2.93829 109.511 2.61848C115.624 8.17674 121.655 13.8243 127.677 19.4808C133.709 25.147 139.733 30.8226 145.822 36.428C151.929 42.0494 158.102 47.6005 164.408 52.9978C165.204 53.6788 166.002 54.3573 166.802 55.0335C167.167 55.342 167.698 54.816 167.33 54.5052C160.965 49.1255 154.74 43.5822 148.591 37.9567C142.462 32.3487 136.408 26.6601 130.354 20.9714C124.311 15.2933 118.268 9.61432 112.151 4.01645C106.037 -1.5788 99.8472 -7.09336 93.5154 -12.4417C87.2075 -17.7698 80.7566 -22.9317 74.1155 -27.8391C73.2734 -28.4615 72.428 -29.0791 71.58 -29.6933C71.1896 -29.9761 70.8164 -29.3279 71.2027 -29.0485Z" fill="white"/>
</g>
<path d="M24.3885 13.5971C24.3859 13.9897 24.3806 14.7761 24.3806 14.7761C24.3138 24.6083 23.4796 34.4352 23.7971 44.2699C24.1382 50.5653 26.3882 58.4461 25.1965 64.3376L108.624 63.7223L108.88 63.7242C107.779 56.2446 109.376 47.2089 109.429 39.3438C109.109 30.8192 108.051 21.9102 109.176 13.3838C80.0233 12.7942 52.0128 13.3901 24.3885 13.5971Z" fill="white"/>
<path d="M29.5649 16.6192C29.5627 16.9655 29.5578 17.657 29.5578 17.657C29.4992 26.3101 28.7729 34.9583 29.0483 43.6132C29.3445 49.1528 31.2991 56.0885 30.2631 61.2732L102.77 60.7255L102.993 60.727C102.036 54.1444 103.425 46.1929 103.472 39.271C103.194 31.769 102.275 23.9296 103.253 16.4253C77.9169 15.909 53.573 16.4353 29.5649 16.6192Z" fill="#2BAAE0"/>
<path d="M36.3601 47.1578C36.18 42.7547 29.6835 44.6458 27.7681 46.448C27.6781 46.5328 27.7928 46.6722 27.8966 46.615C29.6543 45.6422 31.7714 44.6761 33.8261 45.0661C35.0795 45.3037 35.8098 46.8074 35.2446 47.9375C35.0653 48.2965 34.7186 48.5177 34.3513 48.638C33.6785 48.858 34.0308 48.1501 34.0906 47.7911C34.1709 47.3088 33.5403 46.7532 33.1537 47.2456C32.4793 48.1049 32.4909 49.8215 33.9464 49.8215C35.4082 49.8215 36.418 48.5599 36.3601 47.1578Z" fill="white"/>
<path d="M38.6035 62.5515C36.9179 61.8772 35.5734 60.3126 34.741 58.7491C34.0421 57.4367 33.4847 55.0461 35.4045 54.5537C36.7939 54.1977 38.6819 55.0457 40.0533 55.3782C41.5028 55.7297 42.934 56.1474 44.4388 55.9434C45.4803 55.8022 46.3683 55.0438 46.4733 53.9686C46.6522 52.1373 45.6223 50.5006 44.0536 49.6414C42.7293 48.9166 40.4785 49.3929 40.3582 51.1891C40.285 52.2864 41.3519 54.2257 42.6512 53.2454C43.185 52.8426 42.7386 52.0166 42.1181 52.3331C41.8999 52.1433 41.6821 51.9531 41.464 51.763C41.7796 50.5432 42.3796 50.1098 43.2642 50.4621C43.9109 50.6303 44.4675 51.2089 44.8415 51.7271C45.2913 52.3503 45.573 53.5902 45.224 54.3079C44.7515 55.2807 42.7162 55.0846 41.86 54.9908C39.704 54.7543 37.2866 53.3926 35.1165 53.8913C35.7901 53.3406 36.6194 53.0354 37.5638 52.6211C38.5863 52.1728 39.5759 51.4465 39.3379 50.1801C38.8474 47.5702 34.354 49.1094 36.3911 51.3976C36.8734 51.9389 37.6875 51.1309 37.188 50.6004C36.5081 49.8782 37.59 49.5057 38.2011 49.7841C39.4149 50.337 38.3521 51.7032 37.6538 52.0775C36.5103 52.6906 34.5221 53.1385 34.0354 54.4842C33.2045 55.4047 33.4324 57.0825 33.8762 58.1809C33.8997 58.2391 33.9259 58.2959 33.9506 58.3535C33.1317 58.232 32.7301 57.3717 33.0491 56.6503C33.2452 56.2072 32.6109 55.9423 32.4398 56.3932C32.2302 56.945 32.2399 57.5461 32.5597 58.0531C32.8993 58.5929 33.4145 58.6583 33.9924 58.6288C34.0208 58.6273 34.0428 58.618 34.0619 58.606C34.9566 60.5367 36.498 62.1002 38.5568 62.7218C38.6681 62.7562 38.7066 62.593 38.6035 62.5515Z" fill="white"/>
<path d="M44.8492 62.6774C42.7336 62.6068 41.6125 59.6192 43.4666 58.3808C43.9212 58.0767 44.3781 58.3131 44.6292 58.7353C44.6385 58.751 44.6449 58.7663 44.6512 58.7816C44.5321 58.7551 44.4293 58.7592 44.2892 58.7753C44.1204 58.7939 43.9545 58.9415 44.0188 59.1302C44.3045 59.9651 45.6752 59.9958 45.6225 58.9707C45.5781 58.1054 44.6938 57.3822 43.8562 57.4229C42.5106 57.4883 41.6122 59.2254 41.8288 60.4187C42.0911 61.8604 43.3183 63.1362 44.8485 63.0428C45.0835 63.029 45.0861 62.6853 44.8492 62.6774Z" fill="white"/>
<path d="M55.7781 62.4888C55.6298 62.6617 55.82 62.9502 56.0322 62.8179C59.8681 60.4269 56.2881 52.5759 52.0169 53.35C50.548 53.6164 48.1325 55.0226 48.4362 56.6843C47.3797 56.5999 46.3546 57.3609 46.5108 58.5022C46.6269 59.3487 47.2 60.5498 48.162 60.6399C48.6891 60.6896 48.9902 60.1434 49.0727 59.7059C49.1329 59.3846 48.964 58.8552 48.5314 59.0159C48.1463 59.159 48.2464 59.5654 48.1407 59.7907C48.1168 59.8411 48.1422 59.8381 48.082 59.8254C47.9397 59.7948 47.7514 59.6693 47.6106 59.5598C47.2288 59.2617 46.9531 58.7458 46.906 58.2694C46.807 57.2749 47.7566 57.1393 48.512 56.9649C48.6095 57.2312 48.7776 57.5021 49.0354 57.7748C50.4983 59.326 53.1182 58.1764 52.358 55.989C52.1085 55.2721 50.9664 55.5774 51.2141 56.3047C51.8081 58.0498 48.886 57.3773 49.7209 55.6812C50.0336 55.0461 50.9455 54.6863 51.563 54.4682C52.9102 53.9915 54.0574 54.587 55.0033 55.528C56.7505 57.2652 57.4839 60.502 55.7781 62.4888Z" fill="white"/>
<path d="M29.1249 40.5262C28.764 40.7616 29.0999 41.3429 29.4637 41.1057C32.8846 38.8735 38.2701 39.9924 39.3834 43.9162C38.5421 42.2399 37.2446 40.9286 35.2273 40.518C32.6731 39.9987 29.9539 41.2147 27.7819 42.4282C27.4042 42.6396 27.7426 43.2194 28.1211 43.008C30.0742 41.9163 32.1931 41.025 34.4701 41.1012C37.2872 41.195 38.7856 43.6124 39.4891 46.0524C39.5575 46.2892 39.8735 46.3871 40.0502 46.2007C44.1603 41.8648 49.8421 48.3996 49.6598 52.7893C49.6493 53.0415 49.9538 53.2111 50.1652 53.0792C54.3915 50.4387 59.0134 53.8197 59.0594 58.4966C59.062 58.7533 59.3418 58.9121 59.5648 58.7865C64.1778 56.1852 63.072 63.4415 61.9692 63.4205C61.5359 63.4123 61.537 64.0837 61.9692 64.0919C63.9951 64.13 64.5181 57.5967 61.2572 57.5761C63.0156 57.2645 65.0333 59.258 63.9174 61.1252C63.6948 61.4977 64.2753 61.8354 64.4968 61.4644C65.3217 60.0851 64.8151 58.4118 63.5405 57.4924C62.2471 56.5592 60.7439 56.6447 59.6792 57.7035C59.1588 53.1233 54.5992 49.9881 50.324 52.2177C50.0677 47.5396 44.5417 41.7639 40.2553 45.1143C40.005 39.7327 33.3037 37.7986 29.1249 40.5262Z" fill="white"/>
<path d="M36.36 30.4286C36.18 34.8317 29.6834 32.9406 27.7681 31.138C27.6781 31.0536 27.7927 30.9138 27.8966 30.9714C29.6543 31.9446 31.7714 32.9107 33.8261 32.5207C35.0794 32.2827 35.8098 30.779 35.2445 29.6492C35.0652 29.2898 34.7185 29.0687 34.3513 28.9488C33.6785 28.7287 34.0308 29.437 34.0905 29.7957C34.1709 30.2784 33.5403 30.8339 33.1536 30.3411C32.4793 29.4819 32.4909 27.7649 33.9463 27.7645C35.4082 27.7641 36.4179 29.0261 36.36 30.4286Z" fill="white"/>
<path d="M38.6034 15.0346C36.9178 15.7093 35.5733 17.2739 34.741 18.8373C34.042 20.1498 33.4846 22.5404 35.4045 23.0327C36.7938 23.3888 38.6819 22.5407 40.0533 22.2082C41.5028 21.8571 42.9339 21.439 44.4387 21.6434C45.4803 21.7842 46.3683 22.543 46.4732 23.6178C46.6522 25.4495 45.6222 27.0858 44.0536 27.9454C42.7292 28.6698 40.4784 28.1939 40.3581 26.3977C40.2849 25.3001 41.3518 23.3608 42.6511 24.3411C43.185 24.7438 42.7386 25.5702 42.118 25.2526C41.8999 25.4431 41.6821 25.6337 41.4639 25.8231C41.7796 27.0429 42.3796 27.4766 43.2642 27.1239C43.9109 26.9562 44.4675 26.3775 44.8414 25.8582C45.2912 25.2358 45.5729 23.9959 45.224 23.2786C44.7514 22.3057 42.7161 22.5015 41.8599 22.5953C39.704 22.8318 37.2866 24.1935 35.1164 23.6948C35.79 24.2454 36.6193 24.551 37.5637 24.965C38.5862 25.4129 39.5758 26.1399 39.3379 27.406C38.8474 30.0159 34.354 28.4759 36.3911 26.1888C36.8734 25.6471 37.6874 26.4552 37.1879 26.985C36.508 27.7082 37.5899 28.0803 38.2011 27.8016C39.4148 27.2487 38.352 25.8821 37.6538 25.5078C36.5103 24.8947 34.5221 24.4472 34.0353 23.1011C33.2045 22.1806 33.4323 20.5032 33.8761 19.4041C33.8997 19.3465 33.9258 19.2898 33.9505 19.2322C33.1316 19.3536 32.73 20.214 33.049 20.9354C33.2452 21.3789 32.6108 21.6437 32.4397 21.1924C32.2302 20.6407 32.2399 20.0399 32.5597 19.533C32.8992 18.9931 33.4144 18.9277 33.9923 18.9569C34.0207 18.9588 34.0428 18.9677 34.0618 18.9797C34.9565 17.0493 36.4979 15.4859 38.5567 14.8642C38.668 14.8302 38.7065 14.9939 38.6034 15.0346Z" fill="white"/>
<path d="M44.8492 14.9095C42.7336 14.9801 41.6125 17.9677 43.4666 19.2062C43.9212 19.5099 44.3781 19.273 44.6291 18.8516C44.6385 18.8356 44.6448 18.8202 44.6512 18.8045C44.532 18.8314 44.4293 18.827 44.2892 18.8116C44.1203 18.7922 43.9545 18.645 44.0187 18.4567C44.3045 17.6214 45.6752 17.5908 45.6225 18.6163C45.578 19.4811 44.6938 20.2044 43.8562 20.164C42.5106 20.099 41.6121 18.3615 41.8288 17.1682C42.091 15.7262 43.3182 14.4507 44.8484 14.5438C45.0834 14.5576 45.086 14.9017 44.8492 14.9095Z" fill="white"/>
<path d="M55.7781 15.098C55.6298 14.9246 55.8199 14.6362 56.0321 14.7685C59.868 17.1594 56.288 25.0104 52.0169 24.2363C50.548 23.9703 48.1324 22.5634 48.4361 20.9024C47.3796 20.9872 46.3545 20.2251 46.5107 19.0849C46.6269 18.238 47.2 17.0369 48.1619 16.9465C48.689 16.8968 48.9901 17.443 49.0727 17.8808C49.1328 18.2018 48.964 18.7311 48.5314 18.5705C48.1462 18.4278 48.2463 18.0213 48.1406 17.7957C48.1167 17.7456 48.1421 17.749 48.082 17.7613C47.9396 17.7919 47.7514 17.9178 47.6105 18.0273C47.2287 18.3254 46.953 18.841 46.906 19.3177C46.807 20.3125 47.7566 20.4478 48.512 20.6219C48.6095 20.3562 48.7776 20.0846 49.0353 19.8119C50.4983 18.2608 53.1182 19.4103 52.358 21.5969C52.1084 22.3146 50.9664 22.009 51.2141 21.2816C51.8081 19.537 48.8859 20.2094 49.7209 21.9051C50.0335 22.5403 50.9455 22.8996 51.563 23.1182C52.9101 23.5949 54.0574 22.9998 55.0033 22.0583C56.7505 20.3215 57.4838 17.0843 55.7781 15.098Z" fill="white"/>
<path d="M29.1248 37.06C28.764 36.8243 29.0998 36.2434 29.4637 36.4806C32.8845 38.7128 38.2701 37.5935 39.3833 33.6701C38.542 35.3464 37.2446 36.6573 35.2273 37.0679C32.6731 37.5879 29.9538 36.3715 27.7818 35.1581C27.4041 34.947 27.7426 34.3664 28.121 34.5786C30.0741 35.6695 32.193 36.5613 34.47 36.4854C37.2872 36.3917 38.7856 33.9742 39.489 31.5339C39.5574 31.297 39.8735 31.1992 40.0502 31.3856C44.1603 35.7218 49.842 29.1866 49.6597 24.7969C49.6493 24.5448 49.9537 24.3752 50.1652 24.5074C54.3915 27.1476 59.0134 23.7666 59.0593 19.09C59.062 18.833 59.3418 18.6746 59.5648 18.8005C64.1778 21.4014 63.072 14.1455 61.9692 14.1668C61.5358 14.1747 61.5369 13.5033 61.9692 13.4951C63.9951 13.4563 64.5181 19.99 61.2571 20.0105C63.0156 20.3225 65.0332 18.329 63.9174 16.4618C63.6947 16.0889 64.2753 15.752 64.4968 16.1233C65.3217 17.5019 64.8151 19.1752 63.5404 20.0949C62.2471 21.0282 60.7438 20.9422 59.6791 19.8839C59.1587 24.4641 54.5992 27.5989 50.324 25.37C50.0677 30.0485 44.5417 35.8238 40.2553 32.4735C40.005 37.8532 33.3037 39.7872 29.1248 37.06Z" fill="white"/>
<path d="M97.6678 47.1578C97.8479 42.7547 104.344 44.6458 106.26 46.448C106.35 46.5328 106.235 46.6722 106.131 46.615C104.373 45.6422 102.257 44.6761 100.201 45.0661C98.9481 45.3037 98.2181 46.8074 98.783 47.9375C98.9623 48.2965 99.309 48.5177 99.6762 48.638C100.349 48.858 99.9967 48.1501 99.937 47.7911C99.8566 47.3088 100.487 46.7532 100.874 47.2456C101.548 48.1049 101.537 49.8215 100.081 49.8215C98.6201 49.8215 97.6103 48.5599 97.6678 47.1578Z" fill="white"/>
<path d="M95.4193 62.5515C97.1049 61.8772 98.4494 60.3126 99.2818 58.7491C99.9807 57.4367 100.538 55.0461 98.6179 54.5537C97.2286 54.1977 95.3405 55.0457 93.9695 55.3782C92.52 55.7297 91.0888 56.1474 89.584 55.9434C88.5425 55.8022 87.6549 55.0438 87.5495 53.9686C87.3706 52.1373 88.4002 50.5006 89.9692 49.6414C91.2935 48.9166 93.5443 49.3929 93.6646 51.1891C93.7379 52.2864 92.6709 54.2257 91.372 53.2454C90.8381 52.8426 91.2846 52.0166 91.9051 52.3331C92.1232 52.1433 92.341 51.9531 92.5592 51.763C92.2435 50.5432 91.6436 50.1098 90.7589 50.4621C90.1123 50.6303 89.5556 51.2089 89.1813 51.7271C88.7315 52.3503 88.4502 53.5902 88.7988 54.3079C89.2713 55.2807 91.3066 55.0846 92.1628 54.9908C94.3188 54.7543 96.7362 53.3926 98.9059 53.8913C98.2324 53.3406 97.4034 53.0354 96.459 52.6211C95.4365 52.1728 94.4469 51.4465 94.6849 50.1801C95.1754 47.5702 99.6688 49.1094 97.6317 51.3976C97.1497 51.9389 96.3357 51.1309 96.8348 50.6004C97.5147 49.8782 96.4325 49.5057 95.8217 49.7841C94.6079 50.337 95.6711 51.7032 96.369 52.0775C97.5125 52.6906 99.5007 53.1385 99.9878 54.4842C100.818 55.4047 100.59 57.0825 100.147 58.1809C100.123 58.2391 100.097 58.2959 100.072 58.3535C100.891 58.232 101.293 57.3717 100.974 56.6503C100.778 56.2072 101.412 55.9423 101.583 56.3932C101.792 56.945 101.783 57.5461 101.463 58.0531C101.124 58.5929 100.608 58.6583 100.031 58.6288C100.002 58.6273 99.9807 58.618 99.9613 58.606C99.0666 60.5367 97.5256 62.1002 95.4668 62.7218C95.3547 62.7562 95.3166 62.593 95.4193 62.5515Z" fill="white"/>
<path d="M89.1729 62.6774C91.2885 62.6068 92.4096 59.6192 90.5556 58.3808C90.1013 58.0767 89.644 58.3131 89.393 58.7353C89.384 58.751 89.3777 58.7663 89.3709 58.7816C89.4901 58.7551 89.5928 58.7592 89.7329 58.7753C89.9018 58.7939 90.0677 58.9415 90.0034 59.1302C89.7176 59.9651 88.347 59.9958 88.3993 58.9707C88.4441 58.1054 89.3283 57.3822 90.1655 57.4229C91.5115 57.4883 92.41 59.2254 92.1929 60.4187C91.9307 61.8604 90.7035 63.1362 89.1733 63.0428C88.9383 63.029 88.9357 62.6853 89.1729 62.6774Z" fill="white"/>
<path d="M78.2474 62.4888C78.3957 62.6617 78.206 62.9502 77.9934 62.8179C74.1579 60.4269 77.7375 52.5759 82.0086 53.35C83.4775 53.6164 85.8931 55.0226 85.5894 56.6843C86.6459 56.5999 87.671 57.3609 87.5144 58.5022C87.3982 59.3487 86.8252 60.5498 85.8636 60.6399C85.3365 60.6896 85.0354 60.1434 84.9532 59.7059C84.8927 59.3846 85.0615 58.8552 85.4941 59.0159C85.8793 59.159 85.7792 59.5654 85.8849 59.7907C85.9084 59.8411 85.8834 59.8381 85.9435 59.8254C86.0859 59.7948 86.2742 59.6693 86.415 59.5598C86.7964 59.2617 87.0721 58.7458 87.1196 58.2694C87.2186 57.2749 86.2693 57.1393 85.5139 56.9649C85.4164 57.2312 85.2479 57.5021 84.9905 57.7748C83.5272 59.326 80.9077 58.1764 81.6675 55.989C81.9171 55.2721 83.0591 55.5774 82.8115 56.3047C82.2175 58.0498 85.1396 57.3773 84.3046 55.6812C83.992 55.0461 83.0804 54.6863 82.4625 54.4682C81.1154 53.9915 79.9685 54.587 79.0219 55.528C77.2754 57.2652 76.5417 60.502 78.2474 62.4888Z" fill="white"/>
<path d="M104.903 40.5262C105.263 40.7616 104.928 41.3429 104.564 41.1057C101.143 38.8735 95.7573 39.9924 94.644 43.9162C95.4853 42.2399 96.7828 40.9286 98.8001 40.518C101.354 39.9987 104.074 41.2147 106.246 42.4282C106.623 42.6396 106.285 43.2194 105.906 43.008C103.953 41.9163 101.834 41.025 99.5573 41.1012C96.7402 41.195 95.2418 43.6124 94.5383 46.0524C94.4696 46.2892 94.1539 46.3871 93.9772 46.2007C89.8671 41.8648 84.1857 48.3996 84.3676 52.7893C84.3781 53.0415 84.0736 53.2111 83.8622 53.0792C79.6359 50.4387 75.014 53.8197 74.968 58.4966C74.9654 58.7533 74.6856 58.9121 74.4629 58.7865C69.8496 56.1852 70.9554 63.4415 72.0586 63.4205C72.4919 63.4123 72.4912 64.0837 72.0586 64.0919C70.0327 64.13 69.5096 57.5967 72.771 57.5761C71.0129 57.2645 68.9949 59.258 70.1107 61.1252C70.3334 61.4977 69.7528 61.8354 69.5313 61.4644C68.7068 60.0851 69.2134 58.4118 70.4877 57.4924C71.781 56.5592 73.2843 56.6447 74.349 57.7035C74.8694 53.1233 79.4289 49.9881 83.7041 52.2177C83.96 47.5396 89.486 41.7639 93.7728 45.1143C94.0224 39.7327 100.723 37.7986 104.903 40.5262Z" fill="white"/>
<path d="M97.6678 30.4286C97.8479 34.8317 104.344 32.9406 106.26 31.138C106.35 31.0536 106.235 30.9138 106.131 30.9714C104.373 31.9446 102.257 32.9107 100.201 32.5207C98.9481 32.2827 98.2181 30.779 98.783 29.6492C98.9623 29.2898 99.309 29.0687 99.6762 28.9488C100.349 28.7287 99.9967 29.437 99.937 29.7957C99.8566 30.2784 100.487 30.8339 100.874 30.3411C101.548 29.4819 101.537 27.7649 100.081 27.7645C98.6201 27.7641 97.6103 29.0261 97.6678 30.4286Z" fill="white"/>
<path d="M95.4193 15.0346C97.1049 15.7093 98.4494 17.2739 99.2818 18.8373C99.9807 20.1498 100.538 22.5404 98.6179 23.0327C97.2286 23.3888 95.3405 22.5407 93.9695 22.2082C92.52 21.8571 91.0888 21.439 89.584 21.6434C88.5425 21.7842 87.6549 22.543 87.5495 23.6178C87.3706 25.4495 88.4002 27.0858 89.9692 27.9454C91.2935 28.6698 93.5443 28.1939 93.6646 26.3977C93.7379 25.3001 92.6709 23.3608 91.372 24.3411C90.8381 24.7438 91.2846 25.5702 91.9051 25.2526C92.1232 25.4431 92.341 25.6337 92.5592 25.8231C92.2435 27.0429 91.6436 27.4766 90.7589 27.1239C90.1123 26.9562 89.5556 26.3775 89.1813 25.8582C88.7315 25.2358 88.4502 23.9959 88.7988 23.2786C89.2713 22.3057 91.3066 22.5015 92.1628 22.5953C94.3188 22.8318 96.7362 24.1935 98.9059 23.6948C98.2324 24.2454 97.4034 24.551 96.459 24.965C95.4365 25.4129 94.4469 26.1399 94.6849 27.406C95.1754 30.0159 99.6688 28.4759 97.6317 26.1888C97.1497 25.6471 96.3357 26.4552 96.8348 26.985C97.5147 27.7082 96.4325 28.0803 95.8217 27.8016C94.6079 27.2487 95.6711 25.8821 96.369 25.5078C97.5125 24.8947 99.5007 24.4472 99.9878 23.1011C100.818 22.1806 100.59 20.5032 100.147 19.4041C100.123 19.3465 100.097 19.2898 100.072 19.2322C100.891 19.3536 101.293 20.214 100.974 20.9354C100.778 21.3789 101.412 21.6437 101.583 21.1924C101.792 20.6407 101.783 20.0399 101.463 19.533C101.124 18.9931 100.608 18.9277 100.031 18.9569C100.002 18.9588 99.9807 18.9677 99.9613 18.9797C99.0666 17.0493 97.5256 15.4859 95.4668 14.8642C95.3547 14.8302 95.3166 14.9939 95.4193 15.0346Z" fill="white"/>
<path d="M89.1729 14.9095C91.2885 14.9801 92.4096 17.9677 90.5556 19.2062C90.1013 19.5099 89.644 19.273 89.393 18.8516C89.384 18.8356 89.3777 18.8202 89.3709 18.8045C89.4901 18.8314 89.5928 18.827 89.7329 18.8116C89.9018 18.7922 90.0677 18.645 90.0034 18.4567C89.7176 17.6214 88.347 17.5908 88.3993 18.6163C88.4441 19.4811 89.3283 20.2044 90.1655 20.164C91.5115 20.099 92.41 18.3615 92.1929 17.1682C91.9307 15.7262 90.7035 14.4507 89.1733 14.5438C88.9383 14.5576 88.9357 14.9017 89.1729 14.9095Z" fill="white"/>
<path d="M78.2474 15.098C78.3957 14.9246 78.206 14.6362 77.9934 14.7685C74.1579 17.1594 77.7375 25.0104 82.0086 24.2363C83.4775 23.9703 85.8931 22.5634 85.5894 20.9024C86.6459 20.9872 87.671 20.2251 87.5144 19.0849C87.3982 18.238 86.8252 17.0369 85.8636 16.9465C85.3365 16.8968 85.0354 17.443 84.9532 17.8808C84.8927 18.2018 85.0615 18.7311 85.4941 18.5705C85.8793 18.4278 85.7792 18.0213 85.8849 17.7957C85.9084 17.7456 85.8834 17.749 85.9435 17.7613C86.0859 17.7919 86.2742 17.9178 86.415 18.0273C86.7964 18.3254 87.0721 18.841 87.1196 19.3177C87.2186 20.3125 86.2693 20.4478 85.5139 20.6219C85.4164 20.3562 85.2479 20.0846 84.9905 19.8119C83.5272 18.2608 80.9077 19.4103 81.6675 21.5969C81.9171 22.3146 83.0591 22.009 82.8115 21.2816C82.2175 19.537 85.1396 20.2094 84.3046 21.9051C83.992 22.5403 83.0804 22.8996 82.4625 23.1182C81.1154 23.5949 79.9685 22.9998 79.0219 22.0583C77.2754 20.3215 76.5417 17.0843 78.2474 15.098Z" fill="white"/>
<path d="M104.903 37.0598C105.263 36.824 104.928 36.2431 104.564 36.4803C101.143 38.7125 95.7573 37.5933 94.644 33.6698C95.4853 35.3461 96.7828 36.657 98.8001 37.0676C101.354 37.5877 104.074 36.3713 106.246 35.1578C106.623 34.9468 106.285 34.3662 105.906 34.5784C103.953 35.6693 101.834 36.561 99.5573 36.4852C96.7402 36.3914 95.2418 33.9739 94.5383 31.5336C94.4696 31.2968 94.1539 31.1989 93.9772 31.3853C89.8671 35.7216 84.1857 29.1864 84.3676 24.7967C84.3781 24.5445 84.0736 24.3749 83.8622 24.5072C79.6359 27.1473 75.014 23.7663 74.968 19.0897C74.9654 18.8327 74.6856 18.6743 74.4629 18.8002C69.8496 21.4011 70.9554 14.1453 72.0586 14.1666C72.4919 14.1744 72.4912 13.5031 72.0586 13.4949C70.0327 13.456 69.5096 19.9897 72.771 20.0103C71.0129 20.3222 68.9949 18.3287 70.1107 16.4615C70.3334 16.0887 69.7528 15.7517 69.5313 16.1231C68.7068 17.5016 69.2134 19.1749 70.4877 20.0947C71.781 21.0279 73.2843 20.942 74.349 19.8836C74.8694 24.4638 79.4289 27.5986 83.7041 25.3698C83.96 30.0482 89.486 35.8236 93.7728 32.4732C94.0224 37.8529 100.723 39.787 104.903 37.0598Z" fill="white"/>
<path d="M26.8699 62.2432C27.6776 62.2432 28.4849 62.2432 29.2922 62.2432C29.7386 62.2432 29.7386 61.5509 29.2922 61.5509C28.4849 61.5509 27.6776 61.5509 26.8699 61.5509C26.4239 61.5513 26.4239 62.2432 26.8699 62.2432Z" fill="#2BAAE0"/>
<path d="M26.8114 60.0571C27.6191 60.0571 28.4261 60.0571 29.2337 60.0571C29.6802 60.0571 29.6802 59.3652 29.2337 59.3652C28.4261 59.3652 27.6187 59.3652 26.8114 59.3652C26.365 59.3652 26.365 60.0571 26.8114 60.0571Z" fill="#2BAAE0"/>
<path d="M26.7535 57.8696C27.5612 57.8696 28.3685 57.8696 29.1761 57.8696C29.6222 57.8696 29.6222 57.1774 29.1761 57.1774C28.3685 57.1774 27.5612 57.1774 26.7535 57.1774C26.3074 57.1774 26.3074 57.8696 26.7535 57.8696Z" fill="#2BAAE0"/>
<path d="M26.6992 55.6824C27.5065 55.6824 28.3142 55.6824 29.1215 55.6824C29.5675 55.6824 29.5675 54.9901 29.1215 54.9901C28.3138 54.9901 27.5065 54.9901 26.6992 54.9901C26.2532 54.9905 26.2532 55.6824 26.6992 55.6824Z" fill="#2BAAE0"/>
<path d="M26.6418 53.4949C27.4495 53.4949 28.2568 53.4949 29.0641 53.4949C29.5105 53.4949 29.5105 52.8026 29.0641 52.8026C28.2568 52.8026 27.4495 52.8026 26.6418 52.8026C26.1954 52.8026 26.1954 53.4949 26.6418 53.4949Z" fill="#2BAAE0"/>
<path d="M26.2348 51.3066C27.0424 51.3066 27.8497 51.3066 28.657 51.3066C29.1031 51.3066 29.1031 50.6144 28.657 50.6144C27.8494 50.6144 27.0424 50.6144 26.2348 50.6144C25.7883 50.6148 25.7883 51.3066 26.2348 51.3066Z" fill="#2BAAE0"/>
<path d="M25.8345 49.1191C26.6418 49.1191 27.4491 49.1191 28.2568 49.1191C28.7028 49.1191 28.7028 48.4269 28.2568 48.4269C27.4491 48.4269 26.6418 48.4269 25.8345 48.4269C25.388 48.4269 25.388 49.1191 25.8345 49.1191Z" fill="#2BAAE0"/>
<path d="M25.7731 46.9316C26.5808 46.9316 27.3881 46.9316 28.1954 46.9316C28.6415 46.9316 28.6415 46.2394 28.1954 46.2394C27.3881 46.2394 26.5804 46.2394 25.7731 46.2394C25.3271 46.2394 25.3271 46.9316 25.7731 46.9316Z" fill="#2BAAE0"/>
<path d="M25.3731 44.7444C26.1804 44.7444 26.9881 44.7444 27.7954 44.7444C28.2415 44.7444 28.2415 44.0521 27.7954 44.0521C26.9881 44.0521 26.1804 44.0521 25.3731 44.0521C24.9267 44.0521 24.9267 44.7444 25.3731 44.7444Z" fill="#2BAAE0"/>
<path d="M25.3121 42.5569C26.1197 42.5569 26.9267 42.5569 27.7343 42.5569C28.1804 42.5569 28.1804 41.8646 27.7343 41.8646C26.9267 41.8646 26.1194 41.8646 25.3121 41.8646C24.8656 41.8646 24.8656 42.5569 25.3121 42.5569Z" fill="#2BAAE0"/>
<path d="M25.2578 40.3691C26.0655 40.3691 26.8728 40.3691 27.6801 40.3691C28.1261 40.3691 28.1261 39.6772 27.6801 39.6772C26.8728 39.6772 26.0655 39.6772 25.2578 39.6772C24.8114 39.6772 24.8114 40.3691 25.2578 40.3691Z" fill="#2BAAE0"/>
<path d="M25.1967 38.1816C26.004 38.1816 26.8113 38.1816 27.6186 38.1816C28.0651 38.1816 28.0651 37.4894 27.6186 37.4894C26.8109 37.4894 26.004 37.4894 25.1967 37.4894C24.7503 37.4898 24.7503 38.1816 25.1967 38.1816Z" fill="#2BAAE0"/>
<path d="M25.1424 35.9944C25.9501 35.9944 26.757 35.9944 27.5647 35.9944C28.0108 35.9944 28.0108 35.3025 27.5647 35.3025C26.757 35.3025 25.9497 35.3025 25.1424 35.3025C24.696 35.3025 24.696 35.9944 25.1424 35.9944Z" fill="#2BAAE0"/>
<path d="M25.4305 33.8069C26.2382 33.8069 27.0455 33.8069 27.8528 33.8069C28.2992 33.8069 28.2992 33.1146 27.8528 33.1146C27.0455 33.1146 26.2382 33.1146 25.4305 33.1146C24.9844 33.115 24.9844 33.8069 25.4305 33.8069Z" fill="#2BAAE0"/>
<path d="M25.3731 31.6189C26.1804 31.6189 26.9881 31.6189 27.7954 31.6189C28.2415 31.6189 28.2415 30.9266 27.7954 30.9266C26.9877 30.9266 26.1804 30.9266 25.3731 30.9266C24.9267 30.9266 24.9267 31.6189 25.3731 31.6189Z" fill="#2BAAE0"/>
<path d="M25.3121 29.4299C26.1194 29.4299 26.9267 29.4299 27.7343 29.4299C28.1804 29.4299 28.1804 28.7377 27.7343 28.7377C26.9267 28.7377 26.1194 28.7377 25.3121 28.7377C24.8656 28.738 24.8656 29.4299 25.3121 29.4299Z" fill="#2BAAE0"/>
<path d="M25.6004 27.2424C26.4077 27.2424 27.215 27.2424 28.0227 27.2424C28.4691 27.2424 28.4691 26.5502 28.0227 26.5502C27.215 26.5502 26.4077 26.5502 25.6004 26.5502C25.154 26.5502 25.154 27.2424 25.6004 27.2424Z" fill="#2BAAE0"/>
<path d="M25.5424 25.0549C26.3501 25.0549 27.1574 25.0549 27.9651 25.0549C28.4112 25.0549 28.4112 24.363 27.9651 24.363C27.1574 24.363 26.3501 24.363 25.5424 24.363C25.0964 24.3634 25.0964 25.0549 25.5424 25.0549Z" fill="#2BAAE0"/>
<path d="M25.8342 22.8672C26.6419 22.8672 27.4492 22.8672 28.2565 22.8672C28.7025 22.8672 28.7025 22.1749 28.2565 22.1749C27.4488 22.1749 26.6415 22.1749 25.8342 22.1749C25.3881 22.1749 25.3881 22.8672 25.8342 22.8672Z" fill="#2BAAE0"/>
<path d="M25.7731 20.6801C26.5808 20.6801 27.3881 20.6801 28.1954 20.6801C28.6418 20.6801 28.6418 19.9878 28.1954 19.9878C27.3881 19.9878 26.5808 19.9878 25.7731 19.9878C25.3271 19.9882 25.3271 20.6801 25.7731 20.6801Z" fill="#2BAAE0"/>
<path d="M25.7191 18.4926C26.5264 18.4926 27.3341 18.4926 28.1414 18.4926C28.5878 18.4926 28.5878 17.8003 28.1414 17.8003C27.3341 17.8003 26.5264 17.8003 25.7191 17.8003C25.2727 17.8003 25.2727 18.4926 25.7191 18.4926Z" fill="#2BAAE0"/>
<path d="M25.659 16.304C26.4667 16.304 27.274 16.304 28.0813 16.304C28.5274 16.304 28.5274 15.6113 28.0813 15.6113C27.2736 15.6113 26.4663 15.6113 25.659 15.6113C25.2126 15.6113 25.2126 16.304 25.659 16.304Z" fill="#2BAAE0"/>
<path d="M106.23 15.2698C105.422 15.2698 104.615 15.2698 103.808 15.2698C103.362 15.2698 103.362 15.962 103.808 15.962C104.615 15.962 105.423 15.962 106.23 15.962C106.676 15.9624 106.676 15.2698 106.23 15.2698Z" fill="#2BAAE0"/>
<path d="M106.285 17.4573C105.477 17.4573 104.67 17.4573 103.863 17.4573C103.416 17.4573 103.416 18.1499 103.863 18.1499C104.67 18.1499 105.477 18.1499 106.285 18.1499C106.732 18.1495 106.732 17.4573 106.285 17.4573Z" fill="#2BAAE0"/>
<path d="M106.346 19.6439C105.538 19.6439 104.731 19.6439 103.923 19.6439C103.477 19.6439 103.477 20.3358 103.923 20.3358C104.731 20.3358 105.538 20.3358 106.346 20.3358C106.792 20.3358 106.792 19.6439 106.346 19.6439Z" fill="#2BAAE0"/>
<path d="M106.404 21.8315C105.596 21.8315 104.789 21.8315 103.981 21.8315C103.535 21.8315 103.535 22.5234 103.981 22.5234C104.789 22.5234 105.596 22.5234 106.404 22.5234C106.85 22.5231 106.85 21.8315 106.404 21.8315Z" fill="#2BAAE0"/>
<path d="M106.461 24.0183C105.654 24.0183 104.846 24.0183 104.039 24.0183C103.593 24.0183 103.593 24.7109 104.039 24.7109C104.846 24.7109 105.654 24.7109 106.461 24.7109C106.907 24.7113 106.907 24.0183 106.461 24.0183Z" fill="#2BAAE0"/>
<path d="M106.519 26.2058C105.711 26.2058 104.904 26.2058 104.096 26.2058C103.65 26.2058 103.65 26.8984 104.096 26.8984C104.904 26.8984 105.711 26.8984 106.519 26.8984C106.965 26.8984 106.965 26.2058 106.519 26.2058Z" fill="#2BAAE0"/>
<path d="M106.573 28.3934C105.766 28.3934 104.958 28.3934 104.151 28.3934C103.705 28.3934 103.705 29.0857 104.151 29.0857C104.958 29.0857 105.766 29.0857 106.573 29.0857C107.02 29.0857 107.02 28.3934 106.573 28.3934Z" fill="#2BAAE0"/>
<path d="M106.635 30.5813C105.827 30.5813 105.02 30.5813 104.212 30.5813C103.766 30.5813 103.766 31.2732 104.212 31.2732C105.02 31.2732 105.827 31.2732 106.635 31.2732C107.081 31.2732 107.081 30.5813 106.635 30.5813Z" fill="#2BAAE0"/>
<path d="M107.035 32.7699C106.227 32.7699 105.42 32.7699 104.612 32.7699C104.166 32.7699 104.166 33.4622 104.612 33.4622C105.42 33.4622 106.227 33.4622 107.035 33.4622C107.481 33.4618 107.481 32.7699 107.035 32.7699Z" fill="#2BAAE0"/>
<path d="M107.095 34.9575C106.288 34.9575 105.481 34.9575 104.673 34.9575C104.227 34.9575 104.227 35.6501 104.673 35.6501C105.481 35.6501 106.288 35.6501 107.095 35.6501C107.542 35.6501 107.542 34.9575 107.095 34.9575Z" fill="#2BAAE0"/>
<path d="M107.149 37.1454C106.342 37.1454 105.535 37.1454 104.728 37.1454C104.281 37.1454 104.281 37.8376 104.728 37.8376C105.535 37.8376 106.342 37.8376 107.149 37.8376C107.596 37.8373 107.596 37.1454 107.149 37.1454Z" fill="#2BAAE0"/>
<path d="M107.211 39.3318C106.403 39.3318 105.596 39.3318 104.788 39.3318C104.342 39.3318 104.342 40.0237 104.788 40.0237C105.596 40.0237 106.403 40.0237 107.211 40.0237C107.657 40.0241 107.657 39.3318 107.211 39.3318Z" fill="#2BAAE0"/>
<path d="M107.265 41.5205C106.457 41.5205 105.65 41.5205 104.843 41.5205C104.397 41.5205 104.397 42.2124 104.843 42.2124C105.65 42.2124 106.457 42.2124 107.265 42.2124C107.711 42.2124 107.711 41.5205 107.265 41.5205Z" fill="#2BAAE0"/>
<path d="M106.977 43.7079C106.169 43.7079 105.362 43.7079 104.555 43.7079C104.108 43.7079 104.108 44.4001 104.555 44.4001C105.362 44.4001 106.169 44.4001 106.977 44.4001C107.423 44.4001 107.423 43.7079 106.977 43.7079Z" fill="#2BAAE0"/>
<path d="M107.038 45.8958C106.23 45.8958 105.423 45.8958 104.615 45.8958C104.169 45.8958 104.169 46.5876 104.615 46.5876C105.423 46.5876 106.23 46.5876 107.038 46.5876C107.484 46.5873 107.484 45.8958 107.038 45.8958Z" fill="#2BAAE0"/>
<path d="M107.095 48.0831C106.288 48.0831 105.481 48.0831 104.673 48.0831C104.227 48.0831 104.227 48.7754 104.673 48.7754C105.481 48.7754 106.288 48.7754 107.095 48.7754C107.542 48.7754 107.542 48.0831 107.095 48.0831Z" fill="#2BAAE0"/>
<path d="M106.807 50.2701C106 50.2701 105.192 50.2701 104.385 50.2701C103.939 50.2701 103.939 50.9624 104.385 50.9624C105.192 50.9624 106 50.9624 106.807 50.9624C107.253 50.962 107.253 50.2701 106.807 50.2701Z" fill="#2BAAE0"/>
<path d="M106.862 52.4583C106.054 52.4583 105.247 52.4583 104.439 52.4583C103.993 52.4583 103.993 53.1501 104.439 53.1501C105.247 53.1501 106.054 53.1501 106.862 53.1501C107.308 53.1498 107.308 52.4583 106.862 52.4583Z" fill="#2BAAE0"/>
<path d="M106.573 54.6459C105.765 54.6459 104.958 54.6459 104.151 54.6459C103.704 54.6459 103.704 55.3381 104.151 55.3381C104.958 55.3381 105.765 55.3381 106.573 55.3381C107.02 55.3378 107.02 54.6459 106.573 54.6459Z" fill="#2BAAE0"/>
<path d="M106.634 56.8334C105.827 56.8334 105.02 56.8334 104.212 56.8334C103.766 56.8334 103.766 57.5256 104.212 57.5256C105.02 57.5256 105.827 57.5256 106.634 57.5256C107.08 57.5253 107.08 56.8334 106.634 56.8334Z" fill="#2BAAE0"/>
<path d="M106.692 59.0209C105.884 59.0209 105.077 59.0209 104.269 59.0209C103.823 59.0209 103.823 59.7131 104.269 59.7131C105.077 59.7131 105.884 59.7131 106.692 59.7131C107.138 59.7131 107.138 59.0209 106.692 59.0209Z" fill="#2BAAE0"/>
<path d="M106.749 61.2091C105.941 61.2091 105.134 61.2091 104.327 61.2091C103.88 61.2091 103.88 61.9014 104.327 61.9014C105.134 61.9014 105.942 61.9014 106.749 61.9014C107.195 61.9014 107.195 61.2091 106.749 61.2091Z" fill="#2BAAE0"/>
</svg>
