<svg width="154" height="82" viewBox="0 0 154 82" fill="none" xmlns="http://www.w3.org/2000/svg">
<path d="M10.8034 63.0962L8.68225 81.9998H10.8034L14.7535 63.0962H10.8034Z" fill="#0C4F89"/>
<path d="M138.944 63.0962L141.066 81.9998H138.944L134.994 63.0962H138.944Z" fill="#0C4F89"/>
<path d="M137.068 25.4324H14.7537V57.2364H137.068V25.4324Z" fill="white"/>
<path d="M148.164 66.0947H6.17704C3.04186 66.0947 0.5 63.5528 0.5 60.4176V55.7036H153.841V60.4176C153.841 63.5533 151.299 66.0947 148.164 66.0947Z" fill="#2BAAE0"/>
<path d="M16.8638 57.8465H0.5V24.8549C0.5 22.0413 2.78073 19.7606 5.59374 19.7606H11.7696C14.5831 19.7606 16.8638 22.0413 16.8638 24.8549V57.8465Z" fill="#2BAAE0"/>
<path d="M153.841 57.8465H134.581V24.8549C134.581 22.0413 136.862 19.7606 139.675 19.7606H148.747C151.56 19.7606 153.841 22.0413 153.841 24.8549V57.8465Z" fill="#2BAAE0"/>
<path d="M25.2892 43.4033C20.7898 43.4033 17.1288 39.7423 17.1288 35.2429V8.15988C17.1288 3.66047 20.7898 -0.000488281 25.2892 -0.000488281H68.9646C73.4645 -0.000488281 77.1255 3.66047 77.1255 8.15988V35.2434C77.1255 39.7428 73.4645 43.4038 68.9646 43.4038H25.2892V43.4033Z" fill="white"/>
<path d="M68.9635 40.3374H25.2886C22.4751 40.3374 20.1943 38.0567 20.1943 35.2437V8.16064C20.1943 5.34713 22.4751 3.06641 25.2886 3.06641H68.964C71.7775 3.06641 74.0577 5.34713 74.0577 8.16064V35.2437C74.0577 38.0567 71.777 40.3374 68.9635 40.3374Z" fill="#2BAAE0"/>
<path d="M82.4818 43.4033C77.9819 43.4033 74.3209 39.7423 74.3209 35.2429V8.15988C74.3209 3.66047 77.9819 -0.000488281 82.4818 -0.000488281H126.157C130.656 -0.000488281 134.317 3.66047 134.317 8.15988V35.2434C134.317 39.7428 130.656 43.4038 126.157 43.4038H82.4818V43.4033Z" fill="white"/>
<path d="M126.157 40.3371H82.4815C79.668 40.3371 77.3878 38.0564 77.3878 35.2434V8.16039C77.3878 5.34688 79.6685 3.06616 82.4815 3.06616H126.157C128.97 3.06616 131.251 5.34688 131.251 8.16039V35.2434C131.251 38.0564 128.97 40.3371 126.157 40.3371Z" fill="#2BAAE0"/>
<path d="M19.8029 57.2365C17.0184 57.2365 14.7537 54.9718 14.7537 52.1873V48.829C14.7537 46.0445 17.0184 43.7798 19.8029 43.7798H131.066C133.85 43.7798 136.115 46.0445 136.115 48.829V52.1873C136.115 54.9718 133.85 57.2365 131.066 57.2365H19.8029Z" fill="white"/>
<path d="M131.065 55.7041H19.8028C17.8608 55.7041 16.2869 54.1297 16.2869 52.1877V48.8289C16.2869 46.8868 17.8613 45.3125 19.8028 45.3125H131.065C133.007 45.3125 134.581 46.8868 134.581 48.8289V52.1877C134.581 54.1297 133.007 55.7041 131.065 55.7041Z" fill="#2BAAE0"/>
</svg>
