<svg width="931" height="667" viewBox="0 0 931 667" fill="none" xmlns="http://www.w3.org/2000/svg">
<g clip-path="url(#clip0_258_650)">
<path d="M498.262 480.378C497.824 480.229 497.42 479.995 497.072 479.69C496.725 479.385 496.441 479.015 496.237 478.6C496.032 478.185 495.912 477.734 495.882 477.273C495.852 476.811 495.913 476.349 496.062 475.911C496.211 475.473 496.444 475.069 496.749 474.722C497.054 474.374 497.425 474.09 497.839 473.886C498.254 473.681 498.705 473.561 499.166 473.531C499.628 473.501 500.091 473.562 500.528 473.711C500.984 473.841 501.41 474.06 501.78 474.356C502.151 474.651 502.46 475.017 502.689 475.432C502.919 475.847 503.064 476.303 503.116 476.774C503.168 477.245 503.127 477.722 502.995 478.178C502.831 478.635 502.578 479.055 502.251 479.414C501.924 479.772 501.528 480.062 501.088 480.267C500.648 480.472 500.171 480.587 499.686 480.606C499.201 480.625 498.717 480.547 498.262 480.378Z" fill="#2BA9E0"/>
<path d="M108.013 61.7047C107.312 63.0309 107.019 64.5349 107.171 66.0274C107.323 67.5198 107.913 68.9338 108.868 70.0913C109.822 71.2488 111.097 72.0981 112.533 72.532C113.969 72.966 115.501 72.9653 116.937 72.5299C118.372 72.0946 119.647 71.2442 120.6 70.0858C121.553 68.9274 122.142 67.5128 122.293 66.0202C122.443 64.5277 122.149 63.0239 121.447 61.6983C120.744 60.3728 119.665 59.2848 118.346 58.5713C116.559 57.625 114.47 57.4233 112.534 58.0102C110.599 58.5971 108.974 59.925 108.013 61.7047Z" fill="#2BA9E0"/>
<path d="M310.448 220.607C308.135 221.502 306.14 223.064 304.714 225.094C303.289 227.124 302.498 229.531 302.442 232.011C302.385 234.49 303.066 236.931 304.397 239.024C305.729 241.116 307.651 242.767 309.921 243.767C312.191 244.766 314.706 245.07 317.149 244.639C319.591 244.208 321.851 243.062 323.642 241.346C325.433 239.63 326.674 237.421 327.209 235C327.744 232.578 327.549 230.051 326.647 227.741C326.057 226.204 325.169 224.8 324.034 223.609C322.899 222.418 321.539 221.463 320.033 220.8C318.527 220.137 316.905 219.778 315.26 219.745C313.615 219.712 311.979 220.005 310.448 220.607Z" fill="#2BA9E0"/>
<path d="M200.725 74.4849C199.602 75.9335 198.93 77.6808 198.794 79.5087C198.657 81.3365 199.062 83.1641 199.958 84.7634C200.853 86.3627 202.2 87.6629 203.829 88.5019C205.459 89.3408 207.3 89.6813 209.121 89.4809C210.943 89.2805 212.666 88.548 214.074 87.3749C215.482 86.2018 216.514 84.6399 217.041 82.8842C217.567 81.1285 217.565 79.2566 217.034 77.502C216.504 75.7475 215.469 74.1881 214.058 73.0182C213.091 72.2282 211.976 71.6388 210.778 71.2845C209.581 70.9301 208.325 70.818 207.084 70.9546C205.842 71.0911 204.641 71.4736 203.549 72.0798C202.457 72.6859 201.497 73.5035 200.725 74.4849Z" fill="#2BA9E0"/>
<path d="M-0.702704 -0.456119C-2.74351 0.261453 -4.52559 1.56842 -5.82338 3.29928C-7.12116 5.03013 -7.87632 7.10709 -7.99328 9.26733C-8.11024 11.4276 -7.58374 13.5739 -6.48042 15.4348C-5.37709 17.2957 -3.74654 18.7874 -1.79513 19.7211C0.15627 20.6549 2.34082 20.9887 4.482 20.6803C6.62318 20.3719 8.62475 19.4352 10.2334 17.9887C11.842 16.5422 12.9854 14.651 13.5188 12.5544C14.0523 10.4578 13.9517 8.25009 13.23 6.21064C12.2639 3.48073 10.2543 1.24562 7.64228 -0.0042491C5.03022 -1.25411 2.02903 -1.41663 -0.702704 -0.456119Z" fill="#2BA9E0"/>
<path d="M152.144 41.8381C151.591 41.9623 151.068 42.1974 150.608 42.5292C150.148 42.861 149.759 43.2826 149.467 43.7685C149.174 44.2545 148.982 44.7947 148.904 45.3567C148.826 45.9186 148.862 46.4906 149.011 47.0381C149.219 47.8538 149.663 48.5898 150.288 49.1535C150.913 49.7173 151.69 50.0837 152.523 50.2066C153.355 50.3295 154.206 50.2034 154.967 49.8441C155.728 49.4849 156.366 48.9086 156.8 48.1877C157.234 47.4668 157.446 46.6336 157.408 45.7928C157.37 44.952 157.084 44.1413 156.586 43.4625C156.089 42.7838 155.401 42.2675 154.611 41.9784C153.821 41.6893 152.962 41.6405 152.144 41.8381Z" fill="#2BA9E0"/>
<path d="M46.6155 501.778C45.2329 503.331 43.4217 504.44 41.4099 504.965C39.3982 505.491 37.2759 505.409 35.3106 504.73C33.3453 504.051 31.6248 502.806 30.3659 501.151C29.1069 499.496 28.366 497.506 28.2363 495.431C28.1066 493.355 28.594 491.288 29.637 489.489C30.6801 487.69 32.2322 486.241 34.0977 485.323C35.9632 484.404 38.0588 484.059 40.1203 484.33C42.1818 484.601 44.117 485.475 45.6822 486.844C46.7294 487.76 47.5848 488.874 48.199 490.122C48.8133 491.37 49.1742 492.728 49.261 494.116C49.3478 495.505 49.1586 496.897 48.7046 498.212C48.2505 499.527 47.5405 500.739 46.6155 501.778Z" fill="#2BA9E0"/>
<path d="M802.315 473.311C800.937 474.873 799.127 475.992 797.113 476.526C795.099 477.06 792.973 476.984 791.002 476.309C789.031 475.634 787.305 474.39 786.041 472.733C784.777 471.077 784.033 469.083 783.903 467.004C783.772 464.925 784.261 462.853 785.308 461.052C786.354 459.251 787.912 457.8 789.782 456.884C791.653 455.968 793.754 455.627 795.819 455.904C797.883 456.182 799.819 457.066 801.382 458.444C802.427 459.354 803.281 460.462 803.894 461.705C804.508 462.947 804.868 464.299 804.955 465.682C805.042 467.065 804.853 468.452 804.4 469.761C803.947 471.071 803.238 472.277 802.315 473.311Z" fill="#2BA9E0"/>
<path d="M54.3484 355.509C54.322 358.937 53.2796 362.28 51.3532 365.116C49.4267 367.952 46.7028 370.153 43.5257 371.44C40.3486 372.727 36.8611 373.044 33.5042 372.349C30.1473 371.654 27.0718 369.98 24.6665 367.537C22.2613 365.095 20.6343 361.993 19.9914 358.626C19.3485 355.259 19.7185 351.776 21.0546 348.619C22.3907 345.462 24.633 342.772 27.4978 340.889C30.3626 339.007 33.7213 338.016 37.1492 338.042C39.4254 338.06 41.6758 338.525 43.772 339.412C45.8682 340.3 47.7692 341.591 49.3663 343.213C50.9634 344.835 52.2254 346.756 53.0802 348.866C53.9351 350.975 54.366 353.233 54.3484 355.509Z" fill="#2BA9E0"/>
<path d="M58.4814 151.506C57.182 153.691 55.2644 155.442 52.9707 156.538C50.677 157.634 48.11 158.026 45.5938 157.665C43.0775 157.303 40.7248 156.204 38.8324 154.507C36.9401 152.809 35.593 150.589 34.9611 148.127C34.3293 145.664 34.441 143.07 35.2823 140.671C36.1235 138.272 37.6565 136.176 39.6878 134.647C41.719 133.119 44.1576 132.226 46.6956 132.082C49.2336 131.939 51.7574 132.55 53.9483 133.839C56.8847 135.588 59.0097 138.427 59.8591 141.738C60.7085 145.048 60.2132 148.56 58.4814 151.506Z" fill="#2BA9E0"/>
<path d="M87.3992 583.899C87.5031 585.418 87.0252 586.921 86.0626 588.101C85.0999 589.281 83.7245 590.051 82.2152 590.254C80.7059 590.458 79.1757 590.08 77.9348 589.197C76.694 588.314 75.8354 586.992 75.5331 585.499C75.3444 583.926 75.7852 582.343 76.7593 581.094C77.7334 579.845 79.1617 579.032 80.7329 578.832C82.2882 578.623 83.8629 579.039 85.1123 579.989C86.3616 580.939 87.184 582.344 87.3992 583.899Z" fill="#2BA9E0"/>
<path d="M305.404 114.105C305.066 115.677 304.27 117.113 303.116 118.233C301.962 119.352 300.503 120.105 298.922 120.395C297.341 120.686 295.709 120.501 294.233 119.865C292.757 119.228 291.502 118.169 290.628 116.82C289.754 115.471 289.299 113.893 289.32 112.286C289.342 110.678 289.839 109.114 290.75 107.789C291.66 106.464 292.943 105.439 294.436 104.842C295.929 104.246 297.565 104.106 299.137 104.439C301.234 104.918 303.061 106.196 304.232 108.001C305.402 109.806 305.822 111.996 305.404 114.105Z" fill="#2BA9E0"/>
<path d="M240.74 408.043C241.441 407.596 242.047 407.015 242.521 406.332C242.995 405.65 243.328 404.88 243.502 404.067C243.676 403.254 243.686 402.415 243.533 401.598C243.379 400.782 243.064 400.003 242.607 399.309C241.933 398.142 240.922 397.206 239.706 396.625C238.49 396.045 237.126 395.846 235.795 396.056C234.463 396.266 233.227 396.874 232.249 397.801C231.27 398.728 230.596 399.93 230.314 401.248C230.032 402.566 230.157 403.938 230.671 405.184C231.185 406.43 232.064 407.491 233.193 408.227C234.323 408.963 235.648 409.339 236.995 409.306C238.343 409.273 239.649 408.833 240.74 408.043Z" fill="#2BA9E0"/>
<path d="M151.013 321.955C153.05 322.225 155.121 321.887 156.965 320.981C158.81 320.076 160.344 318.644 161.376 316.867C162.407 315.09 162.889 313.048 162.761 310.997C162.633 308.947 161.901 306.98 160.656 305.345C159.412 303.711 157.711 302.481 155.769 301.812C153.826 301.143 151.729 301.064 149.742 301.586C147.755 302.108 145.967 303.206 144.603 304.743C143.24 306.28 142.362 308.186 142.081 310.222C141.893 311.579 141.975 312.96 142.323 314.286C142.671 315.611 143.278 316.855 144.108 317.946C144.938 319.036 145.975 319.951 147.161 320.64C148.346 321.328 149.655 321.775 151.013 321.955Z" fill="#2BA9E0"/>
<path d="M191.942 419.51C196.213 419.51 199.675 416.048 199.675 411.776C199.675 407.505 196.213 404.043 191.942 404.043C187.671 404.043 184.209 407.505 184.209 411.776C184.209 416.048 187.671 419.51 191.942 419.51Z" fill="#2BA9E0"/>
<path d="M303.689 338.895C305.47 339.226 307.309 339.02 308.972 338.303C310.635 337.585 312.048 336.39 313.03 334.868C314.012 333.346 314.519 331.566 314.487 329.755C314.456 327.944 313.886 326.183 312.851 324.697C311.816 323.21 310.363 322.065 308.675 321.407C306.988 320.748 305.143 320.607 303.375 320.999C301.607 321.392 299.995 322.302 298.746 323.613C297.496 324.924 296.664 326.577 296.356 328.362C295.947 330.729 296.488 333.162 297.86 335.134C299.233 337.106 301.327 338.457 303.689 338.895Z" fill="#2BA9E0"/>
<path d="M200.608 404.71C201.402 404.736 202.182 404.498 202.827 404.034C203.472 403.571 203.946 402.907 204.174 402.146C204.402 401.385 204.372 400.57 204.089 399.828C203.806 399.086 203.285 398.458 202.608 398.043C201.814 398.017 201.034 398.254 200.389 398.718C199.744 399.182 199.271 399.846 199.043 400.607C198.814 401.367 198.844 402.182 199.127 402.924C199.411 403.667 199.931 404.294 200.608 404.71Z" fill="#2BA9E0"/>
<path d="M733.452 638.606C733.884 638.534 734.297 638.376 734.667 638.141C735.037 637.906 735.356 637.599 735.605 637.238C735.854 636.878 736.027 636.47 736.116 636.041C736.204 635.612 736.205 635.169 736.118 634.74C735.955 633.871 735.461 633.099 734.739 632.589C734.017 632.079 733.125 631.87 732.252 632.006C731.399 632.183 730.65 632.687 730.164 633.41C729.678 634.132 729.494 635.016 729.652 635.873C729.707 636.308 729.852 636.728 730.077 637.105C730.301 637.482 730.601 637.809 730.957 638.066C731.314 638.322 731.719 638.503 732.148 638.595C732.577 638.688 733.021 638.692 733.452 638.606Z" fill="#2BA9E0"/>
<path d="M243.873 531.178C241.241 529.897 239.045 527.868 237.561 525.344C236.078 522.82 235.372 519.914 235.533 516.991C235.695 514.067 236.715 511.257 238.468 508.911C240.22 506.566 242.625 504.79 245.383 503.807C248.14 502.823 251.127 502.676 253.968 503.383C256.808 504.09 259.377 505.62 261.352 507.782C263.327 509.943 264.619 512.639 265.068 515.532C265.516 518.426 265.1 521.387 263.872 524.045C263.058 525.852 261.886 527.477 260.429 528.821C258.972 530.165 257.258 531.201 255.39 531.867C253.523 532.533 251.541 532.815 249.562 532.697C247.583 532.579 245.648 532.062 243.873 531.178Z" fill="#2BA9E0"/>
<path d="M556.221 549.838C554.519 549.05 553.089 547.773 552.114 546.171C551.139 544.568 550.662 542.712 550.743 540.838C550.824 538.964 551.461 537.156 552.571 535.644C553.682 534.132 555.217 532.984 556.981 532.346C558.745 531.708 560.658 531.609 562.479 532.06C564.3 532.512 565.945 533.494 567.207 534.883C568.468 536.271 569.289 538.003 569.564 539.859C569.839 541.714 569.557 543.61 568.754 545.305C568.231 546.428 567.491 547.436 566.578 548.272C565.664 549.108 564.594 549.756 563.43 550.177C562.265 550.598 561.029 550.785 559.791 550.727C558.554 550.669 557.341 550.367 556.221 549.838Z" fill="#2BA9E0"/>
<path d="M317.27 634.713C318.173 633.317 319.47 632.22 320.996 631.562C322.523 630.904 324.211 630.713 325.846 631.015C327.481 631.316 328.989 632.096 330.181 633.255C331.372 634.415 332.193 635.902 332.538 637.528C332.884 639.155 332.74 640.847 332.123 642.391C331.507 643.935 330.446 645.261 329.075 646.202C327.704 647.142 326.085 647.655 324.423 647.675C322.76 647.695 321.129 647.221 319.737 646.313C317.874 645.099 316.569 643.197 316.107 641.023C315.644 638.848 316.063 636.579 317.27 634.713Z" fill="#2BA9E0"/>
<path d="M196.875 575.645C197.298 578.627 196.825 581.667 195.517 584.379C194.21 587.092 192.126 589.355 189.53 590.881C186.935 592.407 183.944 593.128 180.938 592.952C177.932 592.776 175.046 591.711 172.646 589.892C170.246 588.074 168.441 585.583 167.459 582.736C166.476 579.89 166.362 576.816 167.129 573.904C167.896 570.992 169.511 568.374 171.769 566.381C174.026 564.389 176.825 563.111 179.809 562.712C181.779 562.439 183.784 562.558 185.708 563.06C187.632 563.563 189.438 564.44 191.023 565.641C192.608 566.842 193.941 568.344 194.945 570.061C195.949 571.777 196.605 573.675 196.875 575.645Z" fill="#2BA9E0"/>
<path d="M251.473 584.979C251.576 585.754 251.525 586.542 251.322 587.297C251.12 588.052 250.77 588.76 250.293 589.38C249.816 589.999 249.221 590.518 248.543 590.907C247.864 591.296 247.116 591.547 246.34 591.646C245.574 591.746 244.796 591.695 244.05 591.495C243.303 591.295 242.604 590.95 241.991 590.479C241.378 590.009 240.864 589.422 240.478 588.753C240.092 588.084 239.841 587.345 239.74 586.579C239.64 585.813 239.691 585.035 239.891 584.288C240.091 583.542 240.436 582.843 240.907 582.23C241.377 581.617 241.964 581.103 242.633 580.716C243.302 580.33 244.041 580.08 244.807 579.979C245.573 579.866 246.355 579.906 247.106 580.097C247.857 580.287 248.562 580.625 249.182 581.09C249.802 581.555 250.323 582.138 250.717 582.805C251.11 583.473 251.367 584.212 251.473 584.979Z" fill="#2BA9E0"/>
<path d="M428.998 648.046C430.157 647.365 431.082 646.35 431.653 645.133C432.225 643.916 432.415 642.556 432.199 641.229C431.983 639.902 431.372 638.672 430.444 637.699C429.517 636.726 428.317 636.057 427.003 635.778C425.688 635.499 424.319 635.624 423.077 636.136C421.835 636.649 420.776 637.525 420.04 638.65C419.305 639.775 418.926 641.095 418.954 642.439C418.983 643.783 419.416 645.087 420.198 646.18C421.167 647.533 422.608 648.476 424.236 648.821C425.864 649.166 427.563 648.89 428.998 648.046Z" fill="#2BA9E0"/>
<path d="M499.288 620.079C501.321 620.347 503.389 620.008 505.23 619.104C507.071 618.2 508.604 616.772 509.636 614.998C510.667 613.225 511.152 611.187 511.027 609.139C510.903 607.092 510.177 605.126 508.938 603.491C507.7 601.855 506.006 600.622 504.069 599.947C502.132 599.272 500.039 599.185 498.052 599.697C496.066 600.209 494.275 601.297 492.906 602.824C491.536 604.351 490.648 606.249 490.355 608.279C490.158 609.642 490.233 611.03 490.576 612.363C490.92 613.696 491.525 614.948 492.356 616.046C493.187 617.143 494.227 618.065 495.417 618.758C496.607 619.45 497.923 619.899 499.288 620.079Z" fill="#2BA9E0"/>
<path d="M368.587 564.292C370.019 563.714 371.248 562.723 372.117 561.446C372.986 560.168 373.456 558.662 373.467 557.117C373.479 555.572 373.031 554.059 372.181 552.769C371.332 551.478 370.118 550.47 368.694 549.87C367.271 549.271 365.701 549.107 364.184 549.401C362.668 549.695 361.273 550.433 360.176 551.52C359.079 552.608 358.33 553.997 358.023 555.511C357.717 557.025 357.867 558.596 358.454 560.025C359.237 561.93 360.743 563.448 362.641 564.248C364.539 565.047 366.677 565.063 368.587 564.292Z" fill="#2BA9E0"/>
<path d="M426.486 520.645C428.283 520.992 430.143 520.795 431.827 520.079C433.512 519.363 434.944 518.162 435.942 516.627C436.94 515.093 437.457 513.296 437.428 511.466C437.4 509.636 436.826 507.857 435.78 506.355C434.734 504.853 433.265 503.697 431.558 503.034C429.852 502.372 427.988 502.234 426.203 502.637C424.418 503.041 422.793 503.967 421.538 505.299C420.282 506.63 419.452 508.306 419.153 510.111C418.745 512.479 419.285 514.912 420.658 516.883C422.031 518.855 424.125 520.206 426.486 520.645Z" fill="#2BA9E0"/>
<path d="M388.6 644.647C389.283 644.855 390.011 644.856 390.694 644.649C391.376 644.443 391.982 644.038 392.435 643.487C392.887 642.935 393.166 642.262 393.235 641.552C393.304 640.842 393.16 640.128 392.823 639.5C392.485 638.871 391.969 638.357 391.339 638.023C390.708 637.689 389.993 637.549 389.284 637.622C388.574 637.695 387.903 637.977 387.354 638.432C386.805 638.888 386.403 639.496 386.201 640.18C385.93 641.09 386.031 642.071 386.481 642.907C386.93 643.744 387.692 644.369 388.6 644.647Z" fill="#2BA9E0"/>
<path d="M790.403 610.726C791.013 609.722 791.312 608.56 791.261 607.387C791.21 606.214 790.812 605.082 790.117 604.135C789.422 603.188 788.462 602.468 787.358 602.067C786.255 601.667 785.057 601.602 783.916 601.883C782.776 602.163 781.744 602.776 780.952 603.643C780.16 604.51 779.643 605.593 779.467 606.754C779.291 607.915 779.463 609.102 779.962 610.165C780.461 611.229 781.264 612.12 782.27 612.726C783.619 613.519 785.224 613.754 786.743 613.38C788.263 613.006 789.576 612.054 790.403 610.726Z" fill="#2BA9E0"/>
<path d="M700.603 569.339C702.434 568.745 704.047 567.621 705.239 566.11C706.432 564.6 707.149 562.77 707.302 560.851C707.454 558.933 707.034 557.012 706.095 555.332C705.157 553.652 703.741 552.288 702.027 551.413C700.313 550.537 698.378 550.189 696.467 550.413C694.556 550.637 692.754 551.422 691.289 552.67C689.823 553.918 688.761 555.572 688.236 557.423C687.711 559.275 687.746 561.24 688.337 563.072C688.723 564.294 689.348 565.428 690.175 566.407C691.003 567.386 692.017 568.19 693.158 568.773C694.3 569.356 695.546 569.707 696.824 569.804C698.102 569.901 699.387 569.743 700.603 569.339Z" fill="#2BA9E0"/>
<path d="M654.377 594.686C655.326 593.626 655.939 592.309 656.14 590.901C656.341 589.494 656.12 588.058 655.506 586.775C654.892 585.492 653.912 584.42 652.689 583.694C651.467 582.967 650.057 582.62 648.636 582.694C647.216 582.768 645.85 583.261 644.71 584.111C643.57 584.961 642.707 586.129 642.23 587.469C641.753 588.809 641.683 590.26 642.03 591.639C642.377 593.018 643.124 594.264 644.178 595.219C644.881 595.857 645.703 596.349 646.598 596.667C647.492 596.985 648.44 597.124 649.388 597.074C650.336 597.025 651.265 596.788 652.121 596.378C652.977 595.968 653.744 595.393 654.377 594.686Z" fill="#2BA9E0"/>
<path d="M827.985 563.192C829.617 562.738 831.077 561.81 832.179 560.524C833.282 559.238 833.976 557.652 834.175 555.97C834.374 554.288 834.067 552.585 833.294 551.078C832.522 549.57 831.318 548.327 829.837 547.506C828.355 546.685 826.663 546.323 824.975 546.467C823.288 546.611 821.681 547.254 820.36 548.315C819.039 549.375 818.063 550.804 817.558 552.421C817.052 554.037 817.038 555.768 817.519 557.392C818.139 559.548 819.589 561.37 821.552 562.458C823.514 563.545 825.828 563.809 827.985 563.192Z" fill="#2BA9E0"/>
<path d="M339.402 502.711C338.689 502.004 338.202 501.102 338.003 500.118C337.804 499.133 337.902 498.112 338.284 497.184C338.666 496.255 339.315 495.461 340.149 494.903C340.983 494.344 341.965 494.046 342.969 494.046C343.973 494.046 344.954 494.344 345.788 494.903C346.622 495.461 347.272 496.255 347.654 497.184C348.036 498.112 348.134 499.133 347.935 500.118C347.735 501.102 347.248 502.004 346.535 502.711C345.586 503.651 344.305 504.179 342.969 504.179C341.633 504.179 340.351 503.651 339.402 502.711Z" fill="#2BA9E0"/>
<path d="M594.202 621.626C593.262 620.677 592.734 619.395 592.734 618.059C592.734 616.723 593.262 615.442 594.202 614.493C594.607 613.906 595.133 613.413 595.744 613.046C596.355 612.679 597.038 612.447 597.746 612.365C598.454 612.284 599.172 612.355 599.85 612.574C600.529 612.792 601.153 613.154 601.68 613.633C602.208 614.113 602.627 614.699 602.909 615.354C603.191 616.009 603.33 616.716 603.316 617.429C603.302 618.142 603.136 618.844 602.829 619.487C602.522 620.13 602.081 620.701 601.535 621.16C601.1 621.695 600.559 622.136 599.945 622.452C599.332 622.768 598.66 622.954 597.971 622.998C597.282 623.042 596.591 622.943 595.943 622.707C595.294 622.471 594.701 622.103 594.202 621.626Z" fill="#2BA9E0"/>
<path d="M462.076 320.248C459.444 318.968 457.248 316.938 455.764 314.414C454.281 311.89 453.575 308.984 453.737 306.061C453.898 303.138 454.919 300.327 456.671 297.982C458.423 295.636 460.829 293.86 463.586 292.877C466.343 291.893 469.33 291.746 472.171 292.453C475.012 293.16 477.58 294.69 479.555 296.852C481.53 299.013 482.822 301.71 483.271 304.603C483.719 307.496 483.303 310.457 482.075 313.115C481.261 314.922 480.089 316.547 478.632 317.891C477.175 319.235 475.461 320.271 473.594 320.937C471.726 321.603 469.744 321.886 467.765 321.767C465.786 321.649 463.851 321.132 462.076 320.248Z" fill="#2BA9E0"/>
<path d="M774.424 338.909C772.722 338.12 771.293 336.844 770.317 335.241C769.342 333.639 768.865 331.782 768.946 329.908C769.028 328.034 769.664 326.226 770.774 324.715C771.885 323.203 773.42 322.055 775.184 321.417C776.948 320.779 778.861 320.679 780.682 321.131C782.503 321.582 784.148 322.565 785.41 323.953C786.671 325.341 787.492 327.073 787.767 328.929C788.043 330.785 787.761 332.68 786.957 334.375C786.434 335.498 785.695 336.507 784.781 337.343C783.867 338.179 782.797 338.826 781.633 339.247C780.468 339.669 779.232 339.856 777.995 339.797C776.757 339.739 775.544 339.437 774.424 338.909Z" fill="#2BA9E0"/>
<path d="M535.473 423.783C536.376 422.387 537.673 421.291 539.2 420.632C540.726 419.974 542.414 419.784 544.049 420.085C545.684 420.387 547.192 421.166 548.384 422.326C549.575 423.485 550.396 424.972 550.742 426.599C551.087 428.225 550.943 429.917 550.326 431.461C549.71 433.005 548.649 434.332 547.278 435.272C545.907 436.213 544.288 436.726 542.626 436.745C540.963 436.765 539.332 436.291 537.94 435.384C536.077 434.17 534.772 432.267 534.31 430.093C533.847 427.919 534.266 425.65 535.473 423.783Z" fill="#2BA9E0"/>
<path d="M415.079 364.716C415.501 367.697 415.028 370.737 413.721 373.449C412.413 376.162 410.329 378.425 407.733 379.951C405.138 381.477 402.147 382.198 399.141 382.022C396.135 381.846 393.249 380.781 390.849 378.963C388.45 377.144 386.644 374.653 385.662 371.807C384.679 368.96 384.565 365.886 385.332 362.974C386.099 360.062 387.714 357.444 389.972 355.451C392.23 353.459 395.028 352.182 398.013 351.782C399.983 351.51 401.987 351.628 403.911 352.131C405.835 352.633 407.641 353.51 409.226 354.712C410.811 355.913 412.144 357.415 413.148 359.131C414.152 360.848 414.808 362.745 415.079 364.716Z" fill="#2BA9E0"/>
<path d="M469.676 374.049C469.779 374.825 469.728 375.612 469.525 376.368C469.323 377.123 468.973 377.831 468.496 378.45C468.019 379.07 467.424 379.589 466.746 379.978C466.067 380.367 465.319 380.618 464.543 380.716C463.777 380.817 462.999 380.766 462.253 380.566C461.507 380.365 460.807 380.02 460.194 379.55C459.581 379.079 459.067 378.493 458.681 377.823C458.295 377.154 458.044 376.415 457.944 375.649C457.843 374.883 457.894 374.105 458.094 373.359C458.294 372.612 458.64 371.913 459.11 371.3C459.58 370.687 460.167 370.173 460.836 369.787C461.505 369.401 462.244 369.15 463.01 369.049C463.777 368.936 464.558 368.976 465.309 369.167C466.06 369.358 466.765 369.695 467.385 370.16C468.005 370.625 468.527 371.208 468.92 371.875C469.313 372.543 469.57 373.282 469.676 374.049Z" fill="#2BA9E0"/>
<path d="M647.201 437.117C648.36 436.436 649.285 435.42 649.856 434.203C650.428 432.987 650.618 431.626 650.402 430.299C650.186 428.973 649.575 427.742 648.647 426.77C647.72 425.797 646.52 425.127 645.206 424.848C643.891 424.569 642.523 424.694 641.28 425.207C640.038 425.719 638.979 426.595 638.244 427.72C637.508 428.845 637.129 430.166 637.157 431.51C637.186 432.853 637.619 434.157 638.401 435.25C639.37 436.604 640.811 437.546 642.439 437.891C644.067 438.237 645.766 437.96 647.201 437.117Z" fill="#2BA9E0"/>
<path d="M717.491 409.149C719.524 409.418 721.592 409.078 723.433 408.174C725.274 407.27 726.807 405.842 727.839 404.069C728.87 402.296 729.355 400.257 729.231 398.209C729.106 396.162 728.38 394.197 727.141 392.561C725.903 390.926 724.209 389.693 722.272 389.018C720.335 388.343 718.242 388.255 716.255 388.767C714.269 389.279 712.478 390.367 711.109 391.894C709.739 393.421 708.851 395.319 708.558 397.349C708.361 398.712 708.436 400.1 708.779 401.433C709.123 402.767 709.728 404.018 710.559 405.116C711.39 406.214 712.43 407.136 713.62 407.828C714.81 408.52 716.126 408.969 717.491 409.149Z" fill="#2BA9E0"/>
<path d="M586.79 353.362C588.223 352.784 589.451 351.793 590.32 350.516C591.189 349.239 591.659 347.732 591.67 346.187C591.682 344.643 591.234 343.129 590.385 341.839C589.535 340.549 588.321 339.54 586.898 338.94C585.474 338.341 583.904 338.178 582.388 338.471C580.871 338.765 579.476 339.503 578.379 340.591C577.282 341.678 576.533 343.067 576.226 344.582C575.92 346.096 576.07 347.667 576.657 349.096C577.441 351.001 578.946 352.519 580.844 353.318C582.743 354.117 584.88 354.133 586.79 353.362Z" fill="#2BA9E0"/>
<path d="M644.69 309.715C646.487 310.062 648.346 309.865 650.03 309.149C651.715 308.434 653.147 307.232 654.145 305.698C655.143 304.163 655.66 302.367 655.632 300.537C655.603 298.707 655.029 296.927 653.983 295.425C652.938 293.923 651.468 292.767 649.762 292.105C648.056 291.443 646.191 291.304 644.406 291.708C642.621 292.111 640.997 293.038 639.741 294.369C638.485 295.7 637.655 297.376 637.357 299.182C636.948 301.549 637.489 303.982 638.861 305.954C640.234 307.925 642.328 309.277 644.69 309.715Z" fill="#2BA9E0"/>
<path d="M606.803 433.717C607.486 433.925 608.214 433.926 608.897 433.72C609.58 433.513 610.186 433.109 610.638 432.557C611.09 432.006 611.369 431.332 611.438 430.622C611.507 429.913 611.363 429.198 611.026 428.57C610.688 427.942 610.172 427.428 609.542 427.093C608.912 426.759 608.196 426.62 607.487 426.693C606.778 426.765 606.106 427.047 605.557 427.503C605.008 427.958 604.606 428.566 604.404 429.25C604.134 430.161 604.234 431.141 604.684 431.978C605.133 432.814 605.895 433.44 606.803 433.717Z" fill="#2BA9E0"/>
<path d="M918.807 358.409C920.637 357.815 922.25 356.692 923.442 355.181C924.635 353.67 925.352 351.84 925.505 349.921C925.657 348.003 925.237 346.082 924.298 344.402C923.36 342.722 921.944 341.358 920.23 340.483C918.516 339.607 916.582 339.26 914.67 339.483C912.759 339.707 910.957 340.493 909.492 341.74C908.027 342.988 906.964 344.642 906.439 346.494C905.914 348.345 905.949 350.311 906.54 352.142C906.926 353.365 907.551 354.498 908.378 355.477C909.206 356.456 910.22 357.26 911.362 357.844C912.503 358.427 913.749 358.777 915.027 358.874C916.305 358.971 917.59 358.813 918.807 358.409Z" fill="#2BA9E0"/>
<path d="M872.58 383.756C873.529 382.696 874.142 381.38 874.343 379.972C874.544 378.564 874.323 377.128 873.709 375.845C873.095 374.563 872.115 373.49 870.893 372.764C869.67 372.038 868.26 371.69 866.84 371.764C865.419 371.838 864.053 372.331 862.913 373.181C861.773 374.031 860.91 375.2 860.433 376.54C859.956 377.879 859.886 379.33 860.233 380.71C860.58 382.089 861.327 383.335 862.381 384.29C863.084 384.927 863.907 385.419 864.801 385.737C865.695 386.056 866.643 386.194 867.591 386.145C868.539 386.095 869.468 385.858 870.324 385.449C871.181 385.039 871.947 384.464 872.58 383.756Z" fill="#2BA9E0"/>
<path d="M557.605 291.781C556.892 291.075 556.405 290.172 556.206 289.188C556.007 288.204 556.105 287.183 556.487 286.254C556.869 285.326 557.518 284.532 558.352 283.973C559.187 283.414 560.168 283.116 561.172 283.116C562.176 283.116 563.157 283.414 563.991 283.973C564.825 284.532 565.475 285.326 565.857 286.254C566.239 287.183 566.337 288.204 566.138 289.188C565.938 290.172 565.451 291.075 564.738 291.781C563.79 292.722 562.508 293.25 561.172 293.25C559.836 293.25 558.554 292.722 557.605 291.781Z" fill="#2BA9E0"/>
<path d="M812.405 410.696C811.465 409.748 810.937 408.466 810.937 407.13C810.937 405.794 811.465 404.512 812.405 403.563C812.81 402.976 813.336 402.483 813.947 402.116C814.558 401.749 815.241 401.517 815.949 401.436C816.657 401.354 817.375 401.425 818.053 401.644C818.732 401.863 819.356 402.224 819.883 402.703C820.411 403.183 820.83 403.77 821.112 404.425C821.394 405.079 821.533 405.787 821.519 406.5C821.505 407.212 821.339 407.914 821.032 408.557C820.725 409.201 820.284 409.771 819.738 410.23C819.303 410.766 818.762 411.206 818.148 411.522C817.535 411.839 816.863 412.025 816.174 412.069C815.485 412.112 814.794 412.013 814.146 411.777C813.497 411.541 812.905 411.173 812.405 410.696Z" fill="#2BA9E0"/>
<path d="M462.076 181.874C459.444 180.593 457.248 178.563 455.764 176.039C454.281 173.515 453.575 170.61 453.737 167.686C453.898 164.763 454.919 161.952 456.671 159.607C458.423 157.262 460.829 155.486 463.586 154.502C466.343 153.519 469.33 153.371 472.171 154.078C475.012 154.785 477.58 156.316 479.555 158.477C481.53 160.639 482.822 163.335 483.271 166.228C483.719 169.121 483.303 172.082 482.075 174.74C481.261 176.548 480.089 178.172 478.632 179.516C477.175 180.86 475.461 181.897 473.594 182.563C471.726 183.229 469.744 183.511 467.765 183.393C465.786 183.274 463.851 182.758 462.076 181.874Z" fill="#2BA9E0"/>
<path d="M774.424 200.534C772.722 199.745 771.293 198.469 770.317 196.866C769.342 195.264 768.865 193.408 768.946 191.534C769.028 189.659 769.664 187.852 770.774 186.34C771.885 184.828 773.42 183.68 775.184 183.042C776.948 182.404 778.861 182.304 780.682 182.756C782.503 183.208 784.148 184.19 785.41 185.578C786.671 186.967 787.492 188.699 787.767 190.554C788.043 192.41 787.761 194.306 786.957 196.001C786.434 197.123 785.695 198.132 784.781 198.968C783.867 199.804 782.797 200.451 781.633 200.873C780.468 201.294 779.232 201.481 777.995 201.423C776.757 201.365 775.544 201.063 774.424 200.534Z" fill="#2BA9E0"/>
<path d="M535.473 285.409C536.376 284.013 537.673 282.916 539.2 282.258C540.726 281.599 542.414 281.409 544.049 281.71C545.684 282.012 547.192 282.792 548.384 283.951C549.575 285.111 550.396 286.598 550.742 288.224C551.087 289.85 550.943 291.543 550.326 293.087C549.71 294.631 548.649 295.957 547.278 296.898C545.907 297.838 544.288 298.351 542.626 298.371C540.963 298.391 539.332 297.917 537.94 297.009C536.077 295.795 534.772 293.893 534.31 291.718C533.847 289.544 534.266 287.275 535.473 285.409Z" fill="#2BA9E0"/>
<path d="M415.079 226.341C415.501 229.323 415.028 232.362 413.721 235.075C412.413 237.787 410.329 240.05 407.733 241.576C405.138 243.103 402.147 243.824 399.141 243.648C396.135 243.472 393.249 242.407 390.849 240.588C388.45 238.769 386.644 236.279 385.662 233.432C384.679 230.585 384.565 227.511 385.332 224.599C386.099 221.688 387.714 219.069 389.972 217.077C392.23 215.084 395.028 213.807 398.013 213.407C399.983 213.135 401.987 213.253 403.911 213.756C405.835 214.259 407.641 215.136 409.226 216.337C410.811 217.538 412.144 219.04 413.148 220.756C414.152 222.473 414.808 224.371 415.079 226.341Z" fill="#2BA9E0"/>
<path d="M469.676 235.675C469.779 236.45 469.728 237.238 469.525 237.993C469.323 238.748 468.973 239.456 468.496 240.075C468.019 240.695 467.424 241.214 466.746 241.603C466.067 241.992 465.319 242.243 464.543 242.341C463.777 242.442 462.999 242.391 462.253 242.191C461.507 241.991 460.807 241.646 460.194 241.175C459.581 240.705 459.067 240.118 458.681 239.449C458.295 238.78 458.044 238.041 457.944 237.275C457.843 236.509 457.894 235.73 458.094 234.984C458.294 234.238 458.64 233.538 459.11 232.925C459.58 232.312 460.167 231.798 460.836 231.412C461.505 231.026 462.244 230.775 463.01 230.675C463.777 230.562 464.558 230.602 465.309 230.792C466.06 230.983 466.765 231.32 467.385 231.785C468.005 232.25 468.527 232.833 468.92 233.501C469.313 234.168 469.57 234.907 469.676 235.675Z" fill="#2BA9E0"/>
<path d="M647.201 298.742C648.36 298.061 649.285 297.045 649.856 295.829C650.428 294.612 650.618 293.251 650.402 291.925C650.186 290.598 649.575 289.368 648.647 288.395C647.72 287.422 646.52 286.752 645.206 286.473C643.891 286.195 642.523 286.319 641.28 286.832C640.038 287.345 638.979 288.221 638.244 289.345C637.508 290.47 637.129 291.791 637.157 293.135C637.186 294.479 637.619 295.782 638.401 296.875C639.37 298.229 640.811 299.171 642.439 299.517C644.067 299.862 645.766 299.586 647.201 298.742Z" fill="#2BA9E0"/>
<path d="M717.491 270.775C719.524 271.043 721.592 270.704 723.433 269.8C725.274 268.896 726.807 267.467 727.839 265.694C728.87 263.921 729.355 261.882 729.231 259.835C729.106 257.787 728.38 255.822 727.141 254.186C725.903 252.551 724.209 251.318 722.272 250.643C720.335 249.968 718.242 249.881 716.255 250.393C714.269 250.904 712.478 251.992 711.109 253.519C709.739 255.046 708.851 256.944 708.558 258.975C708.361 260.337 708.436 261.725 708.779 263.059C709.123 264.392 709.728 265.644 710.559 266.741C711.39 267.839 712.43 268.761 713.62 269.453C714.81 270.146 716.126 270.595 717.491 270.775Z" fill="#2BA9E0"/>
<path d="M586.79 214.988C588.223 214.409 589.451 213.419 590.32 212.141C591.189 210.864 591.659 209.358 591.67 207.813C591.682 206.268 591.234 204.754 590.385 203.464C589.535 202.174 588.321 201.165 586.898 200.566C585.474 199.966 583.904 199.803 582.388 200.097C580.871 200.391 579.476 201.128 578.379 202.216C577.282 203.304 576.533 204.693 576.226 206.207C575.92 207.721 576.07 209.292 576.657 210.721C577.441 212.626 578.946 214.144 580.844 214.943C582.743 215.743 584.88 215.759 586.79 214.988Z" fill="#2BA9E0"/>
<path d="M644.69 171.34C646.487 171.687 648.346 171.49 650.03 170.775C651.715 170.059 653.147 168.857 654.145 167.323C655.143 165.789 655.66 163.992 655.632 162.162C655.603 160.332 655.029 158.552 653.983 157.05C652.938 155.548 651.468 154.392 649.762 153.73C648.056 153.068 646.191 152.93 644.406 153.333C642.621 153.736 640.997 154.663 639.741 155.994C638.485 157.326 637.655 159.001 637.357 160.807C636.948 163.174 637.489 165.607 638.861 167.579C640.234 169.55 642.328 170.902 644.69 171.34Z" fill="#2BA9E0"/>
<path d="M606.803 295.342C607.486 295.551 608.214 295.551 608.897 295.345C609.58 295.138 610.186 294.734 610.638 294.183C611.09 293.631 611.369 292.958 611.438 292.248C611.507 291.538 611.363 290.823 611.026 290.195C610.688 289.567 610.172 289.053 609.542 288.719C608.912 288.384 608.196 288.245 607.487 288.318C606.778 288.391 606.106 288.673 605.557 289.128C605.008 289.583 604.606 290.192 604.404 290.875C604.134 291.786 604.234 292.766 604.684 293.603C605.133 294.44 605.895 295.065 606.803 295.342Z" fill="#2BA9E0"/>
<path d="M918.807 220.034C920.637 219.44 922.25 218.317 923.442 216.806C924.635 215.295 925.352 213.465 925.505 211.547C925.657 209.628 925.237 207.708 924.298 206.028C923.36 204.348 921.944 202.984 920.23 202.108C918.516 201.233 916.582 200.885 914.67 201.109C912.759 201.332 910.957 202.118 909.492 203.366C908.027 204.614 906.964 206.268 906.439 208.119C905.914 209.97 905.949 211.936 906.54 213.768C906.926 214.99 907.551 216.124 908.378 217.103C909.206 218.081 910.22 218.886 911.362 219.469C912.503 220.052 913.749 220.402 915.027 220.5C916.305 220.597 917.59 220.438 918.807 220.034Z" fill="#2BA9E0"/>
<path d="M872.58 245.381C873.529 244.322 874.142 243.005 874.343 241.597C874.544 240.189 874.323 238.753 873.709 237.471C873.095 236.188 872.115 235.116 870.893 234.389C869.67 233.663 868.26 233.315 866.84 233.389C865.419 233.464 864.053 233.957 862.913 234.807C861.773 235.657 860.91 236.825 860.433 238.165C859.956 239.505 859.886 240.956 860.233 242.335C860.58 243.714 861.327 244.96 862.381 245.915C863.084 246.552 863.907 247.044 864.801 247.363C865.695 247.681 866.643 247.819 867.591 247.77C868.539 247.72 869.468 247.484 870.324 247.074C871.181 246.664 871.947 246.089 872.58 245.381Z" fill="#2BA9E0"/>
<path d="M557.605 153.407C556.892 152.7 556.405 151.797 556.206 150.813C556.007 149.829 556.105 148.808 556.487 147.88C556.869 146.951 557.518 146.157 558.352 145.598C559.187 145.04 560.168 144.741 561.172 144.741C562.176 144.741 563.157 145.04 563.991 145.598C564.825 146.157 565.475 146.951 565.857 147.88C566.239 148.808 566.337 149.829 566.138 150.813C565.938 151.797 565.451 152.7 564.738 153.407C563.79 154.347 562.508 154.875 561.172 154.875C559.836 154.875 558.554 154.347 557.605 153.407Z" fill="#2BA9E0"/>
<path d="M812.405 272.322C811.465 271.373 810.937 270.091 810.937 268.755C810.937 267.419 811.465 266.137 812.405 265.188C812.81 264.602 813.336 264.108 813.947 263.741C814.558 263.374 815.241 263.143 815.949 263.061C816.657 262.98 817.375 263.051 818.053 263.269C818.732 263.488 819.356 263.849 819.883 264.329C820.411 264.808 820.83 265.395 821.112 266.05C821.394 266.705 821.533 267.412 821.519 268.125C821.505 268.838 821.339 269.539 821.032 270.183C820.725 270.826 820.284 271.396 819.738 271.855C819.303 272.391 818.762 272.831 818.148 273.148C817.535 273.464 816.863 273.65 816.174 273.694C815.485 273.738 814.794 273.639 814.146 273.402C813.497 273.166 812.905 272.798 812.405 272.322Z" fill="#2BA9E0"/>
<path d="M-10.0351 165.872C-12.6676 164.591 -14.8634 162.562 -16.347 160.038C-17.8306 157.514 -18.5361 154.608 -18.3748 151.685C-18.2136 148.761 -17.1929 145.951 -15.4407 143.605C-13.6885 141.26 -11.2829 139.484 -8.52547 138.501C-5.76806 137.517 -2.78164 137.37 0.0592241 138.077C2.90009 138.784 5.46894 140.314 7.44361 142.476C9.41828 144.637 10.7109 147.333 11.1592 150.227C11.6076 153.12 11.1918 156.081 9.96397 158.739C9.14922 160.546 7.97805 162.171 6.52062 163.515C5.0632 164.859 3.3495 165.895 1.48217 166.561C-0.385163 167.227 -2.36772 167.509 -4.34673 167.391C-6.32575 167.273 -8.2605 166.756 -10.0351 165.872Z" fill="#2BA9E0"/>
<path d="M302.313 184.532C300.611 183.744 299.181 182.467 298.206 180.865C297.231 179.262 296.753 177.406 296.835 175.532C296.916 173.658 297.553 171.85 298.663 170.338C299.774 168.826 301.308 167.678 303.072 167.04C304.836 166.402 306.75 166.303 308.571 166.754C310.391 167.206 312.037 168.188 313.298 169.577C314.56 170.965 315.38 172.697 315.656 174.553C315.931 176.408 315.649 178.304 314.845 179.999C314.323 181.122 313.583 182.13 312.669 182.966C311.756 183.802 310.686 184.45 309.521 184.871C308.357 185.292 307.12 185.479 305.883 185.421C304.646 185.363 303.433 185.061 302.313 184.532Z" fill="#2BA9E0"/>
<path d="M63.3616 269.407C64.2646 268.011 65.5615 266.914 67.0881 266.256C68.6147 265.598 70.3023 265.407 71.9372 265.709C73.5722 266.01 75.0809 266.79 76.2723 267.95C77.4637 269.109 78.2843 270.596 78.6301 272.222C78.9759 273.849 78.8313 275.541 78.2148 277.085C77.5982 278.629 76.5374 279.955 75.1666 280.896C73.7957 281.837 72.1766 282.349 70.5142 282.369C68.8518 282.389 67.221 281.915 65.8281 281.007C63.9659 279.793 62.6606 277.891 62.1983 275.717C61.7359 273.542 62.1543 271.273 63.3616 269.407Z" fill="#2BA9E0"/>
<path d="M175.09 282.74C176.248 282.059 177.174 281.044 177.745 279.827C178.316 278.61 178.507 277.25 178.291 275.923C178.075 274.597 177.463 273.366 176.536 272.393C175.609 271.42 174.409 270.751 173.094 270.472C171.779 270.193 170.411 270.318 169.169 270.83C167.926 271.343 166.868 272.219 166.132 273.344C165.396 274.469 165.018 275.79 165.046 277.133C165.074 278.477 165.508 279.781 166.29 280.874C167.259 282.227 168.699 283.17 170.328 283.515C171.956 283.861 173.655 283.584 175.09 282.74Z" fill="#2BA9E0"/>
<path d="M245.379 254.773C247.413 255.041 249.48 254.702 251.322 253.798C253.163 252.894 254.696 251.466 255.727 249.692C256.759 247.919 257.243 245.881 257.119 243.833C256.995 241.786 256.268 239.82 255.03 238.185C253.792 236.549 252.098 235.316 250.161 234.641C248.224 233.966 246.13 233.879 244.144 234.391C242.158 234.903 240.367 235.991 238.997 237.518C237.628 239.045 236.74 240.943 236.446 242.973C236.249 244.336 236.325 245.724 236.668 247.057C237.011 248.39 237.616 249.642 238.447 250.74C239.278 251.838 240.319 252.759 241.509 253.452C242.699 254.144 244.014 254.593 245.379 254.773Z" fill="#2BA9E0"/>
<path d="M114.679 198.986C116.111 198.408 117.34 197.417 118.209 196.14C119.077 194.862 119.547 193.356 119.559 191.811C119.57 190.266 119.123 188.753 118.273 187.463C117.423 186.172 116.21 185.164 114.786 184.564C113.362 183.965 111.793 183.801 110.276 184.095C108.76 184.389 107.364 185.127 106.267 186.214C105.17 187.302 104.421 188.691 104.115 190.205C103.808 191.719 103.958 193.291 104.546 194.719C105.329 196.624 106.834 198.142 108.733 198.942C110.631 199.741 112.769 199.757 114.679 198.986Z" fill="#2BA9E0"/>
<path d="M172.578 155.339C174.375 155.686 176.235 155.489 177.919 154.773C179.603 154.057 181.036 152.856 182.034 151.321C183.031 149.787 183.549 147.99 183.52 146.16C183.491 144.33 182.917 142.551 181.872 141.049C180.826 139.547 179.356 138.391 177.65 137.728C175.944 137.066 174.079 136.928 172.294 137.331C170.509 137.735 168.885 138.661 167.629 139.993C166.374 141.324 165.543 143 165.245 144.805C164.837 147.173 165.377 149.606 166.75 151.577C168.122 153.549 170.216 154.9 172.578 155.339Z" fill="#2BA9E0"/>
<path d="M134.692 279.341C135.374 279.549 136.103 279.55 136.785 279.343C137.468 279.137 138.074 278.732 138.527 278.181C138.979 277.629 139.257 276.956 139.326 276.246C139.395 275.536 139.252 274.822 138.914 274.193C138.577 273.565 138.06 273.051 137.43 272.717C136.8 272.383 136.085 272.243 135.376 272.316C134.666 272.389 133.994 272.671 133.445 273.126C132.896 273.582 132.495 274.19 132.292 274.874C132.022 275.784 132.123 276.765 132.572 277.601C133.022 278.438 133.784 279.063 134.692 279.341Z" fill="#2BA9E0"/>
<path d="M536.495 245.42C537.105 244.416 537.403 243.254 537.352 242.081C537.301 240.908 536.903 239.776 536.209 238.829C535.514 237.882 534.554 237.162 533.45 236.762C532.346 236.361 531.148 236.296 530.008 236.577C528.868 236.857 527.836 237.47 527.044 238.337C526.252 239.204 525.735 240.287 525.559 241.448C525.383 242.609 525.555 243.796 526.054 244.859C526.553 245.923 527.356 246.814 528.362 247.42C529.711 248.213 531.316 248.448 532.835 248.074C534.354 247.7 535.668 246.748 536.495 245.42Z" fill="#2BA9E0"/>
<path d="M446.695 204.033C448.526 203.439 450.139 202.315 451.331 200.805C452.523 199.294 453.241 197.464 453.393 195.545C453.546 193.627 453.126 191.706 452.187 190.026C451.248 188.346 449.832 186.982 448.119 186.107C446.405 185.231 444.47 184.883 442.559 185.107C440.647 185.331 438.845 186.116 437.38 187.364C435.915 188.612 434.853 190.266 434.328 192.117C433.802 193.969 433.838 195.935 434.429 197.766C434.814 198.988 435.439 200.122 436.267 201.101C437.095 202.08 438.109 202.884 439.25 203.467C440.392 204.051 441.638 204.401 442.916 204.498C444.194 204.595 445.479 204.437 446.695 204.033Z" fill="#2BA9E0"/>
<path d="M400.469 229.38C401.417 228.32 402.031 227.003 402.231 225.595C402.432 224.188 402.212 222.752 401.598 221.469C400.984 220.186 400.004 219.114 398.781 218.388C397.559 217.661 396.148 217.313 394.728 217.388C393.308 217.462 391.942 217.955 390.801 218.805C389.661 219.655 388.798 220.823 388.321 222.163C387.844 223.503 387.775 224.954 388.122 226.333C388.468 227.712 389.216 228.958 390.269 229.913C390.973 230.551 391.795 231.043 392.689 231.361C393.584 231.679 394.532 231.818 395.48 231.768C396.428 231.719 397.357 231.482 398.213 231.072C399.069 230.662 399.836 230.087 400.469 229.38Z" fill="#2BA9E0"/>
<path d="M574.077 197.886C575.709 197.433 577.169 196.504 578.271 195.218C579.373 193.932 580.068 192.347 580.267 190.664C580.465 188.982 580.159 187.279 579.386 185.772C578.614 184.264 577.41 183.021 575.928 182.2C574.447 181.379 572.755 181.017 571.067 181.161C569.379 181.305 567.773 181.948 566.452 183.009C565.131 184.069 564.155 185.498 563.649 187.115C563.143 188.731 563.13 190.462 563.61 192.086C564.231 194.242 565.681 196.064 567.643 197.152C569.606 198.239 571.92 198.503 574.077 197.886Z" fill="#2BA9E0"/>
<path d="M85.494 137.405C84.7809 136.698 84.2939 135.796 84.0947 134.812C83.8956 133.828 83.9932 132.806 84.3754 131.878C84.7575 130.95 85.4069 130.156 86.241 129.597C87.0752 129.038 88.0565 128.74 89.0605 128.74C90.0644 128.74 91.0458 129.038 91.8799 129.597C92.7141 130.156 93.3634 130.95 93.7456 131.878C94.1277 132.806 94.2254 133.828 94.0262 134.812C93.8271 135.796 93.3401 136.698 92.627 137.405C91.6782 138.346 90.3963 138.873 89.0605 138.873C87.7246 138.873 86.4428 138.346 85.494 137.405Z" fill="#2BA9E0"/>
<path d="M340.294 256.32C339.353 255.371 338.826 254.089 338.826 252.753C338.826 251.417 339.353 250.136 340.294 249.187C340.699 248.6 341.224 248.107 341.836 247.74C342.447 247.373 343.129 247.141 343.838 247.059C344.546 246.978 345.263 247.049 345.942 247.268C346.62 247.486 347.244 247.848 347.772 248.327C348.299 248.807 348.718 249.393 349 250.048C349.282 250.703 349.421 251.41 349.407 252.123C349.394 252.836 349.228 253.538 348.921 254.181C348.613 254.824 348.172 255.395 347.627 255.854C347.192 256.39 346.65 256.83 346.037 257.146C345.424 257.462 344.751 257.648 344.062 257.692C343.374 257.736 342.683 257.637 342.034 257.401C341.386 257.165 340.793 256.797 340.294 256.32Z" fill="#2BA9E0"/>
<path d="M379.201 22.1042C379.307 19.5813 380.157 17.1461 381.644 15.1052C383.131 13.0644 385.189 11.5089 387.558 10.6347C389.927 9.76055 392.501 9.60663 394.957 10.1923C397.414 10.778 399.642 12.0772 401.361 13.9264C403.081 15.7755 404.215 18.092 404.621 20.5844C405.028 23.0767 404.688 25.6335 403.644 27.933C402.601 30.2325 400.9 32.172 398.757 33.5074C396.614 34.8428 394.124 35.5144 391.6 35.4378C389.904 35.3953 388.234 35.0144 386.688 34.3176C385.142 33.6208 383.75 32.622 382.595 31.3799C381.44 30.1379 380.545 28.6775 379.962 27.0847C379.379 25.4918 379.12 23.7985 379.201 22.1042Z" fill="#2BA9E0"/>
<path d="M111.079 488.911C108.837 486.409 107.39 483.297 106.922 479.971C106.453 476.644 106.985 473.254 108.449 470.23C109.912 467.207 112.242 464.687 115.142 462.991C118.042 461.296 121.38 460.501 124.733 460.708C128.086 460.915 131.301 462.115 133.97 464.155C136.639 466.195 138.641 468.982 139.722 472.163C140.802 475.344 140.912 478.774 140.038 482.017C139.163 485.261 137.344 488.171 134.811 490.378C131.464 493.317 127.089 494.813 122.643 494.538C118.196 494.263 114.039 492.24 111.079 488.911Z" fill="#2BA9E0"/>
<path d="M863.245 414.11C864.156 412.74 865.451 411.67 866.968 411.035C868.484 410.4 870.155 410.228 871.77 410.541C873.384 410.853 874.87 411.637 876.04 412.792C877.211 413.947 878.013 415.423 878.346 417.034C878.679 418.644 878.528 420.317 877.913 421.842C877.297 423.367 876.244 424.676 874.886 425.603C873.528 426.531 871.926 427.036 870.282 427.055C868.637 427.074 867.024 426.606 865.645 425.71C863.794 424.486 862.502 422.579 862.053 420.405C861.603 418.231 862.032 415.968 863.245 414.11Z" fill="#2BA9E0"/>
<path d="M623.256 35.8378C621.409 37.9419 618.801 39.2258 616.007 39.4071C613.213 39.5884 610.461 38.6522 608.357 36.8045C606.253 34.9568 604.969 32.3489 604.788 29.5546C604.607 26.7603 605.543 24.0084 607.39 21.9043C608.305 20.8625 609.416 20.011 610.66 19.3986C611.904 18.7862 613.256 18.4248 614.64 18.335C616.023 18.2453 617.411 18.4289 618.724 18.8754C620.036 19.322 621.248 20.0227 622.29 20.9376C623.332 21.8525 624.183 22.9637 624.795 24.2076C625.408 25.4515 625.769 26.8039 625.859 28.1875C625.949 29.5711 625.765 30.9589 625.318 32.2715C624.872 33.5842 624.171 34.796 623.256 35.8378Z" fill="#2BA9E0"/>
<path d="M467.264 44.7046C476.836 44.7046 484.596 36.9441 484.596 27.3711C484.596 17.798 476.836 10.0375 467.264 10.0375C457.691 10.0375 449.931 17.798 449.931 27.3711C449.931 36.9441 457.691 44.7046 467.264 44.7046Z" fill="#2BA9E0"/>
<path d="M828.114 119.039C828.216 119.819 828.163 120.612 827.956 121.371C827.749 122.13 827.394 122.841 826.91 123.461C826.426 124.081 825.823 124.599 825.137 124.985C824.452 125.37 823.696 125.615 822.914 125.706C821.365 125.88 819.808 125.45 818.567 124.507C817.326 123.564 816.495 122.178 816.248 120.639C816.045 119.056 816.478 117.458 817.453 116.195C818.428 114.933 819.865 114.109 821.448 113.906C823.03 113.702 824.628 114.136 825.891 115.111C827.154 116.086 827.977 117.523 828.181 119.106L828.114 119.039Z" fill="#2BA9E0"/>
<path d="M735.718 135.372C733.469 132.877 732.012 129.769 731.534 126.444C731.056 123.119 731.578 119.726 733.033 116.698C734.488 113.67 736.811 111.144 739.706 109.44C742.602 107.736 745.938 106.932 749.292 107.13C752.645 107.327 755.864 108.518 758.539 110.551C761.213 112.583 763.223 115.366 764.312 118.544C765.402 121.722 765.521 125.152 764.655 128.398C763.789 131.644 761.978 134.559 759.451 136.772C757.801 138.24 755.878 139.369 753.792 140.093C751.707 140.817 749.498 141.123 747.294 140.993C745.09 140.862 742.933 140.299 740.947 139.335C738.96 138.371 737.184 137.024 735.718 135.372Z" fill="#2BA9E0"/>
</g>
<defs>
<clipPath id="clip0_258_650">
<rect width="931" height="666.247" fill="white"/>
</clipPath>
</defs>
</svg>
