<svg width="201" height="133" viewBox="0 0 201 133" fill="none" xmlns="http://www.w3.org/2000/svg">
<path d="M175.689 14.1816H140.863V76.5868H175.689V14.1816Z" fill="#EBEBEB"/>
<path d="M173.937 15.9912H142.254V74.7277H173.937V15.9912Z" fill="#FAFAFA"/>
<path d="M177.162 77.1493L175.688 76.5867V13.123H177.162V77.1493Z" fill="#E0E0E0"/>
<path d="M174.625 32.8882H142.254V33.5135H174.625V32.8882Z" fill="#E0E0E0"/>
<path d="M174.625 46.8755H142.254V47.5009H174.625V46.8755Z" fill="#E0E0E0"/>
<path d="M174.625 60.8633H142.254V61.4886H174.625V60.8633Z" fill="#E0E0E0"/>
<path d="M157.296 33.2013V76.3936H158.897V33.2013H157.296Z" fill="#E0E0E0"/>
<path d="M149.081 15.9912H148.355V33.2006H149.081V15.9912Z" fill="#E0E0E0"/>
<path d="M155.334 15.9912H154.609V33.2006H155.334V15.9912Z" fill="#E0E0E0"/>
<path d="M161.589 15.9912H160.864V33.2006H161.589V15.9912Z" fill="#E0E0E0"/>
<path d="M167.844 15.9912H167.119V33.2006H167.844V15.9912Z" fill="#E0E0E0"/>
<path d="M140.862 13.123H139.39V76.9729H140.862V13.123Z" fill="#E0E0E0"/>
<path d="M177.161 12.479H139.39V14.1817H177.161V12.479Z" fill="#E0E0E0"/>
<path d="M178.158 77.3594H138.345V78.9458H178.158V77.3594Z" fill="#E0E0E0"/>
<path d="M175.688 76.5869L178.158 77.3594H138.345L140.863 76.5869H175.688Z" fill="#E0E0E0"/>
<path d="M27.2695 91.9058H16.5068V94.7458H27.2695V91.9058Z" fill="#EBEBEB"/>
<path d="M22.7187 97.7371C22.7176 97.736 22.7166 97.7184 22.7152 97.6854C22.7144 97.6474 22.7131 97.5995 22.7118 97.5397C22.7099 97.4059 22.7072 97.2197 22.7038 96.9808C22.6995 96.4906 22.6931 95.7857 22.6854 94.897L22.7187 94.9302C20.2614 94.935 16.3531 94.943 11.9568 94.9518C11.9811 94.9276 11.9016 95.0063 12.011 94.8972V94.898V94.8994V94.9023V94.9079V94.9193V94.9422V94.9879V95.0792V95.2614C12.011 95.3827 12.011 95.5034 12.011 95.6237C12.011 95.8644 12.011 96.1033 12.0107 96.3403C12.0104 96.8143 12.0102 97.2806 12.0099 97.7373L11.9563 97.6838C15.0211 97.6934 17.7027 97.7022 19.6262 97.7081C20.5843 97.7144 21.3531 97.7198 21.8899 97.7232C22.1512 97.7261 22.3558 97.7285 22.5022 97.7301C22.568 97.7315 22.6208 97.7328 22.6622 97.7336C22.6984 97.7349 22.7176 97.736 22.7187 97.7371C22.7198 97.7381 22.703 97.7394 22.6688 97.7405C22.6291 97.7413 22.5784 97.7426 22.5152 97.744C22.3715 97.7456 22.171 97.7479 21.9147 97.7509C21.3806 97.7546 20.616 97.7597 19.6632 97.766C17.7304 97.7722 15.0358 97.7807 11.956 97.7902L11.9024 97.7905V97.7368C11.9022 97.2801 11.9019 96.8138 11.9016 96.3397C11.9016 96.1027 11.9016 95.8639 11.9014 95.6231C11.9014 95.5029 11.9014 95.3819 11.9014 95.2609V95.0786V94.9874V94.9417V94.9188V94.9073V94.9017V94.8988V94.8975V94.8967C12.011 94.7874 11.932 94.8664 11.9568 94.8419C16.3531 94.8507 20.2614 94.8584 22.7187 94.8634H22.7523L22.752 94.8967C22.744 95.7939 22.7379 96.5055 22.7336 97.0005C22.7302 97.2362 22.7275 97.42 22.7256 97.5519C22.7243 97.6094 22.723 97.6551 22.7222 97.6918C22.7208 97.7229 22.7198 97.7381 22.7187 97.7371Z" fill="#E0E0E0"/>
<path d="M25.0439 18.4988C25.0428 18.4977 25.0418 18.4801 25.0407 18.4472C25.0399 18.4091 25.0386 18.3612 25.0372 18.3014C25.0354 18.1679 25.0327 17.9814 25.0292 17.7425C25.025 17.2523 25.0186 16.5474 25.0108 15.6587L25.0442 15.6919C22.5868 15.6967 18.6786 15.7047 14.2823 15.7135C14.3066 15.689 14.2271 15.768 14.3364 15.659V15.6597V15.6611V15.664V15.6696V15.681V15.7039V15.7497V15.8409V16.0231C14.3364 16.1441 14.3364 16.2652 14.3364 16.3854C14.3364 16.6261 14.3364 16.865 14.3362 17.102C14.3359 17.576 14.3356 18.0423 14.3354 18.499L14.2818 18.4456C17.3466 18.4551 20.0282 18.4639 21.9514 18.4698C22.9095 18.4762 23.6783 18.4815 24.2151 18.4849C24.4762 18.4879 24.681 18.4903 24.8274 18.4919C24.8932 18.4932 24.946 18.4945 24.9874 18.4953C25.0236 18.4964 25.0428 18.4974 25.0439 18.4988C25.045 18.4998 25.0282 18.5012 24.994 18.5022C24.9543 18.503 24.9036 18.5044 24.8404 18.5057C24.6967 18.5073 24.4962 18.5097 24.2399 18.5126C23.7058 18.5163 22.9412 18.5214 21.9884 18.5278C20.0556 18.5339 17.361 18.5424 14.2812 18.552L14.2276 18.5522V18.4985C14.2274 18.0418 14.2271 17.5755 14.2268 17.1015C14.2268 16.8645 14.2266 16.6253 14.2266 16.3849C14.2266 16.2646 14.2266 16.1436 14.2266 16.0226V15.8404V15.7491V15.7034V15.6805V15.6691V15.6635V15.6605V15.6592V15.6584C14.3362 15.5491 14.2575 15.6281 14.282 15.6036C18.6783 15.6124 22.5866 15.6201 25.0439 15.6252H25.0775L25.0772 15.6584C25.0695 16.5556 25.0631 17.2672 25.0588 17.7622C25.0554 17.9979 25.0527 18.1817 25.0508 18.3136C25.0495 18.3711 25.0482 18.4168 25.0474 18.4535C25.046 18.4847 25.045 18.4998 25.0439 18.4988Z" fill="#E0E0E0"/>
<path d="M189.465 93.3289C189.464 93.3278 189.463 93.3103 189.461 93.2773C189.461 93.2392 189.459 93.1914 189.458 93.1315C189.456 92.9977 189.453 92.8115 189.45 92.5727C189.446 92.0824 189.439 91.3775 189.431 90.4888L189.465 90.5221C187.007 90.5268 183.099 90.5348 178.703 90.5433C178.727 90.5191 178.648 90.5979 178.757 90.4888V90.4896V90.4909V90.4939V90.4997V90.5112V90.534V90.5798V90.671V90.8532C178.757 90.9745 178.757 91.0953 178.757 91.2155C178.757 91.4563 178.757 91.6951 178.757 91.9324C178.757 92.4064 178.756 92.8727 178.756 93.3294L178.702 93.276C181.767 93.2855 184.449 93.294 186.372 93.3002C187.33 93.3065 188.099 93.3119 188.636 93.3153C188.897 93.3182 189.102 93.3206 189.248 93.3222C189.314 93.3236 189.367 93.3249 189.408 93.3257C189.445 93.3265 189.464 93.3278 189.465 93.3289C189.466 93.33 189.449 93.3313 189.415 93.3323C189.375 93.3331 189.325 93.3345 189.261 93.3358C189.118 93.3374 188.917 93.3398 188.661 93.3427C188.127 93.3464 187.362 93.3515 186.409 93.3579C184.477 93.364 181.782 93.3725 178.702 93.3821L178.649 93.3824V93.3286C178.648 92.8719 178.648 92.4056 178.648 91.9316C178.648 91.6946 178.647 91.4554 178.647 91.2147C178.647 91.0945 178.647 90.9737 178.647 90.8524V90.6702V90.579V90.5332V90.5104V90.4989V90.4931V90.4901V90.4888V90.488C178.757 90.3787 178.678 90.4577 178.703 90.4332C183.099 90.442 187.007 90.4497 189.465 90.4548H189.498L189.498 90.488C189.49 91.3852 189.484 92.0968 189.48 92.5918C189.476 92.8275 189.474 93.0113 189.472 93.1432C189.47 93.2007 189.469 93.2467 189.468 93.2831C189.467 93.3148 189.466 93.33 189.465 93.3289Z" fill="#E0E0E0"/>
<path d="M46.1523 35.0274C46.1512 35.0264 46.1502 35.0088 46.1491 34.9758C46.1483 34.9378 46.147 34.8899 46.1456 34.83C46.1438 34.6965 46.1408 34.51 46.1376 34.2712C46.1334 33.7809 46.127 33.076 46.1192 32.1873L46.1526 32.2206C43.6952 32.2254 39.787 32.2334 35.3907 32.2421C35.415 32.2177 35.3355 32.2967 35.4448 32.1876V32.1884V32.1897V32.1927V32.1982V32.2097V32.2326V32.2783V32.3695V32.5518C35.4448 32.6731 35.4448 32.7938 35.4448 32.9141C35.4448 33.1548 35.4446 33.3936 35.4446 33.6307C35.4443 34.1047 35.444 34.571 35.4438 35.0277L35.3902 34.9742C38.455 34.9841 41.1366 34.9923 43.06 34.9984C44.0182 35.0048 44.787 35.0101 45.324 35.0136C45.5851 35.0165 45.7899 35.0189 45.936 35.0208C46.0019 35.0221 46.0547 35.0234 46.096 35.0242C46.132 35.025 46.1512 35.0264 46.1523 35.0274C46.1534 35.0285 46.1366 35.0298 46.1024 35.0309C46.0627 35.0317 46.012 35.0327 45.9488 35.0343C45.8051 35.0359 45.6046 35.0383 45.3483 35.0413C44.8142 35.045 44.0496 35.05 43.0968 35.0564C41.164 35.0625 38.4694 35.071 35.3896 35.0809L35.336 35.0812V35.0274C35.3358 34.5707 35.3355 34.1044 35.3352 33.6304C35.3352 33.3934 35.335 33.1545 35.335 32.9138C35.335 32.7936 35.335 32.6728 35.335 32.5515V32.3693V32.278V32.2323V32.2094V32.198V32.1924V32.1895V32.1881V32.1873C35.4446 32.0777 35.3659 32.157 35.3904 32.1325C39.7867 32.1413 43.695 32.149 46.1523 32.1541H46.1859L46.1856 32.1873C46.1779 33.0846 46.1715 33.7961 46.1672 34.2911C46.1638 34.5268 46.1611 34.7106 46.1592 34.8425C46.1579 34.9 46.1566 34.946 46.1558 34.9825C46.1547 35.0133 46.1536 35.0285 46.1523 35.0274Z" fill="#E0E0E0"/>
<path d="M47.6121 32.1873C47.6107 32.186 47.6094 32.1676 47.6081 32.1333C47.607 32.0926 47.6054 32.0431 47.6038 31.9828C47.6014 31.8431 47.5982 31.6529 47.5939 31.4132C47.5889 30.9153 47.5817 30.212 47.5726 29.3472L47.6121 29.3866C45.9369 29.3906 43.6579 29.3959 41.1459 29.402C41.0966 29.451 41.2121 29.3353 41.2003 29.3475V29.3483V29.3496V29.3525V29.3584V29.3701V29.3935V29.4401V29.5332V29.7188C41.2003 29.8422 41.2003 29.9651 41.2001 30.0872C41.1998 30.3314 41.1998 30.5724 41.1995 30.8102C41.1987 31.2853 41.1982 31.746 41.1977 32.1873L41.1454 32.1352C43.0121 32.1453 44.6193 32.1538 45.7713 32.1599C46.3393 32.166 46.7947 32.1708 47.1187 32.1743C47.2702 32.1769 47.3905 32.1791 47.4822 32.1809C47.5654 32.183 47.6097 32.1852 47.6121 32.1873C47.6142 32.1894 47.5739 32.1916 47.4947 32.1937C47.4059 32.1953 47.2891 32.1974 47.1422 32.2003C46.8209 32.2038 46.3697 32.2086 45.8067 32.2147C44.6462 32.2208 43.0267 32.2296 41.1457 32.2394L41.0934 32.2397V32.1873C41.0929 31.746 41.0921 31.2853 41.0915 30.8102C41.0913 30.5727 41.0913 30.3314 41.091 30.0872C41.091 29.9651 41.091 29.8422 41.0907 29.7188V29.5332V29.4401V29.3935V29.3701V29.3584V29.3525V29.3496V29.3483V29.3475C41.0787 29.3589 41.1947 29.2435 41.1459 29.2924C43.6577 29.2983 45.9369 29.3039 47.6121 29.3079H47.6518L47.6515 29.347C47.6427 30.2218 47.6355 30.9331 47.6305 31.4369C47.6262 31.6729 47.623 31.8599 47.6206 31.9976C47.6174 32.1248 47.6147 32.19 47.6121 32.1873Z" fill="#E0E0E0"/>
<path d="M187.978 34.0975C187.977 34.0964 187.976 34.0789 187.975 34.0459C187.974 34.0079 187.973 33.96 187.972 33.9001C187.97 33.7666 187.967 33.5801 187.964 33.3413C187.96 32.851 187.953 32.1461 187.945 31.2574L187.979 31.2907C185.521 31.2955 181.613 31.3034 177.217 31.3122C177.241 31.2878 177.162 31.3668 177.271 31.2577V31.2585V31.2598V31.2627V31.2683V31.2798V31.3026V31.3484V31.4396V31.6218C177.271 31.7431 177.271 31.8639 177.271 31.9841C177.271 32.2249 177.271 32.4637 177.271 32.7007C177.27 33.1748 177.27 33.6411 177.27 34.0978L177.216 34.0443C180.281 34.0542 182.963 34.0627 184.886 34.0685C185.844 34.0749 186.613 34.0802 187.15 34.0837C187.411 34.0866 187.616 34.089 187.762 34.0909C187.828 34.0922 187.881 34.0935 187.922 34.0943C187.958 34.0951 187.977 34.0962 187.978 34.0975C187.98 34.0986 187.963 34.0999 187.929 34.101C187.889 34.1018 187.838 34.1031 187.775 34.1044C187.631 34.106 187.431 34.1084 187.174 34.1113C186.64 34.1151 185.876 34.1201 184.923 34.1265C182.99 34.1326 180.296 34.1411 177.216 34.1507L177.162 34.151V34.0972C177.162 33.6405 177.162 33.1742 177.161 32.7002C177.161 32.4632 177.161 32.2243 177.161 31.9836C177.161 31.8634 177.161 31.7426 177.161 31.6213V31.4391V31.3479V31.3021V31.2792V31.2678V31.2622V31.2593V31.258V31.2572C177.271 31.1476 177.192 31.2268 177.217 31.2024C181.613 31.2111 185.521 31.2189 187.978 31.2239H188.012L188.012 31.2572C188.004 32.1544 187.998 32.8659 187.993 33.361C187.99 33.5966 187.987 33.7804 187.985 33.9124C187.984 33.9698 187.983 34.0156 187.982 34.0523C187.981 34.0834 187.98 34.0986 187.978 34.0975Z" fill="#E0E0E0"/>
<path d="M189.438 31.2576C189.437 31.2563 189.435 31.2379 189.434 31.2036C189.433 31.1629 189.431 31.1134 189.429 31.0531C189.427 30.9134 189.424 30.7232 189.42 30.4836C189.414 29.9856 189.407 29.2823 189.398 28.4175L189.438 28.4569C187.762 28.4609 185.484 28.4662 182.972 28.4723C182.922 28.5213 183.038 28.4056 183.026 28.4178V28.4186V28.4199V28.4229V28.4287V28.4404V28.4638V28.5104V28.6035V28.7891C183.026 28.9126 183.026 29.0355 183.026 29.1575C183.026 29.4017 183.026 29.6427 183.025 29.8805C183.025 30.3556 183.024 30.8163 183.024 31.2576L182.971 31.2055C184.838 31.2153 186.445 31.2241 187.597 31.2302C188.165 31.2363 188.621 31.2411 188.945 31.2446C189.096 31.2472 189.217 31.2494 189.308 31.251C189.391 31.2534 189.436 31.2555 189.438 31.2576C189.44 31.2597 189.4 31.2619 189.321 31.264C189.232 31.2656 189.115 31.2677 188.968 31.2707C188.647 31.2741 188.196 31.2789 187.633 31.285C186.472 31.2911 184.853 31.2996 182.972 31.3098L182.919 31.31V31.2576C182.919 30.8163 182.918 30.3556 182.917 29.8805C182.917 29.643 182.917 29.4017 182.917 29.1575C182.917 29.0355 182.917 28.9126 182.917 28.7891V28.6035V28.5104V28.4638V28.4404V28.4287V28.4229V28.4199V28.4186V28.4178C182.905 28.4292 183.021 28.3138 182.972 28.3627C185.484 28.3686 187.763 28.3742 189.438 28.3782H189.478L189.477 28.4173C189.469 29.2921 189.461 30.0034 189.456 30.5072C189.452 30.7432 189.449 30.9302 189.446 31.068C189.443 31.1951 189.441 31.2603 189.438 31.2576Z" fill="#E0E0E0"/>
<path d="M27.2158 54.814H16.4531V57.654H27.2158V54.814Z" fill="#E0E0E0"/>
<path d="M34.9541 48.9824H24.1914V51.8225H34.9541V48.9824Z" fill="#EBEBEB"/>
<path d="M30.4033 54.8137C30.4022 54.8126 30.4011 54.7951 30.3998 54.7621C30.399 54.7241 30.3977 54.6762 30.3963 54.6163C30.3945 54.4825 30.3918 54.2963 30.3883 54.0575C30.3841 53.5672 30.3777 52.8623 30.3699 51.9736L30.4033 52.0069C27.9459 52.0117 24.0377 52.0196 19.6414 52.0284C19.6657 52.004 19.5862 52.083 19.6955 51.9739V51.9747V51.976V51.9789V51.9845V51.996V52.0188V52.0646V52.1558V52.338C19.6955 52.4591 19.6955 52.5801 19.6955 52.7003C19.6955 52.9411 19.6955 53.1799 19.6953 53.4169C19.695 53.891 19.6947 54.3573 19.6945 54.814L19.6409 54.7605C22.7057 54.7701 25.3873 54.7786 27.3107 54.7847C28.2689 54.7911 29.0377 54.7964 29.5745 54.7999C29.8358 54.8028 30.0403 54.8052 30.1867 54.8068C30.2526 54.8081 30.3054 54.8095 30.347 54.8102C30.383 54.8113 30.4022 54.8124 30.4033 54.8137C30.4043 54.8148 30.3875 54.8161 30.3534 54.8172C30.3137 54.818 30.263 54.8193 30.1998 54.8206C30.0561 54.8222 29.8555 54.8246 29.5993 54.8275C29.0651 54.8313 28.3006 54.8363 27.3478 54.8427C25.415 54.8488 22.7203 54.8573 19.6406 54.8669L19.587 54.8672V54.8134C19.5867 54.3567 19.5865 53.8904 19.5862 53.4164C19.5862 53.1794 19.5859 52.9405 19.5859 52.6998C19.5859 52.5796 19.5859 52.4585 19.5859 52.3375V52.1553V52.0641V52.0183V51.9954V51.984V51.9784V51.9755V51.9742V51.9734C19.6955 51.864 19.6169 51.943 19.6414 51.9186C24.0377 51.9273 27.9459 51.9351 30.4033 51.9401H30.4369L30.4366 51.9734C30.4286 52.8706 30.4225 53.5821 30.4182 54.0769C30.4147 54.3126 30.4121 54.4964 30.4102 54.6283C30.4089 54.6858 30.4075 54.7318 30.4067 54.7682C30.4054 54.7996 30.4043 54.8148 30.4033 54.8137Z" fill="#E0E0E0"/>
<path d="M138.505 94.7114H127.742V97.5515H138.505V94.7114Z" fill="#E0E0E0"/>
<path d="M146.243 88.8799H135.48V91.72H146.243V88.8799Z" fill="#EBEBEB"/>
<path d="M141.692 94.7113C141.691 94.7102 141.69 94.6927 141.689 94.6597C141.688 94.6216 141.687 94.5738 141.685 94.5139C141.684 94.3804 141.681 94.1939 141.677 93.955C141.673 93.4648 141.667 92.7599 141.659 91.8712L141.692 91.9044C139.235 91.9092 135.327 91.9172 130.93 91.926C130.955 91.9015 130.875 91.9805 130.985 91.8715V91.8723V91.8736V91.8765V91.8821V91.8935V91.9164V91.9622V92.0534V92.2356C130.985 92.3569 130.985 92.4777 130.985 92.5979C130.985 92.8386 130.984 93.0775 130.984 93.3145C130.984 93.7885 130.984 94.2548 130.984 94.7115L130.93 94.6581C133.995 94.6677 136.676 94.6762 138.6 94.6823C139.558 94.6887 140.327 94.694 140.864 94.6974C141.125 94.7004 141.329 94.7028 141.476 94.7044C141.542 94.7057 141.594 94.707 141.636 94.7078C141.672 94.7089 141.691 94.71 141.692 94.7113C141.693 94.7123 141.677 94.7137 141.642 94.7147C141.603 94.7155 141.552 94.7169 141.489 94.7182C141.345 94.7198 141.145 94.7222 140.888 94.7251C140.354 94.7288 139.59 94.7339 138.637 94.7403C136.704 94.7464 134.009 94.7549 130.93 94.7645L130.876 94.7647V94.711C130.876 94.2543 130.876 93.788 130.875 93.314C130.875 93.077 130.875 92.8381 130.875 92.5974C130.875 92.4771 130.875 92.3561 130.875 92.2351V92.0529V91.9616V91.9159V91.893V91.8816V91.876V91.8731V91.8717V91.8709C130.985 91.7613 130.906 91.8406 130.93 91.8161C135.327 91.8249 139.235 91.8326 141.692 91.8377H141.726L141.726 91.8709C141.718 92.7681 141.712 93.4797 141.707 93.9747C141.704 94.2104 141.701 94.3945 141.699 94.5261C141.698 94.5836 141.697 94.6296 141.696 94.6661C141.695 94.6972 141.694 94.7123 141.692 94.7113Z" fill="#E0E0E0"/>
<path d="M55.3681 78.5945C55.367 78.5935 55.366 78.5759 55.3649 78.5429C55.3641 78.5049 55.3628 78.457 55.3615 78.3971C55.3596 78.2636 55.3569 78.0771 55.3535 77.8383C55.3492 77.348 55.3428 76.6431 55.3351 75.7544L55.3684 75.7877C52.9111 75.7925 49.0028 75.8004 44.6065 75.8092C44.6308 75.7848 44.5513 75.8638 44.6606 75.7547V75.7555V75.7568V75.7597V75.7656V75.777V75.7999V75.8457V75.9369V76.1191C44.6606 76.2404 44.6606 76.3612 44.6606 76.4814C44.6606 76.7221 44.6604 76.961 44.6604 77.1983C44.6601 77.6723 44.6598 78.1386 44.6596 78.5953L44.606 78.5418C47.6708 78.5517 50.3524 78.5599 52.2759 78.5661C53.234 78.5724 54.0028 78.5778 54.5396 78.5812C54.8009 78.5841 55.0055 78.5865 55.1519 78.5881C55.2177 78.5895 55.2705 78.5905 55.3118 78.5916C55.3478 78.5921 55.367 78.5932 55.3681 78.5945C55.3692 78.5956 55.3524 78.5969 55.3182 78.598C55.2785 78.5988 55.2278 78.6001 55.1646 78.6014C55.0209 78.603 54.8204 78.6054 54.5641 78.6083C54.03 78.6121 53.2655 78.6171 52.3127 78.6235C50.3799 78.6296 47.6852 78.6381 44.6054 78.6477L44.5519 78.648V78.5942C44.5516 78.1375 44.5513 77.6712 44.551 77.1972C44.551 76.9602 44.5508 76.7211 44.5508 76.4803C44.5508 76.3601 44.5508 76.2394 44.5508 76.1181V75.9358V75.8446V75.7989V75.776V75.7645V75.7587V75.7558V75.7544V75.7536C44.6604 75.6443 44.5815 75.7233 44.6063 75.6988C49.0025 75.7076 52.9108 75.7153 55.3681 75.7204H55.4017L55.4014 75.7536C55.3934 76.6509 55.3873 77.3624 55.383 77.8574C55.3796 78.0931 55.3769 78.2769 55.375 78.4088C55.3737 78.4663 55.3724 78.5123 55.3716 78.5488C55.3705 78.5804 55.3694 78.5956 55.3681 78.5945Z" fill="#E0E0E0"/>
<path d="M56.8279 75.754C56.8265 75.7526 56.8252 75.7343 56.8239 75.7C56.8228 75.6593 56.8212 75.6098 56.8196 75.5494C56.8172 75.4095 56.814 75.2196 56.8097 74.9799C56.8047 74.482 56.7975 73.7787 56.7884 72.9139L56.8279 72.9533C55.1527 72.9573 52.8737 72.9626 50.3617 72.9687C50.3124 73.0176 50.4279 72.9019 50.4161 72.9142V72.915V72.9166V72.9195V72.9253V72.937V72.9605V73.007V73.1001V73.2858C50.4161 73.4092 50.4161 73.5321 50.4161 73.6542C50.4159 73.8984 50.4159 74.1394 50.4156 74.3772C50.4151 74.8522 50.4143 75.313 50.4137 75.7542L50.3615 75.7021C52.2281 75.7122 53.8353 75.7207 54.9873 75.7268C55.5553 75.733 56.0108 75.7378 56.3348 75.7412C56.4863 75.7439 56.6068 75.746 56.6983 75.7479C56.7812 75.7497 56.8257 75.7519 56.8279 75.754C56.83 75.7561 56.7897 75.7582 56.7105 75.7604C56.6217 75.762 56.5049 75.7641 56.358 75.767C56.0367 75.7705 55.5855 75.7753 55.0225 75.7814C53.862 75.7875 52.2425 75.796 50.3615 75.8061L50.3092 75.8064V75.754C50.3087 75.3127 50.3079 74.852 50.3073 74.3769C50.3071 74.1394 50.3071 73.8981 50.3068 73.6539C50.3068 73.5318 50.3068 73.4089 50.3065 73.2855V73.0998V73.0067V72.9602V72.9368V72.9251V72.9192V72.9163V72.9147V72.9139C50.2945 72.9253 50.4105 72.8099 50.3617 72.8588C52.8735 72.8647 55.1527 72.8703 56.8279 72.8743H56.8676L56.8671 72.9134C56.8583 73.7882 56.8511 74.4995 56.846 75.0033C56.8417 75.2393 56.8385 75.4263 56.8361 75.5641C56.8332 75.6917 56.8305 75.7569 56.8279 75.754Z" fill="#E0E0E0"/>
<path d="M186.9 125.224C186.9 125.263 147.311 125.294 98.4863 125.294C49.645 125.294 10.0645 125.262 10.0645 125.224C10.0645 125.186 49.645 125.155 98.4863 125.155C147.311 125.155 186.9 125.186 186.9 125.224Z" fill="#263238"/>
<path d="M177.513 115.338L179.227 122.122L182.133 127.098C182.343 127.457 182.204 127.918 181.831 128.102C181.623 128.205 181.379 128.202 181.173 128.091C179.868 127.389 175.08 124.781 174.982 124.278C174.869 123.695 172.698 117.241 172.698 117.241L177.513 115.338Z" fill="#4998D0"/>
<g opacity="0.6">
<path d="M181.832 128.101L174.856 123.822L174.936 124.108C175.004 124.355 175.157 124.57 175.37 124.714C175.939 125.099 177.532 126.127 181.154 128.097C181.364 128.212 181.619 128.213 181.832 128.101Z" fill="white"/>
</g>
<g opacity="0.6">
<path d="M175.64 121.265C175.842 121.335 175.968 121.575 175.906 121.779C175.845 121.983 175.601 122.113 175.398 122.047C175.195 121.98 175.034 121.696 175.119 121.5C175.203 121.305 175.498 121.167 175.679 121.281" fill="white"/>
</g>
<path d="M179.47 125.581C179.513 125.589 179.568 125.194 179.917 124.893C180.257 124.582 180.657 124.574 180.654 124.53C180.656 124.512 180.555 124.483 180.391 124.505C180.228 124.525 180.005 124.61 179.815 124.779C179.625 124.948 179.514 125.158 179.475 125.318C179.435 125.478 179.452 125.58 179.47 125.581Z" fill="#263238"/>
<path d="M180.201 126.352C180.241 126.372 180.398 126.093 180.72 125.897C181.037 125.693 181.357 125.675 181.356 125.63C181.366 125.59 181.001 125.537 180.638 125.766C180.272 125.992 180.161 126.343 180.201 126.352Z" fill="#263238"/>
<path d="M178.253 124.671C178.293 124.695 178.531 124.264 179.005 123.915C179.474 123.559 179.955 123.451 179.943 123.406C179.944 123.366 179.416 123.411 178.913 123.792C178.405 124.168 178.215 124.661 178.253 124.671Z" fill="#263238"/>
<path d="M177.559 122.653C177.588 122.688 177.918 122.429 178.399 122.278C178.879 122.12 179.298 122.137 179.301 122.091C179.311 122.053 178.867 121.963 178.352 122.132C177.835 122.296 177.529 122.627 177.559 122.653Z" fill="#263238"/>
<path d="M177.005 120.674C177.037 120.707 177.35 120.378 177.87 120.26C178.387 120.13 178.815 120.281 178.828 120.238C178.836 120.22 178.738 120.156 178.558 120.109C178.378 120.062 178.113 120.045 177.834 120.111C177.555 120.178 177.327 120.313 177.188 120.437C177.048 120.56 176.991 120.662 177.005 120.674Z" fill="#263238"/>
<path d="M177.753 119.887C177.762 119.884 177.752 119.789 177.692 119.629C177.631 119.47 177.517 119.242 177.303 119.017C177.196 118.912 177.075 118.771 176.862 118.735C176.756 118.716 176.621 118.772 176.565 118.883C176.51 118.992 176.515 119.11 176.543 119.217C176.668 119.643 177.151 119.956 177.651 119.884C178.15 119.804 178.513 119.406 178.602 118.984C178.618 118.877 178.614 118.751 178.53 118.652C178.447 118.551 178.297 118.543 178.205 118.586C178.012 118.671 177.917 118.822 177.823 118.94C177.642 119.191 177.552 119.427 177.507 119.591C177.462 119.756 177.459 119.851 177.468 119.853C177.496 119.864 177.547 119.475 177.91 119.006C178.003 118.895 178.109 118.759 178.25 118.706C178.318 118.679 178.387 118.69 178.427 118.74C178.468 118.787 178.478 118.876 178.462 118.961C178.384 119.308 178.051 119.671 177.628 119.732C177.208 119.797 176.783 119.521 176.679 119.179C176.655 119.097 176.654 119.007 176.685 118.945C176.715 118.885 176.778 118.853 176.847 118.861C176.994 118.878 177.121 118.995 177.226 119.093C177.648 119.51 177.725 119.902 177.753 119.887Z" fill="#263238"/>
<path d="M154.602 116.409L154.98 122.108C154.98 122.108 149.294 123.991 149.261 125.051L160.372 125.131L160.148 116.227L154.602 116.409Z" fill="#4998D0"/>
<g opacity="0.6">
<path d="M158.4 121.525C158.617 121.577 158.773 121.814 158.729 122.032C158.686 122.25 158.446 122.41 158.229 122.362C158.011 122.313 157.815 122.035 157.883 121.823C157.95 121.611 158.242 121.438 158.442 121.537" fill="white"/>
</g>
<g opacity="0.6">
<path d="M160.372 125.131L160.35 124.233L149.618 124.529C149.618 124.529 149.261 124.683 149.204 125.131L160.372 125.131Z" fill="white"/>
</g>
<path d="M154.799 122.058C154.803 122.112 155.074 122.128 155.347 122.294C155.623 122.453 155.768 122.683 155.817 122.66C155.867 122.648 155.776 122.327 155.443 122.132C155.112 121.934 154.786 122.008 154.799 122.058Z" fill="#263238"/>
<path d="M153.649 122.573C153.638 122.626 153.875 122.711 154.067 122.934C154.265 123.152 154.318 123.398 154.372 123.394C154.423 123.401 154.451 123.083 154.209 122.81C153.968 122.535 153.648 122.522 153.649 122.573Z" fill="#263238"/>
<path d="M153.029 123.984C153.079 123.994 153.146 123.721 152.998 123.429C152.852 123.136 152.592 123.027 152.571 123.073C152.541 123.118 152.711 123.272 152.829 123.514C152.953 123.752 152.975 123.98 153.029 123.984Z" fill="#263238"/>
<path d="M154.858 120.749C154.882 120.798 155.128 120.715 155.435 120.727C155.743 120.732 155.985 120.828 156.011 120.78C156.041 120.74 155.802 120.547 155.44 120.539C155.079 120.528 154.83 120.707 154.858 120.749Z" fill="#263238"/>
<g opacity="0.3">
<path d="M154.679 117.537L154.745 118.553L160.201 118.339L160.18 117.422L154.679 117.537Z" fill="black"/>
</g>
<path d="M154.802 119.598C154.802 119.62 155.017 119.647 155.358 119.578C155.527 119.543 155.726 119.482 155.934 119.382C156.038 119.332 156.144 119.273 156.248 119.203C156.299 119.169 156.358 119.134 156.412 119.068C156.471 119.009 156.501 118.865 156.428 118.779C156.369 118.696 156.267 118.662 156.187 118.663C156.105 118.662 156.039 118.681 155.979 118.698C155.857 118.731 155.742 118.776 155.637 118.826C155.428 118.929 155.259 119.056 155.135 119.178C154.884 119.423 154.802 119.628 154.821 119.638C154.846 119.655 154.967 119.482 155.223 119.278C155.351 119.176 155.515 119.07 155.71 118.984C155.808 118.941 155.914 118.904 156.027 118.876C156.143 118.842 156.243 118.838 156.275 118.889C156.287 118.909 156.288 118.916 156.265 118.951C156.24 118.984 156.194 119.016 156.144 119.05C156.048 119.117 155.951 119.176 155.855 119.227C155.665 119.328 155.481 119.4 155.324 119.449C155.009 119.547 154.8 119.568 154.802 119.598Z" fill="#263238"/>
<path d="M154.875 119.673C154.895 119.681 154.996 119.484 155.006 119.133C155.01 118.959 154.985 118.749 154.911 118.528C154.874 118.418 154.824 118.305 154.759 118.195C154.691 118.088 154.607 117.944 154.396 117.926C154.286 117.925 154.197 118.013 154.169 118.088C154.134 118.164 154.129 118.228 154.118 118.293C154.101 118.423 154.108 118.55 154.129 118.666C154.171 118.901 154.274 119.094 154.384 119.232C154.61 119.513 154.838 119.57 154.842 119.552C154.859 119.524 154.667 119.426 154.492 119.155C154.406 119.021 154.328 118.844 154.301 118.639C154.287 118.537 154.285 118.428 154.301 118.318C154.315 118.2 154.356 118.103 154.401 118.114C154.456 118.112 154.553 118.198 154.601 118.29C154.661 118.388 154.709 118.488 154.748 118.587C154.824 118.785 154.86 118.976 154.872 119.137C154.897 119.461 154.846 119.666 154.875 119.673Z" fill="#263238"/>
<path d="M154.574 66.7146L171.504 66.5874L179.685 120.186L172.659 121.076L163.654 77.0048L160.958 121.233L160.951 121.364L153.353 121.232L154.574 66.7146Z" fill="#263238"/>
<path d="M163.087 75.8511C163.107 75.8476 163.081 75.5987 163.043 75.1967C163.005 74.7951 162.961 74.2397 162.942 73.6252C162.923 73.0105 162.934 72.4535 162.947 72.0502C162.961 71.647 162.972 71.3967 162.952 71.3945C162.934 71.3927 162.888 71.6398 162.849 72.0441C162.81 72.4482 162.783 73.0097 162.802 73.6297C162.821 74.2495 162.881 74.8084 162.945 75.2092C163.008 75.6101 163.069 75.854 163.087 75.8511Z" fill="#455A64"/>
<path d="M161.692 71.5482C161.694 71.5413 161.662 71.5173 161.592 71.5104C161.523 71.5027 161.416 71.5213 161.312 71.5939C161.211 71.666 161.103 71.7974 161.1 71.9804C161.093 72.1664 161.244 72.3459 161.432 72.4063C161.619 72.4728 161.848 72.4217 161.956 72.2698C162.065 72.1225 162.059 71.9525 162.024 71.8344C161.984 71.7131 161.911 71.6338 161.852 71.5982C161.792 71.5615 161.752 71.5609 161.749 71.5676C161.736 71.5867 161.885 71.6471 161.928 71.8589C161.947 71.9589 161.936 72.0927 161.855 72.1895C161.778 72.2885 161.622 72.3225 161.477 72.2738C161.333 72.2251 161.23 72.1033 161.229 71.978C161.224 71.8519 161.297 71.7392 161.373 71.6713C161.535 71.5288 161.691 71.5713 161.692 71.5482Z" fill="#455A64"/>
<path d="M166.028 70.47C166.022 70.4777 166.077 70.5269 166.183 70.6105C166.286 70.6964 166.451 70.8017 166.666 70.9126C166.879 71.026 167.15 71.1289 167.459 71.2119C167.769 71.2877 168.12 71.339 168.49 71.3417C168.86 71.3393 169.211 71.2882 169.522 71.2124C169.831 71.1297 170.102 71.027 170.315 70.9137C170.529 70.803 170.694 70.6977 170.798 70.6121C170.904 70.5288 170.959 70.4793 170.953 70.4719C170.938 70.4503 170.702 70.6309 170.272 70.8249C170.059 70.9238 169.793 71.014 169.491 71.0877C169.188 71.1542 168.848 71.1997 168.49 71.202C168.131 71.1994 167.792 71.1534 167.489 71.0869C167.188 71.0132 166.922 70.923 166.708 70.8235C166.279 70.6291 166.044 70.4485 166.028 70.47Z" fill="#455A64"/>
<path d="M155.548 71.604C155.544 71.6197 155.719 71.6767 156.012 71.7017C156.304 71.7275 156.718 71.7075 157.152 71.5846C157.586 71.4601 157.948 71.2596 158.182 71.0837C158.418 70.9079 158.536 70.768 158.525 70.7563C158.498 70.7199 157.959 71.2165 157.113 71.4506C156.272 71.6969 155.551 71.5591 155.548 71.604Z" fill="#455A64"/>
<path d="M177.005 120.674C177.006 120.671 176.98 120.639 176.956 120.56C176.931 120.481 176.898 120.362 176.86 120.205C176.784 119.891 176.684 119.425 176.563 118.823C176.32 117.619 175.991 115.872 175.597 113.71C174.808 109.388 173.756 103.409 172.597 96.806C171.432 90.2039 170.378 84.2279 169.614 79.8953C169.223 77.738 168.906 75.9902 168.686 74.7748C168.573 74.176 168.485 73.7087 168.424 73.3844C168.393 73.2304 168.37 73.1107 168.352 73.0235C168.335 72.9423 168.323 72.9014 168.323 72.9014C168.323 72.9014 168.326 72.9439 168.338 73.0261C168.353 73.1139 168.372 73.2347 168.396 73.3895C168.451 73.7151 168.53 74.1837 168.632 74.7846C168.842 76.0019 169.144 77.7521 169.516 79.9126C170.27 84.2471 171.31 90.2257 172.459 96.8302C173.618 103.434 174.686 109.41 175.5 113.728C175.906 115.888 176.25 117.633 176.509 118.834C176.765 120.034 176.953 120.696 177.005 120.674Z" fill="#455A64"/>
<path d="M155.427 120.07C155.427 120.07 155.432 120.028 155.435 119.946C155.436 119.858 155.439 119.738 155.442 119.583C155.445 119.257 155.449 118.789 155.455 118.188C155.457 117.582 155.462 116.841 155.478 115.981C155.491 115.121 155.498 114.141 155.527 113.059C155.57 110.894 155.653 108.316 155.778 105.456C155.911 102.595 156.091 99.4524 156.336 96.1575C156.587 92.8617 156.879 89.7264 157.175 86.8781C157.48 84.0305 157.783 81.4695 158.065 79.3221C158.198 78.2474 158.338 77.2776 158.453 76.4251C158.566 75.5723 158.673 74.8389 158.76 74.2396C158.845 73.6451 158.91 73.1809 158.956 72.8585C158.976 72.7053 158.992 72.5859 159.003 72.4989C159.013 72.4178 159.015 72.3755 159.015 72.3755C159.015 72.3755 159.004 72.4162 158.989 72.4965C158.974 72.5832 158.954 72.7019 158.928 72.8543C158.877 73.1759 158.802 73.6387 158.707 74.2316C158.61 74.8299 158.497 75.5622 158.375 76.4142C158.253 77.2659 158.106 78.2349 157.967 79.309C157.672 81.4554 157.358 84.0164 157.047 86.8645C156.743 89.7134 156.447 92.8498 156.196 96.1471C155.951 99.4436 155.775 102.588 155.649 105.45C155.531 108.312 155.458 110.891 155.428 113.057C155.405 114.14 155.405 115.12 155.399 115.98C155.391 116.841 155.394 117.582 155.4 118.188C155.406 118.788 155.41 119.257 155.413 119.583C155.416 119.738 155.419 119.858 155.42 119.946C155.423 120.028 155.427 120.07 155.427 120.07Z" fill="#455A64"/>
<path d="M137.923 46.0544L148.503 49.1347L154.428 45.6445L158.925 50.9651L150.537 54.5877C149.339 55.1051 147.972 55.0599 146.811 54.4646L136.419 49.1345L137.923 46.0544Z" fill="#FFBE9D"/>
<path d="M135.511 45.0383L134.201 44.36L130.557 42.469C130.26 42.3514 129.984 42.6695 130.137 42.9494L132.46 44.8542L131.488 45.2239C131.295 45.2973 131.137 45.4399 131.044 45.6237L130.528 46.6484C130.528 46.6484 129.939 46.7114 129.879 47.0936C129.816 47.499 130.262 47.6078 130.262 47.6078L130.151 48.0544C130.099 48.2635 130.138 48.4845 130.259 48.6633C130.823 48.8947 131.271 47.7158 131.271 47.7158L131.872 47.7786L132.529 49.1003C133.363 49.302 132.968 47.9901 132.968 47.9901C132.968 47.9901 132.968 47.9901 133.336 48.0813C133.704 48.1725 133.898 48.4327 134.47 48.7255C135.043 49.0184 136.168 49.1214 136.168 49.1214L136.999 49.7337L139.522 46.2898L135.511 45.0383Z" fill="#FAFAFA"/>
<path d="M135.511 45.0381C135.512 45.036 135.536 45.0413 135.583 45.0538C135.636 45.0687 135.704 45.0879 135.789 45.1115C135.979 45.1677 136.244 45.2461 136.583 45.3467C137.282 45.5598 138.284 45.8649 139.536 46.2463L139.598 46.2649L139.559 46.3173C138.854 47.2869 138.002 48.4589 137.048 49.7697L137.012 49.8187L136.963 49.7825C136.703 49.5923 136.42 49.3843 136.13 49.172L136.162 49.184C135.627 49.122 135.068 49.0481 134.519 48.8212C134.251 48.6988 134.003 48.5315 133.762 48.365C133.64 48.2825 133.518 48.2089 133.385 48.1655C133.25 48.1272 133.096 48.0929 132.952 48.0559L133.033 47.9708C133.097 48.2089 133.145 48.4568 133.123 48.7254C133.108 48.8555 133.071 49.009 132.942 49.1093C132.81 49.2087 132.647 49.1928 132.513 49.1675L132.483 49.1617L132.467 49.1311C132.258 48.7108 132.035 48.2628 131.81 47.8096L131.865 47.8476C131.699 47.8303 131.519 47.8114 131.339 47.7926L131.264 47.7846L131.336 47.7402C131.25 47.9532 131.147 48.1535 131.015 48.3405C130.884 48.5195 130.72 48.7156 130.458 48.7573L130.361 48.7589C130.33 48.7544 130.299 48.7443 130.268 48.7366L130.245 48.7302L130.234 48.727L130.233 48.7268C130.239 48.7323 130.174 48.6786 130.201 48.7012L130.2 48.7002L130.199 48.6978L130.196 48.693L130.172 48.6552C130.158 48.6297 130.144 48.6033 130.132 48.5762C130.084 48.4685 130.059 48.3506 130.06 48.2333C130.058 48.1134 130.094 48.0014 130.118 47.9014L130.195 47.5912L130.246 47.6739C130.103 47.6319 129.975 47.5587 129.885 47.4327C129.797 47.3031 129.786 47.1414 129.834 46.9991C129.888 46.8531 130.011 46.756 130.133 46.6958C130.258 46.6357 130.384 46.5998 130.52 46.5817L130.468 46.6182C130.578 46.4008 130.686 46.1857 130.794 45.9729C130.848 45.8665 130.901 45.7606 130.955 45.6553C131.003 45.5499 131.076 45.4337 131.167 45.3501C131.258 45.2634 131.37 45.1969 131.484 45.1562C131.592 45.1153 131.699 45.0748 131.806 45.0344C132.019 44.9538 132.23 44.874 132.437 44.7955L132.42 44.9025C131.588 44.2167 130.812 43.5775 130.102 42.9915L130.094 42.9851L130.088 42.9756C130.004 42.8285 130.033 42.633 130.144 42.5186C130.251 42.3975 130.435 42.3608 130.576 42.421L130.58 42.4226L130.581 42.4233C132.097 43.2211 133.329 43.8693 134.192 44.3231C134.611 44.5468 134.939 44.7221 135.172 44.8463C135.278 44.9046 135.362 44.9509 135.426 44.9863C135.483 45.0179 135.512 45.0357 135.511 45.0381C135.51 45.0405 135.479 45.0275 135.42 44.9998C135.355 44.9679 135.268 44.9261 135.16 44.8735C134.924 44.7551 134.59 44.5875 134.165 44.3742C133.298 43.9302 132.058 43.2956 130.534 42.5151L130.538 42.5173C130.431 42.4739 130.303 42.501 130.224 42.5904C130.142 42.6768 130.123 42.8144 130.185 42.9232L130.172 42.9072C130.886 43.4892 131.664 44.1244 132.5 44.8059L132.584 44.874L132.483 44.9126C132.275 44.9918 132.065 45.0724 131.852 45.1538C131.746 45.1945 131.638 45.2355 131.531 45.2767C131.427 45.314 131.336 45.3696 131.258 45.4443C131.178 45.5199 131.123 45.606 131.073 45.714C131.02 45.8194 130.967 45.9255 130.913 46.0319C130.806 46.245 130.698 46.4604 130.588 46.678L130.573 46.7091L130.535 46.7147C130.31 46.748 130.039 46.8419 129.962 47.0451C129.929 47.1459 129.936 47.2685 129.998 47.3555C130.059 47.4444 130.171 47.5098 130.279 47.5409L130.345 47.5601L130.33 47.6239L130.252 47.9343C130.227 48.0415 130.196 48.137 130.199 48.2341C130.198 48.332 130.219 48.4304 130.259 48.5203C130.269 48.5429 130.28 48.5648 130.293 48.586L130.312 48.6174L130.315 48.6214L130.316 48.6233L130.317 48.6243C130.344 48.6472 130.279 48.5938 130.286 48.5993L130.287 48.5996L130.295 48.6015L130.311 48.6055C130.333 48.6102 130.354 48.6182 130.376 48.6219L130.443 48.6206C130.625 48.5956 130.782 48.4312 130.903 48.2607C131.026 48.0876 131.126 47.8902 131.207 47.6912L131.227 47.6415L131.279 47.6468L131.355 47.6548C131.535 47.6737 131.714 47.6925 131.88 47.7098L131.918 47.7138L131.935 47.7479C132.16 48.2014 132.383 48.6496 132.592 49.0699L132.546 49.0337C132.662 49.0555 132.782 49.0616 132.86 49.0002C132.939 48.9411 132.975 48.8262 132.988 48.7111C133.009 48.4762 132.963 48.2301 132.904 48.0099L132.874 47.8958L132.986 47.9248C133.134 47.9631 133.275 47.9939 133.428 48.0378C133.58 48.0878 133.715 48.1708 133.837 48.2543C134.081 48.4232 134.32 48.5847 134.575 48.7018C135.09 48.918 135.652 48.9975 136.174 49.0593L136.193 49.0614L136.206 49.0712C136.495 49.2848 136.777 49.4939 137.036 49.6854L136.951 49.6985C137.914 48.394 138.774 47.2278 139.486 46.2631L139.51 46.3341C138.262 45.9354 137.263 45.6161 136.566 45.3935C136.231 45.2834 135.968 45.1972 135.78 45.1355C135.697 45.1068 135.631 45.0839 135.579 45.0658C135.533 45.0496 135.51 45.0403 135.511 45.0381Z" fill="#263238"/>
<path d="M133.056 48.0122C133.052 48.0277 132.765 47.9758 132.272 47.9029C131.779 47.8298 131.08 47.7409 130.257 47.6723L130.27 47.672C129.948 47.7002 129.722 47.3268 129.846 47.0365C129.959 46.7461 130.264 46.5915 130.549 46.5444C130.862 46.4942 131.151 46.479 131.435 46.4279C131.717 46.3822 131.987 46.3255 132.242 46.2614C132.497 46.1971 132.736 46.1258 132.958 46.051C133.067 46.0156 133.167 45.972 133.238 45.9076C133.309 45.8449 133.328 45.7579 133.295 45.6807C133.261 45.602 133.193 45.5384 133.128 45.4759C133.065 45.4129 133.005 45.3525 132.948 45.295C132.837 45.1812 132.741 45.086 132.657 45.0131C132.491 44.8673 132.383 44.8056 132.389 44.7955C132.392 44.7891 132.51 44.8351 132.692 44.9713C132.782 45.0392 132.886 45.1309 133.002 45.2397C133.061 45.2942 133.123 45.3517 133.188 45.4116C133.254 45.4711 133.335 45.5363 133.385 45.6414C133.441 45.7464 133.408 45.9029 133.312 45.9845C133.222 46.0707 133.108 46.1194 132.996 46.1593C132.773 46.2396 132.532 46.3162 132.274 46.3848C132.016 46.4532 131.743 46.5136 131.457 46.5617C131.173 46.6147 130.865 46.6336 130.575 46.6804C130.31 46.7232 130.061 46.8618 129.974 47.0844C129.875 47.2932 130.06 47.5675 130.255 47.5433L130.262 47.5425L130.269 47.5433C131.094 47.6223 131.794 47.7289 132.285 47.8247C132.531 47.8723 132.724 47.9157 132.856 47.9492C132.987 47.9827 133.057 48.0053 133.056 48.0122Z" fill="#263238"/>
<path d="M132.958 46.1491C132.964 46.1858 132.653 46.264 132.262 46.2425C132.124 46.2355 131.997 46.2169 131.891 46.1951L131.955 46.1571C131.877 46.3374 131.812 46.4521 131.789 46.4438C131.766 46.4353 131.79 46.306 131.845 46.1174L131.857 46.0757L131.909 46.0794C132.049 46.0892 132.158 46.097 132.269 46.1047C132.644 46.1252 132.952 46.11 132.958 46.1491Z" fill="#263238"/>
<path d="M156.841 41.7812L150.024 46.997L154.804 53.2748L160.632 49.9746L156.841 41.7812Z" fill="#4998D0"/>
<path d="M156.84 41.7812C157.827 41.1755 161.239 40.4291 161.239 40.4291L167.836 39.7139L173.557 42.3345L171.206 52.1587L173.265 70.6795L153.624 71.7467L156.84 41.7812Z" fill="#4998D0"/>
<path d="M168.053 49.9985H164.67V50.9088H168.053V49.9985Z" fill="#FAFAFA"/>
<path d="M168.059 50.9153H164.663V49.9917H168.059V50.9153ZM164.677 50.9022H168.046V50.0053H164.677V50.9022Z" fill="#263238"/>
<path d="M156.019 47.4664C155.981 47.4672 155.937 46.7918 155.922 45.9581C155.907 45.1242 155.926 44.4481 155.964 44.4473C156.003 44.4465 156.046 45.1218 156.061 45.9555C156.076 46.7891 156.057 47.4656 156.019 47.4664Z" fill="#263238"/>
<path d="M168.393 30.6996L167.672 40.8996C167.554 42.5651 166.165 43.8559 164.491 43.8559C162.649 43.8559 161.189 42.3017 161.31 40.4676C161.374 39.4967 161.432 38.7017 161.432 38.7017C161.432 38.7017 158.956 38.3178 158.926 35.8488C158.908 34.4228 159.155 31.1869 159.366 28.708C159.509 27.0322 160.915 25.7456 162.601 25.7456H164.097C166.672 25.8959 168.615 28.1361 168.393 30.6996Z" fill="#FFBE9D"/>
<path d="M161.428 38.6662C161.428 38.6662 162.992 38.7931 164.654 37.7515C164.654 37.7515 163.892 39.5283 161.422 39.306L161.428 38.6662Z" fill="#EB996E"/>
<path d="M159.869 31.8279C159.863 32.0141 160.015 32.1732 160.21 32.1836C160.405 32.194 160.568 32.0519 160.574 31.8657C160.581 31.6795 160.429 31.5202 160.234 31.5098C160.039 31.4994 159.876 31.6417 159.869 31.8279Z" fill="#263238"/>
<path d="M159.793 31.184C159.836 31.23 160.104 31.0324 160.485 31.0335C160.865 31.0289 161.144 31.2242 161.185 31.1776C161.205 31.1572 161.161 31.0742 161.039 30.9859C160.919 30.8981 160.715 30.8124 160.479 30.8135C160.242 30.8148 160.042 30.9018 159.928 30.9909C159.811 31.0803 159.771 31.1635 159.793 31.184Z" fill="#263238"/>
<path d="M163.526 31.8279C163.519 32.0141 163.672 32.1732 163.866 32.1836C164.061 32.194 164.224 32.0519 164.231 31.8657C164.237 31.6795 164.085 31.5202 163.89 31.5098C163.695 31.4994 163.532 31.6417 163.526 31.8279Z" fill="#263238"/>
<path d="M163.531 31.2543C163.575 31.3004 163.843 31.1027 164.223 31.1038C164.603 31.0993 164.882 31.2945 164.923 31.248C164.944 31.2275 164.899 31.1445 164.777 31.0562C164.657 30.9681 164.453 30.8827 164.217 30.8838C163.98 30.8851 163.78 30.9721 163.666 31.0612C163.549 31.1506 163.509 31.2339 163.531 31.2543Z" fill="#263238"/>
<path d="M162.186 33.9743C162.188 33.9528 161.951 33.9121 161.568 33.8632C161.471 33.8531 161.379 33.8339 161.363 33.7677C161.34 33.6977 161.381 33.5932 161.428 33.4807C161.519 33.2463 161.615 33.0005 161.715 32.743C162.114 31.6926 162.402 30.8289 162.36 30.8132C162.317 30.7975 161.959 31.6362 161.561 32.6866C161.465 32.9457 161.373 33.1926 161.285 33.4288C161.249 33.5389 161.185 33.6637 161.235 33.8089C161.261 33.8812 161.332 33.9339 161.395 33.9507C161.457 33.9696 161.512 33.9706 161.56 33.9736C161.945 33.9943 162.185 33.9962 162.186 33.9743Z" fill="#263238"/>
<path d="M163.434 29.9387C163.471 30.0419 163.851 29.993 164.297 30.0467C164.745 30.0914 165.104 30.2218 165.163 30.1292C165.19 30.085 165.127 29.988 164.982 29.8879C164.837 29.7882 164.607 29.6935 164.339 29.6637C164.071 29.6344 163.826 29.677 163.664 29.743C163.5 29.8087 163.418 29.8898 163.434 29.9387Z" fill="#263238"/>
<path d="M159.797 30.4394C159.864 30.5256 160.126 30.4362 160.441 30.432C160.756 30.4168 161.023 30.49 161.084 30.3998C161.111 30.3562 161.069 30.2697 160.952 30.1881C160.837 30.1067 160.645 30.0404 160.429 30.0468C160.212 30.0537 160.025 30.1317 159.915 30.22C159.804 30.3086 159.767 30.3974 159.797 30.4394Z" fill="#263238"/>
<path d="M167.559 32.5529C167.602 32.5346 169.26 32.0512 169.206 33.739C169.152 35.4268 167.465 35.0246 167.463 34.9762C167.462 34.9278 167.559 32.5529 167.559 32.5529Z" fill="#FFBE9D"/>
<path d="M168.001 34.3531C168.008 34.3481 168.029 34.3747 168.079 34.3992C168.126 34.4228 168.21 34.4409 168.299 34.4106C168.48 34.3507 168.639 34.0725 168.657 33.7687C168.667 33.6153 168.639 33.4679 168.588 33.345C168.54 33.2197 168.463 33.1311 168.374 33.1122C168.285 33.0886 168.219 33.1404 168.197 33.1873C168.173 33.2338 168.183 33.2679 168.174 33.2705C168.169 33.2745 168.138 33.241 168.154 33.1718C168.162 33.1386 168.183 33.0995 168.224 33.0681C168.266 33.0364 168.326 33.0215 168.389 33.0303C168.519 33.0434 168.632 33.167 168.688 33.3019C168.751 33.4376 168.786 33.6033 168.775 33.7756C168.754 34.1153 168.569 34.4281 168.322 34.4909C168.202 34.5181 168.104 34.4792 168.054 34.4377C168.003 34.3941 167.995 34.3561 168.001 34.3531Z" fill="#EB996E"/>
<path d="M168.501 32.4957C168.243 32.4335 167.796 32.671 167.686 32.912C167.576 33.153 167.552 33.4262 167.442 33.6674C167.332 33.9087 167.084 34.1268 166.826 34.0656C166.648 34.0236 166.52 33.8571 166.474 33.6805C166.427 33.5038 166.446 33.3174 166.468 33.136C166.568 32.3475 166.734 31.566 166.766 30.772C166.798 29.9783 166.684 29.1534 166.267 28.477C165.849 27.8005 165.081 27.3034 164.287 27.367C163.761 27.4093 163.279 27.6827 162.756 27.7558C162.137 27.8423 161.482 27.6244 161.039 27.1839C160.982 27.1276 160.718 26.9539 160.718 26.9539C160.718 26.9129 160.756 26.5604 160.896 26.432C161.932 25.4757 163.8 25.2089 165.169 25.5526C166.538 25.8962 167.822 26.8605 168.411 28.1402C169 29.4205 168.825 31.2006 168.501 32.4957Z" fill="#263238"/>
<path d="M159.339 28.327C159.339 28.327 165.832 26.2432 168.641 31.847C168.641 31.847 169.061 30.4446 169.061 29.6929C169.061 29.191 168.76 26.2009 165.675 25.2603C165.675 25.2603 161.029 23.4911 159.339 28.327Z" fill="#4998D0"/>
<path d="M164.918 28.4669C164.688 28.8367 164.279 29.0894 163.845 29.1287C163.411 29.1681 162.962 28.9934 162.669 28.671C162.541 28.9902 162.197 29.2093 161.853 29.1915C161.509 29.1734 161.189 28.9197 161.095 28.5888C160.907 28.7712 160.711 28.9588 160.464 29.0489C160.217 29.1391 159.904 29.1051 159.742 28.8987C159.577 28.6885 159.625 28.3683 159.787 28.1557C159.949 27.9432 160.198 27.8166 160.445 27.7136C161.216 27.3923 162.067 27.2311 162.895 27.3431C163.724 27.4551 164.526 27.8557 165.044 28.51" fill="#263238"/>
<g opacity="0.4">
<path d="M159.339 28.327C159.339 28.327 160.078 27.4503 161.404 27.3918C163.319 27.3074 166.904 28.3815 168.641 31.847C168.641 31.847 169.061 30.4446 169.061 29.6929C169.061 29.191 168.76 26.2009 165.675 25.2603C165.675 25.2603 161.029 23.4911 159.339 28.327Z" fill="black"/>
</g>
<path d="M168.37 31.1908C167.407 29.7214 166.079 28.5066 164.587 27.5764C163.094 26.6462 160.626 25.7264 158.925 25.276C158.415 25.1409 157.882 25.0225 157.362 25.1124C156.841 25.2021 156.331 25.5479 156.202 26.0589C156.04 26.6986 157.178 27.6857 157.713 28.0738C158.248 28.4619 159.339 29.0314 159.339 29.0314C159.339 29.0314 159.325 27.8451 161.228 27.6003C163.817 27.2676 168.37 31.1908 168.37 31.1908Z" fill="#4998D0"/>
<path d="M163.044 26.3508C163.044 26.3508 162.108 25.8345 161.169 25.7143C161.362 25.5733 161.465 25.5055 161.679 25.4092C162.159 25.5044 162.647 25.6262 163.14 25.8994L163.044 26.3508Z" fill="#E0E0E0"/>
<path d="M167.999 32.6115C168.003 32.6288 167.865 32.711 167.648 32.8741C167.377 33.0723 167.099 33.2747 166.796 33.4963C166.127 33.9809 165.576 34.3613 165.552 34.3307C165.53 34.3004 166.044 33.8703 166.714 33.3843C167.378 32.8943 167.97 32.5554 167.999 32.6115Z" fill="#EBEBEB"/>
<path d="M168.173 35.0732C168.202 35.0921 167.821 35.6611 167.179 36.2008C166.541 36.7442 165.916 37.0267 165.902 36.9951C165.882 36.9583 166.465 36.6272 167.089 36.0952C167.717 35.5672 168.14 35.0471 168.173 35.0732Z" fill="#EBEBEB"/>
<path d="M158.867 34.2567C158.867 34.2567 159.536 34.4475 159.712 34.4379C160.938 34.3719 161.369 33.9591 163.37 34.3852C163.693 34.4539 164.027 34.4629 164.353 34.4155C164.646 34.373 165.062 34.3307 165.553 34.3307L165.938 36.9984C165.938 36.9984 163.563 39.0708 161.423 38.8386C158.657 38.538 158.329 35.3186 158.867 34.2567Z" fill="#FAFAFA"/>
<path d="M158.866 34.2567C158.866 34.2567 158.841 34.3269 158.793 34.4517C158.752 34.5799 158.706 34.776 158.679 35.0324C158.639 35.5402 158.67 36.3164 159.065 37.154C159.268 37.565 159.575 37.9834 160.018 38.2946C160.458 38.6095 161.028 38.7904 161.634 38.8218C162.242 38.8452 162.881 38.7048 163.494 38.4529C164.11 38.2042 164.713 37.8637 165.29 37.4594C165.508 37.3046 165.72 37.1455 165.919 36.9774L165.91 37.0021C165.775 36.0669 165.646 35.1699 165.526 34.3344L165.552 34.3567C165.059 34.3517 164.591 34.4083 164.137 34.4629C163.908 34.4783 163.683 34.4653 163.469 34.4278C163.254 34.3887 163.051 34.3402 162.849 34.3107C162.447 34.2442 162.064 34.2102 161.708 34.216C161.353 34.2192 161.027 34.2724 160.733 34.3214C160.439 34.3724 160.174 34.4137 159.941 34.4336C159.824 34.4384 159.716 34.4586 159.615 34.4421C159.515 34.4278 159.427 34.4075 159.348 34.3892C159.032 34.3128 158.866 34.2567 158.866 34.2567C158.865 34.212 159.545 34.5988 160.728 34.2894C161.022 34.2384 161.349 34.1828 161.708 34.1775C162.066 34.1695 162.452 34.2019 162.856 34.2671C163.059 34.2956 163.266 34.344 163.477 34.3817C163.688 34.4179 163.909 34.4299 164.134 34.4142C164.58 34.3591 165.058 34.3003 165.552 34.3046L165.575 34.3049L165.578 34.3269C165.699 35.1625 165.83 36.0591 165.965 36.9941L165.967 37.0093L165.956 37.0189C165.754 37.1896 165.541 37.3487 165.322 37.5046C164.742 37.9108 164.136 38.2531 163.514 38.5031C162.896 38.7561 162.25 38.8979 161.632 38.8726C161.016 38.8394 160.437 38.654 159.991 38.3318C159.542 38.0134 159.232 37.5873 159.029 37.1708C158.635 36.3217 158.611 35.5404 158.657 35.03C158.688 34.772 158.737 34.5765 158.783 34.4469C158.837 34.3192 158.866 34.2567 158.866 34.2567Z" fill="#263238"/>
<path d="M159.089 35.8129C160.931 36.7285 163.221 36.6865 165.028 35.7036C164.659 36.1388 164.275 36.5854 163.766 36.844C163.181 37.1408 162.497 37.1562 161.841 37.1552C161.318 37.1544 160.774 37.1424 160.306 36.9105C159.825 36.6724 159.482 36.2322 159.157 35.8066" fill="#E0E0E0"/>
<path d="M164.745 35.1401C164.749 35.1566 164.46 35.2463 163.979 35.3418C163.499 35.4375 162.825 35.5304 162.077 35.5575C161.329 35.5833 160.651 35.5381 160.165 35.4764C159.678 35.4149 159.383 35.346 159.386 35.3293C159.389 35.3083 159.689 35.3428 160.174 35.379C160.659 35.4155 161.331 35.4447 162.072 35.4192C162.813 35.3926 163.481 35.316 163.962 35.2455C164.444 35.175 164.741 35.1194 164.745 35.1401Z" fill="#E0E0E0"/>
<path d="M165.205 36.2499C165.216 36.2598 165.042 36.4896 164.681 36.7806C164.322 37.0713 163.761 37.4092 163.074 37.5985C162.387 37.7885 161.732 37.7869 161.275 37.7212C160.815 37.6568 160.547 37.5491 160.552 37.5347C160.558 37.5124 160.833 37.5855 161.286 37.6235C161.737 37.6632 162.372 37.6491 163.037 37.4647C163.703 37.2812 164.255 36.9676 164.621 36.7024C164.99 36.4377 165.188 36.2337 165.205 36.2499Z" fill="#E0E0E0"/>
<path d="M165.246 35.6368C165.251 35.6453 165.175 35.6932 165.033 35.7733C164.892 35.8557 164.678 35.9565 164.406 36.0629C164.134 36.1715 163.8 36.2717 163.422 36.3539C163.042 36.4297 162.618 36.4837 162.171 36.493C161.724 36.4978 161.298 36.4571 160.917 36.3936C160.536 36.3233 160.198 36.234 159.924 36.1339C159.649 36.0361 159.431 35.9422 159.288 35.8642C159.144 35.7887 159.066 35.7429 159.07 35.7344C159.081 35.7113 159.404 35.8711 159.954 36.0408C160.229 36.1276 160.563 36.2055 160.938 36.2677C161.314 36.3233 161.731 36.3593 162.169 36.3547C162.608 36.3454 163.023 36.2962 163.397 36.2289C163.769 36.155 164.101 36.0664 164.373 35.9712C164.917 35.7842 165.235 35.6142 165.246 35.6368Z" fill="#263238"/>
<path d="M163.258 35.6401C163.264 35.6749 162.555 35.797 161.673 35.7593C160.79 35.7252 160.093 35.5462 160.102 35.5119C160.109 35.4714 160.809 35.5874 161.678 35.6209C162.548 35.6582 163.254 35.5994 163.258 35.6401Z" fill="#263238"/>
<path d="M133.812 68.8036V47.2334H163.89V68.8036L147.949 68.9377L133.812 68.8036Z" fill="#4998D0"/>
<g opacity="0.4">
<path d="M163.89 47.2334H133.812V68.8036H163.89V47.2334Z" fill="black"/>
</g>
<path d="M147.949 68.9377L133.812 68.8036V47.2334H147.903L147.949 68.9377Z" fill="#4998D0"/>
<path d="M141.433 47.2334H139.558V50.9755H141.433V47.2334Z" fill="#263238"/>
<path d="M138.548 64.0435H134.814V67.7677H138.548V64.0435Z" fill="#FAFAFA"/>
<path d="M138.555 67.7742H134.808V64.0366H138.555V67.7742ZM134.821 67.7609H138.541V64.0499H134.821V67.7609Z" fill="#263238"/>
<path d="M170.93 52.1852L171.552 57.206L162.22 62.7316L163.67 65.9161L174.278 61.6415C175.565 60.9917 176.664 60.0282 176.573 58.5854L176.062 51.5625L170.93 52.1852Z" fill="#FFBE9D"/>
<path d="M173.559 42.334C173.559 42.334 174.886 43.315 175.262 45.3579C175.619 47.3031 176.833 52.7386 176.833 52.7386L170.437 53.4937C170.437 53.4937 170.442 52.0012 170.441 52.0002C170.431 51.9789 169.846 49.1973 169.846 49.1973L171.038 45.3579L173.559 42.334Z" fill="#4998D0"/>
<path d="M176.579 52.7625C176.58 52.7721 176.424 52.7997 176.142 52.8418C175.835 52.8841 175.432 52.9394 174.944 53.0067C173.932 53.1399 172.533 53.3142 170.987 53.4985C170.801 53.5206 170.618 53.5421 170.446 53.5626L170.374 53.5711L170.368 53.499C170.262 52.0759 170.144 50.8106 170.057 49.9017C170.015 49.4649 169.981 49.1045 169.954 48.8291C169.931 48.577 169.922 48.4379 169.931 48.4365C169.94 48.4355 169.966 48.5725 170.005 48.823C170.044 49.0736 170.094 49.438 170.15 49.8915C170.262 50.7989 170.396 52.0632 170.506 53.4892L170.429 53.4256C170.602 53.4049 170.785 53.3831 170.97 53.361C172.516 53.1769 173.918 53.0178 174.932 52.9096C175.422 52.8604 175.828 52.8194 176.135 52.7886C176.42 52.7628 176.578 52.7529 176.579 52.7625Z" fill="#263238"/>
<path d="M173.035 42.6838C173.044 42.7059 172.803 42.8056 172.448 43.0232C172.093 43.2392 171.633 43.5917 171.223 44.0742C170.814 44.5586 170.543 45.0696 170.388 45.4547C170.233 45.8402 170.174 46.0939 170.151 46.0889C170.137 46.0867 170.161 45.8237 170.296 45.4204C170.43 45.0185 170.696 44.4833 171.117 43.9848C171.539 43.4882 172.024 43.1371 172.398 42.9386C172.774 42.7378 173.03 42.6702 173.035 42.6838Z" fill="#263238"/>
<path d="M162.074 62.4507L160.704 63.0771L160.116 62.8505L157.125 62.664L155.252 63.0771L155.198 63.1838C155.198 64.1967 157.122 63.7969 157.71 63.9568C158.298 64.1166 157.764 65.3695 157.764 65.3695C157.764 65.3695 155.118 68.8084 154.657 69.6348C154.427 70.0479 154.502 70.2745 154.634 70.398C154.77 70.5243 154.983 70.5235 155.134 70.4163L156.111 69.7266C156.111 69.7266 158.798 69.8825 158.983 69.7915C159.249 69.6603 159.634 69.1018 159.634 69.1018C161.01 67.8188 162.424 66.7519 163.89 65.9704L162.074 62.4507Z" fill="#FAFAFA"/>
<path d="M162.075 62.4505C162.075 62.4484 162.087 62.4673 162.108 62.5056C162.133 62.5508 162.164 62.6082 162.204 62.6798C162.291 62.8442 162.414 63.0732 162.57 63.3655C162.893 63.9795 163.356 64.8575 163.931 65.95L163.952 65.9894L163.912 66.0107C162.631 66.6969 161.16 67.7535 159.678 69.1476L159.687 69.1375C159.508 69.379 159.334 69.6277 159.061 69.8216C159.028 69.8458 158.979 69.8621 158.927 69.8703L158.806 69.8799L158.568 69.8849C158.409 69.8863 158.25 69.8831 158.089 69.8794C157.447 69.8634 156.785 69.8317 156.108 69.7948L156.151 69.7825C155.942 69.9307 155.73 70.0799 155.517 70.2307L155.196 70.4576C155.083 70.547 154.914 70.5912 154.764 70.547C154.609 70.5055 154.489 70.3731 154.454 70.2201C154.42 70.0664 154.456 69.9171 154.508 69.7871C154.618 69.5232 154.782 69.3088 154.931 69.0798C155.861 67.7436 156.816 66.5009 157.711 65.3297L157.703 65.3441C157.776 65.164 157.837 64.9754 157.877 64.7884C157.915 64.603 157.943 64.4075 157.897 64.2407C157.878 64.155 157.827 64.0928 157.764 64.05C157.697 64.0154 157.606 63.9978 157.515 63.9909C157.332 63.9734 157.144 63.975 156.959 63.9739C156.588 63.9723 156.22 63.9712 155.863 63.8975C155.688 63.8529 155.506 63.8037 155.362 63.6773C155.215 63.5544 155.145 63.3637 155.141 63.1841L155.14 63.1711L155.147 63.1583C155.166 63.1211 155.183 63.0865 155.2 63.0519L155.213 63.0275L155.239 63.0216C155.91 62.8761 156.534 62.7407 157.113 62.6152L157.121 62.6136L157.128 62.6141C158.322 62.6952 159.325 62.7633 160.117 62.8171L160.123 62.8173L160.128 62.8192C160.358 62.9102 160.543 62.983 160.714 63.0503L160.691 63.0511C161.136 62.8554 161.482 62.7035 161.725 62.5965C161.835 62.5495 161.921 62.5125 161.987 62.4843C162.046 62.4596 162.075 62.4481 162.075 62.4505C162.074 62.4529 162.043 62.4691 161.984 62.4984C161.917 62.5306 161.831 62.5726 161.721 62.6258C161.485 62.7381 161.149 62.8977 160.716 63.1033L160.705 63.1083L160.694 63.1038C160.522 63.0392 160.336 62.9689 160.104 62.882L160.114 62.8841C159.321 62.8389 158.317 62.7819 157.123 62.7141L157.137 62.7131C156.558 62.8429 155.935 62.9822 155.265 63.1325L155.304 63.1025C155.286 63.1371 155.269 63.1719 155.251 63.2091L155.257 63.1836C155.264 63.3382 155.318 63.486 155.439 63.5874C155.557 63.6922 155.725 63.739 155.889 63.7797C156.227 63.8478 156.59 63.8486 156.96 63.8483C157.146 63.8489 157.334 63.8459 157.529 63.8638C157.625 63.8723 157.726 63.885 157.831 63.9388C157.927 63.9997 157.999 64.1005 158.023 64.205C158.079 64.4141 158.044 64.6181 158.007 64.8153C157.965 65.0132 157.904 65.2041 157.826 65.3957L157.823 65.4028L157.818 65.4103C156.927 66.582 155.972 67.828 155.048 69.1574C154.9 69.3819 154.735 69.6043 154.638 69.8379C154.59 69.9544 154.565 70.0794 154.59 70.1882C154.614 70.2948 154.698 70.3866 154.802 70.4143C154.909 70.4435 155.024 70.4183 155.118 70.3451L155.439 70.1185C155.652 69.9682 155.864 69.819 156.073 69.6713L156.093 69.6575L156.117 69.6588C156.792 69.6969 157.454 69.7299 158.093 69.7477C158.253 69.7517 158.412 69.7554 158.568 69.7546L158.8 69.7506L158.912 69.7424C158.937 69.7376 158.963 69.7347 158.993 69.7126C159.227 69.5495 159.415 69.2968 159.584 69.0667L159.589 69.0603L159.593 69.0564C161.088 67.6622 162.575 66.6086 163.87 65.9309L163.851 65.9915C163.3 64.8996 162.856 64.022 162.546 63.4081C162.396 63.1078 162.279 62.8724 162.195 62.7035C162.158 62.6271 162.128 62.5662 162.105 62.5178C162.084 62.4755 162.074 62.4526 162.075 62.4505Z" fill="#263238"/>
<path d="M158.645 67.4057C158.669 67.4339 158.106 67.9566 157.409 68.5995C157.06 68.9203 156.742 69.2081 156.508 69.4126C156.274 69.6174 156.124 69.7382 156.113 69.7268C156.081 69.6959 156.616 69.1405 157.316 68.4976C158.013 67.8533 158.62 67.3753 158.645 67.4057Z" fill="#263238"/>
<path d="M159.458 68.0712C159.49 68.0962 159.159 68.5346 158.681 69.0075C158.208 69.4837 157.788 69.8319 157.762 69.8039C157.736 69.7758 158.111 69.3839 158.583 68.9099C159.058 68.4394 159.43 68.0489 159.458 68.0712Z" fill="#263238"/>
<path d="M33.708 119.127C33.9317 118.262 33.3632 117.393 32.7259 116.766C32.0885 116.138 31.3264 115.576 30.9949 114.746C30.4576 113.402 31.18 111.661 30.2632 110.539C29.724 109.879 28.7568 109.659 28.2781 108.954C28.0272 108.584 27.9459 108.13 27.8472 107.694C27.344 105.472 26.2291 103.391 24.6571 101.739C24.5477 103.718 24.9853 105.724 25.9088 107.478C26.28 108.183 26.736 108.871 26.8589 109.658C27.0587 110.936 26.3435 112.253 26.6584 113.508C27.0184 114.943 28.6344 115.903 28.7112 117.381C28.776 118.63 27.6848 119.726 27.7661 120.974C27.8008 121.506 28.048 121.999 28.3232 122.455C29.2915 124.061 30.7136 125.167 32.8693 125.131L35.5096 125.223L33.708 119.127Z" fill="#4998D0"/>
<g opacity="0.3">
<path d="M33.708 119.127C33.9317 118.262 33.3632 117.393 32.7259 116.766C32.0885 116.138 31.3264 115.576 30.9949 114.746C30.4576 113.402 31.18 111.661 30.2632 110.539C29.724 109.879 28.7568 109.659 28.2781 108.954C28.0272 108.584 27.9459 108.13 27.8472 107.694C27.344 105.472 26.2291 103.391 24.6571 101.739C24.5477 103.718 24.9853 105.724 25.9088 107.478C26.28 108.183 26.736 108.871 26.8589 109.658C27.0587 110.936 26.3435 112.253 26.6584 113.508C27.0184 114.943 28.6344 115.903 28.7112 117.381C28.776 118.63 27.6848 119.726 27.7661 120.974C27.8008 121.506 28.048 121.999 28.3232 122.455C29.2915 124.061 30.7136 125.167 32.8693 125.131L35.5096 125.223L33.708 119.127Z" fill="black"/>
</g>
<path d="M36.0438 125.292C36.0438 125.292 36.2955 125.351 36.7707 125.277C37.0073 125.242 37.2987 125.179 37.6286 125.061C37.9566 124.941 38.3305 124.771 38.6883 124.482C38.8601 124.332 39.0318 124.147 39.1241 123.903C39.215 123.659 39.2315 123.391 39.2483 123.116C39.2625 122.841 39.2627 122.554 39.3099 122.264C39.3545 121.974 39.4686 121.689 39.6326 121.417C39.9441 120.871 40.4609 120.355 40.6278 119.614C40.8086 118.886 40.679 118.097 40.5561 117.306C40.4334 116.516 40.3147 115.654 40.6177 114.831C40.9009 114.007 41.4801 113.264 41.7694 112.335C42.0577 111.398 41.9233 110.389 41.9841 109.394C42.0121 108.894 42.1086 108.394 42.3281 107.931C42.5417 107.465 42.8379 107.025 43.0694 106.534C43.5379 105.542 43.6209 104.418 43.7489 103.316C43.8113 102.76 43.8745 102.199 43.9382 101.633C44.0011 101.063 44.0518 100.496 44.2315 99.9483C44.3942 99.3964 44.6297 98.8623 44.8633 98.3183C44.9774 98.0446 45.0985 97.7709 45.1697 97.4671C45.2214 97.1567 45.2363 96.8662 45.2547 96.5614C45.2843 95.9575 45.2595 95.3455 45.1843 94.7382C45.1126 94.1304 45.0027 93.5279 44.9371 92.9188C44.9331 92.8828 44.9289 92.8467 44.9254 92.8137L44.9118 92.6924L44.8035 92.7464C44.2382 93.0289 43.7539 93.4494 43.3822 93.9429C43.0041 94.4331 42.7286 94.9861 42.5089 95.5482C42.0678 96.6797 41.9089 97.8656 41.6867 98.9971C41.4697 100.129 41.1835 101.242 40.6019 102.182C40.3126 102.651 39.9625 103.08 39.6561 103.537C39.3505 103.992 39.0817 104.491 39.0009 105.038C38.8446 106.153 39.4601 107.131 39.3318 108.117C39.2862 108.608 39.0905 109.066 38.8502 109.484C38.6105 109.905 38.3286 110.295 38.0614 110.688C37.7942 111.08 37.5398 111.478 37.3526 111.903C37.1622 112.327 37.0571 112.78 37.0283 113.223C36.9638 114.112 37.0902 114.954 37.0251 115.75C36.9715 116.546 36.691 117.269 36.3737 117.914C36.0542 118.562 35.699 119.148 35.4014 119.716C35.2515 120 35.1137 120.277 35.0011 120.556C34.8819 120.833 34.8235 121.118 34.7694 121.388C34.6827 121.934 34.6913 122.443 34.7499 122.892C34.8646 123.794 35.2019 124.443 35.5054 124.809C35.5747 124.906 35.6555 124.975 35.719 125.04C35.7809 125.106 35.8422 125.151 35.8923 125.186C35.991 125.259 36.0438 125.292 36.0438 125.292C36.0555 125.279 35.8265 125.158 35.5326 124.788C35.2419 124.421 34.9193 123.776 34.8158 122.884C34.7627 122.44 34.7595 121.938 34.8494 121.402C34.9051 121.137 34.9646 120.858 35.083 120.589C35.1953 120.317 35.335 120.041 35.4857 119.761C35.7857 119.197 36.1446 118.614 36.471 117.962C36.7947 117.313 37.0862 116.576 37.1454 115.759C37.2147 114.946 37.0921 114.101 37.1595 113.234C37.1899 112.8 37.2921 112.368 37.4777 111.958C37.6606 111.546 37.9113 111.156 38.1785 110.767C38.4457 110.377 38.7307 109.986 38.9774 109.556C39.2241 109.129 39.4313 108.652 39.4811 108.133C39.6083 107.082 38.9977 106.097 39.1563 105.062C39.2326 104.549 39.4881 104.072 39.7894 103.626C40.091 103.177 40.4427 102.748 40.7409 102.267C41.3409 101.3 41.6315 100.165 41.851 99.0288C42.0755 97.89 42.2345 96.7167 42.6678 95.6085C42.8835 95.0577 43.1529 94.5185 43.5182 94.0455C43.8779 93.5686 44.3411 93.1677 44.8798 92.8983L44.7582 92.831C44.7619 92.8645 44.7659 92.9009 44.7702 92.9371C44.8366 93.5534 44.9467 94.1572 45.0177 94.7579C45.0918 95.3585 45.1166 95.9583 45.0875 96.5531C45.0705 96.8468 45.0523 97.1548 45.0065 97.4317C44.9419 97.7089 44.8235 97.9821 44.7102 98.2529C44.4785 98.7947 44.2395 99.3368 44.0737 99.9007C43.8902 100.462 43.8377 101.051 43.7763 101.613C43.7134 102.18 43.6507 102.742 43.5891 103.297C43.463 104.404 43.3803 105.51 42.9289 106.468C42.7059 106.945 42.4099 107.386 42.1902 107.867C41.9633 108.348 41.8627 108.876 41.8363 109.384C41.7787 110.4 41.9113 111.394 41.6358 112.294C41.3622 113.19 40.7862 113.938 40.495 114.788C40.1835 115.646 40.3126 116.536 40.4385 117.323C40.5659 118.116 40.6942 118.888 40.5238 119.588C40.3713 120.296 39.8691 120.807 39.5515 121.369C39.3862 121.647 39.2675 121.948 39.2241 122.249C39.1779 122.549 39.1803 122.838 39.1686 123.112C39.155 123.383 39.1393 123.649 39.0561 123.877C38.9731 124.105 38.8115 124.284 38.6465 124.432C38.3017 124.716 37.9347 124.89 37.6123 125.013C37.2875 125.135 37.0001 125.203 36.7665 125.242C36.5326 125.285 36.351 125.291 36.2294 125.294C36.1067 125.29 36.0438 125.292 36.0438 125.292Z" fill="#263238"/>
<path d="M44.386 94.2637C44.3831 94.2631 44.3745 94.29 44.3604 94.3432C44.3449 94.4063 44.3257 94.4842 44.302 94.5802C44.2503 94.7877 44.1881 95.1008 44.0884 95.4921C43.9847 95.882 43.7452 96.3236 43.5404 96.8678C43.3276 97.4075 43.1116 98.0332 42.9127 98.7359C42.7113 99.4382 42.5327 100.218 42.3463 101.054C42.1537 101.888 41.9617 102.782 41.5009 103.626C41.2844 104.054 41.0409 104.487 40.8473 104.961C40.6489 105.434 40.542 105.952 40.4671 106.472C40.3401 107.515 40.1484 108.575 39.8977 109.658C39.3684 111.817 38.8641 113.872 38.4049 115.745C37.9345 117.61 37.5108 119.291 37.1537 120.708C36.8063 122.112 36.5236 123.253 36.3244 124.058C36.2327 124.444 36.1601 124.749 36.1073 124.971C36.0863 125.067 36.0689 125.146 36.0551 125.209C36.0441 125.263 36.0401 125.291 36.0428 125.292C36.0457 125.293 36.0556 125.266 36.0719 125.213C36.0903 125.151 36.1127 125.074 36.1407 124.979C36.2009 124.759 36.2839 124.457 36.3887 124.074C36.6004 123.273 36.9007 122.136 37.2703 120.738C37.6375 119.323 38.0732 117.645 38.5567 115.783C39.0201 113.911 39.5292 111.855 40.0636 109.696C40.314 108.613 40.5081 107.534 40.6319 106.496C40.7052 105.98 40.8073 105.481 40.9977 105.022C41.1844 104.56 41.4241 104.129 41.6407 103.697C42.1052 102.837 42.2985 101.915 42.4836 101.085C42.6644 100.247 42.8353 99.4693 43.0281 98.7684C43.2185 98.0669 43.4252 97.4424 43.6287 96.9021C43.8228 96.3598 44.0548 95.9131 44.1519 95.5099C44.2433 95.109 44.2937 94.7991 44.3351 94.5877C44.3519 94.49 44.3657 94.411 44.3769 94.3472C44.386 94.2924 44.3889 94.2645 44.386 94.2637Z" fill="#263238"/>
<path d="M36.5096 125.3C38.2341 124.278 38.729 121.174 38.0098 119.306C37.2904 117.438 36.0312 115.731 35.837 113.739C35.6877 112.208 36.1904 110.636 35.833 109.139C35.3506 107.12 33.3738 105.555 33.3965 103.479C33.4093 102.314 34.0736 101.218 34.0208 100.054C33.956 98.627 32.8576 97.4944 32.1773 96.237C31.136 94.3122 31.0674 92.0366 30.7114 89.8785C30.3554 87.7204 29.5309 85.4092 27.6133 84.3486C27.3301 86.1808 26.8466 87.4356 26.9986 89.9179C27.053 90.8092 28.0914 92.5159 28.2325 94.4694C28.317 95.6371 28.3754 96.8065 28.4469 97.975C28.5165 99.1122 28.5904 100.27 28.9989 101.334C29.312 102.149 29.8152 102.89 30.0477 103.731C30.485 105.315 29.9104 107.03 30.2637 108.634C30.5629 109.993 31.5061 111.163 31.6986 112.541C31.9693 114.478 30.713 116.49 31.356 118.337C31.6752 119.253 32.4309 119.989 32.6453 120.936C32.8117 121.67 32.6304 122.447 32.781 123.185C33.0237 124.373 35.2962 125.296 36.5098 125.223" fill="#4998D0"/>
<path d="M28.0881 86.1675C28.0851 86.168 28.0878 86.2031 28.0955 86.271C28.1054 86.3478 28.1182 86.4473 28.1345 86.5721C28.1739 86.8367 28.2185 87.2254 28.3081 87.7276C28.4046 88.233 28.6654 88.8017 28.8739 89.4874C29.0939 90.1711 29.3129 90.96 29.5065 91.8431C29.7033 92.7257 29.8678 93.7027 30.0409 94.7542C30.2195 95.7978 30.4022 96.9511 30.9249 98.0457C31.1667 98.5958 31.4382 99.1462 31.6419 99.7324C31.8507 100.317 31.9467 100.945 32.0057 101.592C32.0947 102.889 32.2681 104.239 32.5115 105.599C33.0398 108.314 33.543 110.9 34.0009 113.253C34.4835 115.597 34.9185 117.71 35.2846 119.488C35.6542 121.253 35.9542 122.685 36.1643 123.688C36.2699 124.174 36.3529 124.556 36.4121 124.828C36.4406 124.951 36.4633 125.048 36.4806 125.124C36.4969 125.19 36.5067 125.224 36.5097 125.223C36.5126 125.223 36.5083 125.188 36.4977 125.12C36.4843 125.044 36.467 124.945 36.4457 124.821C36.3942 124.548 36.3217 124.164 36.2291 123.675C36.0318 122.669 35.7497 121.233 35.4022 119.464C35.0462 117.684 34.6235 115.57 34.1542 113.222C33.7006 110.869 33.2022 108.284 32.679 105.571C32.4358 104.209 32.2635 102.879 32.1715 101.576C32.1113 100.926 32.0113 100.279 31.7955 99.68C31.5857 99.081 31.3105 98.5285 31.0683 97.9832C30.5486 96.9048 30.3659 95.7786 30.1798 94.7311C30.0011 93.6815 29.8289 92.7018 29.6238 91.8173C29.4219 90.9324 29.1939 90.1421 28.9643 89.4584C28.7451 88.7703 28.4763 88.2064 28.3729 87.714C28.2747 87.2209 28.2187 86.8282 28.1683 86.567C28.1454 86.4433 28.127 86.3449 28.1129 86.2686C28.0993 86.2013 28.091 86.167 28.0881 86.1675Z" fill="#263238"/>
<path d="M126.634 37.0562H118.062V49.0397H126.634V37.0562Z" fill="#455A64"/>
<path d="M126.634 37.0562H118.062V38.4452H126.634V37.0562Z" fill="#263238"/>
<path d="M126.634 47.6509H118.062V49.0399H126.634V47.6509Z" fill="#263238"/>
<path d="M124.942 39.2998H119.734V42.0069H124.942V39.2998Z" fill="#263238"/>
<path d="M123.572 40.6532C123.558 40.6538 123.56 40.5447 123.507 40.362C123.455 40.1827 123.33 39.9217 123.059 39.7225C122.796 39.5227 122.368 39.4123 121.954 39.5674C121.544 39.7097 121.191 40.1452 121.195 40.653C121.191 41.161 121.544 41.5965 121.954 41.7388C122.368 41.8938 122.797 41.7837 123.059 41.5837C123.33 41.3845 123.455 41.1235 123.507 40.9442C123.559 40.7617 123.558 40.6527 123.572 40.6532C123.576 40.6532 123.58 40.6801 123.582 40.732C123.585 40.7836 123.58 40.8607 123.56 40.9578C123.522 41.1488 123.404 41.4353 123.119 41.6619C122.843 41.8888 122.373 42.0245 121.911 41.859C121.452 41.7084 121.051 41.223 121.057 40.6532C121.051 40.0837 121.452 39.5983 121.911 39.4477C122.373 39.2825 122.843 39.4179 123.119 39.6448C123.404 39.8714 123.522 40.1579 123.56 40.3489C123.58 40.4457 123.585 40.5229 123.582 40.5748C123.58 40.6264 123.576 40.6532 123.572 40.6532Z" fill="#455A64"/>
<path d="M120.335 43.0483C120.335 43.1598 120.245 43.2499 120.133 43.2499C120.021 43.2499 119.931 43.1598 119.931 43.0483C119.931 42.9369 120.021 42.8467 120.133 42.8467C120.245 42.8467 120.335 42.9369 120.335 43.0483Z" fill="#263238"/>
<path d="M121.863 43.0483C121.863 43.1598 121.773 43.2499 121.661 43.2499C121.549 43.2499 121.459 43.1598 121.459 43.0483C121.459 42.9369 121.549 42.8467 121.661 42.8467C121.773 42.8467 121.863 42.9369 121.863 43.0483Z" fill="#263238"/>
<path d="M123.392 43.0483C123.392 43.1598 123.301 43.2499 123.189 43.2499C123.078 43.2499 122.987 43.1598 122.987 43.0483C122.987 42.9369 123.078 42.8467 123.189 42.8467C123.301 42.8467 123.392 42.9369 123.392 43.0483Z" fill="#263238"/>
<path d="M120.133 44.5419C120.244 44.5419 120.335 44.4517 120.335 44.3403C120.335 44.2289 120.244 44.1387 120.133 44.1387C120.021 44.1387 119.931 44.2289 119.931 44.3403C119.931 44.4517 120.021 44.5419 120.133 44.5419Z" fill="#263238"/>
<path d="M121.863 44.3403C121.863 44.4518 121.773 44.5419 121.661 44.5419C121.549 44.5419 121.459 44.4518 121.459 44.3403C121.459 44.2288 121.549 44.1387 121.661 44.1387C121.773 44.1387 121.863 44.2288 121.863 44.3403Z" fill="#263238"/>
<path d="M123.189 44.5419C123.301 44.5419 123.392 44.4517 123.392 44.3403C123.392 44.2289 123.301 44.1387 123.189 44.1387C123.078 44.1387 122.987 44.2289 122.987 44.3403C122.987 44.4517 123.078 44.5419 123.189 44.5419Z" fill="#263238"/>
<path d="M120.133 45.8339C120.244 45.8339 120.335 45.7436 120.335 45.6323C120.335 45.5209 120.244 45.4307 120.133 45.4307C120.021 45.4307 119.931 45.5209 119.931 45.6323C119.931 45.7436 120.021 45.8339 120.133 45.8339Z" fill="#263238"/>
<path d="M121.863 45.6323C121.863 45.7437 121.773 45.8339 121.661 45.8339C121.549 45.8339 121.459 45.7437 121.459 45.6323C121.459 45.5208 121.549 45.4307 121.661 45.4307C121.773 45.4307 121.863 45.5208 121.863 45.6323Z" fill="#263238"/>
<path d="M123.189 45.8339C123.301 45.8339 123.392 45.7436 123.392 45.6323C123.392 45.5209 123.301 45.4307 123.189 45.4307C123.078 45.4307 122.987 45.5209 122.987 45.6323C122.987 45.7436 123.078 45.8339 123.189 45.8339Z" fill="#263238"/>
<path d="M124.779 45.0708C125.184 45.0708 125.512 44.7436 125.512 44.3401C125.512 43.9365 125.184 43.6094 124.779 43.6094C124.375 43.6094 124.047 43.9365 124.047 44.3401C124.047 44.7436 124.375 45.0708 124.779 45.0708Z" fill="#4998D0"/>
<path d="M114.404 10.1143H109.443V125.224H114.404V10.1143Z" fill="#AED1EA"/>
<path d="M109.443 14.9707H60.0537V125.224H109.443V14.9707Z" fill="#1F547A"/>
<path d="M61.4376 10.1143H56.8672V125.224H61.4376V10.1143Z" fill="#AED1EA"/>
<path d="M114.404 10.1143H56.8672V14.9706H114.404V10.1143Z" fill="#AED1EA"/>
<path d="M114.405 10.1144C114.411 10.1219 114.344 10.1897 114.219 10.3073C114.07 10.444 113.891 10.607 113.683 10.7967C113.201 11.2313 112.586 11.7865 111.906 12.4001C111.216 13.0306 110.601 13.611 110.179 14.052C109.968 14.2722 109.806 14.4582 109.707 14.5949C109.656 14.663 109.626 14.7197 109.606 14.7588C109.593 14.7987 109.584 14.8218 109.579 14.8218C109.574 14.8218 109.574 14.7984 109.579 14.75C109.592 14.7056 109.617 14.6404 109.661 14.5659C109.749 14.4151 109.903 14.2169 110.106 13.986C110.514 13.5237 111.121 12.93 111.812 12.2983C112.503 11.6668 113.147 11.1148 113.619 10.7227C113.855 10.527 114.049 10.3711 114.184 10.2663C114.32 10.1612 114.399 10.1072 114.405 10.1144Z" fill="#1F547A"/>
<path d="M61.4382 15.0708C61.4099 15.0966 60.3638 14.0081 59.1019 12.6398C57.8395 11.271 56.8395 10.1408 56.8678 10.1147C56.896 10.0889 57.9419 11.1771 59.2043 12.5459C60.4662 13.9145 61.4664 15.045 61.4382 15.0708Z" fill="#1F547A"/>
<path d="M64.4669 79.8629H64.3253C63.4466 79.8629 62.7344 79.1524 62.7344 78.2759V66.7251C62.7344 65.8487 63.4466 65.1382 64.3253 65.1382H64.4669C65.3456 65.1382 66.0578 65.8487 66.0578 66.7251V78.2759C66.0578 79.1524 65.3456 79.8629 64.4669 79.8629Z" fill="#AED1EA"/>
<path d="M65.0712 76.2471C65.0712 75.9385 64.8205 75.6885 64.5112 75.6885C64.2018 75.6885 63.9512 75.9385 63.9512 76.2471C63.9512 76.4649 64.0776 76.6517 64.2597 76.7437V77.3925C64.2597 77.5311 64.3722 77.6433 64.5112 77.6433C64.6501 77.6433 64.7626 77.5311 64.7626 77.3925V76.7437C64.945 76.6514 65.0712 76.4647 65.0712 76.2471Z" fill="#1F547A"/>
<path d="M72.6565 71.8586H65.1976C64.7309 71.8586 64.3525 71.4811 64.3525 71.0156V70.9406C64.3525 70.4751 64.7309 70.0977 65.1976 70.0977H72.6565C73.1232 70.0977 73.5016 70.4751 73.5016 70.9406V71.0156C73.5016 71.4811 73.1232 71.8586 72.6565 71.8586Z" fill="#AED1EA"/>
<path d="M67.6766 71.9088C67.6764 71.9192 67.5772 71.9237 67.3988 71.9319C67.1892 71.941 66.9369 71.9519 66.6417 71.9647C66.3217 71.974 65.9366 71.9827 65.5102 71.9261C65.2993 71.8952 65.0729 71.8575 64.851 71.7601C64.6326 71.6649 64.4164 71.5098 64.286 71.2771C64.1598 71.0443 64.1412 70.7621 64.2502 70.5299C64.3025 70.4155 64.3977 70.3141 64.5028 70.2569C64.6057 70.1966 64.711 70.1585 64.814 70.1242C65.2294 69.9864 65.6257 69.996 65.943 69.9912C66.2646 69.9928 66.5233 70.0072 66.702 70.0178C66.8806 70.0293 66.9796 70.0394 66.9793 70.0489C66.9796 70.0715 66.5817 70.0723 65.9446 70.0891C65.6265 70.1064 65.2449 70.1077 64.8542 70.2452C64.6601 70.3141 64.4542 70.3953 64.3732 70.5879C64.2862 70.7733 64.3012 71.0161 64.4076 71.2103C64.5169 71.4063 64.7065 71.5473 64.9062 71.6359C65.1062 71.7263 65.3228 71.766 65.5284 71.7995C65.9409 71.8617 66.3212 71.8636 66.6401 71.8665C67.2798 71.8636 67.678 71.8878 67.6766 71.9088Z" fill="#1F547A"/>
<path d="M83.3882 39.6571C83.3882 39.6571 83.3858 39.6263 83.3848 39.5691C83.384 39.5076 83.3826 39.4241 83.3813 39.3158C83.3797 39.089 83.377 38.7615 83.3738 38.3367C83.3701 37.4789 83.3645 36.2308 83.3573 34.6502C83.3498 31.4875 83.3389 26.9939 83.3264 21.6497L83.3882 21.7114C79.0338 21.7136 74.0306 21.7162 68.7333 21.7189H68.7317L68.801 21.6497C68.7968 28.3117 68.7928 34.506 68.7896 39.6571L68.7317 39.5994C73.1405 39.6119 76.797 39.622 79.3565 39.6292C80.6352 39.6356 81.6394 39.6406 82.3296 39.6441C82.6701 39.647 82.9322 39.6491 83.1149 39.6507C83.293 39.6529 83.3882 39.6571 83.3882 39.6571C83.3882 39.6571 83.3016 39.6614 83.1272 39.6635C82.9472 39.6651 82.6885 39.6672 82.3528 39.6702C81.6658 39.6736 80.6658 39.6787 79.3928 39.6851C76.8245 39.6922 73.1554 39.7026 68.7314 39.7148L68.6736 39.7151V39.6571C68.6704 34.506 68.6664 28.3117 68.6621 21.6497V21.5806H68.7317H68.7333C74.0306 21.5832 79.0338 21.5859 83.3882 21.588H83.4504L83.4501 21.65C83.4373 27.0107 83.4266 31.5181 83.4189 34.6904C83.412 36.2651 83.4064 37.5084 83.4024 38.363C83.3992 38.7825 83.3968 39.1057 83.3949 39.33C83.3933 39.4353 83.3922 39.5167 83.3914 39.5765C83.3906 39.6308 83.3893 39.6582 83.3882 39.6571Z" fill="#AED1EA"/>
<path d="M80.9747 37.4282C80.9733 37.4269 80.9723 37.4038 80.9709 37.3596C80.9701 37.3101 80.9688 37.2463 80.9672 37.1644C80.9653 36.9875 80.9629 36.7361 80.9597 36.4124C80.9557 35.7519 80.9501 34.797 80.9429 33.5909C80.9352 31.1735 80.9245 27.7504 80.9117 23.6997L80.9747 23.7625C77.9347 23.7644 74.5003 23.7668 70.8771 23.7689C70.86 23.7835 71.0077 23.6393 70.9453 23.7024V23.7061V23.7136V23.7287V23.7588V23.8189V23.9389V24.1783V24.6555C70.9453 24.9728 70.9453 25.2885 70.9451 25.6024C70.9448 26.2304 70.9445 26.8513 70.9445 27.4644C70.9437 28.6907 70.9429 29.885 70.9421 31.04C70.9387 33.3491 70.9355 35.4995 70.9328 37.4282L70.8763 37.3719C73.9259 37.3841 76.4424 37.3942 78.204 37.4014C79.0813 37.4075 79.7701 37.4126 80.2467 37.4157C80.4781 37.4184 80.6579 37.4205 80.7861 37.4221C80.9085 37.4243 80.9747 37.4282 80.9747 37.4282C80.9747 37.4282 80.9165 37.4322 80.7979 37.4344C80.672 37.436 80.496 37.4381 80.2691 37.4408C79.7955 37.4442 79.1109 37.449 78.2389 37.4551C76.4688 37.4623 73.94 37.4724 70.8757 37.4846L70.8192 37.4849V37.4282C70.8163 35.4998 70.8133 33.3491 70.8099 31.04C70.8091 29.885 70.8083 28.6907 70.8075 27.4644C70.8072 26.8513 70.8069 26.2302 70.8067 25.6024C70.8067 25.2885 70.8067 24.9728 70.8064 24.6555V24.1783V23.9389V23.8189V23.7588V23.7287V23.7136V23.7061V23.7024C70.7445 23.7633 70.8901 23.6149 70.8771 23.6306C74.5003 23.633 77.9347 23.6351 80.9747 23.6372H81.0379L81.0376 23.7C81.0248 27.7674 81.0139 31.2046 81.0064 33.6322C80.9992 34.8324 80.9936 35.7822 80.9896 36.4395C80.9864 36.7579 80.9837 37.0048 80.9821 37.179C80.9805 37.258 80.9795 37.3197 80.9784 37.3673C80.9771 37.4088 80.976 37.4296 80.9747 37.4282Z" fill="#AED1EA"/>
<path d="M83.3882 77.6675C83.3882 77.6675 83.3856 77.6098 83.3842 77.5005C83.3832 77.388 83.3818 77.2268 83.3802 77.0156C83.3784 76.5868 83.3754 75.9582 83.372 75.1437C83.3677 73.5107 83.3616 71.1354 83.3536 68.1487C83.3458 62.1799 83.3349 53.7722 83.3221 43.9994L83.3882 44.0654C78.833 44.0664 73.877 44.0675 68.7341 44.0685H68.7317L68.801 43.9994C68.7933 57.1113 68.7864 69.001 68.7813 77.6675L68.7317 77.6181C73.2514 77.6295 76.909 77.6385 79.441 77.6449C80.7072 77.6502 81.6909 77.6545 82.3621 77.6572C82.6949 77.6595 82.9496 77.6614 83.1248 77.6625C83.2973 77.6641 83.3882 77.6675 83.3882 77.6675C83.3882 77.6675 83.3042 77.671 83.1349 77.6726C82.9616 77.6739 82.7101 77.6755 82.3813 77.6779C81.7125 77.6808 80.7325 77.6848 79.4712 77.6901C76.932 77.6965 73.264 77.7056 68.7317 77.7167H68.6818V77.667C68.6768 69.0005 68.6698 57.1108 68.6621 43.9989V43.9297H68.7317H68.7341C73.8773 43.9308 78.833 43.9318 83.3882 43.9329H83.4546V43.9989C83.4418 53.7895 83.4309 62.2129 83.4232 68.1929C83.4154 71.1729 83.409 73.5435 83.4048 75.1727C83.401 75.9811 83.3984 76.6051 83.3965 77.0307C83.3946 77.2385 83.3933 77.3973 83.3925 77.5079C83.3909 77.6151 83.3882 77.6675 83.3882 77.6675Z" fill="#AED1EA"/>
<path d="M80.9746 75.8019C80.9746 75.8019 80.9717 75.7498 80.9704 75.6521C80.9693 75.5508 80.968 75.4069 80.9661 75.2191C80.964 74.8353 80.9613 74.2753 80.9576 73.551C80.953 72.0965 80.9466 69.9858 80.9386 67.3399C80.9309 62.0518 80.92 54.6294 80.9074 46.0745L80.9746 46.1416C77.7928 46.1424 74.3882 46.1429 70.8778 46.1437H70.876L70.9453 46.0745C70.936 57.9597 70.9274 68.626 70.9218 75.8019L70.876 75.7561C74.033 75.7668 76.5514 75.7753 78.2856 75.7811C79.1514 75.7859 79.8208 75.7899 80.2784 75.7923C80.5032 75.7945 80.6754 75.796 80.7957 75.7971C80.9128 75.7987 80.9746 75.8019 80.9746 75.8019C80.9746 75.8019 80.9189 75.8051 80.805 75.8067C80.6864 75.8077 80.517 75.8093 80.2957 75.8115C79.8405 75.8141 79.1746 75.8179 78.3133 75.8226C76.5728 75.8285 74.0448 75.837 70.876 75.8476L70.8301 75.8479V75.8019C70.8245 68.626 70.816 57.9597 70.8066 46.0745V46.0054H70.8762H70.8781C74.3885 46.0062 77.793 46.007 80.9749 46.0075H81.0421V46.0745C81.0296 54.648 81.0186 62.0864 81.0109 67.3859C81.0029 70.0252 80.9965 72.1308 80.992 73.5816C80.9882 74.2998 80.9853 74.8549 80.9832 75.2356C80.9813 75.4199 80.98 75.5609 80.9789 75.6606C80.9776 75.7553 80.9746 75.8019 80.9746 75.8019Z" fill="#AED1EA"/>
<path d="M83.3882 120.307C83.3882 120.307 83.3856 120.249 83.3842 120.14C83.3832 120.028 83.3818 119.866 83.3802 119.655C83.3784 119.226 83.3754 118.598 83.372 117.783C83.3677 116.15 83.3616 113.775 83.3536 110.788C83.3458 104.82 83.3349 96.4116 83.3221 86.639L83.3882 86.705C78.833 86.7061 73.877 86.7071 68.7341 86.7082H68.7317L68.801 86.639C68.7933 99.751 68.7864 111.641 68.7813 120.307L68.7317 120.258C73.2514 120.269 76.909 120.278 79.441 120.285C80.7072 120.29 81.6909 120.294 82.3621 120.297C82.6949 120.299 82.9496 120.301 83.1248 120.302C83.2973 120.304 83.3882 120.307 83.3882 120.307C83.3882 120.307 83.3042 120.311 83.1349 120.312C82.9616 120.314 82.7101 120.315 82.3813 120.318C81.7125 120.32 80.7325 120.324 79.4712 120.33C76.932 120.336 73.264 120.345 68.7317 120.357H68.6818V120.307C68.6768 111.64 68.6698 99.7507 68.6621 86.6388V86.5693H68.7317H68.7341C73.8773 86.5704 78.833 86.5717 83.3882 86.5725H83.4546V86.6385C83.4418 96.4292 83.4309 104.853 83.4232 110.832C83.4154 113.812 83.409 116.183 83.4048 117.812C83.401 118.62 83.3984 119.245 83.3965 119.67C83.3946 119.878 83.3933 120.037 83.3925 120.148C83.3909 120.255 83.3882 120.307 83.3882 120.307Z" fill="#AED1EA"/>
<path d="M80.9746 118.441C80.9746 118.441 80.9717 118.389 80.9704 118.292C80.9693 118.19 80.968 118.046 80.9661 117.859C80.964 117.475 80.9613 116.915 80.9576 116.19C80.953 114.736 80.9466 112.625 80.9386 109.979C80.9309 104.691 80.92 97.2688 80.9074 88.714L80.9746 88.781C77.7928 88.7818 74.3882 88.7826 70.8778 88.7834H70.876L70.9453 88.7142C70.936 100.599 70.9274 111.266 70.9218 118.442L70.876 118.396C74.033 118.406 76.5514 118.415 78.2856 118.421C79.1514 118.426 79.8208 118.43 80.2784 118.432C80.5032 118.434 80.6754 118.436 80.7957 118.437C80.9128 118.438 80.9746 118.441 80.9746 118.441C80.9746 118.441 80.9189 118.445 80.805 118.446C80.6864 118.447 80.517 118.449 80.2957 118.451C79.8405 118.454 79.1746 118.457 78.3133 118.462C76.5728 118.468 74.0448 118.476 70.876 118.487H70.8301V118.441C70.8245 111.265 70.816 100.599 70.8066 88.7137V88.6445H70.8762H70.8781C74.3885 88.6453 77.793 88.6461 80.9749 88.6469H81.0421V88.714C81.0296 97.2874 81.0186 104.726 81.0109 110.025C81.0029 112.665 80.9965 114.77 80.992 116.221C80.9882 116.939 80.9853 117.494 80.9832 117.875C80.9813 118.059 80.98 118.2 80.9789 118.3C80.9776 118.395 80.9746 118.441 80.9746 118.441Z" fill="#AED1EA"/>
<path d="M71.1122 37.4223C71.1365 37.4521 70.5754 37.9477 69.8591 38.5291C69.1426 39.1109 68.5426 39.5583 68.5183 39.5285C68.4941 39.4987 69.0551 39.0034 69.7714 38.4217C70.4877 37.8399 71.0879 37.3925 71.1122 37.4223Z" fill="#AED1EA"/>
<path d="M83.4712 39.3918C83.4512 39.4224 82.8522 39.0641 82.1866 38.5214C81.5194 37.9801 81.0472 37.467 81.0733 37.4412C81.1013 37.4127 81.6133 37.8777 82.2744 38.4139C82.9338 38.9521 83.4936 39.3585 83.4712 39.3918Z" fill="#AED1EA"/>
<path d="M83.1699 22.0766C83.1925 22.1075 82.6971 22.5051 82.0637 22.9645C81.4301 23.4242 80.8984 23.7716 80.8757 23.7407C80.8531 23.7099 81.3483 23.3122 81.9819 22.8525C82.6155 22.3932 83.1475 22.0458 83.1699 22.0766Z" fill="#AED1EA"/>
<path d="M70.9182 23.4725C70.9006 23.5047 70.339 23.2278 69.7049 22.791C69.0694 22.3556 68.6097 21.9313 68.6337 21.9031C68.659 21.8725 69.1542 22.2455 69.7836 22.6769C70.4116 23.1097 70.9377 23.4379 70.9182 23.4725Z" fill="#AED1EA"/>
<path d="M70.8235 46.1174C70.8075 46.1474 70.1798 45.7812 69.5939 45.1164C69.0035 44.4552 68.7157 43.7891 68.7475 43.7769C68.7851 43.7564 69.1213 44.3796 69.6979 45.0244C70.2693 45.6737 70.8486 46.0828 70.8235 46.1174Z" fill="#AED1EA"/>
<path d="M83.2043 43.9834C83.2297 44.0121 82.7643 44.4614 82.1651 44.9867C81.5657 45.5123 81.0595 45.9148 81.0342 45.8861C81.0089 45.8574 81.4742 45.4081 82.0737 44.8827C82.6726 44.3571 83.179 43.9547 83.2043 43.9834Z" fill="#AED1EA"/>
<path d="M70.8184 75.9552C70.8408 75.9887 70.3539 76.3409 69.8019 76.8301C69.2475 77.3172 68.8379 77.7563 68.8072 77.73C68.7789 77.7074 69.1469 77.2214 69.7099 76.7264C70.2707 76.2295 70.7995 75.9246 70.8184 75.9552Z" fill="#AED1EA"/>
<path d="M82.9759 77.636C82.9498 77.6641 82.4943 77.2867 81.9586 76.793C81.4226 76.2993 81.0092 75.8764 81.0354 75.8482C81.0615 75.82 81.5167 76.1974 82.0527 76.6911C82.5884 77.1848 83.0018 77.608 82.9759 77.636Z" fill="#AED1EA"/>
<path d="M71.0671 89.113C71.0394 89.1396 70.4879 88.6116 69.8357 87.9341C69.1831 87.2563 68.6767 86.6855 68.7042 86.6591C68.7317 86.6328 69.2831 87.1603 69.9357 87.8381C70.5882 88.5156 71.0946 89.0864 71.0671 89.113Z" fill="#AED1EA"/>
<path d="M83.3378 86.5538C83.3645 86.5815 82.8621 87.1069 82.2162 87.7277C81.5698 88.3485 81.0248 88.8295 80.9981 88.8018C80.9714 88.7741 81.4736 88.2488 82.12 87.628C82.7658 87.0074 83.3112 86.5265 83.3378 86.5538Z" fill="#AED1EA"/>
<path d="M70.5791 118.268C70.6077 118.294 70.2218 118.766 69.7173 119.322C69.2127 119.878 68.7807 120.308 68.7525 120.282C68.7239 120.257 69.1098 119.785 69.6143 119.229C70.1186 118.673 70.5506 118.242 70.5791 118.268Z" fill="#AED1EA"/>
<path d="M83.1454 120.306C83.1227 120.336 82.5912 119.96 82.007 119.413C81.4211 118.866 81.0107 118.362 81.0384 118.338C81.068 118.311 81.5211 118.77 82.1019 119.311C82.6811 119.854 83.1702 120.275 83.1454 120.306Z" fill="#AED1EA"/>
<path d="M102.895 39.6571C102.895 39.6571 102.893 39.6263 102.892 39.5691C102.891 39.5076 102.889 39.4241 102.888 39.3158C102.887 39.089 102.884 38.7615 102.881 38.3367C102.877 37.4789 102.871 36.2308 102.864 34.6502C102.857 31.4875 102.846 26.9939 102.833 21.6497L102.895 21.7114C98.5407 21.7136 93.5375 21.7162 88.2401 21.7189H88.2385L88.3079 21.6497C88.3036 28.3117 88.2996 34.506 88.2964 39.6571L88.2385 39.5994C92.6473 39.6119 96.3039 39.622 98.8633 39.6292C100.142 39.6356 101.146 39.6406 101.836 39.6441C102.177 39.647 102.439 39.6491 102.622 39.6507C102.8 39.6529 102.895 39.6571 102.895 39.6571C102.895 39.6571 102.808 39.6614 102.634 39.6635C102.454 39.6651 102.195 39.6672 101.86 39.6702C101.173 39.6736 100.173 39.6787 98.8996 39.6851C96.3313 39.6922 92.6623 39.7026 88.2383 39.7148L88.1804 39.7151V39.6571C88.1772 34.506 88.1732 28.3117 88.1689 21.6497V21.5806H88.2385H88.2401C93.5375 21.5832 98.5407 21.5859 102.895 21.588H102.957L102.957 21.65C102.944 27.0107 102.933 31.5181 102.926 34.6904C102.919 36.2651 102.913 37.5084 102.909 38.363C102.906 38.7825 102.904 39.1057 102.902 39.33C102.9 39.4353 102.899 39.5167 102.898 39.5765C102.897 39.6308 102.896 39.6582 102.895 39.6571Z" fill="#AED1EA"/>
<path d="M100.481 37.4282C100.48 37.4269 100.479 37.4038 100.478 37.3596C100.477 37.3101 100.476 37.2463 100.474 37.1644C100.472 36.9875 100.47 36.7361 100.467 36.4124C100.463 35.7519 100.457 34.797 100.45 33.5909C100.442 31.1735 100.431 27.7504 100.419 23.6997L100.481 23.7625C97.4415 23.7644 94.0071 23.7668 90.3839 23.7689C90.3668 23.7835 90.5146 23.6393 90.4522 23.7024V23.7061V23.7136V23.7287V23.7588V23.8189V23.9389V24.1783V24.6555C90.4522 24.9728 90.4522 25.2885 90.4519 25.6024C90.4516 26.2304 90.4514 26.8513 90.4514 27.4644C90.4506 28.6907 90.4498 29.885 90.449 31.04C90.4455 33.3491 90.4423 35.4995 90.4396 37.4282L90.3831 37.3719C93.4324 37.3841 95.9492 37.3942 97.7108 37.4014C98.5882 37.4075 99.277 37.4126 99.7535 37.4157C99.985 37.4184 100.165 37.4205 100.293 37.4221C100.415 37.4243 100.481 37.4282 100.481 37.4282C100.481 37.4282 100.423 37.4322 100.305 37.4344C100.179 37.436 100.003 37.4381 99.7759 37.4408C99.3023 37.4442 98.6178 37.449 97.7458 37.4551C95.9759 37.4623 93.4468 37.4724 90.3826 37.4846L90.326 37.4849V37.4282C90.3231 35.4998 90.3202 33.3491 90.3167 31.04C90.3159 29.885 90.3151 28.6907 90.3143 27.4644C90.314 26.8513 90.3138 26.2302 90.3135 25.6024C90.3135 25.2885 90.3135 24.9728 90.3132 24.6555V24.1783V23.9389V23.8189V23.7588V23.7287V23.7136V23.7061V23.7024C90.2514 23.7633 90.397 23.6149 90.3839 23.6306C94.0071 23.633 97.4415 23.6351 100.481 23.6372H100.545L100.544 23.7C100.532 27.7674 100.521 31.2046 100.513 33.6322C100.506 34.8324 100.5 35.7822 100.496 36.4395C100.493 36.7579 100.491 37.0048 100.489 37.179C100.487 37.258 100.486 37.3197 100.485 37.3673C100.484 37.4088 100.483 37.4296 100.481 37.4282Z" fill="#AED1EA"/>
<path d="M102.895 77.6675C102.895 77.6675 102.892 77.6098 102.891 77.5005C102.89 77.388 102.888 77.2268 102.887 77.0156C102.885 76.5868 102.882 75.9582 102.879 75.1437C102.874 73.5107 102.868 71.1354 102.86 68.1487C102.852 62.1799 102.841 53.7722 102.829 43.9994L102.895 44.0654C98.3396 44.0664 93.3836 44.0675 88.2407 44.0685H88.2383L88.3076 43.9994C88.2999 57.1113 88.2929 69.001 88.2879 77.6675L88.2383 77.6181C92.758 77.6295 96.4156 77.6385 98.9476 77.6449C100.214 77.6502 101.197 77.6545 101.869 77.6572C102.201 77.6595 102.456 77.6614 102.631 77.6625C102.804 77.6641 102.895 77.6675 102.895 77.6675C102.895 77.6675 102.811 77.671 102.641 77.6726C102.468 77.6739 102.217 77.6755 101.888 77.6779C101.219 77.6808 100.239 77.6848 98.9777 77.6901C96.4385 77.6965 92.7705 77.7056 88.2383 77.7167H88.1887V77.667C88.1836 69.0005 88.1767 57.1108 88.1689 43.9989V43.9297H88.2385H88.2409C93.3841 43.9308 98.3399 43.9318 102.895 43.9329H102.961V43.9989C102.949 53.7895 102.938 62.2129 102.93 68.1929C102.922 71.1729 102.916 73.5435 102.912 75.1727C102.908 75.9811 102.905 76.6051 102.903 77.0307C102.901 77.2385 102.9 77.3973 102.899 77.5079C102.897 77.6151 102.895 77.6675 102.895 77.6675Z" fill="#AED1EA"/>
<path d="M100.481 75.8019C100.481 75.8019 100.479 75.7498 100.477 75.6521C100.476 75.5508 100.475 75.4069 100.473 75.2191C100.471 74.8353 100.468 74.2753 100.464 73.551C100.46 72.0965 100.453 69.9858 100.445 67.3399C100.438 62.0518 100.427 54.6294 100.414 46.0745L100.481 46.1416C97.2996 46.1424 93.8951 46.1429 90.3847 46.1437H90.3828L90.4521 46.0745C90.4428 57.9597 90.4343 68.626 90.4287 75.8019L90.3828 75.7561C93.5399 75.7668 96.0583 75.7753 97.7924 75.7811C98.6583 75.7859 99.3276 75.7899 99.7852 75.7923C100.01 75.7945 100.182 75.796 100.303 75.7971C100.419 75.7987 100.481 75.8019 100.481 75.8019C100.481 75.8019 100.426 75.8051 100.312 75.8067C100.193 75.8077 100.024 75.8093 99.8025 75.8115C99.3473 75.8141 98.6815 75.8179 97.8201 75.8226C96.0796 75.8285 93.5516 75.837 90.3828 75.8476L90.3369 75.8479V75.8019C90.3313 68.626 90.3228 57.9597 90.3135 46.0745V46.0054H90.3831H90.3849C93.8953 46.0062 97.2999 46.007 100.482 46.0075H100.549V46.0745C100.536 54.648 100.525 62.0864 100.518 67.3859C100.51 70.0252 100.503 72.1308 100.499 73.5816C100.495 74.2998 100.492 74.8549 100.49 75.2356C100.488 75.4199 100.487 75.5609 100.486 75.6606C100.484 75.7553 100.481 75.8019 100.481 75.8019Z" fill="#AED1EA"/>
<path d="M102.895 120.307C102.895 120.307 102.892 120.249 102.891 120.14C102.89 120.028 102.888 119.866 102.887 119.655C102.885 119.226 102.882 118.598 102.879 117.783C102.874 116.15 102.868 113.775 102.86 110.788C102.852 104.82 102.841 96.4116 102.829 86.639L102.895 86.705C98.3396 86.7061 93.3836 86.7071 88.2407 86.7082H88.2383L88.3076 86.639C88.2999 99.751 88.2929 111.641 88.2879 120.307L88.2383 120.258C92.758 120.269 96.4156 120.278 98.9476 120.285C100.214 120.29 101.197 120.294 101.869 120.297C102.201 120.299 102.456 120.301 102.631 120.302C102.804 120.304 102.895 120.307 102.895 120.307C102.895 120.307 102.811 120.311 102.641 120.312C102.468 120.314 102.217 120.315 101.888 120.318C101.219 120.32 100.239 120.324 98.9777 120.33C96.4385 120.336 92.7705 120.345 88.2383 120.357H88.1887V120.307C88.1836 111.64 88.1767 99.7507 88.1689 86.6388V86.5693H88.2385H88.2409C93.3841 86.5704 98.3399 86.5717 102.895 86.5725H102.961V86.6385C102.949 96.4292 102.938 104.853 102.93 110.832C102.922 113.812 102.916 116.183 102.912 117.812C102.908 118.62 102.905 119.245 102.903 119.67C102.901 119.878 102.9 120.037 102.899 120.148C102.897 120.255 102.895 120.307 102.895 120.307Z" fill="#AED1EA"/>
<path d="M100.481 118.441C100.481 118.441 100.479 118.389 100.477 118.292C100.476 118.19 100.475 118.046 100.473 117.859C100.471 117.475 100.468 116.915 100.464 116.19C100.46 114.736 100.453 112.625 100.445 109.979C100.438 104.691 100.427 97.2688 100.414 88.714L100.481 88.781C97.2996 88.7818 93.8951 88.7826 90.3847 88.7834H90.3828L90.4521 88.7142C90.4428 100.599 90.4343 111.266 90.4287 118.442L90.3828 118.396C93.5399 118.406 96.0583 118.415 97.7924 118.421C98.6583 118.426 99.3276 118.43 99.7852 118.432C100.01 118.434 100.182 118.436 100.303 118.437C100.419 118.438 100.481 118.441 100.481 118.441C100.481 118.441 100.426 118.445 100.312 118.446C100.193 118.447 100.024 118.449 99.8025 118.451C99.3473 118.454 98.6815 118.457 97.8201 118.462C96.0796 118.468 93.5516 118.476 90.3828 118.487H90.3369V118.441C90.3313 111.265 90.3228 100.599 90.3135 88.7137V88.6445H90.3831H90.3849C93.8953 88.6453 97.2999 88.6461 100.482 88.6469H100.549V88.714C100.536 97.2874 100.525 104.726 100.518 110.025C100.51 112.665 100.503 114.77 100.499 116.221C100.495 116.939 100.492 117.494 100.49 117.875C100.488 118.059 100.487 118.2 100.486 118.3C100.484 118.395 100.481 118.441 100.481 118.441Z" fill="#AED1EA"/>
<path d="M90.619 37.4223C90.6433 37.4521 90.0822 37.9477 89.366 38.5291C88.6494 39.1109 88.0494 39.5583 88.0252 39.5285C88.0009 39.4987 88.562 39.0034 89.2782 38.4217C89.9945 37.8399 90.595 37.3925 90.619 37.4223Z" fill="#AED1EA"/>
<path d="M102.978 39.3918C102.958 39.4224 102.359 39.0641 101.693 38.5214C101.026 37.9801 100.554 37.467 100.58 37.4412C100.608 37.4127 101.12 37.8777 101.781 38.4139C102.441 38.9521 103 39.3585 102.978 39.3918Z" fill="#AED1EA"/>
<path d="M102.677 22.0766C102.699 22.1075 102.204 22.5051 101.571 22.9645C100.937 23.4242 100.405 23.7716 100.383 23.7407C100.36 23.7099 100.855 23.3122 101.489 22.8525C102.122 22.3932 102.654 22.0458 102.677 22.0766Z" fill="#AED1EA"/>
<path d="M90.4251 23.4725C90.4075 23.5047 89.8459 23.2278 89.2117 22.791C88.5763 22.3556 88.1165 21.9313 88.1405 21.9031C88.1659 21.8725 88.6611 22.2455 89.2904 22.6769C89.9187 23.1097 90.4445 23.4379 90.4251 23.4725Z" fill="#AED1EA"/>
<path d="M90.3303 46.1174C90.3143 46.1474 89.6866 45.7812 89.1007 45.1164C88.5103 44.4552 88.2226 43.7891 88.2543 43.7769C88.2919 43.7564 88.6282 44.3796 89.2047 45.0244C89.7759 45.6737 90.3551 46.0828 90.3303 46.1174Z" fill="#AED1EA"/>
<path d="M102.711 43.9834C102.736 44.0121 102.271 44.4614 101.672 44.9867C101.072 45.5123 100.566 45.9148 100.541 45.8861C100.516 45.8574 100.981 45.4081 101.58 44.8827C102.179 44.3571 102.686 43.9547 102.711 43.9834Z" fill="#AED1EA"/>
<path d="M90.3252 75.9552C90.3476 75.9887 89.8607 76.3409 89.3087 76.8301C88.7543 77.3172 88.3447 77.7563 88.314 77.73C88.2858 77.7074 88.6538 77.2214 89.2167 76.7264C89.7775 76.2295 90.306 75.9246 90.3252 75.9552Z" fill="#AED1EA"/>
<path d="M102.483 77.636C102.457 77.6641 102.001 77.2867 101.465 76.793C100.929 76.2993 100.516 75.8764 100.542 75.8482C100.568 75.82 101.024 76.1974 101.56 76.6911C102.095 77.1848 102.509 77.608 102.483 77.636Z" fill="#AED1EA"/>
<path d="M90.574 89.113C90.5462 89.1396 89.9948 88.6116 89.3425 87.9341C88.69 87.2563 88.1836 86.6855 88.211 86.6592C88.2388 86.6326 88.79 87.1603 89.4425 87.8381C90.095 88.5156 90.6017 89.0864 90.574 89.113Z" fill="#AED1EA"/>
<path d="M102.845 86.5538C102.871 86.5815 102.369 87.1069 101.723 87.7277C101.077 88.3485 100.532 88.8295 100.505 88.8018C100.478 88.7741 100.98 88.2488 101.627 87.628C102.273 87.0074 102.818 86.5265 102.845 86.5538Z" fill="#AED1EA"/>
<path d="M90.086 118.268C90.1145 118.294 89.7284 118.766 89.2241 119.322C88.7196 119.878 88.2876 120.308 88.2593 120.282C88.2308 120.257 88.6166 119.785 89.1212 119.229C89.6254 118.673 90.0574 118.242 90.086 118.268Z" fill="#AED1EA"/>
<path d="M102.652 120.306C102.63 120.336 102.098 119.96 101.514 119.413C100.928 118.866 100.518 118.362 100.545 118.338C100.575 118.311 101.028 118.77 101.609 119.311C102.188 119.854 102.677 120.275 102.652 120.306Z" fill="#AED1EA"/>
<path d="M131.656 101.769H98.9473V125.225H131.656V101.769Z" fill="#4998D0"/>
<path d="M107.72 101.769C107.767 101.769 107.72 106.721 107.72 106.721H105.299V101.769H107.72Z" fill="#263238"/>
<g opacity="0.4">
<path d="M115.302 125.224H131.656V101.768H115.302V125.224Z" fill="black"/>
</g>
<path d="M104.323 120.632H99.9443V123.723H104.323V120.632Z" fill="#FAFAFA"/>
<path d="M104.33 123.73H99.9375V120.625H104.33V123.73ZM99.9508 123.716H104.316V120.639H99.9508V123.716Z" fill="#263238"/>
<path d="M107.32 120.632H105.131V123.723H107.32V120.632Z" fill="#FAFAFA"/>
<path d="M107.327 123.73H105.124V120.625H107.327V123.73ZM105.138 123.716H107.313V120.639H105.138V123.716Z" fill="#263238"/>
</svg>
