<svg width="174" height="150" viewBox="0 0 174 150" fill="none" xmlns="http://www.w3.org/2000/svg">
<path d="M18.8635 119.823C18.8635 123.423 21.7818 126.34 25.3806 126.34H143.626C147.225 126.34 150.143 123.422 150.143 119.823H18.8635Z" fill="#280008"/>
<path d="M168.3 119.823H104.987V56.5103H156.196L168.3 88.1666V119.823Z" fill="#AED1EA"/>
<path d="M168.533 110.046H104.987V119.822H168.533C171.233 119.822 173.421 117.633 173.421 114.934C173.42 112.235 171.233 110.046 168.533 110.046Z" fill="#1F547A"/>
<path d="M138.905 95.3047C126.157 95.3047 115.822 105.639 115.822 118.387V119.823H161.987V118.387C161.987 105.639 151.653 95.3047 138.905 95.3047Z" fill="#280008"/>
<path d="M104.986 35.561H1.17285V119.822H104.986V35.561Z" fill="#4998D0"/>
<g opacity="0.33">
<path d="M104.986 39.4404H1.17285V41.6123H104.986V39.4404Z" fill="#280008"/>
<path d="M104.986 45.3381H1.17285V47.51H104.986V45.3381Z" fill="#280008"/>
<path d="M104.986 51.2344H1.17285V53.4063H104.986V51.2344Z" fill="#280008"/>
<path d="M104.986 57.1313H1.17285V59.3033H104.986V57.1313Z" fill="#280008"/>
<path d="M104.986 63.0276H1.17285V65.1995H104.986V63.0276Z" fill="#280008"/>
<path d="M104.986 68.925H1.17285V71.097H104.986V68.925Z" fill="#280008"/>
<path d="M104.986 74.8213H1.17285V76.9932H104.986V74.8213Z" fill="#280008"/>
<path d="M104.986 80.7188H1.17285V82.8907H104.986V80.7188Z" fill="#280008"/>
<path d="M104.986 86.6145H1.17285V88.7864H104.986V86.6145Z" fill="#280008"/>
<path d="M104.986 92.512H1.17285V94.6839H104.986V92.512Z" fill="#280008"/>
<path d="M104.986 98.4082H1.17285V100.58H104.986V98.4082Z" fill="#280008"/>
<path d="M104.986 104.306H1.17285V106.478H104.986V104.306Z" fill="#280008"/>
<path d="M104.986 110.202H1.17285V112.374H104.986V110.202Z" fill="#280008"/>
<path d="M104.986 116.1H1.17285V118.272H104.986V116.1Z" fill="#280008"/>
</g>
<path d="M29.9971 95.3047C17.2489 95.3047 6.91455 105.639 6.91455 118.387V119.823H53.0797V118.387C53.0797 105.639 42.7453 95.3047 29.9971 95.3047Z" fill="#280008"/>
<path d="M45.274 134.911C53.6068 126.579 53.6068 113.068 45.274 104.736C36.9413 96.403 23.4312 96.403 15.0985 104.736C6.76576 113.068 6.76576 126.579 15.0985 134.911C23.4312 143.244 36.9413 143.244 45.274 134.911Z" fill="#280008"/>
<path d="M39.8643 129.502C45.2095 124.157 45.2094 115.49 39.8643 110.145C34.5191 104.8 25.8528 104.8 20.5076 110.145C15.1625 115.49 15.1625 124.157 20.5077 129.502C25.8528 134.847 34.5191 134.847 39.8643 129.502Z" fill="#1F547A"/>
<path d="M37.7949 119.823C37.7949 124.022 34.3902 127.427 30.1913 127.427C25.9923 127.427 22.5876 124.022 22.5876 119.823C22.5876 115.624 25.9923 112.219 30.1913 112.219C34.3902 112.219 37.7949 115.623 37.7949 119.823Z" fill="#AED1EA"/>
<path d="M154.285 134.912C162.618 126.58 162.618 113.07 154.285 104.737C145.953 96.4042 132.442 96.4042 124.11 104.737C115.777 113.07 115.777 126.58 124.11 134.912C132.442 143.245 145.953 143.245 154.285 134.912Z" fill="#280008"/>
<path d="M148.876 129.503C154.221 124.158 154.221 115.492 148.875 110.146C143.53 104.801 134.864 104.801 129.519 110.146C124.174 115.492 124.174 124.158 129.519 129.503C134.864 134.848 143.53 134.848 148.876 129.503Z" fill="#1F547A"/>
<path d="M139.203 127.427C143.402 127.427 146.806 124.023 146.806 119.823C146.806 115.624 143.402 112.22 139.203 112.22C135.003 112.22 131.599 115.624 131.599 119.823C131.599 124.023 135.003 127.427 139.203 127.427Z" fill="#AED1EA"/>
<path d="M146.807 60.4673H113.832V86.3039H146.807V60.4673Z" fill="white"/>
<path d="M150.143 86.3039H163.876L155.497 60.4673H150.143V86.3039Z" fill="white"/>
<path d="M9.79712 78.1277C9.79712 78.1277 23.0692 63.2943 55.3361 61.4729L53.0801 70.0105C53.0801 70.0105 72.2509 65.3769 87.8644 66.417C87.8644 66.417 49.6108 80.4691 42.0641 87.4958C42.0641 87.4958 42.0641 75.265 44.4067 70.841C44.4067 70.841 21.7679 72.1423 9.79712 78.1277Z" fill="#280008"/>
<path d="M134.936 0C125.811 0 120.108 9.87774 124.67 17.7802L134.936 35.5604L145.202 17.7802C149.764 9.87774 144.061 0 134.936 0Z" fill="#4998D0"/>
<path d="M140.845 11.9722C140.845 15.1803 138.244 17.7804 135.036 17.7804C131.828 17.7804 129.228 15.1803 129.228 11.9722C129.228 8.76414 131.828 6.16406 135.036 6.16406C138.243 6.16406 140.845 8.76543 140.845 11.9722Z" fill="#AED1EA"/>
</svg>
