<svg width="250" height="185" viewBox="0 0 250 185" fill="none" xmlns="http://www.w3.org/2000/svg">
<g clip-path="url(#clip0_331_656)">
<path d="M32.1694 168.876C33.6858 168.087 35.3072 168.694 36.8761 168.527C37.5676 168.455 38.2733 168.527 39.4083 168.527C38.1684 167.251 37.1861 166.266 36.2276 165.257C32.5901 161.499 29.5186 157.23 27.1098 152.584C23.5097 145.542 21.433 137.818 21.0154 129.916C20.4323 120.408 22.3739 110.915 26.6424 102.405C30.4017 94.6757 35.9872 87.9837 42.9133 82.9106C43.7907 82.27 43.8194 81.7872 43.5618 80.879C40.4765 69.9654 41.1489 59.2287 45.703 48.8888C49.2809 40.6555 55.2115 33.6691 62.7464 28.8113C69.1713 24.5925 76.5499 22.0579 84.2056 21.4399C92.9097 20.6878 101.65 22.3934 109.437 26.3637C116.285 29.7721 121.735 34.7771 126.208 40.896C126.986 41.962 127.563 41.9334 128.531 41.398C134.758 37.9066 141.53 35.4968 148.559 34.2704C154.043 33.2919 159.633 33.0572 165.178 33.5725C169.499 34.0075 173.762 34.5955 177.892 35.8432C185.754 38.184 193.111 41.9761 199.585 47.0244C210.646 55.6047 218.592 67.5873 222.203 81.1323C223.714 87.0265 224.787 92.9828 224.554 99.0395C224.322 106.525 222.5 113.876 219.208 120.599C217.287 124.546 215.029 128.319 212.46 131.876C211.764 132.832 212.599 134.041 211.769 134.907C211.049 134.08 211.259 133.095 211.392 132.177C211.885 128.688 211.738 125.139 210.958 121.703C210.062 117.592 207.339 116.364 203.667 118.414C200.853 119.987 198.788 122.368 196.79 124.825C196.161 125.692 195.473 126.515 194.73 127.287C194.282 127.703 193.705 128.314 193.195 127.287C192.885 126.235 192.99 125.155 192.99 124.089C192.99 100.145 192.99 76.199 192.99 52.2494C192.99 48.9031 192.99 48.9031 189.651 48.9031C187.157 48.9031 184.659 48.9031 182.16 48.9031C181.209 48.9706 180.254 48.8404 179.356 48.5207C177.677 47.8849 175.918 48.2673 174.196 48.1335C172.513 48.1956 170.829 48.1813 169.146 48.1335C161.726 48.253 154.306 48.1765 146.886 48.1813C137.029 48.1813 127.177 48.21 117.32 48.1813C115.412 48.1 113.505 48.2291 111.626 48.1239C109.933 48.1574 108.216 47.9948 106.6 48.7119C104.945 49.0226 103.261 48.8744 101.616 48.8792C96.2896 48.8792 96.2896 48.8792 96.2896 54.3097C96.2896 59.1952 96.2896 64.0792 96.2896 68.9615C96.3398 69.7934 96.287 70.6284 96.1322 71.4473C95.8985 72.2408 95.2261 72.5085 94.549 72.7428C92.4698 73.4742 90.4336 74.3203 88.383 75.133C87.7549 75.4033 87.0709 75.5175 86.3892 75.4659C85.7076 75.4143 85.0484 75.1984 84.4679 74.8366C80.1284 72.346 75.5742 70.2713 71.1155 68.0007C70.1188 67.4892 69.0983 66.9442 67.8918 67.2454C67.445 67.36 66.972 67.3126 66.5566 67.1115C66.0797 66.5044 66.1322 65.7826 66.1227 65.0751C66.2752 64.3819 66.3229 63.6697 66.5185 62.9861C66.6192 62.7683 66.7728 62.5793 66.9652 62.4365C67.1577 62.2937 67.3828 62.2016 67.62 62.1686C70.4813 61.4755 72.1694 59.6111 72.9324 56.8242C73.0223 56.5427 73.1576 56.2778 73.333 56.0402C73.6561 55.7305 73.891 55.3399 74.0134 54.9088C74.1358 54.4778 74.1412 54.0218 74.0292 53.5879C73.9547 53.3584 73.9327 53.115 73.9649 52.8758C73.9971 52.6367 74.0826 52.4078 74.2152 52.2064C75.0354 51.0399 74.425 50.3229 73.4522 49.7445C72.2248 49.0214 71.0357 48.2348 69.8899 47.3877C68.9718 46.7016 67.9094 46.2347 66.7839 46.0227C65.6584 45.8107 64.4995 45.8592 63.3955 46.1644C62.2915 46.4697 61.2716 47.0237 60.4137 47.7841C59.5558 48.5445 58.8824 49.4914 58.445 50.5523C58.0389 51.5457 57.7198 52.5725 57.4913 53.6213C56.5375 55.2323 57.1384 56.5947 58.1684 57.8902C58.8933 59.4056 60.3 60.6389 59.9615 62.5989C59.8566 63.1964 60.5528 63.5884 60.9152 64.033C61.5495 64.9604 60.5194 65.7682 60.7292 66.6669C60.123 67.0092 59.4637 67.2468 58.7788 67.3697C58.3687 65.8543 57.1908 66.3228 56.1799 66.3514C53.1565 66.4375 51.3349 67.7855 50.4193 70.8498C48.9887 75.6301 47.5771 80.4105 46.1846 85.1908C44.9213 89.3711 45.1181 93.8584 46.7426 97.9114C47.8585 100.78 48.8122 103.734 50.1522 106.516C50.4574 107.157 50.8103 107.797 50.4908 108.552C50.0664 109.265 50.2285 110.054 50.2237 110.814C50.2237 116.431 50.3334 122.057 49.8566 127.664C49.8547 128.137 49.7922 128.608 49.6706 129.065C49.0936 130.131 48.4355 129.4 47.9205 129.065C46.7283 128.281 45.5742 127.435 44.3916 126.641C42.998 125.718 41.4274 125.096 39.7803 124.815C37.1813 124.337 35.3644 125.59 34.8971 128.224C34.6112 130.24 34.7856 132.294 35.4073 134.233C37.0955 140.222 39.642 145.849 42.5604 151.327C45.2357 156.308 48.1637 161.141 51.0964 165.974C51.2443 167.05 51.5018 168.144 50.6196 169.067C50.0255 169.35 49.3675 169.47 48.7121 169.416C43.9147 169.435 39.119 169.435 34.3248 169.416C33.5762 169.43 32.7798 169.488 32.1694 168.876Z" fill="#D6E8F5"/>
<path d="M32.1697 168.876L50.7676 168.809C51.3063 168.427 51.9667 168.256 52.6227 168.331C58.2593 168.331 63.8959 168.255 69.5373 168.365C70.5721 168.302 71.6069 168.365 72.6418 168.365C78.787 168.294 84.9355 168.294 91.0872 168.365C97.2293 168.279 103.371 168.336 109.513 168.331C112.585 168.355 115.656 168.403 118.722 168.293C120.265 168.393 121.814 168.393 123.357 168.293C125.265 168.484 127.172 168.293 129.08 168.384C134.091 168.255 139.094 168.451 144.12 168.288C146.161 168.398 148.207 168.398 150.248 168.288C153.586 168.412 156.895 168.317 160.219 168.331C166.695 168.36 173.166 168.307 179.642 168.36C187.673 168.322 195.705 168.322 203.739 168.36C204.329 168.363 204.905 168.543 205.393 168.876C206.581 168.876 207.778 168.9 208.956 168.929C211.216 168.991 212.551 170.215 212.585 172.232C212.618 174.378 211.287 175.702 208.956 175.712C201.521 175.712 194.087 175.712 186.652 175.712C135.748 175.712 84.8417 175.712 33.9341 175.712C32.1697 175.712 30.5674 175.502 29.7662 173.666C28.8935 171.677 29.7328 170.066 32.1697 168.876Z" fill="#D6E8F5"/>
<path d="M205.374 168.838H203.901C203.901 165.157 203.424 164.693 199.537 164.774C198.059 164.803 196.604 165.071 195.102 164.836C193.6 164.602 193.018 163.923 193.018 162.48C193.018 160.52 193.018 158.558 193.018 156.595C193.018 151.305 193.018 146.013 193.018 140.719C193.018 139.83 192.928 138.932 193.281 138.081C194.263 137.072 194.597 138.181 194.997 138.688C195.784 139.644 196.361 140.844 197.654 141.456C197.94 140.27 196.848 139.653 196.848 138.702C196.844 138.482 196.925 138.269 197.074 138.108C197.224 137.946 197.43 137.849 197.649 137.837C198.555 137.799 199.232 138.53 200.429 138.726C198.612 136.632 196.614 135.227 194.745 133.721C194.091 133.2 193.352 132.765 193.152 131.871C193.114 130.47 192.618 129.027 193.6 127.746C195.455 126.158 196.733 124.065 198.34 122.258C199.911 120.41 201.811 118.872 203.944 117.721C207.615 115.809 210.558 117.401 211.435 121.478C212.313 125.556 212.198 129.696 211.759 133.831C211.738 134.186 211.738 134.542 211.759 134.897C211.192 141.264 209.995 147.536 208.722 153.784C207.701 158.818 206.495 163.818 205.374 168.838Z" fill="#9BD6F4"/>
<path d="M117.033 47.8325C120.777 47.7751 124.516 47.6843 128.259 47.6747C141.573 47.6269 154.889 47.595 168.207 47.5791C168.559 47.5791 168.912 47.6221 169.27 47.646C169.823 48.3535 169.561 49.1423 169.427 49.8832C167.124 62.6611 164.907 75.4486 162.575 88.2217C161.325 95.0768 160.233 101.96 158.922 108.806C158.297 112.047 158.121 112.205 154.845 112.152C138.974 111.971 123.109 111.674 107.239 111.789C104.778 111.789 104.444 111.397 104.854 109.093C106.962 97.6677 109.146 86.2666 111.344 74.8606C111.424 74.3894 111.567 73.9311 111.769 73.4982C111.914 73.2107 112.122 72.9604 112.379 72.7668C112.979 72.3705 113.683 72.164 114.401 72.1741C116.118 72.1167 116.785 72.7095 116.895 74.4447C116.926 74.86 116.926 75.2771 116.895 75.6924C116.747 77.5615 117.172 79.1247 119.036 79.9947C119.41 80.1927 119.705 80.5134 119.871 80.903C120.314 82.1746 120.043 83.4987 120.157 84.7942C120.248 85.865 120.496 86.931 121.812 86.9167C123.128 86.9024 123.295 85.7837 123.366 84.7369C123.624 80.8695 123.018 77.0213 123.023 73.1588C123.023 72.0306 122.999 70.9025 123.023 69.7743C123.075 69.2485 123.099 68.6844 123.59 68.3402C123.872 68.1442 124.067 67.9291 123.853 67.6423C122.613 66.0743 123.204 64.2339 123.061 62.5082C123.042 62.036 122.956 61.5691 122.804 61.1219C122.527 60.2831 122.359 59.4124 122.303 58.5309C122.217 57.5748 121.826 56.7717 120.701 56.81C119.575 56.8482 119.17 57.5892 119.055 58.5596C118.938 59.6119 118.949 60.6746 119.089 61.7242C119.16 62.3074 119.308 62.8906 119.008 63.4547C118.148 63.9577 117.45 64.6954 116.993 65.5816C116.536 66.4679 116.34 67.4661 116.428 68.4597C116.504 70.1759 115.078 70.74 112.718 70.1854C112.241 69.4636 112.47 68.694 112.622 67.953C113.881 61.8055 114.978 55.6245 116.166 49.4626C116.337 48.8698 116.285 48.148 117.033 47.8325Z" fill="#4998D0"/>
<path d="M112.169 73.3691C109.9 85.3487 107.649 97.3474 105.326 109.298C105.031 110.814 105.164 111.363 106.929 111.349C117.162 111.287 127.396 111.349 137.63 111.378C143.81 111.413 149.993 111.496 156.18 111.626C157.439 111.655 157.968 111.268 158.188 110.02C161.516 91.1537 164.865 72.2935 168.235 53.4398C168.579 51.5085 168.924 49.5773 169.27 47.646H174.387C174.959 48.4826 174.678 49.3717 174.53 50.2417C171.788 66.0169 169.141 81.8399 166.423 97.6342C166.29 98.3991 166.218 99.1687 166.061 99.9288C164.816 105.694 164.191 111.569 163.056 117.353C162.36 120.915 161.859 124.524 161.216 128.095C160.839 130.208 160.286 130.729 158.135 130.733C138.558 130.753 118.982 130.753 99.4084 130.733C97.0955 130.733 96.6473 130.203 97.024 127.942C99.5896 112.358 102.484 96.8311 105.217 81.2758C105.546 79.4067 105.694 77.485 106.337 75.678C106.463 75.3914 106.647 75.1344 106.878 74.9236C107.109 74.7128 107.381 74.5529 107.677 74.4543C108.579 74.22 109.308 73.5747 110.214 73.3548C110.863 73.1922 111.521 72.7955 112.169 73.3691Z" fill="#AED1EA"/>
<path d="M50.3434 108.418C49.1417 105.383 47.9925 102.323 46.724 99.3357C44.6043 94.5732 44.3139 89.1937 45.9085 84.2298C47.3392 79.6358 48.6744 75.0132 50.043 70.4002C50.9491 67.3407 52.8136 65.9927 55.837 65.9258H56.0182C57.1961 65.9544 58.703 65.2995 58.9319 67.3216C60.3625 68.4976 61.3163 70.0799 62.5132 71.4518C62.9376 72.2358 62.6086 72.7903 62.0077 73.3114C60.5247 74.6069 59.2514 76.1079 57.8637 77.4942C57.4155 77.9436 56.848 78.3403 57.1436 79.2534C58.8985 77.2409 61.6024 76.2561 62.4417 73.4548C62.6563 72.7425 63.3954 72.4462 64.1441 72.3171C64.7259 72.2167 65.3458 72.3171 65.8465 71.9012C67.754 70.7396 67.5442 68.7557 67.8208 66.9583C68.9891 66.1074 69.9858 66.9583 70.9062 67.4363C75.384 69.6401 79.8427 71.8869 84.2586 74.2388C85.7226 75.018 86.972 75.3287 88.5838 74.5925C90.9014 73.5361 93.3525 72.7617 95.7369 71.863C96.6906 70.8591 98.0449 70.6487 99.2562 70.1516C100.119 70.0082 100.997 69.1955 101.846 70.185C102.523 72.2119 102.647 74.3344 102.981 76.3995C103.014 76.9712 102.962 77.5447 102.828 78.1013C102.769 78.2798 102.671 78.443 102.542 78.5794C100.31 79.9896 97.6587 80.4915 95.3888 81.8396C92.9329 82.4993 90.62 83.5223 88.1212 84.115C86.9217 84.4462 85.6506 84.4079 84.4732 84.0051C81.941 83.0825 79.2276 82.5279 77.0483 80.8309C75.7178 77.7906 73.8532 75.0228 72.5371 71.9729C73.2476 74.4491 72.7087 77.064 73.4479 79.5211C73.4193 84.7365 74.0821 89.904 74.3062 95.1003C74.3349 95.6883 74.4541 96.2715 74.4684 96.869C74.5399 99.4265 74.373 99.6464 71.9314 100.215C68.1165 100.416 64.2633 100.55 60.4293 100.722C57.7588 100.842 57.754 100.755 58.4932 103.246C58.5456 103.413 58.5743 103.59 58.6124 103.762C58.7039 104.224 58.6572 104.703 58.4782 105.138C58.2992 105.574 57.9958 105.947 57.6062 106.21C56.1798 107.37 54.8306 108.621 53.5671 109.958C53.0902 110.436 52.6134 111.038 51.8313 111.115C50.682 110.584 50.2815 109.628 50.3434 108.418Z" fill="#4998D0"/>
<path d="M193.863 137.737C193.343 138.363 193.572 139.109 193.572 139.797C193.553 146.948 193.553 154.098 193.572 161.246C193.572 164.268 194.173 164.894 197.115 164.459C198.603 164.234 200.071 164.344 201.55 164.258C202.785 164.186 203.839 164.626 204.411 165.692C204.983 166.758 204.735 167.882 203.934 168.823H179.614C177.802 167.528 177.844 165.63 179.719 164.392C180.763 163.699 181.955 163.675 183.147 163.67C184.578 163.67 186.009 163.694 187.439 163.67C189.256 163.622 189.447 163.445 189.456 161.567C189.485 157.465 189.456 153.364 189.456 149.257C189.456 144.324 189.409 139.391 189.494 134.438C189.452 133.788 189.409 133.133 189.375 132.483C189.561 127.88 189.49 123.281 189.289 118.677C189.485 117.866 189.556 117.029 189.499 116.196C189.351 96.0614 189.499 75.9313 189.437 55.7965C189.437 52.4502 189.437 52.4502 186.099 52.4502C184.192 52.4502 182.284 52.4932 180.377 52.4167C179.937 52.4136 179.497 52.3865 179.061 52.3355C178.748 52.3046 178.45 52.1852 178.202 51.9913C178.226 50.5572 178.202 49.1231 179.351 47.9854C180.005 48.3773 180.73 48.2817 181.435 48.2865C184.773 48.2865 188.112 48.3821 191.421 48.2483C193.109 48.1813 193.629 48.6211 193.619 50.3803C193.548 63.837 193.576 77.289 193.586 90.7457C193.586 103.069 193.599 115.392 193.624 127.712C193.624 129.256 193.624 130.8 193.6 132.344C193.718 132.538 193.813 132.745 193.882 132.961C194.019 133.316 194.097 133.69 194.115 134.07C194.115 134.443 194.115 134.821 194.115 135.193C194.115 135.566 194.115 135.958 194.115 136.341C193.991 136.819 194.168 137.316 193.863 137.737Z" fill="#A8A9A8"/>
<path d="M50.7388 165.707C48.8313 163.861 47.8013 161.404 46.4851 159.2C42.4889 152.474 38.7026 145.629 36.1465 138.181C35.1928 135.442 34.2963 132.693 34.3249 129.73C34.363 125.021 37.1861 123.137 41.6496 124.782C44.5442 125.848 46.7903 127.899 49.3177 129.524C49.8947 130.083 49.8614 130.824 49.8518 131.527C49.7374 139.176 50.1856 146.853 49.5896 154.501C49.4799 155.935 50.281 156.218 51.3063 156.476C51.9215 156.877 51.9834 157.556 52.1694 158.173C52.4003 159.207 52.3724 160.283 52.0884 161.304C51.6115 162.04 51.6353 162.877 51.6115 163.694C51.5876 164.511 51.5876 165.286 50.7388 165.707Z" fill="#9BD6F4"/>
<path d="M179.328 48.0093L178.417 51.934C179.123 53.5928 178.307 55.2229 178.326 56.8721C177.597 61.2127 177.282 65.6202 176.247 69.9081C175.956 72.5087 173.839 73.9093 172.308 75.439C172.432 75.8788 172.546 75.9696 172.637 75.9171C173.228 75.439 173.915 74.6789 174.587 74.961C175.26 75.243 175.012 76.333 175.112 77.0835C174.688 82.4231 173.681 87.6815 172.904 92.9686C172.427 96.138 171.922 99.3074 171.44 102.482C171.221 103.127 171.221 103.849 170.849 104.451C170.786 104.521 170.705 104.571 170.614 104.595C170.523 104.619 170.427 104.615 170.339 104.585C170.02 104.083 169.828 103.51 169.78 102.917C169.732 102.324 169.829 101.728 170.062 101.181C170.482 100.115 170.153 99.2691 169.771 98.3131C171.106 101.387 168.684 103.423 167.692 105.809C167.391 106.531 166.958 107.243 166.59 107.989C166.526 108.141 166.431 108.279 166.312 108.395C166.194 108.51 166.053 108.601 165.899 108.661C165.744 108.721 165.58 108.75 165.414 108.745C165.249 108.74 165.086 108.703 164.936 108.634C164.244 108.38 164.406 107.759 164.506 107.257C164.983 104.771 165.265 102.252 165.67 99.7567C166.452 94.8808 167.21 90.0048 168.026 85.1384C170.133 72.6425 172.254 60.1482 174.387 47.6556C176.037 47.7368 177.744 47.0485 179.328 48.0093Z" fill="#4998D0"/>
<path d="M51.574 156.781C48.7128 156.781 48.6508 156.7 49.1563 153.722C49.2298 153.313 49.2681 152.899 49.2708 152.484C49.2898 144.835 49.301 137.187 49.3041 129.538C49.781 122.817 49.6379 116.086 49.6809 109.36C49.6809 108.983 49.2612 108.108 50.3437 108.433L51.741 110.971C52.3132 111.578 53.1716 111.679 53.8392 112.09C54.4496 113.046 54.8406 114.074 54.5688 115.245C51.1401 120.728 50.5631 126.718 51.5693 132.932C52.5898 139.233 55.7467 144.228 61.2259 147.646C62.0223 148.124 62.9141 148.554 63.2431 149.558C63.4622 151.01 63.5102 152.483 63.3862 153.947C63.3337 155.706 62.9093 156.107 61.1687 156.17C60.4676 156.125 59.7639 156.195 59.0848 156.375C57.1773 156.954 55.1935 156.829 53.2622 157.159C52.9708 157.232 52.6667 157.235 52.3737 157.17C52.0807 157.104 51.807 156.971 51.574 156.781Z" fill="white"/>
<path d="M50.7393 165.706C51.1446 164.75 51.0206 163.751 51.1112 162.766C51.1589 162.217 50.9491 161.543 51.7455 161.332C51.8027 161.332 51.879 161.332 51.9171 161.332C53.9486 163.149 55.3506 161.863 56.972 160.524C58.2261 159.482 59.1799 157.886 61.0683 157.742C61.4116 160.376 63.1951 161.189 65.5461 161.772C68.0068 162.379 69.4851 164.272 69.9715 166.825C70.105 167.518 70.2433 168.259 69.5948 168.799C63.3096 168.971 57.0292 168.99 50.744 168.799C50.744 167.776 50.7393 166.748 50.7393 165.706Z" fill="#4998D0"/>
<path d="M60.6482 66.5954C60.1141 65.7445 60.9534 64.9079 60.6482 64.0618C60.45 63.8417 60.3337 63.5596 60.3192 63.2635C60.5099 61.3513 59.6897 59.7595 58.8599 58.1533C58.7216 57.6752 58.3497 57.2641 58.1971 56.767C57.7584 55.5527 58.8361 55.1464 59.4226 54.4772C59.6198 54.3019 59.8632 54.1873 60.1236 54.1473C61.8499 54.1473 63.2424 53.588 64.0149 51.8862C64.4393 50.9301 65.1833 50.7437 66.0655 51.2839C67.4579 52.1396 68.7216 52.8853 70.4908 51.8384C71.5876 51.1883 73.2805 52.6128 73.3521 53.9322C73.2292 54.0546 73.0764 54.1424 72.909 54.1869C72.7416 54.2314 72.5655 54.2309 72.3983 54.1856C71.8401 54.1306 71.2779 54.1306 70.7197 54.1856C70.3467 54.2364 70.0064 54.4258 69.766 54.7162C69.0936 55.8443 70.5433 56.8291 69.9901 57.9477C70.591 57.092 69.4131 56.2507 69.9615 55.395C70.0992 55.2922 70.252 55.2115 70.4145 55.156C70.9916 55.0126 71.5972 55.0843 72.1742 54.9504C72.8084 54.9504 72.8466 53.8796 73.6048 54.1234C74.1818 54.8691 73.9052 55.5862 73.5428 56.3033C72.7035 59.9985 70.4575 62.2309 66.714 62.9097C65.8747 63.3447 65.0259 62.9623 64.2629 62.991C64.8638 63.775 66.0464 64.1574 66.3993 65.3142C66.4279 65.8496 66.7617 66.3946 66.3421 66.9157C65.5091 67.5474 64.4794 67.8621 63.4365 67.8034C62.3936 67.7447 61.4054 67.3166 60.6482 66.5954Z" fill="#DD7F75"/>
<path d="M117.034 47.8322C115.655 55.2417 114.273 62.6513 112.89 70.0609C112.821 70.1817 112.723 70.2832 112.605 70.3559C112.487 70.4286 112.352 70.4701 112.213 70.4768C110.926 70.5628 110.306 69.0092 109.013 69.1383C108.715 69.1112 108.435 68.9842 108.218 68.7778C108.001 68.5713 107.859 68.2975 107.816 68.0005C107.931 65.204 108.613 62.4888 109.032 59.7353C109.509 56.5085 110.206 53.3153 110.759 50.0981C110.892 49.2902 110.94 48.4297 111.579 47.7939C113.391 47.5605 115.226 47.5733 117.034 47.8322Z" fill="#AED1EA"/>
<path d="M99.3804 70.4197L95.7275 71.8251C95.7275 64.5685 95.7848 57.3167 95.7275 50.0601C95.7275 48.626 96.171 48.2436 97.5492 48.2818C100.63 48.3679 103.72 48.2818 106.805 48.2818C107.506 49.9359 107.192 51.9914 106.076 53.0622C104.526 52.197 102.842 52.4503 101.192 52.5125C99.9383 52.5555 99.862 53.4972 99.8525 54.4246C99.8191 57.8856 99.8525 61.3418 99.8525 64.798C99.8525 66.0505 99.8525 67.3029 99.8525 68.5554C99.8096 69.2007 99.8334 69.87 99.3804 70.4197Z" fill="#A9A9A7"/>
<path d="M73.2522 54.0182C72.8898 52.5554 71.1015 51.7714 70.0238 52.6127C68.9461 53.4541 67.8588 52.8422 66.948 52.2685C65.6795 51.4798 64.7925 50.6767 63.9294 52.8709C63.3285 54.3241 61.7072 54.8834 59.9904 54.4101C59.1178 53.7935 57.897 54.7113 57.1006 53.7505C57.6776 48.4012 61.5212 44.9307 66.3137 45.3992C67.3298 45.4852 68.3107 45.8129 69.175 46.3552C70.8774 47.426 72.556 48.5399 74.1917 49.7015C75.1454 50.3755 75.8321 51.236 74.6065 52.2972C74.1297 52.7227 74.3872 53.1481 74.4683 53.5975C74.6638 54.6587 74.5159 55.61 73.5717 56.2888C73.4525 55.5383 73.7053 54.74 73.2618 54.0325L73.2522 54.0182Z" fill="#121B3C"/>
<path d="M106.171 52.8613C106.471 51.3507 106.858 49.8496 106.8 48.2864C108.298 47.2061 109.976 47.8706 111.569 47.8084L108.107 68.0724C107.091 69.5734 105.427 69.3774 103.958 69.6021C103.415 69.6881 103.243 69.081 103.133 68.603C102.957 67.4605 103.257 66.3658 103.486 65.2567C104.187 61.8388 104.683 58.3778 105.336 54.9503C105.484 54.2093 105.456 53.368 106.171 52.8613Z" fill="#4998D0"/>
<path d="M60.6489 66.5955C62.4556 67.3924 64.4903 67.5012 66.3714 66.9014L67.802 66.9349C68.4601 69.1004 67.8973 70.8117 66.0471 72.2506C64.6165 72.6426 63.2765 72.7526 62.1654 71.5192C60.9255 70.2333 59.6475 68.9761 58.9131 67.2982C59.1468 66.1796 60.0194 66.6911 60.6489 66.5955Z" fill="#FBFCFC"/>
<path d="M59.2516 57.7705C60.2864 59.7401 61.2926 61.7143 60.6822 64.0615C59.9907 63.9563 59.4137 63.4066 59.5139 62.876C59.9907 60.7822 58.2454 59.568 57.7256 57.8853C58.1977 57.1921 58.7032 57.1921 59.2516 57.7705Z" fill="#2C2941"/>
<path d="M59.2511 57.7708C59.0068 57.6772 58.7449 57.6394 58.4842 57.66C58.2235 57.6807 57.9707 57.7594 57.7442 57.8903C56.4376 56.6713 56.0274 55.3232 57.1195 53.7505C58.1161 53.8365 59.2797 53.1673 60.0093 54.4102C59.8806 54.544 59.7518 54.6826 59.6183 54.8165C59.0937 55.0985 58.2401 54.5249 57.9635 55.3853C57.9284 55.498 57.9159 55.6166 57.9269 55.7341C57.9379 55.8516 57.9722 55.9658 58.0277 56.0699C58.0832 56.174 58.1588 56.266 58.2501 56.3406C58.3414 56.4151 58.4467 56.4706 58.5596 56.504C58.5072 57.0824 59.17 57.264 59.2511 57.7708Z" fill="#C07A79"/>
<path d="M66.4286 65.3191L62.9951 62.3457L66.7433 62.9146C66.6956 63.7033 66.7815 64.5303 66.4286 65.3191Z" fill="#3D3448"/>
<path d="M189.9 134.156C189.922 143.749 189.95 153.343 189.985 162.939C189.985 163.981 189.57 164.273 188.602 164.253C186.399 164.21 184.201 164.253 181.998 164.253C180.744 164.253 179.694 164.602 178.984 165.769C178.216 167.026 178.941 167.901 179.599 168.828C170.062 168.828 160.524 168.843 150.987 168.871C150.643 168.826 150.307 168.738 149.985 168.608C151.186 167.45 152.532 166.455 153.991 165.649C158.221 164.693 160.581 161.772 160.615 157.437C160.615 156.906 160.615 156.375 160.615 155.84C160.906 152.833 159.742 150.104 159.075 147.259C159.027 144.592 159.551 141.953 159.518 139.281C159.433 138.207 159.703 137.136 160.286 136.231C160.896 135.753 161.607 135.829 162.303 135.853C163.343 135.882 163.962 136.274 163.786 137.469C163.652 138.392 163.757 139.338 163.7 140.266C163.69 140.465 163.663 140.663 163.619 140.858C163.142 142.546 163.343 144.262 163.457 145.969C163.542 146.1 163.65 146.216 163.776 146.308C165.422 146.408 164.978 145.008 165.307 144.171C165.651 143.076 165.527 141.91 165.784 140.825C166.404 139.869 166.89 140.156 167.291 140.997C167.873 142.235 168.245 143.554 168.97 144.74C169.284 145.271 169.446 146.002 170.281 146.05C170.758 145.495 170.181 145.07 170.095 144.616C169.848 144.065 169.727 143.465 169.742 142.861C169.765 142.737 169.822 142.621 169.906 142.527C169.99 142.433 170.098 142.363 170.219 142.326C171.111 142.574 171.721 143.315 172.57 143.636C172.813 143.741 173.095 144.08 173.281 143.923C173.467 143.765 173.157 143.444 173.061 143.22C171.192 140.93 169.318 138.655 167.258 136.527C165.713 134.935 165.651 133.721 166.852 132.431C169.194 132 171.578 132.244 173.962 132.244C177.248 132.244 180.534 132.053 183.81 132.359C184.821 132.66 184.921 133.42 184.845 134.328C184.573 137.45 184.215 140.567 183.681 143.989C185.112 140.978 186.681 138.396 188.207 135.791C188.579 135.112 188.865 134.204 189.9 134.156Z" fill="#9BD6F3"/>
<path d="M153.805 165.97C152.651 167.031 151.473 168.054 149.99 168.613C148.118 169.06 146.168 169.06 144.296 168.613C142.613 168.69 141.564 167.657 140.567 166.5C140.488 166.349 140.427 166.188 140.386 166.022C140.299 165.629 140.335 165.219 140.489 164.848C140.644 164.476 140.909 164.162 141.249 163.948C142.432 163.054 143.362 161.816 144.716 161.079C145.098 160.897 145.408 160.593 145.598 160.214C146.161 158.852 146.933 157.752 148.402 157.202C148.663 157.061 148.884 156.855 149.045 156.604C149.205 156.353 149.299 156.066 149.318 155.768C148.334 156.139 147.45 156.733 146.733 157.504C144.826 159.301 143.138 161.275 141.235 163.063C140.615 163.646 139.933 164.158 139.032 163.541C137.415 161.089 138.374 158.737 139.308 156.371C143.328 150.027 150.968 150.018 154.993 156.347C155.647 157.503 156.025 158.795 156.098 160.122C156.171 161.449 155.936 162.775 155.412 163.995C155.138 164.83 154.565 165.533 153.805 165.97Z" fill="#43395C"/>
<path d="M69.5942 168.818C69.6276 164.702 67.7678 162.264 63.7525 161.72C61.845 161.461 60.9581 160.845 61.1583 158.894C61.2013 158.512 61.2108 158.024 60.6147 157.938C60.459 157.885 60.3196 157.792 60.2101 157.669C60.1007 157.546 60.0248 157.397 59.99 157.236C59.9375 156.571 59.2699 156.399 58.96 155.95C59.2795 155.596 59.6991 155.658 60.1092 155.648C62.8322 155.582 62.8322 155.582 62.8369 152.924C62.8369 151.69 62.8369 150.457 62.8369 149.224C63.4092 148.746 63.9814 149.056 64.4917 149.295C66.0177 150.012 67.8298 149.979 69.1602 151.208C69.2159 151.309 69.2591 151.416 69.289 151.528C69.9614 154.147 69.9614 154.147 72.7225 154.167C72.955 154.173 73.1832 154.232 73.3901 154.339C73.8145 154.673 73.5665 154.951 73.2757 155.161C73.0477 155.293 72.8791 155.509 72.8046 155.762C72.7301 156.015 72.7553 156.288 72.8751 156.523C73.2184 158.144 73.8956 159.697 73.7287 161.399C72.9752 162.723 72.9705 164.181 72.9609 165.644C72.9609 166.739 73.1326 167.881 72.3505 168.833L69.5942 168.818Z" fill="#9BD6F3"/>
<path d="M72.3887 168.847C72.5031 166.801 72.5937 164.75 72.7368 162.709C72.7749 162.164 72.6605 161.462 73.5093 161.347C75.3453 162.939 76.8093 162.265 78.321 160.725C79.4117 159.628 80.6117 158.647 81.9023 157.795C83.0468 157.508 83.2947 158.345 83.2709 159.11C83.228 160.62 84.0816 161.022 85.331 161.213C87.3767 161.528 89.1841 162.322 90.4478 164.081C91.4015 165.563 92.0882 167.083 91.1488 168.862L72.3887 168.847Z" fill="#4998D0"/>
<path d="M91.1402 168.837C91.2355 167.207 91.0639 165.635 90.1006 164.248C90.2453 164.086 90.4234 163.957 90.6227 163.87C90.8219 163.784 91.0375 163.741 91.2546 163.746C95.1888 163.555 95.1411 163.555 95.2031 159.621C95.2413 157.274 94.8884 154.903 95.4749 152.57C95.804 152.058 96.3238 152.015 96.8531 152.001C97.0554 152.007 97.2566 152.033 97.4539 152.077C98.1109 152.272 98.7967 152.352 99.4807 152.312C99.9957 152.474 100.797 152.273 100.706 153.244C100.441 153.482 100.226 153.771 100.075 154.093C99.9233 154.416 99.838 154.766 99.824 155.123C99.824 157.446 99.824 159.764 99.824 162.083C99.824 163.206 100.339 163.694 101.45 163.699C103.229 163.699 105.012 163.699 106.796 163.699C107.81 163.648 108.818 163.885 109.705 164.382C111.546 165.544 111.541 167.585 109.705 168.79L91.1402 168.837Z" fill="#A9A9A7"/>
<path d="M109.713 168.799C110.405 167.963 111.049 167.141 110.496 165.931C109.942 164.722 108.827 164.306 107.591 164.287C105.279 164.249 102.961 164.239 100.653 164.287C99.642 164.311 99.3034 163.928 99.3177 162.934C99.3654 160.142 99.394 157.346 99.3177 154.554C99.2795 153.426 99.723 153.067 100.748 153.091C103.443 152.192 106.867 153.569 107.93 156.026C108.422 156.972 109.066 157.83 109.837 158.565C110.147 158.925 110.348 159.366 110.419 159.836C110.896 163.082 112.775 165.004 115.941 165.721C116.169 165.785 116.386 165.884 116.585 166.012C117.353 166.94 118.493 167.504 119.032 168.661C115.903 169.115 112.808 168.857 109.713 168.799Z" fill="#DFEAF6"/>
<path d="M118.994 168.656C117.949 168.121 117.064 167.317 116.429 166.328C115.852 165.466 115.555 164.446 115.578 163.407C115.602 162.369 115.946 161.364 116.562 160.529C117.835 158.732 120.239 157.929 122.609 158.512C123.624 158.762 124.54 159.314 125.235 160.097C125.929 160.88 126.371 161.856 126.5 162.896C126.693 164.014 126.564 165.165 126.128 166.213C125.475 167.418 124.764 168.556 123.186 168.632C121.82 169.044 120.365 169.052 118.994 168.656Z" fill="#43395C"/>
<path d="M140.777 166.338C141.864 167.217 142.942 168.116 144.277 168.613C143.643 169.091 142.904 168.876 142.217 168.876C137.782 168.876 133.342 168.876 128.908 168.876C128.434 168.518 128.012 168.097 127.653 167.624C127.286 167.016 127.043 166.424 127.93 166.027C131.769 165.606 135.617 165.874 139.461 165.869C139.938 165.883 140.398 166.047 140.777 166.338Z" fill="#9AD6F3"/>
<path d="M127.477 166.385C127.511 167.465 128.908 167.743 128.908 168.861C127.001 168.78 125.093 169.182 123.186 168.632C124.217 168.097 125.092 167.301 125.723 166.323C126.328 165.917 126.915 165.845 127.477 166.385Z" fill="#D9E7F2"/>
<path d="M193.862 137.737C193.791 137.258 193.18 136.814 193.862 136.365C195.322 137.282 195.708 139.003 196.666 140.06C196.108 138.865 194.911 137.803 194.53 136.288C194.804 135.954 195.194 135.737 195.622 135.681C196.576 135.576 197.053 136.36 197.649 136.804C196.442 135.447 194.53 134.816 193.538 133.143C193.538 132.884 193.538 132.626 193.562 132.368C195.94 134.004 198.189 135.819 200.291 137.799C200.691 138.162 201.43 138.573 200.953 139.233C200.553 139.773 200 139.233 199.523 139.027C198.932 138.769 198.374 138.434 197.797 138.133C197.52 137.813 197.019 138.023 196.714 137.703C196.981 138.023 196.776 138.506 197.134 138.793C197.391 139.188 197.626 139.596 197.839 140.017C198.111 140.633 198.769 141.379 198.059 141.929C197.348 142.479 196.747 141.695 196.333 141.178C195.474 140.06 194.687 138.879 193.862 137.737Z" fill="#4998D0"/>
<path d="M197.153 138.779C196.53 138.181 196.031 137.466 195.685 136.675C196.493 136.987 197.222 137.477 197.816 138.109C197.382 138.124 197.144 138.325 197.153 138.779Z" fill="#9BD6F4"/>
<path d="M118.765 63.4498C118.717 61.8531 118.646 60.2517 118.631 58.6694C118.631 57.1923 119.342 56.2219 120.849 56.241C122.279 56.241 122.89 57.1971 122.942 58.6025C122.98 59.4869 123.109 60.3712 123.2 61.2556C123.553 63.99 123.367 66.7482 123.519 69.4922L123.996 83.7281C123.996 84.2635 123.996 84.7941 124.029 85.3295C124.029 86.6584 123.424 87.538 122.084 87.6289C120.653 87.7292 119.852 86.8783 119.728 85.5112C119.585 83.9145 119.58 82.3083 119.513 80.7069C119.181 79.9525 118.998 79.1409 118.975 78.3167C118.679 73.9522 118.669 69.5734 118.417 65.209C118.406 64.6044 118.525 64.0046 118.765 63.4498Z" fill="white"/>
<path d="M143.877 81.3522C144.101 83.5273 143.691 84.0436 141.574 84.1392C140.922 84.1767 140.269 84.1639 139.619 84.1009C138.818 84.0101 138.326 84.1009 138.121 85.0809C137.859 86.319 136.901 86.6011 135.77 86.2186C134.535 85.798 134.154 84.6411 134.817 83.8046C136.643 81.4813 135.06 80.5109 133.448 79.3206C131.851 78.1635 130.409 76.8059 129.156 75.2812C131.588 75.8978 134.035 76.481 136.457 77.1503C137.53 77.4419 138.207 77.6044 138.565 76.1273C139.132 73.7993 140.253 73.4551 142.747 74.4828C143.224 74.8557 143.729 75.4007 143.52 75.9552C142.804 77.8387 144.321 79.5213 143.877 81.3522Z" fill="#FEFDFD"/>
<path d="M130.019 60.8396C130.124 59.4055 130.143 57.9714 130.367 56.5946C130.563 55.3517 130.954 53.8889 132.628 54.2427C134.373 54.6156 133.944 56.0497 133.61 57.2878C133.538 57.565 133.462 57.8375 133.281 58.4924C134.712 57.5364 135.832 56.6998 137.01 55.9971C137.687 55.5955 138.536 54.9311 139.256 55.7294C139.976 56.5277 139.337 57.3404 138.908 58.0192C138.516 58.6851 137.988 59.2602 137.358 59.7066C136.128 60.5097 135.775 61.2459 136.881 62.4792C137.348 63.0959 137.652 63.8212 137.764 64.5874C138.035 65.9354 137.287 66.6812 135.956 66.3944C135.075 66.2659 134.231 65.955 133.476 65.4813C131.435 63.9516 129.499 64.5635 127.516 65.4813C126.948 65.7586 126.362 66.1267 126.085 65.1323L126.424 64.7977C127.439 63.311 128.994 62.3167 130.019 60.8396Z" fill="#FEFCFC"/>
<path d="M118.765 63.4497C119.199 69.1861 119.361 74.9226 119.499 80.6973C116.995 79.9945 116.342 78.2306 116.395 75.8022C116.476 72.15 116.199 72.0257 112.46 73.0391C111.983 73.1347 111.225 73.5171 111.478 72.5611C111.678 71.8153 111.278 70.9119 112.026 70.3143L112.89 70.0418C113.181 70.0062 113.474 69.9918 113.767 69.9988C115.798 70.1374 116.409 69.1527 116.104 67.2453C115.784 65.1945 116.952 64.0759 118.765 63.4497Z" fill="#43395C"/>
<path d="M126.376 90.8651C125.818 91.1662 125.26 91.673 124.64 90.9989C124.546 90.9003 124.474 90.7827 124.429 90.654C124.385 90.5253 124.368 90.3884 124.38 90.2526C124.392 90.1167 124.433 89.9851 124.5 89.8665C124.567 89.7478 124.659 89.645 124.769 89.5648C126.352 88.1594 127.53 86.5723 127.525 84.1821C128.079 86.1612 129.399 87.1077 131.045 87.7817C131.522 87.9682 131.998 88.3458 131.898 88.9912C131.862 89.2031 131.756 89.3966 131.597 89.5406C131.438 89.6846 131.235 89.7706 131.021 89.7847C129.414 89.8851 128.827 90.7408 128.918 92.2896C128.951 92.8489 128.498 93.2457 128.183 93.6807C127.049 93.6425 127.072 93.609 126.934 92.5047C126.863 91.9359 127.449 91.0897 126.376 90.8651Z" fill="#FBF7F6"/>
<path d="M126.376 90.8651C126.981 90.6405 126.962 90.6405 127.086 91.2428C127.267 92.1367 126.776 93.3366 128.183 93.6712C126.752 95.2965 124.425 95.9897 123.624 98.3703C123.428 98.8555 123.101 99.2764 122.68 99.5862C122.259 99.896 121.76 100.082 121.24 100.125C120.491 100.22 119.666 101.717 118.803 102.515C118.522 102.783 118.655 103.552 117.983 102.969C117.534 102.577 116.805 102.152 117.549 101.396C118.712 100.22 119.852 99.0061 121.054 97.8875C122.637 96.3865 124.006 94.656 125.823 93.3939C126.719 92.7916 127.258 91.9359 126.376 90.8651Z" fill="#4998D0"/>
<path d="M161.755 87.4565C161.149 88.0731 161.683 89.5742 160.038 89.2443C159.423 89.12 158.903 89.7988 158.746 90.3103C157.916 93.0638 155.47 94.2589 153.5 95.9082C153.31 96.0246 153.127 96.1523 152.952 96.2906C152.733 96.5344 153.019 97.5191 152.179 96.8164C151.65 96.3766 151.192 95.9273 151.917 95.2246C154.778 92.4567 157.587 89.665 160.434 86.8972C160.649 86.6821 160.868 86.1801 161.273 86.5339C161.49 86.8086 161.653 87.1215 161.755 87.4565Z" fill="#4998D0"/>
<path d="M158.789 62.8045C157.496 62.1066 157.301 61.4804 158.364 60.4717C161.073 57.9047 163.691 55.242 166.376 52.651C166.609 52.4264 166.852 51.8001 167.363 52.2017C167.635 52.412 167.921 52.8566 167.697 53.1243C167.472 53.392 167.878 54.0804 166.867 54.133C166.123 54.1664 165.069 55.1368 164.773 56.1168C164.268 57.7947 163.405 58.9324 161.593 59.1906C160.82 59.3005 161.893 60.2375 160.877 60.6629C160.133 60.9689 158.784 61.3848 158.789 62.8045Z" fill="#4998D0"/>
<path d="M112.027 70.3336C111.874 71.1176 112.647 71.9732 111.731 72.7238C111.521 72.9054 112.237 72.8241 112.461 73.0154L112.17 73.3452C110.525 73.1588 109.414 74.7028 107.826 74.6933C107.793 74.6332 107.775 74.5658 107.775 74.4973C107.775 74.4287 107.793 74.3613 107.826 74.3013C107.967 74.0592 108.07 73.7962 108.131 73.5221C108.341 72.566 106.982 72.4369 107.067 71.543C107.167 71.4116 107.291 71.3016 107.434 71.2194C107.576 71.1373 107.734 71.0848 107.897 71.065C108.488 71.065 108.827 71.5 109.199 71.8681C108.899 71.4522 108.407 71.1414 108.455 70.5296C108.498 70.4119 108.566 70.3052 108.655 70.2175C108.744 70.1298 108.852 70.0633 108.97 70.0228C109.2 70.03 109.426 70.0929 109.627 70.2061C109.828 70.3193 109.998 70.4794 110.124 70.673C109.8 70.0372 109.08 69.8651 108.527 69.4731C108.355 68.7991 109.085 68.9951 109.285 68.6939C110.606 68.5696 111.068 69.8651 112.027 70.3336Z" fill="#CD7D74"/>
<path d="M143.877 81.352C144.23 79.4781 141.817 78.0058 143.128 75.9502C143.405 75.52 142.937 74.9607 142.732 74.4826C143.81 75.214 144.449 74.6499 145.184 73.8229C146.004 72.9003 146.972 71.8295 148.345 73.3067C147.081 74.7408 145.007 75.2714 144.149 77.2266C143.987 77.5994 143.796 77.9197 143.929 78.2448C144.354 79.3012 144.049 80.3194 143.877 81.352Z" fill="white"/>
<path d="M136.562 110.732C137.816 109.193 139.327 108.051 140.71 106.779C141.13 106.397 141.187 106.899 141.302 107.042C141.531 107.31 142.103 107.348 141.869 107.974C141.469 109.026 138.006 110.943 136.562 110.732Z" fill="#4998D0"/>
<path d="M123.52 69.4778C123.187 66.7458 123.08 63.9909 123.2 61.2412C123.939 62.1208 123.458 63.1534 123.553 64.1094C123.677 65.2902 123.243 66.5857 124.507 67.4939C124.616 67.5752 125.646 69.0093 123.896 68.6364C123.415 68.5504 123.682 69.2101 123.52 69.4778Z" fill="#4998D0"/>
<path d="M126.09 65.1372C126.448 65.7109 127.044 65.3523 127.521 65.4862C127.521 66.6765 125.713 66.2749 125.737 67.4939C125.486 67.3819 125.247 67.2424 125.027 67.078C124.951 67.0312 124.888 66.9678 124.841 66.8925C124.794 66.8172 124.765 66.7322 124.757 66.6439C124.748 66.5556 124.76 66.4666 124.791 66.3835C124.822 66.3005 124.871 66.2257 124.936 66.165C125.284 65.7969 125.699 65.4766 126.09 65.1372Z" fill="#4998D0"/>
<path d="M130.02 60.8398C129.242 62.5417 127.85 63.7081 126.429 64.8028C127.134 63.0388 128.699 62.0493 130.02 60.8398Z" fill="#4998D0"/>
<path d="M165.67 99.7375C165.885 101.088 165.741 102.472 165.25 103.748C164.773 105.034 166.023 106.473 164.697 107.573C164.497 107.745 164.73 108.261 165.174 108.342C165.617 108.423 166.104 108.342 166.228 107.902C166.976 105.268 168.917 103.218 169.738 100.612C169.823 100.399 169.834 100.163 169.77 99.9421C169.706 99.7212 169.57 99.5281 169.385 99.3933C169.179 99.2248 169.033 98.9944 168.967 98.7362C168.902 98.478 168.921 98.2057 169.022 97.9592C169.159 97.6397 169.411 97.3836 169.728 97.2422C170.176 97.1131 170.205 97.5864 170.362 97.9067C170.749 98.8101 170.958 99.8188 170.625 100.679C170.124 101.965 170.448 103.218 170.367 104.48C170.439 105.703 169.637 106.291 168.698 106.774C168.049 106.836 167.84 107.338 167.63 107.85C166.943 108.878 165.613 109.552 165.837 111.091C165.837 112.1 165.67 113.113 165.927 114.117C166.015 114.406 166.023 114.714 165.949 115.007C165.875 115.3 165.722 115.568 165.508 115.78C164.392 116.842 164.463 118.061 164.811 119.414C165.04 120.312 165.336 121.393 163.767 121.479C163.09 121.512 163.319 122.038 163.376 122.435C163.786 125.332 162.723 127.798 161.202 130.15C160.725 130.896 160 131.068 159.203 131.106C158.073 131.154 156.943 131.13 155.813 131.13H118.684C117.978 131.068 117.253 131.13 116.571 131.13C111.655 131.044 106.738 131.13 101.821 131.101C100.911 131.101 100.043 131.164 99.4085 131.948C99.0079 132.426 98.5597 132.593 98.0876 132.038C97.7776 131.666 97.4247 131.713 96.9812 131.742C95.6031 131.842 95.2168 131.264 95.7032 129.911C95.8713 129.531 96.0608 129.161 96.2707 128.802C96.4233 128.496 96.7476 128.267 96.7237 127.87C96.9145 127.736 96.4853 127.574 96.6713 127.727C96.7571 127.793 96.7189 127.827 96.6713 127.903C96.0704 128.649 95.4982 128.166 94.9736 127.832C94.2843 127.473 93.7105 126.926 93.3188 126.254C93.0999 125.571 93.0801 124.84 93.2616 124.146C94.0437 120.131 94.6541 116.082 95.3599 112.052C96.7046 104.776 97.7871 97.4573 99.1748 90.1911C99.8901 86.7206 100.467 83.2262 101.082 79.7365C101.254 78.9621 102.036 78.833 102.513 78.4219L102.599 78.3789C103.605 76.9161 104.735 75.6397 106.705 75.6206C104.311 89.2669 101.926 102.913 99.5516 116.56C98.8458 120.599 98.2068 124.658 97.4056 128.678C97.1338 130.05 97.6775 130.188 98.7647 130.188C105.007 130.188 111.254 130.188 117.496 130.188C131.058 130.188 144.621 130.141 158.178 130.222C160.086 130.222 160.534 129.557 160.815 127.832C162.308 118.553 163.953 109.303 165.551 100.043C165.508 99.9335 165.608 99.8427 165.67 99.7375Z" fill="#4998D0"/>
<path d="M106.666 75.6063C105.069 76.1847 103.939 77.4563 102.561 78.3646C102.603 77.7575 102.651 77.1551 102.694 76.5528C103.39 75.5298 104.401 74.8032 105.26 73.9427C106.118 73.0823 107.167 73.2161 107.763 74.4829C107.757 74.5658 107.779 74.6483 107.825 74.7172L106.666 75.6063Z" fill="#573D56"/>
<path d="M77.1581 80.6448C79.671 81.8166 82.2561 82.8258 84.8978 83.666C86.5382 84.2349 88.0308 83.6039 89.5711 83.2262C91.5501 82.7482 93.3384 81.6009 95.4271 81.4862C95.2816 82.2529 94.8734 82.9445 94.2731 83.4413C90.0337 87.5859 86.3856 92.285 82.089 96.3483C79.9478 98.3895 77.7638 100.392 75.47 102.262C74.9931 102.663 74.4829 103.218 73.7676 102.634C73.2907 101.549 73.0237 100.283 71.7266 99.7663C73.7771 99.7997 74.1109 98.6859 73.944 96.8646C73.5005 91.5297 73.2096 86.1805 72.8901 80.836C72.852 80.2194 72.5945 79.5214 73.1619 78.9717C73.9144 78.8948 74.674 79.0076 75.3719 79.2998C76.0698 79.592 76.6838 80.0543 77.1581 80.6448Z" fill="#DFEAF6"/>
<path d="M73.9866 102.826C79.3181 98.882 83.7816 94.0252 88.2928 89.2065C90.6772 86.6443 93.0615 84.0629 95.4459 81.4863C97.5966 79.9948 100.1 79.3112 102.504 78.4077L101.478 79.4833C100.907 80.3434 100.235 81.1314 99.4754 81.8304C98.1497 83.1403 96.8336 84.4549 95.5365 85.7982C91.9504 89.8137 88.288 93.7575 84.5064 97.6009C81.3151 100.771 77.9512 103.762 74.4301 106.559C71.0796 108.994 67.5467 111.166 63.8627 113.056C63.1855 113.405 62.5179 113.821 61.7024 113.763C59.5565 112.487 59.6328 111.306 61.9504 109.992C65.4383 108.337 68.7557 106.344 71.855 104.04C72.4988 103.519 73.0758 102.854 73.9866 102.826Z" fill="#43395C"/>
<path d="M73.9868 102.826C70.3721 105.789 66.5523 108.419 62.1842 110.168C61.0666 109.731 60.1016 108.975 59.4088 107.993C58.9483 106.7 58.5677 105.38 58.2691 104.04C58.2261 102.754 56.5428 101.43 57.4775 100.502C58.1689 99.8139 59.9477 100.192 61.2447 100.144C64.7354 100.01 68.2309 99.8951 71.7359 99.7756C74.1298 99.5605 73.6291 101.516 73.9868 102.826Z" fill="#FEFEFE"/>
<path d="M106.171 52.8613C105.375 57.4887 104.741 62.1448 103.663 66.7243C103.559 67.3692 103.508 68.0215 103.51 68.6747C103.291 69.7264 102.885 70.5486 101.565 70.1853C100.763 69.6117 100.134 70.5295 99.3805 70.4291C99.3805 64.774 99.3805 59.1188 99.3232 53.4636C99.3232 52.3163 99.7238 51.8479 100.887 51.9004C102.251 51.9674 103.62 51.953 104.988 51.9004C105.713 51.8765 106.114 52.1251 106.171 52.8613Z" fill="#DFEAF5"/>
<path d="M101.564 70.1757C102.432 69.9558 103.172 69.5686 103.51 68.6651C103.644 68.9663 103.72 69.4634 104.173 69.2627C105.446 68.7081 106.929 68.8659 108.117 68.0532C108.284 68.6794 108.78 68.7034 109.29 68.7034L108.574 69.4204C108.67 69.6833 108.932 69.8698 108.927 70.1805L108.527 70.5247C108.16 70.6442 107.807 70.7828 107.854 71.28L107.149 71.5763C106.967 72.5659 108.493 72.7141 108.212 73.7562C108.527 74.282 108.274 74.4637 107.764 74.4828C106.576 73.5267 105.623 73.4502 104.798 75.0039C104.324 75.774 103.569 76.3293 102.695 76.5527C102.065 74.4732 101.927 72.3077 101.564 70.1757Z" fill="#DD7E75"/>
<path d="M58.2686 104.04C58.8504 105.302 59.7517 106.454 59.6229 107.965C57.9119 109.74 55.8286 111.111 53.5237 111.98C52.3506 112.635 51.9358 111.98 51.7402 110.948C53.9815 109.275 55.6077 106.903 57.9873 105.369C58.4117 105.106 58.178 104.518 58.2686 104.04Z" fill="#3590BB"/>
<path d="M77.1577 80.6449L73.1663 78.9908C72.8282 78.6601 72.6186 78.2195 72.575 77.748C72.4796 75.592 72.3461 73.4456 72.3938 71.2275C74.0199 74.3587 76.2326 77.1695 77.1577 80.6449Z" fill="#132141"/>
<path d="M62.1838 71.5332C63.3461 72.2416 64.726 72.5016 66.0656 72.2646C64.3537 73.1755 62.841 74.4205 61.6164 75.9264C60.4862 77.4752 58.3116 77.8385 57.5391 79.8223C57.3579 80.3004 56.6521 79.8223 56.5091 79.3443C56.4158 79.0293 56.4176 78.6937 56.5144 78.3798C56.6111 78.0659 56.7984 77.7877 57.0527 77.5804C58.6216 76.0554 60.1237 74.454 61.7308 72.9721C62.2315 72.4893 62.5558 72.1738 62.1838 71.5332Z" fill="#2F91BD"/>
<path d="M55.7697 82.6811C55.4741 85.7932 54.3725 88.8144 54.7111 92.0029C54.8208 93.0498 55.2213 94.0775 54.8875 95.3778C53.7335 92.9876 52.651 90.8699 53.662 88.2072C54.4536 86.1134 54.8589 83.8762 55.4359 81.7012C56.2848 81.7777 55.7936 82.3083 55.7697 82.6811Z" fill="#142A4E"/>
<path d="M86.3712 79.6601C85.8944 78.4507 86.0708 77.2413 86.3092 76.0366C86.9482 77.27 86.7193 78.465 86.3712 79.6601Z" fill="#12274A"/>
<path d="M51.6123 91.0565C50.4869 91.831 49.2279 91.7736 47.9785 91.7019C48.5066 91.348 49.1023 91.1079 49.7278 90.9968C50.3533 90.8857 50.995 90.906 51.6123 91.0565Z" fill="#153A5E"/>
<path d="M55.7703 82.6811C55.6511 82.356 55.8419 81.9258 55.4365 81.725C55.5748 81.2996 55.7179 80.8741 55.9849 80.0806C56.1184 81.2422 56.3092 82.0023 55.7703 82.6811Z" fill="#21618C"/>
<path d="M179.966 51.9624C182.585 51.9624 185.212 52.0293 187.811 51.8715C189.504 51.7711 190.014 52.2492 190.009 54.0036C189.938 68.7127 189.966 83.4219 189.966 98.1311C189.966 104.381 189.966 110.632 189.966 116.884C189.966 117.515 190.195 118.199 189.704 118.773C189.137 118.424 189.032 117.817 188.879 117.248C188.655 115.685 188.526 114.112 188.188 112.563C186.075 97.806 183.896 83.0538 181.783 68.2969C181.616 67.5416 181.75 66.7432 181.497 65.9975C181.441 65.8133 181.401 65.6246 181.378 65.4334C181.341 64.7585 181.229 64.0899 181.044 63.44C180.629 60.2276 180.062 57.0343 179.733 53.8124C179.652 53.1718 179.471 52.5217 179.966 51.9624Z" fill="#DFEAF6"/>
<path d="M189.285 117.368C189.418 117.846 189.556 118.324 189.69 118.773C190.138 122.722 189.909 126.685 189.962 130.638C189.962 131.345 190.057 132.072 189.671 132.722C187.897 133.678 186.109 133.468 184.311 132.808L173.872 132.631C173.157 130.815 172.98 129.017 174.101 127.277C176.528 126.46 179.032 126.943 181.497 126.909C183.796 126.881 183.81 126.952 183.519 124.653C183.419 124.007 183.419 123.349 183.519 122.702C184.559 120.929 186.204 119.605 187.11 117.702C187.487 116.875 188.455 116.894 189.285 117.368Z" fill="#4998D0"/>
<path d="M181.769 65.5004C181.804 65.5408 181.825 65.591 181.83 65.6441C181.835 65.6972 181.824 65.7505 181.798 65.7968C181.822 66.5569 181.798 66.5282 181.24 66.7768C180.529 67.0875 180.219 67.8667 179.595 68.2778C178.97 68.6889 178.274 69.4586 177.525 68.383C177.024 65.6247 177.806 62.9238 177.868 60.1895C178.393 57.4599 178.059 54.6395 178.731 51.9194L179.967 51.9577C180.462 55.8393 180.96 59.7194 181.459 63.5979C181.774 64.2002 181.354 64.9172 181.769 65.5004Z" fill="#4998D0"/>
<path d="M184.31 132.808L189.671 132.722C190.09 133.152 189.961 133.678 189.899 134.156C187.815 136.671 186.561 139.673 184.921 142.469C184.444 143.306 184.039 144.195 183.6 145.06L183.123 144.907C183.447 142.259 183.781 139.611 184.077 136.962C184.263 135.59 184.52 134.214 184.31 132.808Z" fill="#DEEAF6"/>
<path d="M194.697 136.293C195.603 137.847 196.786 139.238 197.344 141.011C195.861 139.711 194.893 138.019 193.877 136.365C193.815 135.992 193.4 135.648 193.805 135.246C193.936 135.245 194.066 135.273 194.185 135.327C194.304 135.382 194.41 135.461 194.495 135.561C194.58 135.661 194.642 135.778 194.677 135.905C194.712 136.031 194.719 136.164 194.697 136.293Z" fill="#9BD6F4"/>
<path d="M193.553 133.143C195.379 134.505 197.306 135.743 198.941 137.665C197.511 137.497 196.896 136.288 195.818 135.93C195.36 135.832 194.938 135.607 194.601 135.281C194.263 134.955 194.024 134.54 193.91 134.084L193.553 133.143Z" fill="#9BD6F4"/>
<path d="M178.732 51.9339C178.527 54.6922 178.803 57.4743 178.255 60.2087C177.268 59.2192 178.379 57.981 177.864 56.9389C178.05 55.2706 178.231 53.5927 178.417 51.9291C178.522 51.9214 178.627 51.923 178.732 51.9339Z" fill="#4998D0"/>
<path d="M193.901 134.084L195.809 135.93L194.688 136.293L193.801 135.246C193.71 134.849 193.343 134.429 193.901 134.084Z" fill="#4998D0"/>
<path d="M60.243 157.183L60.6149 157.957C59.2177 159.148 57.8157 160.324 56.428 161.524C54.0818 163.55 54.0866 163.555 51.7451 161.332C51.7451 160.328 51.7785 159.329 51.7976 158.325C51.8202 158.207 51.8778 158.098 51.9628 158.013C52.0478 157.928 52.1564 157.87 52.2744 157.847C54.7062 157.298 57.1841 156.978 59.6755 156.891C59.7869 156.888 59.8973 156.913 59.9965 156.964C60.0957 157.015 60.1805 157.09 60.243 157.183Z" fill="#DC8075"/>
<path d="M60.2432 157.183L51.7978 158.326C51.3972 157.848 51.5403 157.312 51.5736 156.781L58.9795 155.95C59.6709 156.084 60.8393 155.725 60.2432 157.183Z" fill="#272842"/>
<path d="M171.016 102.606C171.922 96.4392 172.847 90.2725 173.71 84.101C174.058 81.6344 174.635 79.1964 174.664 76.6867C175.141 75.5872 174.282 74.2583 175.26 73.2448C177.287 72.633 177.53 72.7955 177.587 74.8702C177.587 75.5203 177.587 76.1752 177.616 76.8301C177.439 85.0476 176.843 93.2363 176.08 101.416C176.023 101.578 175.875 101.87 175.842 101.855C174.111 100.985 173.624 102.74 172.628 103.385C172.427 103.514 172.68 103.361 172.484 103.495C172.06 103.782 171.64 104.379 171.121 104.059C170.601 103.739 170.877 103.132 171.016 102.606Z" fill="#131B3B"/>
<path d="M177.859 56.9243C178.583 57.9425 177.925 59.1281 178.25 60.1941C178.135 63.0336 178.019 65.8732 177.901 68.7127C178.034 68.8927 178.1 69.1139 178.087 69.3376C178.074 69.5612 177.983 69.7732 177.83 69.9365C177.244 70.4021 176.793 71.016 176.523 71.7148C176.39 72.1259 176.108 72.8668 175.498 72.0064C175.617 71.3945 175.345 70.7396 175.703 70.1516C176.566 66.485 176.881 62.7229 177.501 59.0133C177.615 58.3202 177.739 57.6222 177.859 56.9243Z" fill="#2D1D38"/>
<path d="M165.346 110.565C165.346 109.064 166.59 108.514 167.487 107.697C167.778 107.271 167.997 106.779 168.56 106.626C169.293 106.032 169.906 105.303 170.367 104.479H170.539C171.345 105.474 170.691 106.549 170.706 107.591C170.386 108.452 170.706 109.504 169.924 110.235C168.86 110.025 169.518 109.169 169.475 108.677C168.999 109.958 167.797 110.551 166.905 111.335C166.357 111.832 165.794 111.005 165.346 110.565Z" fill="#4998D0"/>
<path d="M170.306 107.706C170.382 106.631 170.463 105.56 170.539 104.489C170.701 103.868 170.859 103.246 171.016 102.625C171.059 103.026 171.097 103.433 171.15 103.982C172.685 102.95 173.796 101.65 174.965 100.359C175.661 100.694 175.055 101.578 175.575 101.999C176.295 102.634 176.19 103.337 175.752 104.064C175.604 104.174 175.308 104.217 175.275 104.116C175.079 102.778 174.24 103.638 174.011 103.882C173.256 104.615 172.613 105.456 172.103 106.377C171.736 107.09 171.36 107.864 170.306 107.706Z" fill="#131B3B"/>
<path d="M175.704 70.1519L175.642 72.2791C175.696 72.4653 175.705 72.6621 175.666 72.8522C175.627 73.0423 175.541 73.2198 175.417 73.369L174.674 76.7153C174.645 76.2038 174.612 75.6875 174.569 74.9418C174.22 75.9839 172.27 75.1187 173.19 77.0308C171.598 76.2803 171.283 75.6732 172.48 74.5928C173.839 73.3451 175.537 72.2887 175.704 70.1519Z" fill="#4998D0"/>
<path d="M68.9556 151.303L62.8516 149.224C52.1888 142.488 48.1735 131.966 51.7787 120.149C52.2686 118.313 53.1198 116.594 54.2823 115.092C55.6604 115.622 55.5793 116.894 55.7701 118.027C55.0977 120.474 54.1917 122.846 53.9484 125.422C53.1759 133.52 55.5221 140.241 62.2031 145.218C63.6684 146.194 65.2776 146.932 66.9718 147.407C67.9301 147.78 68.9289 148.038 69.9475 148.177C72.8373 148.76 75.7653 148.679 78.6838 148.679C82.4606 148.741 86.2374 148.521 90.0095 148.707C90.3306 148.7 90.6514 148.735 90.9632 148.812C92.103 149.219 93.2904 149.037 94.4587 149.071C94.8354 149.071 95.2122 149.071 95.5889 149.099C96.1463 149.081 96.6888 149.282 97.1006 149.659C97.5107 150.376 96.9432 150.825 96.6237 151.351C96.51 151.496 96.3768 151.625 96.2279 151.733C95.5315 152.237 94.7016 152.521 93.8435 152.551C92.5066 152.621 91.1664 152.595 89.833 152.474C85.8512 152.093 81.8427 152.081 77.8588 152.441C74.8593 152.532 71.8121 152.67 68.9556 151.303Z" fill="#43395C"/>
<path d="M55.5034 118.075C55.3159 117.006 54.9047 115.99 54.2969 115.092C54.3637 113.973 53.7342 113.037 53.5244 111.99C55.4586 110.506 57.497 109.164 59.6236 107.974C60.4772 108.706 61.5645 109.16 62.1844 110.168C60.1005 111.602 60.0528 111.932 61.6646 113.562C62.9665 116.574 61.9555 118.596 58.7509 119.371C58.2741 119.299 58.0261 118.826 57.5921 118.658C57.9164 119.041 57.7876 119.361 57.4777 119.662C56.1043 120.025 55.8468 118.998 55.5034 118.075Z" fill="#DB7F76"/>
<path d="M70.448 53.7554H72.5034C72.7032 53.9899 72.813 54.2883 72.813 54.5967C72.813 54.9052 72.7032 55.2035 72.5034 55.4381H70.4576C69.8615 54.8692 69.9473 54.3242 70.448 53.7554Z" fill="#131A38"/>
<path d="M70.0047 55.5286C70.3529 56.8432 71.4354 58.349 68.4072 59.1426C70.4149 57.7085 69.5517 56.499 69.0272 55.2705C68.8269 54.7924 68.7315 54.2762 69.5803 54.4961C70.0429 54.7064 70.0047 55.1318 70.0047 55.5286Z" fill="#4D3040"/>
<path d="M69.8517 60.094C68.4211 61.9201 66.6662 61.8532 65.083 59.9458C66.6662 60.5864 68.2113 61.2317 69.8517 60.094Z" fill="#5E3B46"/>
<path d="M58.5598 56.5039C57.4153 56.5039 57.1291 55.61 57.4296 54.9168C57.9064 53.8652 58.8602 54.2763 59.6232 54.8165C59.5135 55.5431 57.9923 55.3614 58.5598 56.5039Z" fill="#3E2B40"/>
<path d="M66.848 54.0134C66.9787 54.1777 67.05 54.3816 67.05 54.5918C67.05 54.802 66.9787 55.006 66.848 55.1702C66.166 55.2802 65.4507 55.567 64.8785 54.936C64.8064 54.8376 64.7676 54.7187 64.7676 54.5966C64.7676 54.4745 64.8064 54.3556 64.8785 54.2572C65.4507 53.5975 66.1899 53.8939 66.848 54.0134Z" fill="#333149"/>
<path d="M66.8483 54.0134C66.6146 54.0134 66.3714 54.0134 66.1568 54.0421C65.7229 54.0803 65.0934 53.9321 65.103 54.5966C65.1125 55.2611 65.742 55.1033 66.1759 55.1416C66.4048 55.1416 66.6528 55.1416 66.8674 55.1702C66.2236 55.8586 65.4368 55.4284 64.7024 55.4666C64.479 55.2304 64.3545 54.9173 64.3545 54.5918C64.3545 54.2663 64.479 53.9532 64.7024 53.717C65.4272 53.7791 66.2141 53.368 66.8483 54.0134Z" fill="#574350"/>
<path d="M70.0045 55.5289C69.5896 55.2947 69.7279 54.8357 69.5801 54.4963C69.6578 54.3132 69.7772 54.1508 69.9288 54.0221C70.0803 53.8935 70.2597 53.8021 70.4528 53.7554C70.4528 54.3147 70.4528 54.8692 70.4528 55.4237L70.0045 55.5289Z" fill="white"/>
<path d="M114.707 53.7168C114.707 54.3 114.707 54.8832 114.707 55.4664C113.677 54.8832 113.691 54.3239 114.707 53.7168Z" fill="#AED1EA"/>
<path d="M72.5039 55.4381V53.7554L73.2526 54.0183C73.2621 54.6397 73.286 55.2803 72.5039 55.4381Z" fill="white"/>
<path d="M154.563 156.409C150.51 150.567 143.872 150.558 139.68 156.409C139.103 156.549 138.509 156.608 137.916 156.586C128.784 156.586 119.656 156.562 110.529 156.586C109.542 156.433 109.761 155.706 109.871 155.089C110.143 153.643 110.587 152.234 111.192 150.892C111.445 150.304 111.793 149.735 111.669 149.047C113.986 146.136 116.18 143.153 119.518 141.207C122.897 139.199 126.731 138.088 130.658 137.98C135.169 137.98 139.675 137.909 144.177 137.952C148.008 137.896 151.741 139.16 154.754 141.532C156.58 143.239 158.674 144.74 159.299 147.383C160.595 150.059 161.204 153.017 161.068 155.988C158.95 156.997 156.743 156.461 154.563 156.409Z" fill="#238AB9"/>
<path d="M170.305 107.707C171.197 107.042 172.532 106.55 171.149 105.034C171.726 104.752 172.852 106.368 172.818 104.489C172.818 104.16 173.386 103.366 174.373 103.175C175.665 102.926 175.255 103.653 175.393 104.188C176.295 105.747 175.894 107.429 175.775 109.055C175.398 114.26 175.117 119.466 174.821 124.677C174.769 125.609 174.955 126.589 174.235 127.387C173.796 129.113 173.91 130.877 173.867 132.646L166.533 132.794C166.439 132.75 166.354 132.687 166.285 132.609C166.217 132.531 166.164 132.439 166.133 132.34C166.032 130.007 166.609 127.746 166.924 125.456C167.496 121.216 168.197 116.995 168.865 112.769C169.003 111.913 168.951 110.962 169.647 110.269C169.867 109.404 170.086 108.557 170.305 107.707Z" fill="#121B3C"/>
<path d="M159.299 147.383C158.113 145.426 156.646 143.654 154.946 142.125C153.11 140.691 152.494 138.521 151.46 136.599C151.396 136.514 151.355 136.415 151.341 136.31C151.326 136.205 151.339 136.099 151.377 136C151.415 135.901 151.478 135.814 151.559 135.747C151.64 135.679 151.737 135.634 151.841 135.614C154.64 135.452 157.435 135.174 160.215 135.762C160.309 135.821 160.378 135.913 160.407 136.021C160.437 136.128 160.424 136.242 160.372 136.341C159.953 139.687 159.752 143.033 159.628 146.408C159.656 146.585 159.64 146.766 159.583 146.936C159.526 147.106 159.429 147.259 159.299 147.383Z" fill="#DEEAF6"/>
<path d="M154.564 156.409C156.691 155.577 158.908 156.261 161.068 156.007C161.402 159.87 160.253 163.025 156.819 165.143C155.94 165.758 154.875 166.05 153.806 165.97C155.799 162.924 156.238 159.75 154.564 156.409Z" fill="#75BAE6"/>
<path d="M166.538 132.779C166.09 134.051 166.5 135.04 167.401 135.997C169.552 138.277 171.731 140.543 173.491 143.167C173.243 143.707 172.871 143.607 172.471 143.358C172.342 143.252 172.227 143.13 172.127 142.995C170.62 140.935 168.727 139.204 167.158 137.192C166.681 136.561 165.956 136.087 165.728 135.28C165.689 134.323 165.184 133.281 166.395 132.669C166.428 132.669 166.46 132.68 166.485 132.7C166.511 132.72 166.53 132.748 166.538 132.779Z" fill="#4998D0"/>
<path d="M170.368 144.539C170.554 144.76 170.714 145.002 170.845 145.261C171.031 145.739 171.259 146.346 170.63 146.695C170 147.044 169.609 146.556 169.285 146.121C168.212 144.687 167.673 142.952 166.939 141.341C166.815 141.068 166.982 140.122 166.124 140.724C165.542 140.022 165.847 139.539 166.515 139.152C167.468 138.941 167.526 139.744 167.754 140.294C168.308 141.647 168.789 143.028 169.452 144.338C169.576 144.596 169.676 144.931 169.996 144.482C170.056 144.45 170.124 144.438 170.191 144.448C170.258 144.459 170.32 144.491 170.368 144.539Z" fill="#4998D0"/>
<path d="M163.214 140.968C163.242 140.87 163.242 140.765 163.214 140.667C163.428 139.142 163.486 137.598 163.757 136.078C163.81 135.99 163.89 135.922 163.984 135.884C164.079 135.845 164.183 135.838 164.282 135.863C164.426 135.922 164.556 136.011 164.664 136.124C164.771 136.236 164.854 136.371 164.907 136.518C165.217 137.474 164.964 138.401 164.768 139.309C164.291 141.571 164.63 143.894 164.201 146.155C164.14 146.305 164.045 146.439 163.924 146.545C163.802 146.651 163.657 146.727 163.5 146.767L163.223 146.686C163.127 146.589 163.061 146.465 163.036 146.33C163.01 146.195 163.026 146.056 163.08 145.93C163.266 144.935 163.247 143.911 163.023 142.923C163.104 142.283 162.847 141.59 163.214 140.968Z" fill="#4998D0"/>
<path d="M166.809 139.161C166.404 139.596 165.856 139.969 166.137 140.7C166.166 141.988 166.023 143.274 165.713 144.525C165.116 144.563 165.069 144.089 164.94 143.697C164.663 141.967 165.097 140.284 165.312 138.592C165.383 138.004 165.593 137.373 166.456 137.722C166.66 137.894 166.803 138.125 166.867 138.384C166.93 138.642 166.91 138.915 166.809 139.161Z" fill="#4998D0"/>
<path d="M172.432 143.932C171.621 143.569 170.801 143.225 170.295 142.426C169.922 142.205 169.527 142.021 169.117 141.876L168.907 141.786C168.793 141.675 168.707 141.537 168.66 141.384C168.606 141.139 168.637 140.883 168.748 140.658C168.859 140.433 169.043 140.252 169.27 140.146C170.743 140.672 171.449 142.058 172.455 143.076L172.541 143.191C172.624 143.304 172.66 143.445 172.639 143.584C172.619 143.723 172.544 143.848 172.432 143.932Z" fill="#4998D0"/>
<path d="M163.858 136.025C163.958 137.617 163.582 139.137 163.229 140.667C163.229 140.141 163.2 139.615 163.2 139.089C163.2 136.298 163.2 136.298 160.372 136.35C160.354 136.259 160.343 136.166 160.339 136.073C161.502 135.174 162.676 135.227 163.858 136.025Z" fill="#9BD6F3"/>
<path d="M165.274 143.717C165.341 144.028 165.37 144.357 165.689 144.539C165.246 145.557 165.632 147.407 163.515 146.762L163.992 146.284C164.53 145.476 164.201 144.247 165.274 143.717Z" fill="#4998D0"/>
<path d="M163.214 140.968V143.129C163.467 144.057 163.467 145.036 163.214 145.964V146.686C162.58 144.833 162.58 142.821 163.214 140.968Z" fill="#9BD6F3"/>
<path d="M172.432 143.932C172.47 143.683 172.503 143.454 172.541 143.186C172.687 143.271 172.853 143.314 173.022 143.31C173.19 143.306 173.354 143.255 173.495 143.162C173.805 143.559 174.368 144.066 173.881 144.477C173.395 144.888 172.842 144.338 172.432 143.932Z" fill="#4998D0"/>
<path d="M168.836 141.747L169.313 141.68C169.641 141.978 169.872 142.368 169.976 142.799C170.11 143.377 170.248 143.96 170.382 144.539H170.01C169.061 143.841 168.388 143.028 168.836 141.747Z" fill="#4998D0"/>
<path d="M169.962 142.799L169.299 141.68C170.043 141.379 170.071 142.029 170.295 142.426L169.962 142.799Z" fill="#9BD6F3"/>
<path d="M110.086 156.371C110.663 155.955 111.326 156.026 111.994 156.026C120.666 156.026 129.341 156.026 138.016 156.026C138.589 156.026 139.218 155.854 139.695 156.38C138.741 158.708 138.145 161.055 139.304 163.498C140.091 164.134 140.329 165.1 140.735 165.96L140.787 166.328L127.487 166.376L125.737 166.314C126.929 162.236 125.117 159.009 121.521 158.794C117.387 158.546 115.103 161.925 116.438 166.319C113.615 165.769 111.35 164.478 110.334 161.61C110.024 160.735 109.857 159.803 109.652 158.899C109.585 158.025 109.247 157.102 110.086 156.371Z" fill="#75BAE6"/>
<path d="M140.725 165.97C139.998 165.323 139.497 164.46 139.294 163.508C140.872 163.508 141.702 162.207 142.47 161.227C144.306 158.88 146.762 157.212 148.736 155.013C149.213 154.492 149.294 155.07 149.38 155.343C149.499 155.725 150.658 155.744 149.976 156.184C149.137 156.724 149.065 158.211 147.63 158.02C147.329 157.982 146.767 158.541 146.633 158.928C146.042 160.668 145.169 161.992 143.18 162.336C142.804 162.399 143.362 163.689 142.27 163.532C142.255 164.674 140.105 164.43 140.725 165.97Z" fill="#504768"/>
<path d="M81.7982 158.154C80.0719 159.655 78.4172 161.247 76.6003 162.628C75.0361 163.818 74.3971 162.15 73.5006 161.347L72.5469 156.418C72.621 156.259 72.7318 156.118 72.8702 156.01C73.0086 155.901 73.1707 155.826 73.3432 155.792C75.8707 155.41 78.379 154.788 80.9732 155.027C82.1177 155.845 82.0462 156.978 81.7982 158.154Z" fill="#DD8075"/>
<path d="M68.9561 151.303C71.9152 151.728 74.8988 151.959 77.8879 151.996C79.0037 151.762 80.1339 151.953 81.2593 151.886C82.0891 151.834 82.8187 151.92 82.9761 152.957C83.1334 153.995 82.5803 154.497 81.6265 154.669C81.4495 154.693 81.2711 154.706 81.0924 154.707C79.5521 154.659 78.0405 154.975 76.5145 155.065C75.5369 155.123 74.4973 155.309 73.6199 154.621C73.3293 154.58 73.0358 154.562 72.7424 154.568C69.1516 154.917 69.1563 154.922 68.9561 151.303Z" fill="#FCFCFC"/>
<path d="M73.6191 154.621L81.0488 154.229C81.127 154.293 81.1894 154.374 81.2312 154.467C81.273 154.559 81.2931 154.659 81.2899 154.761C81.2866 154.862 81.2602 154.961 81.2126 155.05C81.165 155.14 81.0975 155.217 81.0154 155.276L72.5557 156.418C71.2157 154.817 72.8132 154.956 73.6191 154.621Z" fill="#25233F"/>
<path d="M81.0159 155.276C81.0159 154.927 81.0159 154.578 81.0492 154.229C81.6406 154.004 82.7183 154.635 82.6134 153.196C82.518 151.954 81.7502 152.02 80.8871 152.035C79.8857 152.035 78.8842 152.035 77.8828 151.997C81.9164 151.548 85.9875 151.556 90.0192 152.02C91.4498 154.248 90.9729 156.801 91.1732 159.224C91.3115 160.855 91.9076 162.571 91.0588 164.23H90.105C89.4075 163.419 88.5516 162.761 87.5903 162.296C86.629 161.831 85.5827 161.568 84.5161 161.524C83.2285 161.438 82.7898 160.955 82.828 159.674C82.828 159.115 83.4336 157.762 81.8027 158.135C81.2781 157.265 81.6119 156.146 81.0159 155.276Z" fill="#9CD6F2"/>
<path d="M91.0591 164.23C90.7094 160.16 90.3629 156.09 90.0195 152.021L94.1922 152.107C94.669 152.427 95.2842 152.011 95.7372 152.422C95.7372 155.807 95.6895 159.191 95.7849 162.576C95.8183 163.9 95.4177 164.416 94.0825 164.282C93.081 164.182 92.0653 164.244 91.0591 164.23Z" fill="#DFEAF6"/>
<path d="M110.086 156.371C109.838 157.202 110.181 158.135 109.642 158.909C108.407 158.192 107.453 157.112 107.258 155.768C107.062 154.425 106.442 154.119 105.388 153.937C103.824 153.665 102.265 153.369 100.705 153.087C100.305 152.661 99.7518 152.852 99.2749 152.742C98.7074 152.384 98.0207 152.795 97.4532 152.441H97.2911L97.1385 152.403C96.8524 152.078 96.1418 152.03 96.428 151.323C97.6869 151.509 98.2925 150.247 99.3559 149.998C99.5257 149.995 99.6953 150.011 99.8614 150.046C100.449 150.158 101.049 150.192 101.645 150.147C103.015 150.214 104.37 150.463 105.674 150.888C106.177 151.064 106.719 151.092 107.237 150.968C107.755 150.843 108.226 150.571 108.593 150.185C109.489 149.329 110.5 148.497 111.898 149.152C112.713 149.602 112.031 150.075 111.86 150.467C111 152.343 110.403 154.33 110.086 156.371Z" fill="#43395C"/>
<path d="M96.438 151.365L97.1485 152.446H95.7179L94.1729 152.13C95.0646 152.211 95.6273 151.418 96.438 151.365Z" fill="#524A69"/>
<path d="M97.4629 152.441C98.0828 152.441 98.7504 152.202 99.2845 152.742C98.6503 152.799 98.0161 152.876 97.4629 152.441Z" fill="#524A69"/>
<path d="M107.854 71.2802C107.692 71.2089 107.56 71.0828 107.48 70.9239C107.401 70.7649 107.38 70.5831 107.42 70.4101C107.754 69.9608 108.15 70.4532 108.527 70.5249C108.927 71.3184 110.091 71.6626 109.957 72.8768C108.961 72.6235 108.794 71.4379 107.854 71.2802Z" fill="#5C3A47"/>
<path d="M108.212 73.7561C107.783 73.2207 107.454 72.5897 106.757 72.322C106.514 72.2216 106.128 72.0782 106.347 71.7436C106.452 71.5858 106.872 71.6289 107.148 71.5811C107.668 72.0149 108.163 72.4777 108.631 72.9674C109.061 73.4789 108.674 73.6701 108.212 73.7561Z" fill="#5C3944"/>
<path d="M108.927 70.1805C108.774 69.9415 108.202 69.8984 108.574 69.4204C110.071 69.7455 110.391 70.061 110.982 71.9205C109.985 71.5811 109.871 70.343 108.927 70.1805Z" fill="#4F323E"/>
<path d="M74.2539 106.253C82.0794 100.134 88.6507 92.7438 95.3555 85.4824C96.3092 85.6975 96.2615 86.5293 96.252 87.189C96.1709 94.6607 96.6621 102.147 95.9325 109.609C95.8562 110.379 95.9945 111.158 95.8133 111.918C95.1139 116.061 94.4145 120.204 93.715 124.347C93.6054 124.987 93.5672 125.637 93.4957 126.283C93.5783 129.102 93.1034 131.909 92.0984 134.543C90.6344 135.232 89.6092 136.814 87.7494 136.704C87.1771 136.183 87.1581 135.447 86.9768 134.763C85.8848 130.709 85.0694 126.57 82.7994 122.922C81.5024 120.814 79.9048 119.313 77.201 119.676C77.0823 119.687 76.963 119.666 76.855 119.616C76.747 119.565 76.6541 119.487 76.5858 119.39C75.3764 115.099 74.5953 110.699 74.2539 106.253Z" fill="#DFEAF6"/>
<path d="M164.626 136.293L164.273 135.963C159.848 135.642 155.405 135.653 150.982 135.996C150.329 136.054 149.68 136.102 149.032 136.102C138.461 136.102 127.889 136.102 117.315 136.102C116.404 136.102 115.126 136.494 114.73 135.485C114.335 134.476 115.431 133.802 116.085 133.152C116.924 132.316 117.544 131.269 118.569 130.614C131.626 130.614 144.684 130.614 157.744 130.614C158.674 130.614 159.885 131.063 160.482 130.356C161.393 129.31 162.047 128.064 162.389 126.718C162.737 125.15 163.696 123.496 162.527 121.803C162.275 121.44 162.594 120.847 162.971 120.532C163.681 119.982 163.767 121.311 164.401 121.086C164.835 120.484 164.401 119.949 164.249 119.409C163.824 117.974 163.333 116.512 165.141 115.584C165.446 115.422 165.799 114.958 165.617 114.7C164.611 113.376 165.541 111.961 165.331 110.613C166.07 110.919 166.814 110.986 167.773 110.077C168.417 109.47 169.962 109.121 169.141 107.462C169.795 108.447 169.528 109.398 169.618 110.302C168.862 115.532 168.103 120.761 167.344 125.991C167.019 128.228 166.681 130.461 166.347 132.684C165.641 133.616 166.099 134.672 166.037 135.671C165.904 136.546 165.217 136.317 164.626 136.293Z" fill="#4998D0"/>
<path d="M91.7692 134.496C92.723 131.833 92.6085 128.95 93.4955 126.273C94.1109 126.626 94.6963 127.029 95.2456 127.478C95.9275 128.143 96.4473 128.186 97.0196 127.024C97.2389 128.353 96.7096 129.07 96.2089 129.849C95.9657 130.232 95.5365 130.805 96.0086 131.317C96.5904 131.943 96.9147 131.24 97.3248 130.977C98.1545 130.447 98.1593 130.456 98.5933 132.474C99.237 130.322 100.744 130.59 102.175 130.595C106.943 130.595 111.683 130.595 116.438 130.595C115.799 133.085 112.203 136.092 109.762 136.073C104.549 136.03 99.3324 136.236 94.125 135.963C93.1712 135.538 93.5575 135.141 94.125 134.716C94.4302 134.491 94.95 134.39 94.7497 133.812C94.7273 133.756 94.6855 133.71 94.632 133.683C94.5785 133.656 94.5169 133.649 94.4588 133.664C93.9342 133.759 93.9342 134.252 93.7769 134.62C93.6195 134.988 93.362 135.217 93.5623 135.609C93.6624 135.935 93.4669 136.064 93.2046 136.154C93.0283 136.172 92.8503 136.156 92.6801 136.107C92.0601 135.767 91.3162 135.471 91.7692 134.496Z" fill="#4998D0"/>
<path d="M95.8133 111.918C95.7942 103.772 95.7703 95.6294 95.7417 87.49C95.7417 86.816 96.0279 86.0559 95.3555 85.4823C96.5527 84.0687 97.8637 82.756 99.2754 81.5576C99.9048 82.1599 99.7904 82.9583 99.8381 83.7088C99.9668 85.8838 99.5424 88.0111 99.5853 90.2005C98.3264 97.438 97.069 104.677 95.8133 111.918Z" fill="#A9A9A7"/>
<path d="M93.1189 136.015L93.5957 135.604C98.5218 135.604 103.457 135.451 108.379 135.667C110.739 135.772 112.494 135.093 113.987 133.405L116.452 130.609H118.584C118.107 132.727 115.956 133.573 114.893 135.389C115.465 135.767 116.114 135.59 116.71 135.59C131.893 135.59 147.078 135.59 162.265 135.59C162.942 135.59 163.696 135.313 164.287 135.939L163.877 136.001L160.353 136.049H151.483C150.949 136.431 150.296 136.608 149.642 136.546C145.007 136.546 140.372 136.618 135.742 136.517C123.82 136.608 111.869 136.56 99.9381 136.551C98.6792 136.46 97.4203 136.551 96.1613 136.503C94.9596 136.25 94.168 136.79 93.6291 137.822C92.9329 137.822 92.9472 137.311 92.8661 136.866C92.8421 136.561 92.9322 136.258 93.1189 136.015Z" fill="#4998D0"/>
<path d="M99.5707 90.2009C98.9889 87.9923 99.4515 85.7408 99.3037 83.5084C99.2607 82.8582 99.275 82.2033 99.2607 81.5532C99.8258 80.7058 100.574 79.9967 101.45 79.4785C101.029 83.0858 100.402 86.6658 99.5707 90.2009Z" fill="#DDDBE3"/>
<path d="M168.56 106.631C168.34 107.104 167.96 107.483 167.487 107.702C167.573 107.071 167.173 105.952 168.56 106.631Z" fill="#4998D0"/>
<path d="M74.2541 106.253C75.3699 109.064 75.3318 112.114 76.0566 115.006C76.4238 116.488 76.5717 118.022 76.8196 119.533C76.9603 119.663 77.0654 119.828 77.1248 120.011C77.2077 120.668 77.3777 121.311 77.6303 121.923C78.6413 126.144 79.1658 130.451 79.9479 134.71C80.6728 138.683 81.4882 142.641 81.9651 146.661C82.2464 149.052 82.2417 149.052 79.8811 149.052C79.4692 148.999 79.0507 149.038 78.6556 149.166C75.6227 149.377 72.6089 149.353 69.6523 148.54C68.2216 148.334 67.5206 147.431 67.3156 146.049C66.3094 139.218 64.7548 132.488 63.6914 125.671C63.5292 124.624 63.8106 123.52 63.4815 122.922C63.348 129.533 63.3957 136.541 63.3909 143.549C63.1382 144.329 63.8392 145.643 62.2226 145.667C58.0404 143.153 55.4749 139.405 54.2207 134.777C52.6804 129.098 52.9808 123.505 55.5035 118.108C56.2617 118.414 56.2045 119.858 57.4443 119.49C57.7877 119.246 58.0643 118.744 58.5936 119.184C61.5979 118.409 62.1654 116.316 61.6646 113.596C66.1568 111.636 70.2102 108.959 74.2541 106.253Z" fill="white"/>
<path d="M182.132 68.0052C182.938 73.2636 183.772 78.565 184.554 83.8521C185.87 92.7754 187.168 101.715 188.446 110.67C188.536 111.315 188.541 111.97 188.589 112.62C189.065 114.475 188.589 115.938 186.986 117.085C185.824 117.815 184.945 118.919 184.492 120.216C184.321 120.776 184.015 121.411 183.257 120.694C182.303 117.597 182.156 114.365 181.726 111.191C180.396 101.396 179.166 91.5915 177.773 81.8013C177.53 80.0947 177.516 78.3642 177.387 76.6481C177.302 75.5668 177.276 74.4816 177.311 73.3974C177.787 70.1659 179.085 68.4641 181.45 67.9431C181.677 67.8784 181.92 67.9006 182.132 68.0052Z" fill="#4998D0"/>
<path d="M183.643 120.934C184.229 118.649 185.903 117.219 187.673 115.881C188.827 115.006 188.459 113.758 188.588 112.621C189.017 114.168 189.251 115.762 189.284 117.368C187.978 117.425 187.105 117.822 186.666 119.308C186.271 120.647 184.983 121.522 183.886 122.411C183.023 122.047 183.147 121.522 183.643 120.934Z" fill="#4998D0"/>
<path d="M182.132 68.0052C179.313 68.4832 178.56 70.8256 177.621 73.0055C176.614 71.9586 177.01 70.883 177.559 69.8074L177.902 68.7127C178.817 68.6649 179.232 67.8618 179.89 67.4316C180.458 67.0587 180.572 65.7393 181.717 66.4755C181.741 66.246 181.769 65.9974 181.798 65.7871C182.198 66.485 182.146 67.2308 182.132 68.0052Z" fill="#4998D0"/>
<path d="M181.769 65.5005C181.169 64.9508 181.45 64.2528 181.455 63.5884C181.778 64.1698 181.889 64.8458 181.769 65.5005Z" fill="#4998D0"/>
<path d="M183.644 120.933C183.581 121.183 183.57 121.443 183.612 121.697C183.654 121.952 183.747 122.194 183.887 122.411C183.739 123.73 184.164 124.997 184.278 126.297C184.369 127.344 183.963 127.635 182.947 127.592C180.048 127.478 177.144 127.449 174.24 127.387C174.125 123.3 174.65 119.26 174.822 115.168C174.974 111.507 175.198 107.85 175.394 104.173C175.656 103.475 175.727 102.719 175.599 101.984C176.209 93.5276 176.853 85.0759 177.168 76.5956C177.238 76.4718 177.33 76.3617 177.44 76.2705C178.26 79.4447 178.422 82.7192 178.87 85.946C180.301 96.2429 181.665 106.554 183.052 116.865C183.243 118.233 183.448 119.581 183.644 120.933Z" fill="#AED1EA"/>
<path d="M177.44 76.285L177.168 76.6149C177.118 76.2138 177.104 75.809 177.125 75.4054C177.311 74.0717 177.182 73.0439 175.418 73.369C175.372 73.182 175.369 72.9873 175.408 72.7988C175.446 72.6103 175.526 72.4328 175.642 72.2791C176.462 71.5955 176.214 70.0849 177.549 69.8076C177.549 70.8736 177.592 71.9397 177.611 73.0057C177.56 74.0956 177.503 75.1887 177.44 76.285Z" fill="#2F2A46"/>
<path d="M76.8096 119.858C76.8096 119.748 76.8096 119.643 76.8096 119.533C78.8697 118.773 80.3193 119.112 81.8692 120.876C83.4605 122.715 84.6395 124.875 85.3265 127.21C86.3485 130.288 87.1861 133.425 87.8348 136.604C87.6346 137.703 86.6236 137.98 85.8654 138.468C84.6566 139.141 83.5354 139.962 82.5273 140.911C83.6765 141.049 84.4348 140.184 85.3885 140.28C85.5677 140.281 85.7425 140.335 85.8904 140.437C86.0383 140.538 86.1525 140.682 86.2183 140.849C86.3565 142.053 85.0118 142.675 84.9927 143.97C85.9464 143.827 86.3375 143.014 86.9526 142.536C87.5678 142.058 87.9064 141.231 88.8601 141.766C89.8139 144.157 89.852 146.676 90.2907 149.143H78.6217C78.7171 149.076 78.8029 148.961 78.903 148.947C81.8883 148.492 81.8501 148.502 81.3351 145.567C80.0237 138.062 78.7457 130.552 77.4486 123.042C77.3675 122.564 77.2245 122.124 77.1148 121.665C76.7476 121.11 77.2197 120.398 76.8096 119.858Z" fill="#9CD6F3"/>
<path d="M62.8852 143.497C62.9091 136.212 62.685 128.922 63.4718 121.641C64.9358 129.768 66.4332 137.847 67.8161 145.964C67.8789 146.509 68.0808 147.028 68.4024 147.472C68.724 147.916 69.1545 148.269 69.6521 148.497C68.6512 148.474 67.6703 148.212 66.7908 147.732C65.0741 146.705 64.0059 145.079 62.8852 143.497Z" fill="#DFEBF6"/>
<path d="M90.3243 149.143C89.0224 147.469 89.485 145.371 88.9748 143.507C88.8126 142.904 88.8985 142.225 88.5694 141.647C88.5081 141.511 88.4804 141.362 88.4887 141.213C88.497 141.064 88.5411 140.92 88.6171 140.791C89.0701 140.06 89.4898 138.879 90.4245 139.137C91.507 139.429 90.7201 140.548 90.7392 141.303C90.7392 141.709 90.5246 142.101 90.5151 142.517C90.4769 143.497 90.4578 144.482 90.5151 145.457C90.639 145.964 90.8632 146.294 91.3305 145.768C91.8434 145.102 92.1248 144.286 92.1316 143.444C92.723 141.561 92.4893 139.482 93.5337 137.708C93.4383 136.035 94.3491 135.724 95.7416 136.068C96.2614 136.58 96.2661 137.249 96.2709 137.899C96.3027 141.169 96.3027 144.439 96.2709 147.709C96.3303 148.368 96.1377 149.026 95.732 149.549L94.6162 149.52C93.4621 149.1 92.2318 149.611 91.0825 149.229L90.3243 149.143Z" fill="#DFE9F4"/>
<path d="M95.7559 149.558C95.7559 145.065 95.7559 140.571 95.7559 136.078H99.5708C100.048 137.034 99.8236 138.047 99.8331 139.037C99.8617 141.905 99.8331 144.811 99.8331 147.699C99.8331 148.459 99.8903 149.243 99.3992 149.912C98.6505 150.314 97.9018 150.615 97.1388 149.941L95.7559 149.558Z" fill="#A9A9A7"/>
<path d="M62.8855 143.497C64.5355 144.592 65.4558 146.365 66.7815 147.742C65.1414 147.336 63.594 146.618 62.2227 145.629C63.391 145.218 62.6566 144.195 62.8855 143.497Z" fill="#A1D1EB"/>
<path d="M97.1431 149.931H99.2938C99.6181 149.826 99.6992 149.984 99.661 150.271C99.2366 150.318 98.7311 150.438 98.6167 150.825C98.1732 152.336 97.2814 151.7 96.4326 151.356C96.3849 150.729 96.9381 150.409 97.1431 149.931Z" fill="#524A69"/>
<path d="M91.082 149.238C92.2694 149.19 93.4664 148.932 94.6157 149.53C93.43 149.658 92.2308 149.559 91.082 149.238Z" fill="#A9A9A7"/>
<path d="M57.7256 113.601C58.6213 114.606 59.1287 115.9 59.1562 117.248C58.6896 116.765 58.323 116.194 58.0775 115.568C57.832 114.942 57.7124 114.273 57.7256 113.601Z" fill="#5B3945"/>
<path d="M61.0155 116.469C59.6993 115.608 59.4847 114.532 59.2129 113.495C60.2286 114.126 60.653 115.073 61.0155 116.469Z" fill="#5C3745"/>
<path d="M56.1758 114.284C56.6175 114.667 56.9544 115.156 57.1547 115.706C57.355 116.255 57.412 116.847 57.3203 117.425C56.5811 116.546 56.1757 115.434 56.1758 114.284Z" fill="#603B4A"/>
<path d="M58.5936 119.151L57.4443 119.457C57.5636 119.098 57.2822 118.5 57.74 118.4C58.1978 118.3 58.3552 118.859 58.5936 119.151Z" fill="#E6C4BE"/>
<path d="M99.6611 150.261L99.2939 149.922C99.2939 146.002 99.3082 142.084 99.3369 138.167C99.3369 137.459 99.2463 136.733 99.5705 136.063H135.674C136.442 137.827 136.19 138.219 134.339 138.282C133.009 138.329 131.664 138.071 130.353 138.454C123.047 138.784 117.301 141.934 113.185 148.014C112.868 148.505 112.414 148.891 111.879 149.123C110.72 149.186 109.547 149.487 108.87 150.414C107.916 151.71 106.857 151.7 105.531 151.318C104.243 150.886 102.902 150.635 101.545 150.572C100.953 150.242 100.233 150.663 99.6611 150.252V150.261Z" fill="#DFEAF6"/>
<path d="M142.136 149.645C139.108 149.645 136.08 149.645 133.076 149.645C132.208 149.645 131.111 149.826 131.106 148.483C131.106 147.283 132.036 147.121 133.014 147.121H151.183C152.136 147.121 153.114 147.274 153.176 148.421C153.243 149.731 152.16 149.654 151.269 149.659C148.21 149.656 145.166 149.651 142.136 149.645Z" fill="#403A5E"/>
<path d="M142.146 143.439C145.179 143.439 148.212 143.439 151.244 143.439C152.198 143.439 153.152 143.497 153.114 144.754C153.066 145.834 152.16 145.978 151.278 145.978H133.076C132.122 145.978 131.168 145.858 131.116 144.668C131.054 143.272 132.198 143.497 133.023 143.487C136.056 143.463 139.089 143.487 142.122 143.487L142.146 143.439Z" fill="#423B5F"/>
<path d="M130.353 138.459C131.43 137.785 132.642 138.081 133.753 138.167C135.46 138.301 135.961 137.622 135.66 136.068H151.468C152.937 137.904 153.414 140.309 154.931 142.12C151.015 139.118 146.542 138.272 141.716 138.449C137.944 138.602 134.144 138.459 130.353 138.459Z" fill="#9CD4F1"/>
<path d="M164.626 136.293L166.057 135.638L167.449 137.072C167.669 137.23 167.64 137.46 167.626 137.684C167.552 137.816 167.445 137.927 167.316 138.004C167.039 138.129 166.762 138.277 166.462 138.067C165.723 137.632 165.704 138.186 165.661 138.669C165.523 140.352 165.394 142.015 165.26 143.717C164.736 144.515 165.122 145.773 163.987 146.27C163.601 143.492 164.044 140.763 164.464 138.033C164.559 137.459 164.578 136.876 164.626 136.293Z" fill="#9BD6F3"/>
<path d="M167.487 137.779C167.487 137.545 167.487 137.301 167.463 137.077C169.194 139.022 171.192 140.743 172.456 143.076C171.197 142.349 170.4 141.116 169.323 140.208C168.81 140.032 168.362 139.708 168.034 139.275C167.707 138.842 167.517 138.321 167.487 137.779Z" fill="#9BD6F3"/>
<path d="M166.476 138.071L167.191 137.804C167.965 139.005 168.54 140.324 168.893 141.709L168.836 141.748C169.008 142.771 169.556 143.631 169.995 144.544C169.876 144.946 170.391 145.295 170.033 145.816C168.307 143.87 167.949 141.312 166.786 139.161C166.681 138.798 166.58 138.459 166.476 138.071Z" fill="#9BD6F3"/>
<path d="M163.224 145.964C163.224 145.008 163.224 144.075 163.224 143.129C163.469 143.561 163.597 144.049 163.597 144.546C163.597 145.043 163.469 145.532 163.224 145.964Z" fill="#4998D0"/>
<path d="M168.894 141.709C168.069 140.519 167.244 139.319 167.191 137.804C167.292 137.804 167.387 137.78 167.487 137.775L169.323 140.189C169.026 140.639 168.876 141.17 168.894 141.709Z" fill="#4998D0"/>
<path d="M99.6562 150.261C100.3 150.261 100.963 150.175 101.535 150.581C100.891 150.586 100.195 150.887 99.6562 150.261Z" fill="#524A69"/>
<path d="M90.0619 142.426L90.5388 139.481L90.2956 139.276L88.5598 141.666C87.7157 142.488 86.8812 143.325 86.0181 144.123C85.627 144.486 85.1168 144.85 84.5874 144.477C83.9818 144.037 84.4253 143.492 84.6876 143.071C85.1168 142.369 85.6413 141.719 86.1182 141.049C86.1611 140.796 86.3614 140.571 86.2803 140.304C85.999 140.514 85.5984 140.361 85.3266 140.624C84.5493 140.916 83.772 141.217 82.9899 141.494C82.6037 141.633 82.1411 141.848 81.8788 141.365C81.6165 140.882 82.0648 140.576 82.3843 140.356C83.9007 139.309 85.4458 138.305 86.9766 137.278C87.2722 137.077 87.5393 136.838 87.8159 136.623C89.2465 136.121 90.267 134.907 91.7405 134.515C91.7024 135.299 92.4034 135.528 92.8182 135.973C91.936 136.585 90.7343 135.901 89.895 136.694C89.132 137.173 88.3643 137.598 87.6013 138.052C86.7048 138.478 85.9561 139.156 85.0405 139.544C86.0324 139.314 86.6332 138.243 87.7539 138.291C87.959 138.362 88.1464 138.477 88.3035 138.627C88.4607 138.777 88.5838 138.959 88.6647 139.161C88.6897 139.332 88.6723 139.507 88.6141 139.669C88.5559 139.832 88.4586 139.977 88.3309 140.093C87.5154 140.868 87.0862 141.977 86.142 142.646C87.0958 141.991 87.5727 140.868 88.3929 140.093C89.0462 139.424 89.318 138.344 90.4339 138.181C90.6199 138.148 90.811 138.154 90.9944 138.2C91.1778 138.246 91.3492 138.331 91.4973 138.449C91.6084 138.605 91.6818 138.785 91.7119 138.975C91.4592 140.538 91.5593 142.187 90.5769 143.573C89.8664 143.44 90.3957 142.718 90.0619 142.426Z" fill="#4998D0"/>
<path d="M105.951 134.883C104.349 134.883 102.747 134.906 101.144 134.883C100.563 134.883 99.771 134.754 99.7853 134.046C99.8092 133.138 100.682 133.515 101.216 133.487C104.64 133.296 108.088 133.821 111.502 133.171C111.845 133.109 112.236 133.071 112.408 133.496C112.58 133.922 112.318 134.166 112.074 134.452C111.881 134.639 111.648 134.78 111.393 134.863C111.137 134.945 110.867 134.969 110.601 134.93C109.061 134.93 107.515 134.93 105.97 134.93L105.951 134.883Z" fill="#4998D0"/>
<path d="M89.7141 136.388C90.6297 135.303 91.7694 135.829 92.8471 135.953C92.928 136.005 93.0239 136.027 93.119 136.016L93.1762 136.623C93.1601 138.761 92.8961 140.889 92.3893 142.966C92.0651 143.712 92.1366 144.568 91.7217 145.294C91.1495 146.293 90.6678 146.303 90.2291 145.208C90.253 144.644 89.9954 144.051 90.4103 143.53L91.469 138.836C91.6788 137.913 91.1447 137.474 90.3912 137.172C90.2433 137.12 90.1011 137.053 89.9668 136.972C89.7665 136.828 89.5901 136.675 89.7141 136.388Z" fill="#DFEAF6"/>
<path d="M105.852 131.288C108.26 130.662 110.806 131.025 113.334 130.958C113.744 130.958 114.454 130.724 114.435 131.436C114.435 131.986 113.782 131.995 113.296 132.019C110.773 132.153 108.227 131.718 105.718 132.344C105.213 132.473 104.464 132.407 104.469 131.728C104.469 130.757 105.198 131.097 105.852 131.288Z" fill="#4998D0"/>
<path d="M93.5768 135.59C92.8376 134.787 93.5339 134.012 93.7771 133.358C94.0203 132.703 94.6831 132.999 95.2077 133.358C95.9087 133.836 95.551 134.314 95.2077 134.643C94.7642 135.079 93.9774 135.002 93.5911 135.6L93.5768 135.59Z" fill="#4998D0"/>
<path d="M93.4759 129.347C94.4917 129.777 95.1974 130.27 94.9065 131.364C94.7968 131.79 94.4297 132.129 93.9528 131.785C93.1946 131.168 92.8083 130.385 93.4759 129.347Z" fill="#4998D0"/>
<path d="M98.7024 134.099C98.4545 134.538 98.1397 134.897 97.6056 134.835C97.0715 134.773 96.6185 134.438 96.6853 133.955C96.7663 133.391 97.3863 133.449 97.8536 133.477C98.3209 133.506 98.6834 133.535 98.7024 134.099Z" fill="#4998D0"/>
<path d="M92.1076 143.047C92.4669 140.906 92.8229 138.764 93.1758 136.623C93.2998 136.986 93.1472 137.435 93.5335 137.717C93.3926 139.784 93.0443 141.83 92.4939 143.827C91.7881 143.855 91.998 143.425 92.1076 143.047Z" fill="#4998D0"/>
<path d="M76.8102 119.858C77.3538 120.374 77.101 121.043 77.1487 121.655C76.5717 121.144 76.8674 120.465 76.8102 119.858Z" fill="#DFEAF6"/>
<path d="M85.3555 140.605L87.0245 139.448C87.036 139.768 86.9587 140.084 86.8013 140.363C86.6438 140.641 86.4124 140.871 86.1328 141.025C85.9802 140.686 85.675 140.638 85.3555 140.605Z" fill="#9CD6F3"/>
<path d="M92.1082 143.047C92.1654 143.344 92.1749 143.659 92.4944 143.827C92.4938 144.659 92.2133 145.468 91.6981 146.121C91.1306 146.929 90.4773 147.049 90.0576 145.925C90.2674 145.739 90.1005 145.371 90.3962 145.222C90.6871 145.485 90.9732 146.178 91.3499 145.313C91.6361 144.577 91.8554 143.803 92.1082 143.047Z" fill="#4998D0"/>
<path d="M90.396 145.223L90.0574 145.925C89.8311 144.77 89.8311 143.582 90.0574 142.426C90.4437 142.708 90.2911 143.162 90.4055 143.531L90.396 145.223Z" fill="#4998D0"/>
<path d="M90.2816 136.747C91.4166 137.024 92.418 137.373 91.469 138.836C91.4309 138.707 91.3975 138.578 91.3593 138.444C90.9921 137.923 90.6393 138.32 90.2768 138.444L88.603 140.289C88.4928 140.271 88.3915 140.217 88.3142 140.136C88.2369 140.055 88.1876 139.951 88.1738 139.84L88.5267 139.156C88.5649 137.98 89.6569 137.502 90.2816 136.747Z" fill="#DFEAF6"/>
<path d="M88.1687 139.84L88.5979 140.284C87.6552 141.751 86.4392 143.022 85.0166 144.027C85.9036 142.101 87.1196 141.03 88.1687 139.84Z" fill="#9CD6F3"/>
<path d="M87.8494 138.458C86.5953 138.903 85.6129 139.892 84.0869 139.921L87.5585 137.736C87.9114 137.512 88.1594 137.612 88.3168 137.985C88.3081 138.107 88.2562 138.221 88.1704 138.308C88.0847 138.395 87.9709 138.448 87.8494 138.458Z" fill="#9CD6F3"/>
<path d="M87.8496 138.458L88.1834 138.081C88.3663 137.723 88.6319 137.415 88.9579 137.181C89.2839 136.947 89.6609 136.795 90.0575 136.737L90.2817 136.766C90.234 137.966 89.0942 138.363 88.522 139.156L87.8496 138.458Z" fill="#4998D0"/>
<path d="M90.0574 136.719L88.1833 138.062L87.5586 137.718L89.7141 136.389L90.0574 136.719Z" fill="#DFEAF6"/>
<path d="M90.2764 138.458C90.5625 138.119 90.7532 137.502 91.2301 137.583C91.6402 137.636 91.3922 138.133 91.3636 138.444L90.2764 138.458Z" fill="#4998D0"/>
<path d="M64.7066 53.7168C64.7066 54.3 64.7066 54.8832 64.7066 55.4664C63.6766 54.8832 63.6909 54.3239 64.7066 53.7168Z" fill="white"/>
</g>
<defs>
<clipPath id="clip0_331_656">
<rect width="250" height="185" fill="white"/>
</clipPath>
</defs>
</svg>
