<svg width="250" height="250" viewBox="0 0 250 250" fill="none" xmlns="http://www.w3.org/2000/svg">
<path opacity="0.5" d="M187.799 205.669C147.77 224.748 82.87 224.748 42.8415 205.669C2.81301 186.591 2.813 155.659 42.842 136.58C82.8705 117.502 147.77 117.502 187.799 136.58C227.827 155.658 227.827 186.591 187.799 205.669Z" fill="#D6E8F5"/>
<path d="M38.5203 166.112C49.3218 171.26 66.8343 171.26 77.6358 166.112C88.4378 160.964 88.4378 152.617 77.6358 147.468C66.8343 142.321 49.3218 142.321 38.5203 147.468C27.7188 152.617 27.7188 160.964 38.5203 166.112Z" fill="#E0E0E0"/>
<path d="M99.9089 209.276C107.299 212.798 119.279 212.798 126.669 209.276C134.059 205.754 134.059 200.044 126.669 196.521C119.28 193 107.299 193 99.9089 196.521C92.5194 200.044 92.5194 205.754 99.9089 209.276Z" fill="#E0E0E0"/>
<path d="M199.299 164.294L195.237 161.948C195.237 161.948 193.088 152.383 196.287 140.235C199.485 128.088 208.696 119 213.516 120.907C218.337 122.814 218.196 126.405 215.547 130.05C213.348 133.076 206.213 140.351 202.779 148.76C199.345 157.169 199.299 164.294 199.299 164.294Z" fill="#4998D0"/>
<path opacity="0.1" d="M199.299 164.294L195.237 161.948C195.237 161.948 193.088 152.383 196.287 140.235C199.485 128.088 208.696 119 213.516 120.907C218.337 122.814 218.196 126.405 215.547 130.05C213.348 133.076 206.213 140.351 202.779 148.76C199.345 157.169 199.299 164.294 199.299 164.294Z" fill="black"/>
<path d="M197.134 163.294C197.146 163.294 197.158 163.293 197.169 163.291C197.306 163.272 197.401 163.146 197.382 163.009C194.603 143.01 207.002 126.84 212.641 123.466C212.76 123.395 212.798 123.242 212.727 123.123C212.656 123.005 212.502 122.966 212.384 123.037C206.662 126.461 194.075 142.845 196.887 163.078C196.904 163.204 197.012 163.294 197.134 163.294Z" fill="white"/>
<path d="M199.298 164.294L205.391 167.812C205.391 167.812 206.862 166.962 209.453 166.639C212.044 166.316 213.771 163.816 213.515 161.949C213.343 160.691 212.941 159.255 213.133 157.983C213.306 156.842 214.41 155.816 215.439 155.418C216.294 155.087 217.233 155.072 218.15 155.03C219.615 154.962 221.135 154.797 222.385 154.03C223.635 153.263 224.529 151.734 224.129 150.323C223.916 149.575 223.383 148.965 222.854 148.394C222.324 147.824 221.769 147.245 221.491 146.518C220.95 145.104 221.903 144.208 223.039 143.552C227.025 141.25 228.839 139.435 227.402 137.696C225.965 135.956 222.003 135.197 217.948 137.324C213.894 139.451 210.531 137.171 207.854 137.619C203.667 138.32 203.418 141.282 203.938 143.853C204.459 146.424 199.284 147.513 197.982 150.588C197.035 152.823 196.247 160.187 199.298 164.294Z" fill="#4998D0"/>
<path d="M201.33 165.716C201.464 165.716 201.575 165.609 201.58 165.474C202.065 151.198 220.377 138.749 224.692 138.038C224.828 138.015 224.92 137.887 224.898 137.751C224.875 137.614 224.747 137.52 224.611 137.545C220.066 138.294 201.583 150.649 201.08 165.458C201.075 165.595 201.183 165.711 201.321 165.716C201.324 165.716 201.327 165.716 201.33 165.716Z" fill="white"/>
<path d="M122.867 191.519C123.069 189.017 124.997 184.749 127.855 181.709C130.712 178.669 135.283 177.205 138.103 178.43C140.729 179.571 140.152 183.091 136.686 185.175C133.221 187.259 128.058 189.812 126.291 193.755L122.867 198.491V191.519Z" fill="#4998D0"/>
<path opacity="0.1" d="M122.867 191.519C123.069 189.017 124.997 184.749 127.855 181.709C130.712 178.669 135.283 177.205 138.103 178.43C140.729 179.571 140.152 183.091 136.686 185.175C133.221 187.259 128.058 189.812 126.291 193.755L122.867 198.491V191.519Z" fill="black"/>
<path d="M122.868 196.083C122.853 196.083 122.837 196.082 122.822 196.08C122.635 196.054 122.503 195.882 122.527 195.694C123.776 186.432 133.192 179.986 136.935 179.274C137.121 179.236 137.301 179.361 137.336 179.546C137.372 179.733 137.249 179.913 137.063 179.947C133.572 180.612 124.394 186.985 123.208 195.786C123.185 195.958 123.037 196.083 122.868 196.083Z" fill="white"/>
<path d="M123.242 201.849C123.757 200.475 125.662 198.292 128.594 196.598C131.838 194.725 135.806 194.062 136.836 192.484C138.072 190.588 136.552 188.58 133.363 188.717C130.174 188.855 124.277 192.716 122.868 199.13L123.242 201.849Z" fill="#4998D0"/>
<path d="M123.014 200.519C122.993 200.519 122.97 200.517 122.947 200.513C122.762 200.476 122.641 200.295 122.678 200.11C123.623 195.361 130.509 190.441 134.958 190.235C135.132 190.237 135.308 190.372 135.317 190.562C135.325 190.751 135.18 190.912 134.99 190.921C130.86 191.112 124.226 195.845 123.351 200.244C123.318 200.407 123.175 200.519 123.014 200.519Z" fill="white"/>
<path d="M203.67 167.991C204.231 167.667 204.563 166.859 204.41 166.186L186.682 87.7145C186.53 87.041 185.922 86.2155 185.324 85.87L79.8457 24.972C79.2477 24.627 78.3087 24.6095 77.7477 24.9335C77.1867 25.2575 76.8557 26.0655 77.0077 26.739L94.7352 105.21C94.8872 105.884 95.4952 106.709 96.0932 107.055L201.572 167.953C202.17 168.298 203.109 168.315 203.67 167.991Z" fill="#F0F0F0"/>
<path d="M184.651 88.8869L202.379 167.358C202.531 168.032 202.17 168.298 201.572 167.953L96.0933 107.055C95.4953 106.71 94.8873 105.884 94.7353 105.21L77.0073 26.7389C76.8553 26.0654 77.2163 25.7994 77.8143 26.1444L183.293 87.0429C183.891 87.3879 184.499 88.2139 184.651 88.8869Z" fill="#E6E6E6"/>
<path d="M75.7164 26.1061C76.2774 25.7821 77.2169 25.7996 77.8149 26.1446L183.293 87.0431C183.891 87.3881 184.297 88.2221 184.199 88.9056L170.334 186.103C170.237 186.786 169.703 187.603 169.143 187.926C168.582 188.25 167.643 188.233 167.045 187.888L61.5659 126.99C60.9679 126.645 60.5624 125.811 60.6599 125.127L74.5239 27.9301C74.6214 27.2466 75.1554 26.4301 75.7164 26.1061Z" fill="#F0F0F0"/>
<path d="M182.168 90.0781L168.304 187.275C168.206 187.959 167.643 188.233 167.045 187.888L61.5657 126.99C60.9677 126.645 60.5621 125.811 60.6596 125.127L74.5236 27.9301C74.6211 27.2466 75.1846 26.9726 75.7826 27.3176L181.262 88.2156C181.86 88.5606 182.266 89.3946 182.168 90.0781Z" fill="#FAFAFA"/>
<path d="M202.285 166.943L175.292 151.347L174.485 157.004L186.866 164.153C186.866 164.153 190.164 165.325 191.477 165.65C192.791 165.975 202.285 166.943 202.285 166.943Z" fill="#E0E0E0"/>
<path d="M174.485 157.005L170.433 185.406L186.866 164.154L174.485 157.005Z" fill="#E6E6E6"/>
<path d="M170.92 186.35L185.643 167.224C186.064 166.677 186.96 166.313 187.643 166.412L201.416 168.4C202.1 168.498 203.108 168.316 203.669 167.992C204.23 167.668 204.135 167.3 203.457 167.169L187.633 164.124C186.955 163.993 186.072 164.337 185.661 164.891L168.872 187.509C168.46 188.063 168.581 188.25 169.142 187.926C169.703 187.603 170.499 186.897 170.92 186.35Z" fill="#E0E0E0"/>
<path d="M76.9746 26.3527C76.9846 25.7827 77.2896 25.1927 77.7446 24.9327C78.3096 24.6127 79.2446 24.6277 79.8446 24.9727L185.325 85.8727C185.615 86.0377 185.905 86.3227 186.15 86.6427C186.405 86.9827 186.605 87.3727 186.685 87.7177L189.185 98.8027L187.154 99.9682L79.5101 37.8212L77.0066 26.7397C76.9741 26.5957 76.9761 26.4707 76.9746 26.3527Z" fill="#4998D0"/>
<path opacity="0.2" d="M77.0078 26.7393C76.8558 26.0658 77.2168 25.7998 77.8148 26.1453L183.294 87.0433C183.892 87.3883 184.5 88.2143 184.652 88.8878L187.155 99.9688L79.5113 37.8203L77.0078 26.7393Z" fill="black"/>
<path opacity="0.1" d="M184.121 87.8171C184.376 88.1571 184.576 88.5421 184.651 88.8871L187.155 99.9681L189.186 98.8021L186.686 87.7171C186.606 87.3721 186.406 86.9821 186.151 86.6421L184.121 87.8171Z" fill="black"/>
<path opacity="0.4" d="M76.9754 26.3522C77.0254 25.9772 77.3504 25.8772 77.8154 26.1472L183.295 87.0422C183.585 87.2072 183.88 87.4922 184.12 87.8172L186.15 86.6422C185.905 86.3222 185.615 86.0372 185.325 85.8722L79.8454 24.9722C79.2454 24.6272 78.3104 24.6122 77.7454 24.9322C77.2909 25.1922 76.9854 25.7822 76.9754 26.3522Z" fill="white"/>
<path d="M74.3949 28.8611L74.3914 28.8591L74.5239 27.9301C74.5304 27.8861 74.5429 27.8401 74.5529 27.7951C74.5559 27.7831 74.5574 27.7691 74.5604 27.7571C74.5604 27.7561 74.5614 27.7551 74.5614 27.7541C74.7154 27.1116 75.2019 26.4026 75.7159 26.1061C76.2769 25.7821 77.2164 25.7996 77.8144 26.1446L183.293 87.0431C183.6 87.2201 183.854 87.5266 184.018 87.8746L184.02 87.8771C184.175 88.2071 184.245 88.5721 184.2 88.9071L182.21 102.832L180.18 104.007L72.5354 41.8621L74.3949 28.8611Z" fill="#4998D0"/>
<path opacity="0.1" d="M180.18 104.007L182.21 102.832L184.2 88.9072C184.245 88.5722 184.175 88.2072 184.02 87.8772L181.985 89.0472C182.145 89.3772 182.215 89.7472 182.17 90.0772L180.18 104.007Z" fill="black"/>
<path opacity="0.4" d="M74.5605 27.757C74.7255 27.202 75.2405 27.002 75.7805 27.317L181.261 88.217C181.566 88.392 181.826 88.697 181.986 89.047L184.021 87.877C183.856 87.527 183.601 87.222 183.296 87.042L77.8155 26.147C77.2155 25.802 76.2755 25.782 75.7155 26.107C75.2 26.407 74.71 27.112 74.5605 27.757Z" fill="white"/>
<path d="M152.175 171.171L153.438 162.317C153.516 161.771 153.967 161.551 154.445 161.827L163.64 167.136C164.119 167.412 164.443 168.079 164.365 168.626L163.102 177.48C163.024 178.027 162.573 178.246 162.095 177.97L152.899 172.661C152.421 172.385 152.097 171.718 152.175 171.171Z" fill="#4998D0"/>
<path d="M137.955 162.972L139.218 154.118C139.296 153.571 139.747 153.352 140.225 153.628L149.421 158.937C149.899 159.213 150.224 159.88 150.146 160.427L148.883 169.281C148.805 169.828 148.354 170.047 147.875 169.771L138.68 164.462C138.202 164.186 137.877 163.519 137.955 162.972Z" fill="#EBEBEB"/>
<path d="M123.734 154.772L124.997 145.918C125.075 145.371 125.526 145.152 126.005 145.428L135.2 150.737C135.678 151.013 136.003 151.68 135.925 152.227L134.662 161.081C134.584 161.628 134.133 161.847 133.655 161.571L124.459 156.262C123.981 155.986 123.656 155.319 123.734 154.772Z" fill="#EBEBEB"/>
<path d="M109.515 146.573L110.778 137.719C110.856 137.172 111.307 136.953 111.785 137.229L120.98 142.538C121.459 142.814 121.783 143.481 121.705 144.028L120.442 152.882C120.364 153.428 119.913 153.648 119.435 153.372L110.239 148.063C109.761 147.787 109.437 147.12 109.515 146.573Z" fill="#EBEBEB"/>
<path d="M95.295 138.373L96.558 129.519C96.636 128.972 97.087 128.753 97.565 129.029L106.76 134.338C107.239 134.614 107.563 135.281 107.485 135.828L106.222 144.682C106.144 145.229 105.693 145.448 105.215 145.172L96.0195 139.863C95.5415 139.587 95.217 138.92 95.295 138.373Z" fill="#EBEBEB"/>
<path d="M81.0753 130.174L82.3383 121.32C82.4163 120.774 82.8673 120.554 83.3453 120.83L92.5408 126.139C93.0193 126.415 93.3438 127.082 93.2658 127.629L92.0028 136.483C91.9248 137.03 91.4738 137.249 90.9953 136.973L81.7998 131.664C81.3218 131.388 80.9973 130.721 81.0753 130.174Z" fill="#EBEBEB"/>
<path d="M66.855 121.975L68.118 113.121C68.196 112.574 68.647 112.355 69.1255 112.631L78.321 117.94C78.7995 118.216 79.124 118.883 79.046 119.43L77.783 128.284C77.705 128.831 77.254 129.05 76.776 128.774L67.5805 123.465C67.1015 123.188 66.7765 122.521 66.855 121.975Z" fill="#EBEBEB"/>
<path d="M154.647 153.845L155.91 144.991C155.988 144.444 156.439 144.225 156.917 144.501L166.112 149.81C166.591 150.086 166.915 150.753 166.837 151.3L165.574 160.154C165.496 160.701 165.045 160.92 164.567 160.644L155.371 155.335C154.893 155.059 154.569 154.392 154.647 153.845Z" fill="#4998D0"/>
<path d="M140.427 145.645L141.69 136.791C141.768 136.245 142.219 136.025 142.697 136.301L151.893 141.61C152.371 141.886 152.695 142.554 152.617 143.1L151.354 151.954C151.276 152.501 150.825 152.72 150.347 152.444L141.152 147.135C140.673 146.859 140.349 146.192 140.427 145.645Z" fill="#EBEBEB"/>
<path d="M126.206 137.446L127.469 128.592C127.547 128.045 127.998 127.826 128.476 128.102L137.672 133.411C138.15 133.687 138.475 134.354 138.397 134.901L137.134 143.755C137.056 144.302 136.605 144.521 136.126 144.245L126.931 138.936C126.453 138.66 126.128 137.993 126.206 137.446Z" fill="#EBEBEB"/>
<path d="M111.987 129.247L113.25 120.393C113.328 119.846 113.779 119.627 114.257 119.903L123.453 125.212C123.931 125.488 124.256 126.155 124.178 126.702L122.915 135.556C122.837 136.103 122.386 136.322 121.908 136.046L112.712 130.737C112.234 130.461 111.909 129.794 111.987 129.247Z" fill="#EBEBEB"/>
<path d="M97.7667 121.047L99.0297 112.193C99.1077 111.646 99.5587 111.427 100.037 111.703L109.232 117.012C109.711 117.288 110.035 117.955 109.957 118.502L108.694 127.356C108.616 127.903 108.165 128.122 107.687 127.846L98.4912 122.537C98.0132 122.261 97.6887 121.594 97.7667 121.047Z" fill="#EBEBEB"/>
<path d="M83.5474 112.848L84.8104 103.994C84.8884 103.447 85.3394 103.228 85.8179 103.504L95.0134 108.813C95.4919 109.089 95.8164 109.756 95.7384 110.303L94.4754 119.157C94.3974 119.703 93.9464 119.923 93.4684 119.647L84.2729 114.338C83.7939 114.061 83.4694 113.394 83.5474 112.848Z" fill="#EBEBEB"/>
<path d="M69.3272 104.648L70.5902 95.7943C70.6682 95.2478 71.1192 95.0283 71.5972 95.3043L80.7927 100.613C81.2712 100.889 81.5957 101.556 81.5177 102.103L80.2547 110.957C80.1767 111.504 79.7257 111.723 79.2472 111.447L70.0517 106.138C69.5737 105.862 69.2492 105.195 69.3272 104.648Z" fill="#EBEBEB"/>
<path d="M157.119 136.518L158.382 127.664C158.46 127.117 158.911 126.898 159.389 127.174L168.585 132.483C169.063 132.759 169.388 133.427 169.31 133.973L168.047 142.827C167.969 143.374 167.518 143.593 167.04 143.317L157.844 138.008C157.365 137.732 157.041 137.065 157.119 136.518Z" fill="#4998D0"/>
<path d="M142.899 128.319L144.162 119.465C144.24 118.918 144.691 118.699 145.169 118.975L154.364 124.284C154.843 124.56 155.167 125.228 155.089 125.774L153.826 134.628C153.748 135.175 153.297 135.394 152.819 135.118L143.623 129.809C143.145 129.533 142.821 128.866 142.899 128.319Z" fill="#EBEBEB"/>
<path d="M128.678 120.12L129.941 111.266C130.019 110.719 130.47 110.5 130.949 110.776L140.144 116.085C140.623 116.361 140.947 117.028 140.869 117.575L139.606 126.429C139.528 126.975 139.077 127.195 138.599 126.919L129.404 121.61C128.925 121.333 128.6 120.666 128.678 120.12Z" fill="#EBEBEB"/>
<path d="M114.459 111.921L115.722 103.067C115.8 102.52 116.251 102.301 116.729 102.577L125.925 107.886C126.403 108.162 126.728 108.829 126.65 109.376L125.387 118.23C125.309 118.777 124.858 118.996 124.38 118.72L115.184 113.411C114.706 113.134 114.381 112.467 114.459 111.921Z" fill="#EBEBEB"/>
<path d="M100.238 103.721L101.501 94.8669C101.579 94.3199 102.03 94.1009 102.508 94.3769L111.704 99.6859C112.182 99.9619 112.507 100.629 112.429 101.176L111.166 110.03C111.088 110.577 110.637 110.796 110.158 110.52L100.963 105.211C100.485 104.934 100.16 104.267 100.238 103.721Z" fill="#EBEBEB"/>
<path d="M86.0186 95.5214L87.2816 86.6674C87.3596 86.1204 87.8106 85.9014 88.2886 86.1774L97.4841 91.4864C97.9626 91.7624 98.2871 92.4294 98.2091 92.9764L96.9461 101.83C96.8681 102.377 96.4171 102.596 95.9386 102.32L86.7431 97.0114C86.2651 96.7354 85.9406 96.0679 86.0186 95.5214Z" fill="#EBEBEB"/>
<path d="M71.7989 87.3219L73.0619 78.4679C73.1399 77.9214 73.5909 77.7019 74.0689 77.9779L83.2644 83.2869C83.7429 83.5629 84.0674 84.2299 83.9894 84.7769L82.7264 93.6309C82.6484 94.1774 82.1974 94.3969 81.7194 94.1209L72.5239 88.8119C72.0454 88.5359 71.7209 87.8684 71.7989 87.3219Z" fill="#EBEBEB"/>
<path d="M159.59 119.192L160.853 110.338C160.931 109.791 161.382 109.572 161.86 109.848L171.055 115.157C171.534 115.433 171.858 116.1 171.78 116.647L170.517 125.501C170.439 126.047 169.988 126.267 169.51 125.991L160.314 120.682C159.836 120.406 159.512 119.739 159.59 119.192Z" fill="#4998D0"/>
<path d="M145.37 110.993L146.633 102.139C146.711 101.592 147.162 101.373 147.64 101.649L156.836 106.958C157.314 107.234 157.639 107.901 157.561 108.448L156.298 117.302C156.22 117.849 155.769 118.068 155.291 117.792L146.095 112.483C145.616 112.206 145.292 111.539 145.37 110.993Z" fill="#EBEBEB"/>
<path d="M131.149 102.793L132.412 93.9392C132.49 93.3922 132.941 93.1732 133.419 93.4492L142.615 98.7582C143.093 99.0342 143.418 99.7017 143.34 100.248L142.077 109.102C141.999 109.649 141.548 109.868 141.07 109.592L131.874 104.283C131.396 104.007 131.071 103.34 131.149 102.793Z" fill="#EBEBEB"/>
<path d="M116.93 94.5937L118.193 85.7397C118.271 85.1927 118.722 84.9737 119.2 85.2497L128.395 90.5587C128.874 90.8347 129.198 91.5022 129.12 92.0487L127.857 100.903C127.779 101.449 127.328 101.669 126.85 101.393L117.654 96.0837C117.176 95.8077 116.852 95.1402 116.93 94.5937Z" fill="#EBEBEB"/>
<path d="M102.71 86.3942L103.973 77.5402C104.051 76.9932 104.502 76.7742 104.98 77.0502L114.176 82.3592C114.654 82.6352 114.979 83.3022 114.901 83.8492L113.638 92.7032C113.56 93.2502 113.109 93.4692 112.631 93.1932L103.435 87.8842C102.957 87.6082 102.632 86.9412 102.71 86.3942Z" fill="#EBEBEB"/>
<path d="M88.4903 78.1948L89.7533 69.3408C89.8313 68.7938 90.2823 68.5748 90.7603 68.8508L99.9558 74.1598C100.434 74.4358 100.759 75.1033 100.681 75.6498L99.4178 84.5038C99.3398 85.0508 98.8888 85.2698 98.4108 84.9938L89.2153 79.6848C88.7368 79.4088 88.4123 78.7418 88.4903 78.1948Z" fill="#EBEBEB"/>
<path d="M74.2701 69.9952L75.5331 61.1412C75.6111 60.5947 76.0621 60.3752 76.5406 60.6512L85.7361 65.9602C86.2146 66.2362 86.5391 66.9037 86.4611 67.4502L85.1981 76.3042C85.1201 76.8507 84.6691 77.0702 84.1911 76.7942L74.9956 71.4852C74.5166 71.2092 74.1921 70.5422 74.2701 69.9952Z" fill="#EBEBEB"/>
<path d="M161.778 103.541L162.094 101.28C162.172 100.733 162.623 100.514 163.101 100.79L172.297 106.099C172.775 106.375 173.1 107.042 173.022 107.589L172.705 109.85C172.627 110.396 172.176 110.616 171.698 110.34L162.503 105.031C162.024 104.755 161.7 104.087 161.778 103.541Z" fill="#E6E6E6"/>
<path d="M147.558 95.3415L147.874 93.081C147.952 92.534 148.403 92.315 148.881 92.591L158.077 97.9C158.555 98.176 158.88 98.843 158.802 99.39L158.486 101.65C158.408 102.197 157.957 102.416 157.479 102.14L148.283 96.8315C147.804 96.5555 147.479 95.8885 147.558 95.3415Z" fill="#E6E6E6"/>
<path d="M133.338 87.1419L133.654 84.8814C133.732 84.3349 134.183 84.1154 134.661 84.3914L143.857 89.7004C144.335 89.9764 144.659 90.6439 144.581 91.1904L144.265 93.4509C144.187 93.9979 143.736 94.2169 143.258 93.9409L134.062 88.6319C133.584 88.3559 133.26 87.6889 133.338 87.1419Z" fill="#E6E6E6"/>
<path d="M119.118 78.9428L119.435 76.6823C119.513 76.1353 119.964 75.9163 120.442 76.1923L129.637 81.5013C130.116 81.7773 130.44 82.4448 130.362 82.9913L130.046 85.2518C129.968 85.7988 129.517 86.0178 129.039 85.7418L119.843 80.4328C119.365 80.1568 119.04 79.4898 119.118 78.9428Z" fill="#E6E6E6"/>
<path d="M104.898 70.7431L105.214 68.4826C105.292 67.9356 105.743 67.7166 106.221 67.9926L115.417 73.3016C115.895 73.5776 116.22 74.2451 116.142 74.7916L115.825 77.0521C115.747 77.5986 115.296 77.8181 114.818 77.5421L105.623 72.2331C105.144 71.9571 104.82 71.2901 104.898 70.7431Z" fill="#E6E6E6"/>
<path d="M90.678 62.544L90.994 60.2835C91.072 59.737 91.523 59.5175 92.0015 59.7935L101.197 65.1025C101.676 65.3785 102 66.0455 101.922 66.5925L101.606 68.853C101.528 69.4 101.077 69.619 100.599 69.343L91.4035 64.034C90.9245 63.7575 90.6 63.0905 90.678 62.544Z" fill="#E6E6E6"/>
<path d="M76.4578 54.3446L76.7743 52.0841C76.8523 51.5376 77.3033 51.3181 77.7818 51.5941L86.9773 56.9031C87.4558 57.1791 87.7803 57.8466 87.7023 58.3931L87.3858 60.6536C87.3078 61.2001 86.8568 61.4196 86.3783 61.1436L77.1828 55.8346C76.7043 55.5581 76.3798 54.8911 76.4578 54.3446Z" fill="#E6E6E6"/>
<path opacity="0.2" d="M172.497 90.1916C172.668 88.9951 171.897 87.5001 170.776 86.8521C169.655 86.2046 168.608 86.6496 168.437 87.8461C168.267 89.0426 169.037 90.5376 170.158 91.1856C171.279 91.8331 172.326 91.3881 172.497 90.1916Z" fill="black"/>
<path opacity="0.2" d="M158.266 81.9779C158.437 80.7814 157.667 79.2864 156.546 78.6384C155.425 77.9909 154.378 78.4359 154.207 79.6324C154.036 80.8289 154.806 82.3239 155.927 82.9719C157.048 83.6194 158.095 83.1744 158.266 81.9779Z" fill="black"/>
<path opacity="0.2" d="M144.06 73.7731C144.231 72.5766 143.461 71.0816 142.34 70.4336C141.219 69.7861 140.172 70.2311 140.001 71.4276C139.83 72.6241 140.6 74.1191 141.721 74.7671C142.842 75.4151 143.89 74.9696 144.06 73.7731Z" fill="black"/>
<path opacity="0.2" d="M115.632 57.3607C115.803 56.1643 115.033 54.6692 113.912 54.0212C112.791 53.3737 111.744 53.8187 111.573 55.0152C111.402 56.2117 112.172 57.7067 113.293 58.3547C114.414 59.0027 115.461 58.5577 115.632 57.3607Z" fill="black"/>
<path opacity="0.2" d="M101.402 49.1474C101.573 47.9509 100.803 46.4559 99.6815 45.8079C98.5605 45.1604 97.5135 45.6054 97.3425 46.8019C97.172 47.9984 97.942 49.4934 99.063 50.1414C100.184 50.7889 101.231 50.3439 101.402 49.1474Z" fill="black"/>
<path opacity="0.2" d="M87.196 40.9423C87.367 39.7458 86.5965 38.2508 85.4755 37.6028C84.3545 36.9553 83.3075 37.4003 83.1365 38.5968C82.966 39.7933 83.736 41.2883 84.857 41.9363C85.978 42.5843 87.025 42.1393 87.196 40.9423Z" fill="black"/>
<path d="M173.97 76.682C175.49 75.807 176.94 75.677 178.06 76.327C179.18 76.972 179.8 78.292 179.8 80.047C179.8 80.827 179.67 81.652 179.44 82.472L178.55 81.962C178.71 81.312 178.8 80.667 178.8 80.047C178.8 78.667 178.36 77.652 177.56 77.192C177.245 77.012 176.885 76.922 176.485 76.922C175.88 76.922 175.195 77.132 174.47 77.547C171.81 79.087 169.645 82.837 169.645 85.907C169.645 86.137 169.655 86.357 169.68 86.562C169.8 87.607 170.215 88.377 170.88 88.762C171.31 89.007 171.82 89.087 172.39 89.002C172.49 89.332 172.535 89.672 172.515 89.992C172.325 90.022 172.135 90.037 171.95 90.037C171.38 90.037 170.85 89.902 170.38 89.627C169.52 89.132 168.96 88.242 168.745 87.057C168.68 86.697 168.645 86.312 168.645 85.907C168.645 82.517 171.035 78.377 173.97 76.682Z" fill="#F5F5F5"/>
<path d="M159.74 68.4684C161.26 67.5934 162.71 67.4634 163.83 68.1134C164.95 68.7584 165.57 70.0784 165.57 71.8334C165.57 72.6134 165.44 73.4384 165.21 74.2584L164.32 73.7484C164.48 73.0984 164.57 72.4534 164.57 71.8334C164.57 70.4534 164.13 69.4384 163.33 68.9784C163.015 68.7984 162.655 68.7084 162.255 68.7084C161.65 68.7084 160.965 68.9184 160.24 69.3334C157.58 70.8734 155.415 74.6234 155.415 77.6934C155.415 77.9234 155.425 78.1434 155.45 78.3484C155.57 79.3934 155.985 80.1634 156.65 80.5484C157.08 80.7934 157.59 80.8734 158.16 80.7884C158.26 81.1184 158.305 81.4584 158.285 81.7784C158.095 81.8084 157.905 81.8234 157.72 81.8234C157.15 81.8234 156.62 81.6884 156.15 81.4134C155.29 80.9184 154.73 80.0284 154.515 78.8434C154.45 78.4834 154.415 78.0984 154.415 77.6934C154.415 74.3034 156.805 70.1634 159.74 68.4684Z" fill="#F5F5F5"/>
<path d="M145.535 60.265C147.055 59.39 148.505 59.26 149.625 59.91C150.745 60.555 151.365 61.875 151.365 63.63C151.365 64.41 151.235 65.235 151.005 66.055L150.115 65.545C150.275 64.895 150.365 64.25 150.365 63.63C150.365 62.25 149.925 61.235 149.125 60.775C148.81 60.595 148.45 60.505 148.05 60.505C147.445 60.505 146.76 60.715 146.035 61.13C143.375 62.67 141.21 66.42 141.21 69.49C141.21 69.72 141.22 69.94 141.245 70.145C141.365 71.19 141.78 71.96 142.445 72.345C142.875 72.59 143.385 72.67 143.955 72.585C144.055 72.915 144.1 73.255 144.08 73.575C143.89 73.605 143.7 73.62 143.515 73.62C142.945 73.62 142.415 73.485 141.945 73.21C141.085 72.715 140.525 71.825 140.31 70.64C140.245 70.28 140.21 69.895 140.21 69.49C140.21 66.1 142.6 61.96 145.535 60.265Z" fill="#F5F5F5"/>
<path d="M117.1 43.8729C118.62 42.9979 120.07 42.8679 121.19 43.5179C122.31 44.1629 122.93 45.4829 122.93 47.2379C122.93 48.0179 122.8 48.8429 122.57 49.6629L121.68 49.1529C121.84 48.5029 121.93 47.8579 121.93 47.2379C121.93 45.8579 121.49 44.8429 120.69 44.3829C120.375 44.2029 120.015 44.1129 119.615 44.1129C119.01 44.1129 118.325 44.3229 117.6 44.7379C114.94 46.2779 112.775 50.0279 112.775 53.0979C112.775 53.3279 112.785 53.5479 112.81 53.7529C112.93 54.7979 113.345 55.5679 114.01 55.9529C114.44 56.1979 114.95 56.2779 115.52 56.1929C115.62 56.5229 115.665 56.8629 115.645 57.1829C115.455 57.2129 115.265 57.2279 115.08 57.2279C114.51 57.2279 113.98 57.0929 113.51 56.8179C112.65 56.3229 112.09 55.4329 111.875 54.2479C111.81 53.8879 111.775 53.5029 111.775 53.0979C111.775 49.7079 114.165 45.5679 117.1 43.8729Z" fill="#F5F5F5"/>
<path d="M102.87 35.6596C104.39 34.7846 105.84 34.6546 106.96 35.3046C108.08 35.9496 108.7 37.2696 108.7 39.0246C108.7 39.8046 108.57 40.6296 108.34 41.4496L107.45 40.9396C107.61 40.2896 107.7 39.6446 107.7 39.0246C107.7 37.6446 107.26 36.6296 106.46 36.1696C106.145 35.9896 105.785 35.8996 105.385 35.8996C104.78 35.8996 104.095 36.1096 103.37 36.5246C100.71 38.0646 98.5452 41.8146 98.5452 44.8846C98.5452 45.1146 98.5552 45.3346 98.5802 45.5396C98.7002 46.5846 99.1152 47.3546 99.7802 47.7396C100.21 47.9846 100.72 48.0646 101.29 47.9796C101.39 48.3096 101.435 48.6496 101.415 48.9696C101.225 48.9996 101.035 49.0146 100.85 49.0146C100.28 49.0146 99.7502 48.8796 99.2802 48.6046C98.4202 48.1096 97.8602 47.2196 97.6452 46.0346C97.5802 45.6746 97.5452 45.2896 97.5452 44.8846C97.5452 41.4946 99.9352 37.3546 102.87 35.6596Z" fill="#F5F5F5"/>
<path d="M88.6651 27.456C90.1851 26.581 91.6351 26.451 92.7551 27.101C93.8751 27.746 94.4951 29.066 94.4951 30.821C94.4951 31.601 94.3651 32.426 94.1351 33.246L93.2451 32.736C93.4051 32.086 93.4951 31.441 93.4951 30.821C93.4951 29.441 93.0551 28.426 92.2551 27.966C91.9401 27.786 91.5801 27.696 91.1801 27.696C90.5751 27.696 89.8901 27.906 89.1651 28.321C86.5051 29.861 84.3401 33.611 84.3401 36.681C84.3401 36.911 84.3501 37.131 84.3751 37.336C84.4951 38.381 84.9101 39.151 85.5751 39.536C86.0051 39.781 86.5151 39.861 87.0851 39.776C87.1851 40.106 87.2301 40.446 87.2101 40.766C87.0201 40.796 86.8301 40.811 86.6451 40.811C86.0751 40.811 85.5451 40.676 85.0751 40.401C84.2151 39.906 83.6551 39.016 83.4401 37.831C83.3751 37.471 83.3401 37.086 83.3401 36.681C83.3401 33.2915 85.7301 29.1515 88.6651 27.456Z" fill="#F5F5F5"/>
<path d="M73.8921 157.519L77.2516 163.356C77.7016 164.11 77.4556 165.087 76.7011 165.537C75.9471 165.987 74.9706 165.741 74.5206 164.986L71.1416 159.116C70.8151 158.553 71.1661 157.74 71.9256 157.299C72.6851 156.858 73.5656 156.957 73.8921 157.519Z" fill="#455A64"/>
<path d="M47.15 147.224L41.313 150.584C40.559 151.034 39.5825 150.788 39.1325 150.033C38.6825 149.279 38.929 148.303 39.683 147.853L45.5535 144.474C46.116 144.147 46.9295 144.498 47.3705 145.258C47.8105 146.017 47.712 146.898 47.15 147.224Z" fill="#455A64"/>
<path d="M40.6858 120.919L40.6853 120.918L40.7128 120.902C40.7138 120.902 40.7149 120.901 40.7159 120.901L54.9283 112.695C54.9303 112.694 54.9328 112.693 54.9348 112.692L54.9738 112.669L54.9748 112.671C58.0953 110.894 62.3933 111.163 67.1388 113.903C76.6733 119.407 84.4023 132.795 84.4023 143.804C84.4023 149.292 82.4813 153.152 79.3743 154.963L79.3748 154.964L79.3474 154.98C79.3464 154.98 79.3448 154.981 79.3438 154.982L65.1298 163.188C65.1288 163.189 65.1278 163.189 65.1268 163.19L65.0943 163.209L65.0938 163.207C61.9723 164.989 57.6713 164.722 52.9213 161.98C43.3868 156.475 35.6578 143.088 35.6578 132.078C35.6578 126.59 37.5788 122.73 40.6858 120.919Z" fill="#4998D0"/>
<path opacity="0.1" d="M65.3573 163.051L79.3423 154.981C79.3473 154.981 79.3474 154.981 79.3474 154.981L79.3773 154.961C82.4823 153.146 84.4023 149.286 84.4023 143.806C84.4023 138.896 82.8623 133.516 80.3173 128.576L66.1023 136.781C68.6523 141.721 70.1873 147.101 70.1873 152.011C70.1873 157.381 68.3473 161.191 65.3573 163.051Z" fill="black"/>
<path opacity="0.4" d="M40.7173 149.098C33.9755 137.421 33.9754 124.8 40.7172 120.907C47.459 117.015 58.3897 123.325 65.1316 135.002C71.8735 146.679 71.8735 159.301 65.1317 163.193C58.3899 167.086 47.4592 160.775 40.7173 149.098Z" fill="white"/>
<path d="M60.632 160.837C66.0955 160.837 66.6855 154.665 66.6855 152.012C66.6855 142.301 59.581 129.996 51.172 125.142C49.032 123.906 46.971 123.253 45.212 123.253C39.748 123.253 39.1585 129.425 39.1585 132.078C39.1585 141.788 46.263 154.093 54.672 158.948C56.812 160.183 58.8735 160.837 60.632 160.837Z" fill="#FAFAFA"/>
<path d="M56.749 153.293C56.7765 153.293 56.804 153.288 56.8315 153.279C56.962 153.233 57.0305 153.091 56.985 152.96L53.1585 142.035C53.1125 141.904 52.97 141.835 52.84 141.881C52.7095 141.927 52.641 142.069 52.6865 142.2L56.513 153.125C56.549 153.228 56.646 153.293 56.749 153.293Z" fill="#4998D0"/>
<path d="M47.1879 145.347C47.2869 145.347 47.3879 145.328 47.4854 145.286L53.6719 142.61V131.39C53.6719 130.976 53.3359 130.64 52.9219 130.64C52.5079 130.64 52.1719 130.976 52.1719 131.39V141.625L46.8899 143.908C46.5099 144.073 46.3349 144.514 46.4994 144.895C46.6219 145.178 46.8979 145.347 47.1879 145.347Z" fill="#37474F"/>
<path d="M52.9221 139.699C51.8006 139.052 50.8911 139.577 50.8911 140.872C50.8911 142.167 51.8006 143.742 52.9221 144.39C54.0436 145.037 54.9531 144.512 54.9531 143.217C54.9531 141.922 54.0441 140.347 52.9221 139.699Z" fill="#4998D0"/>
<path d="M69.4408 131.647C71.8913 135.886 76.5038 137.802 79.9733 135.799C84.2133 133.35 85.6618 127.925 83.2113 123.686C80.7608 119.447 75.3228 117.972 71.0988 120.449C67.6418 122.475 66.9898 127.409 69.4408 131.647Z" fill="#455A64"/>
<path d="M79.9738 135.799C76.5043 137.803 71.8923 135.886 69.4413 131.647C68.8688 130.658 68.4728 129.63 68.2353 128.611C68.3773 128.795 72.4538 133.994 77.5228 132.532C82.6828 131.043 83.6558 127.067 83.2113 123.686C85.6618 127.925 84.2133 133.35 79.9738 135.799Z" fill="#37474F"/>
<path d="M81.4006 122.824L84.0281 121.304C84.7821 120.854 85.7586 121.1 86.2086 121.855C86.6586 122.609 86.4126 123.585 85.6581 124.035L82.9971 125.574C82.4346 125.901 81.6211 125.55 81.1801 124.79C80.7396 124.03 80.8381 123.15 81.4006 122.824Z" fill="#4998D0"/>
<path d="M42.1684 110.141L40.6489 107.513C40.1989 106.759 40.4449 105.783 41.1994 105.333C41.9534 104.883 42.9299 105.129 43.3799 105.883L44.9189 108.544C45.2454 109.107 44.8944 109.92 44.1349 110.361C43.3754 110.802 42.4949 110.703 42.1684 110.141Z" fill="#4998D0"/>
<path d="M54.875 111.223C52.4245 106.984 47.0015 105.535 42.7625 107.986C38.5235 110.436 37.074 115.859 39.525 120.098L54.875 111.223Z" fill="#455A64"/>
<path d="M41.4517 108.919C40.9482 109.967 39.5902 114.393 41.4562 115.49C43.3277 116.591 51.9072 112.939 51.9072 112.939L39.5247 120.098C37.3482 116.333 38.2537 111.64 41.4517 108.919Z" fill="#37474F"/>
<path d="M97.5648 134.257C106.415 122.358 109.326 121.033 110.989 120.629L108.072 128.609L102.024 136.415" fill="#FFA8A7"/>
<path d="M111.855 120.501C111.855 120.501 109.974 119.928 107.258 122.593C104.542 125.258 101.233 129.145 101.233 129.145C101.233 129.145 102.122 132.319 104.888 133.307L108.901 129.145L111.855 120.501Z" fill="#4998D0"/>
<path opacity="0.1" d="M111.855 120.501C111.855 120.501 109.974 119.928 107.258 122.593C104.542 125.258 101.233 129.145 101.233 129.145C101.233 129.145 102.122 132.319 104.888 133.307L108.901 129.145L111.855 120.501Z" fill="black"/>
<path d="M110.13 113.897C107.399 113.253 105.708 110.516 106.353 107.786C106.998 105.055 109.734 103.364 112.465 104.009C115.196 104.654 116.886 107.39 116.242 110.121C115.597 112.851 112.861 114.542 110.13 113.897Z" fill="#263238"/>
<path d="M123.464 201.062H119.885V194.936H123.464V201.062Z" fill="#FFA8A7"/>
<path d="M111.793 196.611L108.216 196.734L108.037 190.25L111.613 190.127L111.793 196.611Z" fill="#FFA8A7"/>
<path d="M123.228 146.37C123.228 149.788 123.232 171.124 123.232 171.124C123.315 172.108 124.041 173.811 124.239 177.997C124.481 183.129 123.697 197.259 123.697 197.259C123.697 197.259 122.019 198.923 119.65 197.259C119.65 197.259 116.473 177.089 115.832 172.004C115.272 167.567 114.323 155.512 114.323 155.512L112.181 173.673C112.181 173.673 112.764 177.008 112.893 179.363C113.021 181.717 111.862 194.274 111.862 194.274C111.862 194.274 110.043 195.531 107.968 194.422C107.968 194.422 105.516 175.596 105.147 173.47C104.778 171.343 106.489 146.371 106.489 146.371H123.228V146.37Z" fill="#37474F"/>
<path d="M119.79 121.647C120.272 121.733 120.83 121.816 121.268 121.988C122.249 122.373 122.699 123.583 122.935 124.652C123.104 125.42 123.229 126.336 123.229 127.37V134.382V146.37C120.719 149.1 111.97 150.372 106.49 146.37C106.49 146.37 106.597 129.587 107.008 126.83C107.721 122.04 110.014 120.332 112.317 120.51L117.841 121.301L119.79 121.647Z" fill="#4998D0"/>
<path d="M120.079 112.578C120.079 112.578 119.256 116.446 118.926 117.081C118.596 117.717 117.913 117.897 117.913 117.897L117.971 115.176L120.079 112.578Z" fill="#263238"/>
<path d="M119.046 107.036C119.046 107.036 119.932 106.884 120.624 107.591C121.301 108.284 120.923 110.453 120.079 112.578L118.528 112.756L119.046 107.036Z" fill="#263238"/>
<path d="M118.063 112.757C118.374 112.943 118.818 112.346 119.201 111.944C119.585 111.543 120.837 110.995 121.461 112.311C122.098 113.652 120.91 115.424 119.924 115.733C118.226 116.266 117.971 115.177 117.971 115.177L117.841 121.304C117.841 121.304 116.729 124.025 113.717 124.433C110.706 124.841 111.326 122.359 112.315 121.142L112.32 119.277C112.32 119.277 110.781 119.511 110.03 119.395C108.781 119.202 107.995 118.216 107.616 116.864C107.007 114.692 106.776 112.939 107.292 108.668C107.858 103.986 113.303 103.938 116.244 105.788C119.184 107.638 118.063 112.757 118.063 112.757Z" fill="#FFA8A7"/>
<path d="M118.063 113.28C118.22 113.283 118.814 112.296 119.201 111.944C119.738 111.456 119.046 107.037 119.046 107.037C119.046 107.037 119.561 105.938 118.528 104.801C117.793 103.993 116.565 103.903 114.469 103.573C113.369 103.4 111.701 103.092 110.603 102.888C109.291 102.644 108.205 102.386 107.279 103.191C106.558 103.818 106.248 104.925 106.636 105.797C106.727 106.002 106.858 106.187 107.008 106.353C107.274 106.648 107.319 107.049 107.697 107.171C107.697 107.171 108.489 107.888 110.479 108.131C112.468 108.373 115.568 108.084 115.991 108.026C116.568 107.947 116.727 108.129 117.038 109.657C117.311 110.997 117.537 113.27 118.063 113.28Z" fill="#263238"/>
<path d="M119.043 107.38L120.923 106.37C120.656 105.832 120.019 105.621 119.499 105.899C118.98 106.178 118.776 106.841 119.043 107.38Z" fill="#263238"/>
<path d="M112.32 119.277C112.32 119.277 115.108 118.715 116.083 118.197C116.736 117.85 117.273 117.249 117.431 116.863C117.431 116.863 117.248 117.691 116.665 118.436C115.952 119.347 112.32 120.018 112.32 120.018L112.32 119.277Z" fill="#F28F8F"/>
<path d="M112.813 112.572C112.813 112.893 113.063 113.152 113.372 113.151C113.68 113.15 113.931 112.89 113.931 112.569C113.931 112.249 113.681 111.989 113.372 111.99C113.063 111.991 112.813 112.252 112.813 112.572Z" fill="#263238"/>
<path d="M113.406 110.463L114.602 111.123C114.778 110.779 114.653 110.353 114.323 110.171C113.993 109.989 113.582 110.119 113.406 110.463Z" fill="#263238"/>
<path d="M112.572 115.92L111.297 116.399C111.423 116.764 111.811 116.954 112.163 116.821C112.515 116.689 112.698 116.286 112.572 115.92Z" fill="#F28F8F"/>
<path d="M107.831 110.928L108.921 110.089C108.698 109.777 108.274 109.712 107.973 109.943C107.672 110.175 107.608 110.616 107.831 110.928Z" fill="#263238"/>
<path d="M108.166 112.414C108.166 112.734 108.416 112.994 108.725 112.993C109.033 112.992 109.283 112.731 109.283 112.411C109.283 112.09 109.033 111.831 108.725 111.832C108.416 111.832 108.166 112.093 108.166 112.414Z" fill="#263238"/>
<path d="M111.189 111.371L111.006 114.732L109.251 114.133L111.189 111.371Z" fill="#F28F8F"/>
<path d="M119.884 199.295V198.783C119.541 198.932 118.746 201.967 117.326 203.263C116.197 204.292 114.657 205.482 114.265 206.63C113.858 207.824 116.41 208.483 117.464 208.296C118.69 208.079 120.814 207.216 121.347 206.416C121.88 205.616 122.13 204.436 122.563 203.85C122.996 203.264 123.995 202.61 124.229 201.931C124.357 201.559 124.205 200.742 124.024 200.053C123.858 199.42 123.678 198.724 123.462 198.784C123.461 198.861 123.462 199.174 123.462 199.174C123.202 199.462 122.483 199.747 121.672 199.779C121.15 199.798 119.88 199.694 119.884 199.295Z" fill="#263238"/>
<path d="M108.178 195.631C107.992 195.637 107.841 195.899 107.431 196.343C106.936 196.879 106.126 197.458 105.326 197.858C103.986 198.529 101.38 199.561 100.201 200.092C99.465 200.424 99.4995 201.313 100.261 201.82C101.022 202.326 102.861 202.691 105.068 202.197C106.271 201.928 107.836 200.818 108.827 200.878C109.818 200.938 111.672 200.923 112.403 200.419C113.134 199.915 112.841 198.838 112.635 197.913C112.409 196.904 112.086 195.359 111.752 195.428L111.763 195.745C111.333 196.397 109.142 196.663 108.197 196.183L108.178 195.631Z" fill="#263238"/>
<path d="M114.323 155.512C114.323 155.512 111.463 154.706 109.34 152.654C109.34 152.654 110.301 154.455 113.161 156.13L113.1 165.883L114.323 155.512Z" fill="#263238"/>
<path d="M121.103 155.349C121.696 154.839 122.064 154.203 122.957 153.551C123.743 152.977 124.057 152.727 124.528 151.953C125.04 151.114 125.51 148.313 125.68 145.657C125.881 142.522 125.041 138.545 124.443 136.892C123.229 133.535 120.763 129.034 119.944 127.135C119.125 125.235 119.565 124.281 120.3 123.317C121.163 122.184 122.753 122.182 124.259 124.756C125.764 127.33 127.944 132.144 129.032 136.062C129.56 137.96 130.141 141.065 129.898 145.094C129.729 147.909 129.118 150.058 128.324 152.764C128.107 153.501 128.129 154.102 127.882 155.556C127.782 156.143 127.691 156.789 127.42 157.318C127.077 157.99 126.656 158.627 126.135 159.175C125.478 159.865 124.657 160.412 123.74 160.668C123.235 160.808 122.699 160.859 122.185 160.756C121.672 160.653 121.182 160.387 120.86 159.974C120.794 159.89 120.735 159.797 120.719 159.692C120.692 159.502 120.812 159.326 120.928 159.173C121.571 158.315 122.392 157.486 122.939 156.569C123.401 155.794 123.62 155.183 123.442 155.215C123.265 155.248 123.025 155.722 122.356 156.137C121.718 156.534 120.855 156.543 120.661 156.167C120.466 155.791 120.51 155.859 121.103 155.349Z" fill="#FFA8A7"/>
<path d="M120.862 121.874C122.291 121.962 123.592 122.279 125.021 125.117C126.451 127.956 128.693 133.259 128.693 133.259C128.693 133.259 127.158 136.408 123.228 136.415C123.228 136.415 119.941 129.546 119.404 127.737C118.868 125.929 118.482 123.015 120.862 121.874Z" fill="#4998D0"/>
<path opacity="0.1" d="M120.862 121.874C122.291 121.962 123.592 122.279 125.021 125.117C126.451 127.956 128.693 133.259 128.693 133.259C128.693 133.259 127.158 136.408 123.228 136.415C123.228 136.415 119.941 129.546 119.404 127.737C118.868 125.929 118.482 123.015 120.862 121.874Z" fill="black"/>
<path d="M102.023 136.415C102.352 137.367 105.469 140.258 107.767 141.179C108.174 141.342 109.041 141.43 109.454 141.281C109.961 141.098 110.608 140.897 111.157 140.949C111.824 141.012 112.507 141.142 113.179 141.218C113.319 141.234 113.463 141.251 113.587 141.32C113.993 141.546 113.762 141.893 113.434 142.013C112.912 142.204 112.375 142.358 111.831 142.471C111.833 142.52 111.835 142.568 111.838 142.617C113.21 143.166 114.7 143.329 116.17 143.487C116.429 143.515 116.711 143.553 116.896 143.737C117.075 143.916 117.118 144.198 117.061 144.444C117.004 144.691 116.861 144.908 116.708 145.109C116.062 145.958 115.189 146.741 114.101 146.886C113.033 147.028 111.924 146.772 110.902 146.485C110.409 146.346 109.921 146.188 109.437 146.019C108.316 145.627 106.637 144.885 105.311 144.174C101.858 142.324 99.0015 140.161 97.441 138.64C95.9985 137.234 96.354 135.884 97.5635 134.257" fill="#FFA8A7"/>
<path d="M108.074 141.267C108.074 141.267 107.56 141.083 107.007 141.997C106.453 142.911 106.073 144.586 106.793 144.914C106.793 144.914 106.088 145.018 105.528 144.288C105.528 144.288 104.961 142.166 106.793 140.73C106.793 140.73 107.715 140.766 108.074 141.267Z" fill="#37474F"/>
<path d="M105.433 141.606C105.148 142.106 105.329 142.747 105.837 143.037C106.346 143.326 106.989 143.155 107.274 142.654C107.559 142.153 107.378 141.513 106.87 141.223C106.361 140.934 105.718 141.105 105.433 141.606Z" fill="#4998D0"/>
<path d="M105.674 141.744C105.464 142.113 105.597 142.586 105.972 142.799C106.347 143.013 106.822 142.887 107.032 142.517C107.243 142.148 107.109 141.675 106.734 141.462C106.359 141.248 105.884 141.374 105.674 141.744Z" fill="#FAFAFA"/>
</svg>
