<svg width="32" height="33" viewBox="0 0 32 33" fill="none" xmlns="http://www.w3.org/2000/svg">
<path fill-rule="evenodd" clip-rule="evenodd" d="M16 0.880371C7.16347 0.880371 0 8.04384 0 16.8804C0 25.7169 7.16347 32.8804 16 32.8804C24.8365 32.8804 32 25.7169 32 16.8804C32 8.04384 24.8365 0.880371 16 0.880371ZM15.5544 14.439L15.5208 13.8854C15.4201 12.4504 16.3042 11.1398 17.7032 10.6314C18.218 10.4506 19.0909 10.428 19.6617 10.5862C19.8855 10.654 20.3109 10.8799 20.613 11.0833L21.1614 11.4562L21.7657 11.2641C22.1015 11.1624 22.5492 10.9929 22.7506 10.8799C22.9409 10.7782 23.1087 10.7217 23.1087 10.7556C23.1087 10.9477 22.6947 11.603 22.3477 11.9646C21.8777 12.473 22.012 12.5182 22.9633 12.1792C23.5341 11.9872 23.5452 11.9872 23.4333 12.2018C23.3661 12.3148 23.0192 12.7103 22.6499 13.0718C22.0231 13.6933 21.9896 13.7611 21.9896 14.2808C21.9896 15.083 21.6091 16.7552 21.2285 17.6704C20.5235 19.3878 19.0126 21.1617 17.5017 22.0543C15.3753 23.3085 12.5438 23.6248 10.16 22.8904C9.3654 22.6418 8 22.0091 8 21.8962C8 21.8622 8.41407 21.817 8.91773 21.8058C9.96973 21.7832 11.0217 21.4894 11.9171 20.9696L12.5215 20.6081L11.8275 20.3708C10.8427 20.0318 9.95853 19.2522 9.73473 18.5178C9.66753 18.2806 9.68993 18.2692 10.3167 18.2692L10.9658 18.258L10.4174 17.9981C9.76827 17.6704 9.17513 17.1168 8.88413 16.5518C8.67147 16.1451 8.40293 15.1169 8.48127 15.0378C8.5036 15.004 8.73867 15.0717 9.00727 15.1621C9.77947 15.4446 9.8802 15.3768 9.43253 14.9022C8.59313 14.0436 8.33573 12.7668 8.73867 11.5578L8.92893 11.0155L9.66753 11.7499C11.1785 13.23 12.9579 14.1114 14.9948 14.3712L15.5544 14.439Z" fill="white"/>
</svg>
