<svg width="36" height="36" viewBox="0 0 36 36" fill="none" xmlns="http://www.w3.org/2000/svg">
<rect x="0.5" y="0.5" width="35" height="35" rx="17.5" fill="white"/>
<rect x="0.5" y="0.5" width="35" height="35" rx="17.5" stroke="#0C4F89"/>
<g clip-path="url(#clip0_211_3128)">
<mask id="mask0_211_3128" style="mask-type:luminance" maskUnits="userSpaceOnUse" x="8" y="8" width="20" height="20">
<path d="M28 8H8V28H28V8Z" fill="white"/>
</mask>
<g mask="url(#mask0_211_3128)">
<path d="M25.501 14.5H21.501V13.8417M21.501 12.125V10.5" stroke="#0C4F89" stroke-width="1.5" stroke-linecap="round" stroke-linejoin="round"/>
<path d="M15.8253 13.0087C15.9753 13.217 16.0837 13.4087 16.1587 13.592C16.2337 13.767 16.2753 13.942 16.2753 14.1003C16.2753 14.3003 16.217 14.5003 16.1003 14.692C15.992 14.8837 15.8337 15.0837 15.6337 15.2837L15.0003 15.942C14.9087 16.0337 14.867 16.142 14.867 16.2753C14.867 16.342 14.8753 16.4003 14.892 16.467C14.917 16.5337 14.942 16.5837 14.9587 16.6337C15.1087 16.9087 15.367 17.267 15.7337 17.7003C16.1087 18.1337 16.5087 18.5753 16.942 19.017C17.392 19.4587 17.8253 19.867 18.267 20.242C18.7003 20.6087 19.0587 20.8587 19.342 21.0087C19.3837 21.0253 19.4337 21.0503 19.492 21.0753C19.5587 21.1003 19.6253 21.1087 19.7003 21.1087C19.842 21.1087 19.9503 21.0587 20.042 20.967L20.6753 20.342C20.8837 20.1337 21.0837 19.9753 21.2753 19.8753C21.467 19.7587 21.6587 19.7003 21.867 19.7003C22.0253 19.7003 22.192 19.7337 22.3753 19.8087C22.5587 19.8837 22.7503 19.992 22.9587 20.1337L25.717 22.092C25.9337 22.242 26.0837 22.417 26.1753 22.6253C26.2587 22.8337 26.3087 23.042 26.3087 23.2753C26.3087 23.5753 26.242 23.8837 26.1003 24.1837C25.9587 24.4837 25.7753 24.767 25.5337 25.0337C25.1253 25.4837 24.6753 25.8087 24.167 26.017C23.667 26.2253 23.1253 26.3337 22.542 26.3337C21.692 26.3337 20.7837 26.1337 19.8253 25.7253C18.867 25.317 17.9087 24.767 16.9587 24.0753C16.0003 23.3753 15.092 22.6003 14.2253 21.742C13.367 20.8753 12.592 19.967 11.9003 19.017C11.217 18.067 10.667 17.117 10.267 16.1753C9.86699 15.2253 9.66699 14.317 9.66699 13.4503C9.66699 12.8837 9.76699 12.342 9.96699 11.842C10.167 11.3337 10.4837 10.867 10.9253 10.4503C11.4587 9.92533 12.042 9.66699 12.6587 9.66699C12.892 9.66699 13.1253 9.71699 13.3337 9.81699C13.5503 9.91699 13.742 10.067 13.892 10.2837" stroke="#0C4F89" stroke-width="1.5" stroke-miterlimit="10" stroke-linecap="round" stroke-linejoin="round"/>
</g>
</g>
<defs>
<clipPath id="clip0_211_3128">
<rect width="20" height="20" fill="white" transform="translate(8 8)"/>
</clipPath>
</defs>
</svg>
