<svg width="43" height="32" viewBox="0 0 43 32" fill="none" xmlns="http://www.w3.org/2000/svg">
<path d="M19.9905 27.829V26.606H28.411L28.6024 25.3937H13.9946C14.0602 25.7943 14.1204 26.17 14.1896 26.5954H18.6205V27.8113H14.0832C13.4842 29.9239 12.2435 31.3259 10.1308 31.8434C8.87289 32.1455 7.5472 31.9607 6.41992 31.3258C5.29264 30.691 4.44723 29.6533 4.0534 28.4209C3.90807 27.9637 3.71665 27.7988 3.23102 27.8166C2.1676 27.8538 1.10418 27.8272 0 27.8272V24.1318L1.00139 24.0556V14.99H3.10341V12.6079H4.31748V14.912H13.0446V8.77958H10.5934V12.0088H6.87147V8.7335C6.06504 8.80617 5.16113 8.39852 4.695 9.10038C4.31749 9.66754 4.34053 10.4988 4.16329 11.2839H3.14595C3.14595 10.6104 3.0786 9.9458 3.1619 9.30066C3.29128 8.31877 4.25013 7.5407 5.26393 7.51943C6.16606 7.5017 7.06642 7.51943 8.03591 7.51943V5.05052H9.3191V7.45917H18.0445C18.0445 6.75022 18.0445 6.04127 18.0445 5.34296C18.0445 4.39297 18.0604 3.44298 18.0445 2.493C18.025 1.62454 17.6776 1.30019 16.8251 1.28956C16.4334 1.28956 16.0399 1.28956 15.5844 1.28956V4.55249H11.8305V1.13537C11.0206 1.30374 10.1362 1.23993 9.70371 1.65112C9.27125 2.06231 9.3581 2.92723 9.19681 3.66985H8.01996C8.08022 2.97862 8.06604 2.29272 8.21315 1.64403C8.43292 0.674549 9.32974 0.0364974 10.457 0.0240909C12.6228 -0.00249463 14.7886 -0.0131288 16.9545 0.0240909C18.4096 0.0506764 19.3011 1.0308 19.3064 2.5054C19.3064 4.13775 19.3064 5.77188 19.3064 7.51588H21.7611C23.3562 7.51588 24.2602 8.38966 24.285 9.9972C24.308 11.3885 24.285 12.7798 24.285 14.1729V14.9208H25.9279V12.5955H27.1686V14.9332H28.3951V7.13482H27.1952V11.2343H25.9723V5.85872C26.1938 5.84454 26.387 5.82327 26.5802 5.82327C29.6535 5.82327 32.725 5.83391 35.7965 5.81087C36.3282 5.81087 36.5249 5.94379 36.5781 6.48968C36.6472 7.19863 36.8457 7.90758 36.9999 8.67147L35.7947 8.89479C35.6831 8.37725 35.6051 7.90403 35.4721 7.44676C35.4296 7.30497 35.2364 7.10824 35.1088 7.10647C33.3223 7.0852 31.5357 7.09229 29.7031 7.09229V14.9137H36.9184C36.6206 13.3381 36.3282 11.7873 36.0322 10.1762L37.2268 9.89972C37.4466 11.0128 37.6592 12.085 37.8684 13.1573C37.8896 13.2654 37.9021 13.3751 37.9056 13.4852C37.9269 14.8127 38.5986 15.6528 39.8552 16.0215C41.1118 16.3901 41.4503 17.209 41.3599 18.4904C41.2306 20.3124 41.3263 22.1521 41.3263 24.0645L42.3472 24.1141V27.8201C41.3015 27.8201 40.2699 27.8378 39.2402 27.8113C38.8662 27.8006 38.6996 27.9318 38.5791 28.2774C37.762 30.6116 35.8337 32.0348 33.5828 31.9994C31.222 31.955 29.3468 30.4804 28.59 28.0736C28.5723 28.0133 28.544 27.953 28.4961 27.8343L19.9905 27.829ZM2.32357 21.1879V24.0893C2.84465 24.0893 3.32673 24.0662 3.80527 24.0893C4.01743 24.115 4.23257 24.0819 4.42727 23.9938C4.62196 23.9057 4.78874 23.7658 4.90945 23.5895C7.07351 20.8937 10.9816 20.9309 13.0925 23.6639C13.1872 23.8066 13.3183 23.9214 13.4722 23.9965C13.6261 24.0715 13.7973 24.1042 13.968 24.0911C17.7485 24.0769 21.5289 24.0822 25.3112 24.0804C25.5026 24.0804 25.6958 24.0592 25.912 24.0467V22.8486H23.3137V21.5832H25.9067V16.2909H2.32357V17.4784H5.75133V18.696C4.81906 18.696 3.93465 18.7438 3.05733 18.6818C2.37143 18.6322 2.19064 18.9087 2.28458 19.513C2.30585 19.6406 2.32357 19.7683 2.3537 19.9827H4.09594V21.195L2.32357 21.1879ZM40.1087 18.6162C40.0519 18.1944 40.1193 17.6255 39.9314 17.528C38.9938 17.0299 38.159 16.2306 37.0176 16.2271C33.9709 16.2147 30.9242 16.2271 27.8776 16.2271C27.6666 16.2271 27.4557 16.2554 27.236 16.2714V24.0893C27.6689 24.0687 28.1026 24.0722 28.5351 24.0999C29.0119 24.1531 29.2813 23.9546 29.5719 23.5948C31.7697 20.8884 35.66 20.9522 37.8064 23.7011C37.9304 23.8589 38.1183 24.0556 38.2902 24.0698C38.8556 24.1159 39.4245 24.0875 40.02 24.0875V22.4162C37.9499 22.1627 37.2162 21.6771 37.2516 20.5126C37.2836 20.0994 37.4228 19.7017 37.6557 19.3588C38.2051 18.517 39.1374 18.6428 40.1016 18.6162H40.1087ZM23.039 14.9386C23.039 13.1502 23.0514 11.4328 23.039 9.71539C23.039 9.15 22.6526 8.82921 22.1209 8.76008C21.5927 8.7287 21.0632 8.72515 20.5346 8.74945V12.0124H16.8127V8.77958H14.3597V14.9386H23.039ZM33.6502 30.7232C34.4236 30.7145 35.1773 30.4772 35.8163 30.0413C36.4553 29.6054 36.9511 28.9902 37.2414 28.2732C37.5317 27.5562 37.6035 26.7693 37.4478 26.0116C37.292 25.2539 36.9157 24.5592 36.3662 24.0148C35.8166 23.4704 35.1184 23.1006 34.3592 22.952C33.6001 22.8035 32.8139 22.8827 32.0997 23.1797C31.3855 23.4767 30.775 23.9784 30.3451 24.6214C29.9152 25.2645 29.685 26.0204 29.6836 26.7939C29.6925 27.8385 30.1134 28.8374 30.8549 29.5732C31.5964 30.309 32.5984 30.7224 33.6431 30.7232H33.6502ZM8.96463 30.7232C9.73792 30.7162 10.4919 30.4808 11.1318 30.0465C11.7716 29.6123 12.2688 28.9985 12.5609 28.2825C12.853 27.5664 12.9268 26.78 12.7732 26.0221C12.6196 25.2642 12.2454 24.5686 11.6976 24.0227C11.1498 23.4769 10.4529 23.1052 9.69439 22.9543C8.93593 22.8034 8.14979 22.8801 7.4348 23.1747C6.7198 23.4694 6.10785 23.9688 5.67587 24.6102C5.24389 25.2516 5.01116 26.0064 5.00694 26.7797C5.00529 27.2987 5.10641 27.8128 5.30445 28.2924C5.50249 28.7721 5.79354 29.2078 6.16081 29.5744C6.52808 29.941 6.9643 30.2313 7.44431 30.4285C7.92432 30.6256 8.43861 30.7258 8.95754 30.7232H8.96463ZM3.93111 25.4061H1.21939V26.5706H3.75033C3.81059 26.1594 3.86553 25.7978 3.9187 25.4008L3.93111 25.4061ZM41.1384 26.5706V25.3831H38.6713C38.7315 25.7925 38.7865 26.1718 38.8485 26.5706H41.1384ZM9.31201 8.76895H8.11744V10.7965H9.31201V8.76895ZM19.2621 10.8054V8.76717H18.1065V10.8054H19.2621ZM13.1137 1.31437V3.29588H14.2569V1.31437H13.1137ZM40.0254 19.7115C39.5393 19.8444 39.0626 20.0096 38.5986 20.206C38.5188 20.245 38.5437 20.7998 38.6394 20.8405C39.0909 21.0053 39.5542 21.1356 40.0254 21.2305V19.7115Z" fill="#8D8F95"/>
<path d="M20.8301 21.6309H21.9307V22.8325H20.8301V21.6309Z" fill="#8D8F95"/>
<path d="M8.24054 18.657H7.13281V17.4961H8.24054V18.657Z" fill="#8D8F95"/>
<path d="M28.4297 18.6374V17.4907H30.8171V18.6374H28.4297Z" fill="#8D8F95"/>
<path d="M31.3712 26.8081C31.3678 26.5109 31.4228 26.2159 31.5334 25.94C31.6439 25.664 31.8077 25.4126 32.0154 25.1999C32.2231 24.9873 32.4706 24.8176 32.7439 24.7007C33.0171 24.5837 33.3108 24.5217 33.608 24.5182C33.9052 24.5147 34.2002 24.5698 34.4761 24.6803C34.7521 24.7908 35.0035 24.9546 35.2162 25.1623C35.4288 25.37 35.5984 25.6176 35.7154 25.8908C35.8324 26.1641 35.8944 26.4577 35.8979 26.7549C35.9014 27.0522 35.8463 27.3472 35.7358 27.6231C35.6252 27.899 35.4615 28.1505 35.2538 28.3631C35.0461 28.5758 34.7985 28.7454 34.5253 28.8624C34.252 28.9794 33.9584 29.0414 33.6611 29.0448C33.3639 29.0483 33.0689 28.9933 32.793 28.8827C32.5171 28.7722 32.2656 28.6084 32.053 28.4007C31.8403 28.193 31.6707 27.9455 31.5537 27.6722C31.4367 27.399 31.3747 27.1053 31.3712 26.8081ZM34.6785 26.7709C34.6626 26.4989 34.5414 26.2437 34.3406 26.0596C34.1397 25.8755 33.875 25.7769 33.6026 25.7848C33.3303 25.7926 33.0717 25.9063 32.8818 26.1016C32.6918 26.297 32.5855 26.5587 32.5853 26.8312C32.6012 27.1032 32.7224 27.3583 32.9232 27.5424C33.1241 27.7265 33.3888 27.8251 33.6612 27.8173C33.9335 27.8094 34.1921 27.6958 34.382 27.5004C34.572 27.3051 34.6783 27.0434 34.6785 26.7709Z" fill="#8D8F95"/>
<path d="M6.6993 26.7955C6.70186 26.498 6.76299 26.204 6.87918 25.9301C6.99538 25.6563 7.16437 25.408 7.37652 25.1995C7.58866 24.991 7.8398 24.8263 8.11559 24.7148C8.39138 24.6034 8.68643 24.5473 8.98388 24.5499C9.28134 24.5524 9.57538 24.6136 9.84921 24.7298C10.123 24.846 10.3713 25.015 10.5798 25.2271C10.7884 25.4392 10.953 25.6904 11.0645 25.9662C11.176 26.242 11.232 26.537 11.2295 26.8345C11.2269 27.1319 11.1658 27.426 11.0496 27.6998C10.9334 27.9736 10.7644 28.2219 10.5523 28.4304C10.3401 28.6389 10.089 28.8036 9.81318 28.9151C9.53739 29.0266 9.24235 29.0826 8.94489 29.0801C8.64744 29.0775 8.3534 29.0164 8.07956 28.9002C7.80573 28.784 7.55747 28.615 7.34894 28.4028C7.14042 28.1907 6.97573 27.9396 6.86426 27.6638C6.7528 27.388 6.69674 27.0929 6.6993 26.7955ZM10.0083 26.8043C9.9972 26.5347 9.88227 26.2798 9.68754 26.0929C9.49282 25.906 9.23338 25.8017 8.9635 25.8017C8.69362 25.8017 8.43418 25.906 8.23946 26.0929C8.04474 26.2798 7.9298 26.5347 7.91869 26.8043C7.9298 27.074 8.04474 27.3289 8.23946 27.5158C8.43418 27.7026 8.69362 27.807 8.9635 27.807C9.23338 27.807 9.49282 27.7026 9.68754 27.5158C9.88227 27.3289 9.9972 27.074 10.0083 26.8043Z" fill="#8D8F95"/>
</svg>
