<svg width="1280" height="690" viewBox="0 0 1280 690" fill="none" xmlns="http://www.w3.org/2000/svg">
<path d="M1269.99 2.2273e-10C1285.77 2.2273e-10 1304.99 20.207 1304.99 20.207V79.207H1284V610H1304.99V669C1304.99 669 1285.77 689.207 1269.99 689.207C1254.2 689.207 1250.77 669 1234.99 669C1219.2 669 1215.77 689.207 1199.99 689.207C1184.2 689.207 1180.77 669 1164.99 669C1149.2 669 1145.77 689.207 1129.99 689.207C1114.21 689.207 1110.77 669 1094.99 669C1079.21 669 1075.77 689.207 1059.99 689.207C1044.21 689.207 1040.77 669 1024.99 669C1009.21 669 1005.77 689.207 989.989 689.207C974.207 689.207 970.772 669 954.989 669C939.207 669 935.773 689.207 919.99 689.207C904.208 689.207 900.773 669 884.99 669C869.208 669 865.773 689.207 849.991 689.207C834.209 689.207 830.774 669 814.991 669C799.209 669 795.774 689.207 779.991 689.207C764.209 689.207 760.774 669 744.992 669C729.21 669 725.775 689.207 709.992 689.207C694.21 689.207 690.775 669 674.992 669C659.21 669 655.776 689.207 639.993 689.207C624.211 689.207 620.776 669 604.993 669C589.211 669 585.776 689.207 569.994 689.207C554.211 689.207 550.777 669 534.994 669C519.211 669 515.777 689.207 499.994 689.207C484.212 689.207 480.777 669 464.995 669C449.212 669 445.778 689.207 429.995 689.207C414.213 689.207 410.778 669 394.996 669C379.213 669 375.779 689.207 359.996 689.207C344.213 689.207 340.779 669 324.996 669C309.214 669 305.779 689.207 289.997 689.207C274.214 689.207 270.78 669 254.997 669C239.215 669 235.78 689.207 219.998 689.207C204.215 689.207 200.781 669 184.998 669C169.215 669 165.781 689.207 149.998 689.207C134.216 689.207 130.781 669 114.999 669C99.2164 669 95.7817 689.207 79.999 689.207C64.2166 689.207 60.7823 669 45 669C29.2173 669 25.7827 689.207 10 689.207C-5.78281 689.207 -25 669 -25 669V610H-4V79.207H-25V20.207C-24.9999 20.207 -5.78279 -7.74657e-05 10 2.2273e-10C25.7827 7.74656e-05 29.2173 20.207 45 20.207C60.7823 20.2067 64.2166 0.000156309 79.999 2.2273e-10C95.7817 2.2273e-10 99.2164 20.207 114.999 20.207C130.781 20.2068 134.216 0.000312616 149.998 2.2273e-10C165.781 2.2273e-10 169.215 20.207 184.998 20.207C200.781 20.207 204.215 2.2273e-10 219.998 2.2273e-10C235.78 0.000364672 239.215 20.2069 254.997 20.207C270.78 20.207 274.214 2.2273e-10 289.997 2.2273e-10C305.779 0.000208385 309.214 20.2067 324.996 20.207C340.779 20.207 344.213 2.2273e-10 359.996 2.2273e-10C375.779 5.20972e-05 379.213 20.207 394.996 20.207C410.778 20.2066 414.213 0.000104207 429.995 2.2273e-10C445.778 2.2273e-10 449.212 20.207 464.995 20.207C480.777 20.2068 484.212 0.000266472 499.994 2.2273e-10C515.777 -5.95871e-06 519.211 20.207 534.994 20.207C550.777 20.207 554.211 2.2273e-10 569.994 2.2273e-10C585.776 0.000364673 589.211 20.2069 604.993 20.207C620.776 20.207 624.211 2.2273e-10 639.993 2.2273e-10C655.776 0.000156289 659.21 20.2067 674.992 20.207C690.775 20.207 694.21 5.21043e-05 709.992 2.2273e-10C725.775 2.2273e-10 729.21 20.207 744.992 20.207C760.774 20.2068 764.209 0.000260514 779.991 2.2273e-10C795.774 2.2273e-10 799.209 20.207 814.991 20.207C830.774 20.207 834.209 2.2273e-10 849.991 2.2273e-10C865.773 0.000364673 869.208 20.2069 884.99 20.207C900.773 20.207 904.208 2.2273e-10 919.99 2.2273e-10C935.773 0.000156289 939.207 20.2067 954.989 20.207C970.772 20.207 974.207 4.01865e-05 989.989 2.2273e-10C1005.77 1.19181e-05 1009.21 20.207 1024.99 20.207C1040.77 20.2067 1044.21 0.000208411 1059.99 2.2273e-10C1075.77 2.2273e-10 1079.21 20.207 1094.99 20.207C1110.77 20.2069 1114.21 2.2273e-10 1129.99 2.2273e-10C1145.77 0.000416767 1149.2 20.2069 1164.99 20.207C1180.77 20.207 1184.2 2.2273e-10 1199.99 2.2273e-10C1215.77 0.000208384 1219.2 20.2067 1234.99 20.207C1250.77 20.207 1254.2 2.2273e-10 1269.99 2.2273e-10Z" fill="#E9F6FC"/>
</svg>
