<svg width="28" height="28" viewBox="0 0 28 28" fill="none" xmlns="http://www.w3.org/2000/svg">
<path d="M27.3063 13.0946C26.853 5.36128 19.8263 -0.598703 11.733 0.73463C6.15973 1.65463 1.69307 6.1746 0.826406 11.7479C0.31974 14.9746 0.986433 18.0279 2.43977 20.5479L1.25309 24.9612C0.986419 25.9612 1.90639 26.8679 2.89306 26.5879L7.23974 25.3879C9.21307 26.5479 11.5197 27.2146 13.9863 27.2146C21.5063 27.2146 27.7463 20.5879 27.3063 13.0946ZM20.5065 18.8412C20.3865 19.0812 20.2397 19.3079 20.053 19.5212C19.7197 19.8812 19.3597 20.1479 18.9597 20.3079C18.5597 20.4812 18.1197 20.5612 17.653 20.5612C16.973 20.5612 16.2397 20.4014 15.4797 20.068C14.7063 19.7347 13.9465 19.2946 13.1865 18.7479C12.4131 18.1879 11.6931 17.5612 10.9997 16.8812C10.3064 16.1879 9.69305 15.4546 9.13305 14.6946C8.58638 13.9346 8.14641 13.1746 7.82641 12.4146C7.50641 11.6546 7.34642 10.9213 7.34642 10.228C7.34642 9.77462 7.42642 9.33462 7.58642 8.93462C7.74642 8.52128 7.99977 8.14796 8.35977 7.81463C8.78643 7.38796 9.25307 7.18796 9.74641 7.18796C9.93307 7.18796 10.1197 7.22795 10.293 7.30795C10.4664 7.38795 10.6264 7.50795 10.7464 7.68128L12.293 9.86794C12.413 10.0413 12.5063 10.1879 12.5597 10.3346C12.6263 10.4813 12.653 10.6146 12.653 10.7479C12.653 10.9079 12.5998 11.068 12.5065 11.2279C12.4131 11.3879 12.293 11.5479 12.133 11.7079L11.6263 12.2412C11.5463 12.3212 11.5198 12.4012 11.5198 12.5079C11.5198 12.5612 11.533 12.6146 11.5463 12.6679C11.573 12.7212 11.5865 12.7612 11.5998 12.8012C11.7198 13.0279 11.933 13.3079 12.2263 13.6546C12.533 14.0012 12.8531 14.3612 13.1998 14.7079C13.5598 15.0679 13.9065 15.3879 14.2665 15.6946C14.6131 15.9879 14.9063 16.1879 15.133 16.3079C15.173 16.3212 15.2131 16.3479 15.2531 16.3612C15.3065 16.3879 15.3598 16.3879 15.4265 16.3879C15.5465 16.3879 15.6265 16.3479 15.7065 16.2679L16.213 15.7612C16.3863 15.5879 16.5465 15.4679 16.6931 15.3879C16.8531 15.2946 16.9998 15.2412 17.1731 15.2412C17.3065 15.2412 17.4398 15.2679 17.5865 15.3346C17.7331 15.4012 17.893 15.4812 18.053 15.6012L20.2665 17.1746C20.4398 17.2946 20.5597 17.4412 20.6397 17.6012C20.7063 17.7746 20.7465 17.9346 20.7465 18.1212C20.6665 18.3479 20.6131 18.6012 20.5065 18.8412Z" fill="white"/>
</svg>
